<svg id="Layer_1" data-name="Layer 1" xmlns="http://www.w3.org/2000/svg" xmlns:xlink="http://www.w3.org/1999/xlink" viewBox="0 0 815.7 360"><defs><style>.cls-1{opacity:0.17;}.cls-2{fill:url(#linear-gradient);}.cls-3{fill:url(#linear-gradient-2);}.cls-4{fill:url(#linear-gradient-3);}.cls-5{fill:url(#radial-gradient);}.cls-6{opacity:0.11;}.cls-7{fill:#0b1c14;}.cls-8{opacity:0.49;}.cls-9{fill:none;}.cls-10{fill:url(#radial-gradient-2);}.cls-11{fill:url(#linear-gradient-4);}.cls-12{fill:#020202;}.cls-13{fill:url(#linear-gradient-5);}.cls-14{fill:url(#linear-gradient-6);}.cls-15{fill:url(#linear-gradient-7);}.cls-16{fill:url(#linear-gradient-8);}.cls-17{fill:url(#linear-gradient-9);}.cls-18{fill:url(#linear-gradient-10);}.cls-19{fill:url(#linear-gradient-11);}.cls-20{fill:url(#linear-gradient-12);}.cls-21{fill:url(#radial-gradient-3);}.cls-22{fill:url(#radial-gradient-4);}.cls-23{fill:url(#radial-gradient-5);}.cls-24{fill:url(#radial-gradient-6);}.cls-25{opacity:0.31;}.cls-26{fill:url(#linear-gradient-13);}.cls-27{fill:url(#linear-gradient-14);}.cls-28{fill:url(#linear-gradient-15);}.cls-29{fill:url(#linear-gradient-16);}.cls-30{fill:url(#radial-gradient-7);}.cls-31{fill:url(#linear-gradient-17);}.cls-32{fill:url(#linear-gradient-18);}.cls-33{fill:url(#linear-gradient-19);}.cls-34{fill:url(#linear-gradient-20);}.cls-35{fill:url(#radial-gradient-8);}</style><linearGradient id="linear-gradient" x1="-133.78" y1="283.7" x2="330.7" y2="283.7" gradientTransform="translate(0 2)" gradientUnits="userSpaceOnUse"><stop offset="0" stop-color="#d45da4" stop-opacity="0.2"/><stop offset="0.32" stop-color="#b36a96" stop-opacity="0.16"/><stop offset="0.86" stop-color="#3a4d46" stop-opacity="0.04"/><stop offset="0.99" stop-color="#456466" stop-opacity="0"/></linearGradient><linearGradient id="linear-gradient-2" x1="-87.29" y1="238.11" x2="699.62" y2="238.11" xlink:href="#linear-gradient"/><linearGradient id="linear-gradient-3" x1="-140.13" y1="79.59" x2="930.15" y2="79.59" xlink:href="#linear-gradient"/><radialGradient id="radial-gradient" cx="419.5" cy="182.17" r="339.45" gradientTransform="translate(-70.45 2) scale(1.15 1)" gradientUnits="userSpaceOnUse"><stop offset="0" stop-color="#738c80"/><stop offset="0.06" stop-color="#60786e"/><stop offset="0.17" stop-color="#54706c"/><stop offset="0.28" stop-color="#456466"/><stop offset="0.84" stop-color="#0b1c14"/><stop offset="1" stop-color="#0b241b"/></radialGradient><radialGradient id="radial-gradient-2" cx="394.71" cy="308.16" fx="324.14654872908716" fy="34.89567538707314" r="282.23" gradientTransform="translate(-65.5 1.61) scale(1.13 0.87)" gradientUnits="userSpaceOnUse"><stop offset="0" stop-color="#738c80"/><stop offset="0.06" stop-color="#60786e"/><stop offset="0.17" stop-color="#54706c"/><stop offset="0.28" stop-color="#456466"/><stop offset="0.84" stop-color="#0b1c14"/><stop offset="0.99" stop-color="#0b241b"/></radialGradient><linearGradient id="linear-gradient-4" x1="482.07" y1="118.73" x2="608.62" y2="366.65" gradientTransform="translate(0 2)" gradientUnits="userSpaceOnUse"><stop offset="0" stop-color="#456466"/><stop offset="0.84" stop-color="#0b1c14"/><stop offset="0.99" stop-color="#0b241b"/></linearGradient><linearGradient id="linear-gradient-5" x1="-121.72" y1="114.74" x2="-15.84" y2="322.15" gradientTransform="matrix(-0.83, -0.56, -0.56, 0.83, 291.83, 87.76)" gradientUnits="userSpaceOnUse"><stop offset="0" stop-color="#456466"/><stop offset="0.84" stop-color="#0b1c14"/></linearGradient><linearGradient id="linear-gradient-6" x1="318.83" y1="-595.58" x2="163.15" y2="-326.24" gradientTransform="matrix(-0.02, 1, -0.82, -0.02, -186.7, -180.65)" xlink:href="#linear-gradient-5"/><linearGradient id="linear-gradient-7" x1="552.07" y1="-593.6" x2="350.74" y2="-245.27" gradientTransform="matrix(-0.02, 1, -0.82, -0.02, -186.7, -180.65)" xlink:href="#linear-gradient-5"/><linearGradient id="linear-gradient-8" x1="677.27" y1="-405.26" x2="480.22" y2="-64.36" gradientTransform="matrix(0.81, 0.59, -0.48, 0.66, -377.47, 135.88)" xlink:href="#linear-gradient-5"/><linearGradient id="linear-gradient-9" x1="293.84" y1="-3.89" x2="318.95" y2="102.34" gradientTransform="matrix(-0.75, 0.53, 0.57, 0.82, 883.54, 97.01)" gradientUnits="userSpaceOnUse"><stop offset="0" stop-color="#738c80"/><stop offset="0.06" stop-color="#60786e"/><stop offset="0.17" stop-color="#54706c"/><stop offset="0.28" stop-color="#456466"/><stop offset="0.84" stop-color="#0b1c14"/></linearGradient><linearGradient id="linear-gradient-10" x1="-273.2" y1="139.86" x2="-138.52" y2="264.56" gradientTransform="matrix(-0.93, -0.21, -0.18, 0.79, -6.4, 107.24)" xlink:href="#linear-gradient-9"/><linearGradient id="linear-gradient-11" x1="381.36" y1="182.77" x2="423.79" y2="277.76" gradientTransform="matrix(0.78, 0.62, -0.62, 0.78, 139.81, -94.43)" gradientUnits="userSpaceOnUse"><stop offset="0.28" stop-color="#456466"/><stop offset="0.43" stop-color="#3d6356"/><stop offset="0.7" stop-color="#255242"/><stop offset="0.84" stop-color="#0b1c14"/></linearGradient><linearGradient id="linear-gradient-12" x1="-80.37" y1="634.28" x2="39.12" y2="634.28" gradientTransform="matrix(-0.36, 0.02, 0.02, 0.35, 372.66, 97)" xlink:href="#linear-gradient-9"/><radialGradient id="radial-gradient-3" cx="661.12" cy="24.72" r="134.97" gradientTransform="translate(-65.5 2) scale(1.13 1)" xlink:href="#linear-gradient-9"/><radialGradient id="radial-gradient-4" cx="268.31" cy="26.42" r="233.96" gradientTransform="translate(-65.5 2) scale(1.13 1)" xlink:href="#linear-gradient-9"/><radialGradient id="radial-gradient-5" cx="829.88" cy="-81.49" r="107.5" gradientTransform="translate(-65.5 174.2) scale(1.13 1.84)" xlink:href="#linear-gradient-9"/><radialGradient id="radial-gradient-6" cx="587.25" cy="-92.25" r="151.59" gradientTransform="translate(-65.5 174.2) scale(1.13 1.84)" xlink:href="#linear-gradient-9"/><linearGradient id="linear-gradient-13" x1="-100.85" y1="140.6" x2="259.92" y2="140.6" gradientTransform="translate(0 2)" gradientUnits="userSpaceOnUse"><stop offset="0" stop-color="#eedee9" stop-opacity="0.2"/><stop offset="0.28" stop-color="#e1afbf" stop-opacity="0.16"/><stop offset="0.75" stop-color="#4b5c55" stop-opacity="0.06"/><stop offset="0.99" stop-color="#456466" stop-opacity="0"/></linearGradient><linearGradient id="linear-gradient-14" x1="-73.96" y1="92.55" x2="476.51" y2="92.55" xlink:href="#linear-gradient-13"/><linearGradient id="linear-gradient-15" x1="-110.98" y1="-13.66" x2="583.62" y2="-13.66" xlink:href="#linear-gradient-13"/><linearGradient id="linear-gradient-16" x1="225.85" y1="280.93" x2="264.17" y2="355.98" xlink:href="#linear-gradient-4"/><radialGradient id="radial-gradient-7" cx="400.68" cy="359.12" r="137.99" gradientTransform="matrix(1.12, -0.15, 0.14, 0.74, -82.19, 60.23)" gradientUnits="userSpaceOnUse"><stop offset="0" stop-color="#738c80"/><stop offset="0.06" stop-color="#60786e"/><stop offset="0.17" stop-color="#54706c"/><stop offset="0.28" stop-color="#456466"/><stop offset="0.84" stop-color="#0b1c14"/><stop offset="1" stop-color="#0c211d"/></radialGradient><linearGradient id="linear-gradient-17" x1="-3275.11" y1="94.32" x2="-3095.88" y2="445.44" gradientTransform="matrix(-0.1, 0, 0, 1, 23.83, 2)" xlink:href="#linear-gradient-4"/><linearGradient id="linear-gradient-18" x1="4168.4" y1="2816.24" x2="4539.88" y2="3543.97" gradientTransform="matrix(0.09, -0.56, 0.06, 0.83, -6.74, 87.76)" xlink:href="#linear-gradient-5"/><linearGradient id="linear-gradient-19" x1="-3535.39" y1="2869.02" x2="-4404.96" y2="4373.39" gradientTransform="matrix(-0.08, 0.59, 0.05, 0.66, 63.37, 135.88)" xlink:href="#linear-gradient-5"/><linearGradient id="linear-gradient-20" x1="-5005.21" y1="228.58" x2="-4913.79" y2="407.64" gradientTransform="matrix(-0.1, 0, 0, 1, 23.83, 2)" xlink:href="#linear-gradient-4"/><radialGradient id="radial-gradient-8" cx="388.34" cy="401.58" r="94.66" gradientTransform="matrix(-1.01, -0.15, -0.12, 0.74, 879.53, 60.23)" xlink:href="#radial-gradient-7"/></defs><g class="cls-1"><path class="cls-2" d="M-172.9-5.7Q-73.45,110.7,19,231.4T196.7,477q47.85,70.05,93.4,141.4c5.6,8.9,16.6,16.1,27.6,18.8s25.8,1.5,35.6-4.1c21.2-12.2,29.3-36.1,16.6-56Q288.75,450.05,200.3,327T16.2,85Q-37.35,18.25-93.2-47c-7.6-8.9-15-15.8-27.6-18.8-11-2.7-25.8-1.5-35.6,4.1s-18.5,14-21.2,24.5c-2.5,10-2.6,23,4.7,31.5Z"/><path class="cls-3" d="M-110.1-4.3Q3.75,67,114.8,141.6q31.35,21.15,62.5,42.4l-9.3-6.4q100.5,69,198.6,140.7,97.65,71.4,192.8,145.5,54,42,107,84.9a51.89,51.89,0,0,0,32.7,12c11.3,0,24.8-4.5,32.7-12,8.1-7.8,14.1-18.1,13.5-29-.5-10.6-4.4-21.6-13.5-29q-146.4-118-299-229.7Q277.1,147.15,115.5,40.2,27-18.45-63.4-75c-9.3-5.8-25-6.7-35.6-4.1s-22.3,10-27.6,18.8c-5.6,9.5-8.5,21-4.7,31.6s11,18,21.2,24.4Z"/><path class="cls-4" d="M-140.1-35.2a221.09,221.09,0,0,1,27,1.6l-12.3-1.5C-90.4-30.6-57-19.2-23.7-8.9Q27.75,7.15,78.8,23.5,180.2,55.9,281.1,89.1C415.8,133,550.6,176.7,686.9,216.5c76.4,22.3,153.2,43.3,230.7,62.5a53.23,53.23,0,0,0,35.6-4.1c9.6-5,18.7-14.7,21.2-24.5,5.6-21.7-7.3-44.2-32.2-50.4-71.2-17.5-141.9-36.7-212.1-57-69.9-20.2-139.4-41.5-208.8-63.4q-104.4-33-208.4-67.2Q209-21.65,104.4-55.2,52.2-71.85-.1-88.2C-17.3-93.5-34.4-99-51.7-103.8a397.26,397.26,0,0,0-62.4-11.9,225.35,225.35,0,0,0-26-1.5,50.78,50.78,0,0,0-32.7,12c-8,7.1-14,18.8-13.5,29,1.2,22.1,20.3,41.1,46.2,41Z"/></g><rect class="cls-5" x="-1.1" width="819.4" height="361"/><g class="cls-6"><path class="cls-7" d="M235.9-55.1c-6.4,24.8-8,50.6-10.1,75.9-2.1,24.9-3.6,49.8-4.9,74.7-2.6,50.1-4.3,100.3-8.1,150.4-2.1,28.1-4.8,56.2-8.7,84.2-.9,6.7,7.1,12.5,14.1,12.5,8.4,0,13.2-5.8,14.1-12.5,13.4-98.4,13.1-197.7,20.6-296.5,2.1-27.3,3.2-55.3,10.1-82,1.7-6.6-2.3-13.5-9.8-15.4-7.1-1.7-15.6,2.1-17.3,8.7Z"/></g><g class="cls-6"><path class="cls-7" d="M535.8-72.7l35.6,273.1,10.1,77.2c1.1,8.8,8,17.4,19.2,17,9.4-.4,20.4-7.5,19.2-17L584.2,4.6,574.1-72.6c-1.1-8.8-8-17.4-19.2-17-9.3.3-20.3,7.5-19.1,16.9Z"/></g><g class="cls-6"><path class="cls-7" d="M354.4-71.7Q351.7,6.9,344,85.3c-2.5,25.5-5.3,50.9-8.6,76.3-3.4,26.1-6.9,50.8-10.8,75.4q-7.05,43.8-15.6,87.4c-1.7,8.7,2.6,18.7,13.4,20.9,9.3,1.9,21.7-2.5,23.6-11.9A2587.45,2587.45,0,0,0,388.1,16.6q3.15-44.1,4.6-88.4c.3-8.9-9-17.4-19.2-17C362.9-88.3,354.8-81.2,354.4-71.7Z"/></g><g class="cls-6"><path class="cls-7" d="M305.8-56.2A2387.47,2387.47,0,0,1,291,247.3c-3.3,28.8-7,57.6-11.3,86.3-.6,3.8,4,7,7.9,7,4.7,0,7.3-3.3,7.9-7A2384.87,2384.87,0,0,0,321.3,30.7c.6-28.9.7-57.9.3-86.8C321.4-65.2,305.7-65.2,305.8-56.2Z"/></g><g class="cls-6"><path class="cls-7" d="M282.8-51.5Q280.85,96.7,271,244.8q-2.85,41.7-6.2,83.4c-.7,9,15,8.9,15.8,0q12.15-147.9,16.3-296.1c.8-27.9,1.3-55.7,1.7-83.6.1-9.1-15.7-9.1-15.8,0Z"/></g><g class="cls-6"><path class="cls-7" d="M529.7-58.9q0,168.3.6,336.4.15,47.7.3,95.6c.1,14.8,26,14.8,25.9,0q-.6-168.3-.9-336.4c0-31.8-.1-63.7-.1-95.6.1-14.8-25.8-14.8-25.8,0Z"/></g><g class="cls-6"><path class="cls-7" d="M463.1-67.5q-11.7,170.4-32.3,340.3c-4,32.2-8.2,64.5-12.6,96.6-.9,6.2,6.6,11.5,13,11.5,7.7,0,12.1-5.3,13-11.5q23.55-169.5,37.6-339.9c2.7-32.3,5.1-64.7,7.3-97,.4-6.2-6.3-11.5-13-11.5-7.5,0-12.6,5.3-13,11.5Z"/></g><g class="cls-6"><path class="cls-7" d="M496.3-49.6q12,154.05,9.8,308.5-.6,43.8-2.4,87.6c-.2,5.8,9.9,5.8,10.1,0q6.3-154.35-1.7-308.6c-1.5-29.2-3.4-58.3-5.7-87.5-.4-5.8-10.5-5.8-10.1,0Z"/></g><g class="cls-6"><path class="cls-7" d="M412-50.9q-3.6,184,3.6,368,2.1,51.6,4.9,103.1c.4,6.5,11.8,6.5,11.4,0q-10.35-183.6-9.7-367.6.15-51.75,1.2-103.5c.1-6.5-11.3-6.5-11.4,0Z"/></g><g class="cls-6"><path class="cls-7" d="M379-52.2a2132.56,2132.56,0,0,0-47.1,364q-2.1,51.75-1.8,103.7c0,7.9,13.8,7.9,13.8,0A2109.09,2109.09,0,0,1,372.6,53q8.55-51.15,19.7-102c1.6-7.7-11.6-11-13.3-3.2Z"/></g><g class="cls-8"><path class="cls-7" d="M112.2-72.6q7.5,197.25.5,394.6-2.1,55.8-5.2,111.5c-.6,11.3,11.6,22,24.2,21.5,13.7-.5,23.5-9.5,24.2-21.5q11.25-197.1,7.9-394.6c-.6-37.2-1.7-74.4-3.1-111.6-.4-11.2-10.8-22-24.2-21.5-12.8.6-24.7,9.5-24.3,21.6Z"/></g><g class="cls-8"><path class="cls-7" d="M598.1-67.2c-6.4,60.4-1.2,121,2.4,181.4,1.8,30.2,3.2,60.5,2.7,90.8s-2.5,60.5-5.4,90.6c-3.2,34.1-7.4,68.1-11.7,102.1-1.4,11.2,12.1,22,24.2,21.5,14.3-.6,22.7-9.5,24.2-21.5,7.5-60.1,15-120.4,16.8-180.9s-4.5-121.1-7-181.6C643,1,643-33.2,646.6-67.2c1.2-11.2-12-22-24.2-21.5C608.2-88.2,599.4-79.3,598.1-67.2Z"/></g><g class="cls-8"><path class="cls-7" d="M617.6-98.5c.8,4.9,1.5,9.7,2.3,14.6a25,25,0,0,0,.5,2.9c.7,4.8,0-.3-.2-1.1.4,2.6.8,5.2,1.1,7.8,1.4,9.7,2.8,19.4,4,29.2q3.9,29.7,6.9,59.5,5.85,58.5,8.1,117.4a1958.56,1958.56,0,0,1-5,236.1q-2.7,33.3-6.6,66.4c-1.3,10.7-2.6,21.4-4,32.1-.8,5.5-1.5,11-2.3,16.5-.4,2.6-.8,5.2-1.1,7.8l-.6,3.9c-.2,1.6-1.1,7.7-.1.9-1.1,7.3-1.4,13.4,3,20,3.6,5.4,10.5,10.5,17.5,11.9,7.5,1.5,15.9,1.2,22.5-2.6,5.9-3.4,12.5-9,13.5-15.5a2024.23,2024.23,0,0,0,22.5-243.2,1946.41,1946.41,0,0,0-7.6-239c-4.3-46.6-10.5-93-18-139.3-1-6-7.9-12.6-13.5-15.5-6.3-3.3-15.5-4.6-22.5-2.6s-13.9,5.9-17.5,12c-3.9,6.4-4.2,12.5-2.9,19.8Z"/></g><g class="cls-8"><path class="cls-7" d="M688.6-109.4c-.3,20.9,4.6,41.6,9,62,4.2,19.3,8.4,38.5,12.3,57.9s7.6,38.7,10.9,58.1c.8,4.8,1.6,9.7,2.4,14.6.4,2.3.7,4.5,1.1,6.8.2,1.5.6,5.4-.2-1.5l.6,3.9c1.4,9.7,2.7,19.5,3.9,29.2a962.74,962.74,0,0,1,6.9,117.6c-.1,39.4-2,78.7-2.9,118.1-1,44.5-.7,89.1,4.9,133.4.9,7.5,2.8,13.9,9.1,19.4,5.4,4.8,14.2,8.4,21.9,8.1,15.2-.6,32.9-12.2,31-27.5-9.9-78.3-3.2-157.2-2.1-235.7a984.27,984.27,0,0,0-5-117.7c-4.3-40.8-11-81.5-18.8-122-4.2-21.9-8.8-43.8-13.5-65.7-2.3-10.4-4.7-20.8-6.8-31.3-.5-2.7-.7-5.8-1.5-8.4,0,0,.8,5.8.4,2.6-.2-1.6-.4-3.1-.6-4.7a159.93,159.93,0,0,1-.9-17c.2-14.4-14.4-28.2-31-27.5-17,.4-30.9,11.8-31.1,27.3Z"/></g><g class="cls-8"><path class="cls-7" d="M17.8-110.9q-2,112.5-8.7,225T-9.5,338.6q-6.6,63.15-14.9,126.3c-.9,6.9,4.3,15.8,9.6,20.5,5.6,5,15,8.8,23.1,8.5,8.4-.3,17.2-2.8,23.1-8.5,6.2-6,8.5-12.4,9.6-20.5Q55.55,353,65.2,240.8T79.5,16q2.7-63.45,3.7-126.9c.3-15.2-15.2-29.7-32.7-29C32.6-139.2,18.1-127.2,17.8-110.9Z"/></g><path class="cls-9" d="M-12.2,339.9c-13.9-2.9-31.3-2.4-15-16.2,12.9-10.9,32-17.7,47.3-25.7q27.75-14.25,55.3-28.7c6.9-3.6,44.5-28.7,50.8-26.5,33.1,11.6,67,21.6,101.3,30.1l-78.7,2.6a134.75,134.75,0,0,0,38.9,29.2,227.28,227.28,0,0,1-42.8-4,141.13,141.13,0,0,0,24.7,19.8c-38.6,1.6-77.4,1.5-116-.2-11.5-.5-23.2-1.2-34.5,1S-3.4,328.8-9,337.7l9.1.7"/><path class="cls-10" d="M657.6,258.9,664,263a207.91,207.91,0,0,0-34.8-20.5c-12.9-6-28.7-11-42.6-6.6-9.7,3.1-16.3,10.1-21.8,17s-11,14.2-19.8,18.7-22,4.9-28.6-1.4L496,289.6c-4.8-3.6-12.9-.9-17.7,2.8s-9,8.5-15.6,9.2c-10.7,1.2-21.2-9-30.6-4.9-4.4,1.9-6.1,6.2-10,8.6-8.5,5.2-20.3-.6-30.8-2.9-12.1-2.6-26,.4-34.6,7.6-27-7-55.3-11.4-83.8-10.6-8.7.2-18,.8-25.5-2.5s-11.1-12.7-4.2-16.8a141.88,141.88,0,0,1-60.5-1.9c-10.6-2.8-20.8-6.8-31.9-7.6-14.6-1-31.8,3.2-42.5-4.6-2.6-1.9-4.5-4.4-7.7-5.5-9.2-3.5-22,6-29.5.6-2.3-1.6-3-4-4-6.3-6.9-16.3-30.2-27.5-52.2-25-6.4.7-12.9,2.4-19.2,1.1-9-2-13.8-9.2-20.4-13.7a66.94,66.94,0,0,0-28.1-10.9c-16.3-2.2-28.8,3.6-37.3,14.2-23.2,29-20.4,71.2-1.1,100.7,6.1,9.3,14.6,18.4,27,22.5,17,5.5,36.5.3,54.8,1.9,29.1,2.6,50.8,21.5,77.2,31.3,24.2,9,51.9,10,78.6,12.6,57.4,5.6,113.2,19.1,170.5,24.6,78.4,7.5,157.8,0,236.7,3.1,58.1,2.3,116.7,10.2,174,2.6,49.3-6.5,95-24.3,143.5-34a430.49,430.49,0,0,1,53.2-7.2A320.23,320.23,0,0,1,891.5,246c-.2-8.3-.2-16.9-5.1-24.3s-16.7-12.7-26.5-9.3c-5.6,1.9-9.3,6.1-14.5,8.6-13.4,6.4-30.4-.5-46-2.3-27.3-3.1-52.8,10.3-74.6,23.5-19.4,11.7-40,24.3-64.5,26"/><path class="cls-11" d="M535.9,439.2a42.29,42.29,0,0,0-8.7,16.3c-3.7-57.9,10.7-115.4,25-172,8.3-32.7,16.6-65.4,31-96.4,10.7-23,24.8-45.7,25.6-70.6,4.1,33.7,6.7,70.3-14.1,98.8l5.7-4.5a240.44,240.44,0,0,0-43.5,62.3c21.4-22.4,44.4-45.6,75.7-55.3-22.3,17.1-27.7,45.9-45.8,66.6-12.2,13.9-29.5,23.4-43.7,35.6a256.06,256.06,0,0,0,75.2-36.5c.6,18.4-17.1,33.1-35,42.5s-38.2,17-49.7,32.3a553.38,553.38,0,0,1,68.5-23.6c5.2-1.4,13.4-.9,13.1,3.9-.1,2-2,3.6-3.8,4.9-12,8.6-26.4,14.1-39.3,21.5-25.9,15-45.3,37.4-55.1,63.5L478.6,365c-5-8.3-10.1-16.7-12.1-25.9-3.4-15.8,2.7-32,8.7-47.2,1.8,13.9,8.6,26.9,19.4,37.2,6.8,6.4,15.1,11.6,21.6,18.3s11.2,15.7,8.9,24.3A198.45,198.45,0,0,0,505,319.2c-7.1-12.9-15.9-25.6-18-39.9-3-19.3,6.6-38.3,15.9-56a97.9,97.9,0,0,0,8.8,56.5c5,10.5,12,20.3,16.1,31.1s5.3,23.3-1.1,33.2c12.8-17.9,11.3-41,5.3-61.5s-16-40.1-19.2-61.1c-3.5-23.5,1.9-47.4,15.2-67.9-10.5,42.9,11.3,86,23.8,128.4,2,6.7,2.5,15.7-4.5,18.6,2.4-26.5,4.8-53.7-2.7-79.5-3-10.2-7.5-20.1-8.7-30.6-3-27.6,17.7-52.3,25.9-79,4.5,37.9,9.1,76.6-.4,113.9-2.5,9.9-6,19.6-9.5,29.3"/><path class="cls-12" d="M920.4,414.4a40.47,40.47,0,0,0,3.2,17.8c-40-45.9-64.8-100.5-89.1-154.3-14-31.1-28.1-62.3-36.1-95-5.9-24.3-8.7-50.2-23.9-71.1,24.9,25.7,50.4,54.6,51.4,88.5l1.8-6.6a214.7,214.7,0,0,0,3.9,73.2c3.4-29.2,7.5-60,27.1-83.6-7.4,25.3,6.5,51.8,4.7,77.9-1.2,17.6-9.4,34.1-13.3,51.4a210.62,210.62,0,0,0,38.7-67.9c12.2,14.9,7,35.9-1.7,52.6s-20.6,33.2-20.3,51.6A443.65,443.65,0,0,1,908.2,295c3.4-3.8,10.5-7.5,13.3-3.3,1.2,1.7.7,4,0,5.9-4.4,13.1-12.7,24.9-18.6,37.5a108.68,108.68,0,0,0-4.9,80l-72.3-32.8c-9.4-4.3-19-8.6-26.5-15.3-12.9-11.3-18.2-27.7-22.9-43.2A75.79,75.79,0,0,0,816,344.7c9.7,1.9,19.8,2,29.5,4.2s19.2,7.3,22.8,15.5a244.89,244.89,0,0,0-50.1-33.2c-14.1-7.1-29.4-13.1-40.3-23.8-14.8-14.5-19-34.8-22.6-54.1a115.28,115.28,0,0,0,43.3,42.1c10.9,6.1,22.8,10.7,33.1,17.5s19.2,16.5,20.3,27.9c-.9-21.1-16.9-39.5-34.9-53.3s-38.8-25-54.8-40.7c-17.9-17.6-28.7-40-30.8-63.6,18.7,40.6,64.2,65.2,101.6,93.9,5.9,4.5,12.1,11.7,8.1,17.6-14.9-23.1-30.3-46.7-53-64.1-9-6.9-19.1-12.8-26.7-20.9-20-21.2-18.7-52-29-78.1,28,29,56.4,58.6,72.4,94,4.2,9.4,7.6,19.2,10.9,28.9"/><path class="cls-13" d="M135.9,434.2a34.41,34.41,0,0,1-3.4,13.2c30.4-35.9,50.9-77.4,71.1-118.3,11.6-23.6,23.3-47.3,30.8-71.7,5.6-18.2,9.2-37.3,21-53.5-18.7,20.3-38.1,42.9-41,67.8l-.8-4.7a176.32,176.32,0,0,1-7.4,53.9c-.5-21.2-1.3-43.5-13.2-59.7,3.4,18.1-7.8,38.3-8.3,57.4-.3,12.8,4.3,24.5,5.8,36.9a126.93,126.93,0,0,1-22.1-47.6c-9.3,11.6-7.1,26.7-2.2,38.4s12,23.2,10.6,36.7a253.12,253.12,0,0,0-24.9-37.1c-2.1-2.6-6.6-4.9-8.9-1.7a5.39,5.39,0,0,0-.4,4.3c2.2,9.4,7.1,17.5,10.4,26.4,6.4,17.8,5.8,38.7-1.8,58.4l51.6-28.2c6.8-3.7,13.6-7.4,19.2-12.7,9.6-9.1,14.2-21.3,18.5-33A64.59,64.59,0,0,1,212,377c-6.8,1.9-13.7,2.6-20.5,4.8s-13.7,6.5-16.6,12.7a210,210,0,0,1,36.5-27.2c10.1-6,21-11.3,29.2-19.8,11.1-11.5,15.3-26.6,19-41a106.3,106.3,0,0,1-32.4,33.4c-7.9,5.1-16.3,9.2-23.9,14.8s-14.3,13.2-15.7,21.6c2-15.5,14.1-29.9,27.4-41.1s28.2-20.5,40.2-33a93.48,93.48,0,0,0,25.2-48.4c-15.4,30.9-48.2,51.5-75.7,74.7-4.3,3.7-9.1,9.3-6.7,13.4,11.7-17.8,23.8-36,40.4-50,6.6-5.6,13.9-10.5,19.6-16.8,15.1-16.7,16.2-39.2,24.9-58.9-21,22.8-42.4,46.2-55.7,73.1-3.5,7.1-6.4,14.5-9.3,21.8"/><path class="cls-14" d="M-38.9-1.4a39.35,39.35,0,0,0-14.8-8C-.3-11.7,52.3,2.1,104.1,15.8,134,23.7,164,31.7,192.2,44.9c21,9.9,41.6,22.8,64.5,24C225.6,72,191.8,73.6,166,54.7l4,5.1a219.75,219.75,0,0,0-56.4-39.7c20.1,19.4,41.1,40.2,49.3,68.1-15.3-20-41.7-25.3-60.3-41.8C90.2,35.4,81.8,19.8,70.8,7a222.14,222.14,0,0,0,32.1,67.4c-17,.2-30.1-15.8-38.3-31.8S49.6,8.5,35.8-2A461.35,461.35,0,0,1,56,59.2c1.2,4.7.5,11.9-3.9,11.5-1.9-.2-3.3-1.8-4.4-3.4C40,56.5,35.3,43.7,28.7,32.1,15.7,9-4.9-9-28.6-17.9L30.5-51.1c7.8-4.3,15.6-8.7,24.1-10.3,14.6-2.8,29.4,2.9,43.3,8.5A58.57,58.57,0,0,0,63.3-36.4c-6.1,5.9-11,13.2-17.3,18.8S31.4-7.8,23.5-10A186.9,186.9,0,0,0,72.3-26.9c12-6.1,23.9-13.6,37.1-15.3,17.9-2.3,35.1,6.5,51.2,15a94.81,94.81,0,0,0-52.2,6.8c-9.8,4.3-19,10.3-29,13.8S57.8-2.3,48.8-8.1C65,3.5,86.3,2.6,105.3-2.4s37.3-13.5,56.6-16A93.32,93.32,0,0,1,224.2-3.7C185-13.8,144.8,4.9,105.4,15.2c-6.2,1.6-14.5,2-17-4.4,24.4,2.6,49.3,5.2,73.2-1.1,9.4-2.5,18.6-6.4,28.3-7.2,25.4-2.1,47.7,16.6,72.2,24.4-35,3.4-70.8,6.7-104.8-2.3-9.1-2.6-18-5.5-26.8-8.9"/><path class="cls-15" d="M-143.2,187.5a50.94,50.94,0,0,0-19.2-10.3c69.1-3,137.2,14.8,204.2,32.5,38.7,10.3,77.5,20.5,114,37.6,27.1,12.8,53.8,29.5,83.4,31-40.2,4-84,6.1-117.3-18.4l5.2,6.7a285.88,285.88,0,0,0-73-51.4c26,25.1,53.2,52,63.7,88.1-19.8-25.9-53.9-32.8-78-54-16.2-14.3-27-34.4-41.3-51A286.36,286.36,0,0,0,40,285.5c-21.9.3-38.9-20.4-49.6-41.1s-19.2-44.2-37.2-57.8a611,611,0,0,1,26.3,79.1c1.5,6,.7,15.4-5,14.9-2.4-.2-4.2-2.3-5.7-4.4-9.9-13.9-16.1-30.6-24.6-45.6-16.9-29.9-43.6-53.1-74.1-64.6l76.5-42.9c10-5.6,20.2-11.3,31.2-13.3,19-3.6,38,3.8,55.9,11a75.49,75.49,0,0,0-44.8,21.4c-7.9,7.7-14.2,17.1-22.4,24.4s-19,12.5-29.1,9.6A245.61,245.61,0,0,0,.5,154.4c15.6-7.9,30.9-17.6,48-19.8,23.1-2.9,45.4,8.4,66.2,19.5a120.57,120.57,0,0,0-67.5,8.8c-12.7,5.6-24.5,13.3-37.5,17.8s-27.9,5.5-39.5-2c20.9,15.1,48.5,13.9,73.1,7.4s48.2-17.5,73.2-20.7a120.12,120.12,0,0,1,80.5,19C146.3,171.5,94.4,195.6,43.4,209c-8,2.1-18.8,2.6-22-5.6,31.5,3.4,63.8,6.8,94.7-1.4,12.2-3.2,24.2-8.2,36.7-9.3,32.9-2.8,61.8,21.5,93.4,31.5-45.3,4.4-91.5,8.7-135.6-2.9C98.9,218.2,87.4,214,76,209.8"/><path class="cls-16" d="M-38.8,487.6a53.63,53.63,0,0,0-20.4,8.1C-22.8,443.6,32.5,404,87,365.1c31.4-22.4,63.1-45,99.7-61.9,27.2-12.6,57.9-22.5,76.2-43.3-19.2,31.6-42.1,64.8-83.7,75.2h9.1a314.28,314.28,0,0,0-89.1,24.1c38.1-4.8,78.4-9.3,117.9,3.5-35.3-.3-61,20.8-94.4,26.3-22.5,3.7-47.3.2-70.7,1.2a379.12,379.12,0,0,0,104.4,19.2c-12.2,16.2-41,16.8-66.3,12.9s-51.9-11.1-74.7-5.7a805.66,805.66,0,0,1,88.3,25.8c6.4,2.3,14.6,8.2,11,12.2-1.5,1.6-4.6,1.8-7.3,1.6-18.6-.7-37.5-5.6-56.2-8-37.3-4.6-74,1.7-102,17.4l3.7-80.3c.5-10.5,1-21.1,5.4-30.4,7.5-15.9,25.1-25.6,42-34.6-7.8,13-9.8,29-5.6,44.9,2.7,10.1,7.7,20.1,9.9,30.2s.8,21-7.6,26.8a182.6,182.6,0,0,0,15.6-58.5c1.5-15.9,1.2-32.6,8.9-46.3,10.4-18.6,33.6-28.4,55.7-37.3C60.5,295,50,314,46.7,334.6c-2,12.4-1.6,25.4-4.8,37.5s-10.7,23.5-24.3,27.7C43.5,393.1,58,372.2,66,350.6s11.1-45.2,22.5-65.3c12.6-22.3,35.2-39.5,63.3-48-41,29.7-48.1,81.3-64.6,126.1-2.6,7.1-8.3,15.2-17.7,12.9,21.1-21.1,42.5-42.8,52.5-70,4-10.8,6.1-22.3,12.2-32.1,16.1-25.6,55-32.9,82.2-50.3-21.7,35.6-43.9,71.8-79.8,97.3-9.5,6.8-20,12.8-30.3,18.7"/><path class="cls-17" d="M718.4,458c-3.7-1.7-7.5-4.2-8.9-7.7-2.3-5.5,2.3-11.4,8.1-13s12.5.2,18.4,2.6a78.29,78.29,0,0,1,22.9,14.5,257.12,257.12,0,0,1-49.2-38.9c-3.1-3.1-6.3-7.2-4.8-10.9s7.1-4.5,11.2-2.6,6.9,5.4,9.5,8.8l30.7,39.9-40.7-68c-10.2-17.1-23.7-36.3-44.2-39.4a9.29,9.29,0,0,0-5.7.5c-4.9,2.7-.8,10,3.8,13.8a159,159,0,0,0,48.6,27.8c-11.5-9.6-12-25.1-14.2-38.8a120.2,120.2,0,0,0-11.6-35.5c-9.9-19.5-28.7-38.8-51.6-39.3-2.7-.1-5.5.2-7.5,1.7-5.4,4.1-.2,12.8,5.9,16.9,10.3,7,22.8,10.2,34.2,15.5a101.62,101.62,0,0,1,29.3,20.5,159,159,0,0,1,1.7-26.7c.4-2.7,1-5.6,3-7.5,4.4-4.1,13.4-.7,16,5s.4,12-3.1,16.8-8.3,8.8-11.4,13.8-4.5,11.7-1,17c2.7-9.8,10.5-17.9,21-21.8,4.1,2.3,3.6,8.1.6,11.1s-7.5,4.4-11.2,6.7c-10.6,6.8-12.1,22.6-3.1,32.3a81,81,0,0,1,21.7-28.9c5.6,3.3,3.1,11.3-2,14.4s-11.9,3.8-16.6,7.4c-6.6,5-7.3,14.5-4,22.3s9.6,14.3,15.9,20.5c-1.2-7.2-2.4-14.7-.8-21.6s6.5-13.6,14-15.3c2.1-.5,4.7-.4,6.2,1.1a6,6,0,0,1,1.3,4,25.57,25.57,0,0,1-9.3,20.1c-2,1.7-4.5,3.3-5.2,5.8s.6,5.4,1.9,7.9c5.3,10.4,22.2,32.4,18.6,44.1C752.9,467.9,728.5,462.7,718.4,458Z"/><path class="cls-18" d="M193.3,419.6c.7-3.6,1-7.4-.8-10.8a12.08,12.08,0,0,0-11.2-6c-5.1.5-7.9,4.6-9.2,8.4-3.1,8.5-3,17.6-2.9,26.6l.3,28.9a270.08,270.08,0,0,0-7.3-63.2c-2.6-11.3-5.9-22.8-3.4-33.8,1.5-6.9,5.3-13.3,7-20.2a39.21,39.21,0,0,0-4.3-29.1c-1.6-2.9-4.1-6-8.1-6.7-6.3-1-10,4.7-10.6,9.5-2.3,19.6,12.4,39,15.4,58.9a177.38,177.38,0,0,0-24.3-66.2c-3-4.9-6.2-9.8-7.6-15s-.9-10.4-.4-15.5l2.9-29c.3-3.6.7-7.3-1-10.8a11.86,11.86,0,0,0-10.7-6.4,9.43,9.43,0,0,0-8.5,5.7c-1.1,3-.8,6.2-.2,9.4a161.22,161.22,0,0,0,20.1,54.1L78,211.9c-2-3.9-4.2-7.9-8.1-10.9-5.6-4.2-13.6-5.6-21.2-6.8-2.3-.4-5-.7-6.8.4a4.53,4.53,0,0,0-1.8,2.9c-2.1,8.1,4.8,16.6,13.3,22.3s18.7,9.7,27.4,15.3a57.2,57.2,0,0,1,21.7,24.4,50.74,50.74,0,0,0-21.6-13.4c-5.6-1.9-13.4-2.4-16.3,1.5-3.6,4.7,3.6,10.8,10.7,12.5s15.1,1.5,21.2,5c3.6,2,6,5,8.4,7.9l24.9,30.9a48.6,48.6,0,0,0-24.4-17.2c-2-.7-4.4-1.2-6.2-.4a4.86,4.86,0,0,0-2.3,3,10.69,10.69,0,0,0,2.4,11.1c6.9,6.9,21.9,5,29.5,11.4,2.7,2.3,4,5.2,5.3,8.1l10.8,24.6c-3.4-5.4-4.4-11.5-8.8-16.4s-14.6-7.9-19.2-3.6c-3,2.8-2.1,7.1.5,10.4s6.6,5.7,10.1,8.5c14.8,11.7,20.3,28.1,25.1,43.5a34.57,34.57,0,0,0-11.1-20.5c-2.5-2.3-6.4-4.7-9.8-3.5a5.43,5.43,0,0,0-2.6,2.1c-3.4,4.7-.5,11,4.1,15.5s10.7,8,15.3,12.5c14.6,14.4,13.8,34.3,21.1,50.5C179.7,465.7,192,427,193.3,419.6Z"/><path class="cls-19" d="M285.7,446.1c3.8-1.4,7.6-3.5,9.2-6.8,2.4-5.2-1.9-11.4-7.9-13.5s-12.7-1-18.7.9A73.27,73.27,0,0,0,244.8,439a238.45,238.45,0,0,0,50.6-34c3.2-2.8,6.5-6.5,5.1-10.3s-7.1-5-11.3-3.6-7.1,4.7-9.8,7.8l-32,36.6,42.7-63.4c10.7-15.9,24.7-33.7,45.6-34.9a9.28,9.28,0,0,1,5.7,1c4.9,3.1.5,9.9-4.2,13.3a148.66,148.66,0,0,1-49.7,23c11.8-8.4,12.7-23.7,15.2-37a111,111,0,0,1,12.5-33.9c10.4-18.4,29.9-35.7,53-34.1,2.7.2,5.6.7,7.5,2.4,5.4,4.6-.1,12.6-6.4,16.1-10.6,6-23.3,8-34.9,12.2a92,92,0,0,0-30,17.6,156.74,156.74,0,0,0-1.1-26.5c-.3-2.7-.8-5.6-2.8-7.6-4.3-4.5-13.5-1.9-16.3,3.4s-.7,11.8,2.7,16.8,8.1,9.4,11.3,14.6,4.3,12,.6,16.8c-2.7-10.1-10.3-18.7-20.7-23.3-4.2,1.9-3.8,7.7-.9,10.9s7.5,5,11.1,7.6c10.5,7.6,11.7,23.4,2.4,32.1a89.34,89.34,0,0,0-21.2-30.5c-5.7,2.7-3.4,10.9,1.7,14.4s11.9,4.8,16.6,8.8c6.5,5.5,7,15,3.5,22.4s-10.1,13.2-16.5,18.8c1.4-7,2.7-14.2,1.3-21.3s-6.2-14-13.8-16.4c-2.1-.7-4.7-.9-6.3.6a5.25,5.25,0,0,0-1.4,3.9c-.3,7.7,3,15.1,8.9,20.7,2,1.9,4.5,3.6,5.1,6.2s-.7,5.2-2.1,7.6c-5.6,9.7-23.2,30-19.8,41.8C250.6,452.8,275.4,449.8,285.7,446.1Z"/><path class="cls-20" d="M374.1,350.3a4.79,4.79,0,0,1-1.1-3.8c.5-2,3.4-3.1,5.7-2.6a9.86,9.86,0,0,1,5.5,3.8,21.66,21.66,0,0,1,4.2,8.1,71.91,71.91,0,0,1-7.2-19.7c-.3-1.4-.4-3.2,1-4a3.41,3.41,0,0,1,4.3,1,7,7,0,0,1,1.1,4.2l.8,17,2.5-27.1c.6-6.8.7-14.8-5.4-19a3.86,3.86,0,0,0-2-.8c-2.3,0-2.6,2.9-2,4.8a44.48,44.48,0,0,0,9.6,16.3c-1.5-4.8,1.9-9.5,4.4-14A41.73,41.73,0,0,0,400,302c1.3-7.5-.4-16.3-7.9-20.2a4.83,4.83,0,0,0-2.9-.7c-2.8.4-3,3.8-2,6,1.8,3.8,5.2,6.8,7.7,10.2a28.23,28.23,0,0,1,4.9,10.9,70.67,70.67,0,0,1,6.8-7.7,6.43,6.43,0,0,1,2.7-1.8,3.61,3.61,0,0,1,4.1,4.1c-.5,2.1-2.7,3.7-5,4.5s-4.8,1.3-7,2.3-4.3,2.8-4.3,4.9a16.48,16.48,0,0,1,12.1-3.1c.8,1.4-.7,3-2.4,3.4s-3.5.1-5.3.2c-5.1.3-9.3,4.8-8.6,9.2a39.9,39.9,0,0,1,14-5.1c1.1,1.9-1.6,3.9-4,4s-4.8-.8-7.2-.5a8.15,8.15,0,0,0-6.6,6.1c-.7,2.9-.2,5.9.4,8.8a23.77,23.77,0,0,1,4.8-6.6c2.2-1.8,5.3-3,8.2-2.3a2.21,2.21,0,0,1,1.8,1.4,2.39,2.39,0,0,1-.5,1.4,12,12,0,0,1-7.8,4.5,8,8,0,0,0-3.1.9,4,4,0,0,0-1.2,2.7c-.7,4-.2,13.4-4.2,16.3C383.2,358.9,376.3,353.4,374.1,350.3Z"/><path class="cls-21" d="M863.3-63.6c-9.8,6.3-18.1,14-25.8,22.3S822.5-24.5,815-16,799.7.8,792,9.1s-15.5,16.6-23.6,24.7-16.3,16-24.7,23.9c-4.2,3.9-8.5,7.8-12.8,11.7s-8.7,7.6-13.2,11.3-9.2,7.3-14,10.7S694,98,688.8,101a150.53,150.53,0,0,1-16,8.2,126,126,0,0,1-17.2,6.3,111.41,111.41,0,0,1-37.3,4.5,108.71,108.71,0,0,1-36.6-9,126.83,126.83,0,0,1-31.1-19.3,126,126,0,0,1-13-12.3,120,120,0,0,1-11-13.7c-1.6-2.4-3.2-4.8-4.7-7.3s-2.8-5-4.1-7.5l-1-1.9-.9-1.9-1.8-3.9c-1.1-2.6-2.2-5.2-3.2-7.8s-1.9-5.3-2.8-7.9-1.6-5.3-2.4-8c-1.4-5.4-2.7-10.7-3.8-16.1-4.1-21.6-5.1-43.4-5.3-65l3.5-.5,1.5,7.8,1.4,7.8-1.1.2-2.7-7.5-2.6-7.5,3.5-.5c3.1,21.4,6,42.8,11.4,63.5a208.31,208.31,0,0,0,10.1,30.4q3.15,7.35,6.9,14.4a146.79,146.79,0,0,0,8.3,13.7,150.68,150.68,0,0,0,10,12.7,127,127,0,0,0,11.6,11.6A120.24,120.24,0,0,0,586.2,103a121.88,121.88,0,0,0,15.9,6.2,101.86,101.86,0,0,0,51.7,1.9,122,122,0,0,0,16.9-5.1,128.32,128.32,0,0,0,15.9-7.5,153.19,153.19,0,0,0,28-20.1c17-15.3,30.7-33.2,46-50Q772,15.8,784,3.5c7.9-8.2,15.9-16.3,24-24.4,4-4,8.1-8,12.2-12s8.3-8,12.6-11.9c8.7-7.7,18.4-14.9,29.5-19.6Z"/><path class="cls-22" d="M599.2-30.8c-10,13.5-15,29-22.9,43.8-1,1.9-2.1,3.7-3.1,5.5s-2.3,3.6-3.4,5.4a61.49,61.49,0,0,1-3.7,5.2c-.6.9-1.2,1.7-1.9,2.6l-2,2.5A146.58,146.58,0,0,1,544,53a156,156,0,0,1-21.7,15.7,155.62,155.62,0,0,1-24.7,11.8,144.38,144.38,0,0,1-26.9,7.3,153.93,153.93,0,0,1-28,2,146.45,146.45,0,0,1-54.1-11.5,131.53,131.53,0,0,1-23.6-13,172.3,172.3,0,0,1-20.2-16.7c-12.6-11.8-24-24.4-36.9-35.6l-2.4-2.1-2.5-2-2.5-2-2.6-2L295.3,3l-2.7-1.8L289.9-.6c-.9-.6-1.8-1.1-2.8-1.7a48.14,48.14,0,0,0-11.6-5.1,32.34,32.34,0,0,0-6.1-1,44.22,44.22,0,0,0-6.3.2,65.12,65.12,0,0,0-12.5,3c-2.1.7-4.1,1.5-6.1,2.3l-3.1,1.2c-1,.4-2,.9-3,1.3l-5.9,2.7c-2,.9-3.9,2-5.8,3-3.9,1.9-7.6,4.2-11.3,6.3-15,9.2-28.9,19.4-43.2,29.4S143,61,126.5,68.8c-4.2,1.9-8.3,3.9-12.7,5.4l-3.3,1.2-3.3,1.2-6.8,2a161,161,0,0,1-27.7,5.1,201.4,201.4,0,0,1-55.9-2.6A222.63,222.63,0,0,1-10,74.6c-8.7-2.7-17.3-5.9-25.6-9.4A257,257,0,0,1-59.8,53.5c-7.9-4.2-15.5-8.7-23-13.4-14.8-9.4-29.1-19.6-42.8-30.3l.6-.7c14.8,9.4,29.7,18.7,45.1,27.2A398.54,398.54,0,0,0-32.3,58.8c8.2,3.2,16.6,5.9,25.1,8.3a205.79,205.79,0,0,0,25.9,5.6,231.34,231.34,0,0,0,26.4,2.6,179.34,179.34,0,0,0,26.4-1,171,171,0,0,0,25.7-4.7l6.2-1.9c1-.3,2-.7,3.1-1.1l3-1.1c4.1-1.4,8-3.2,12-4.9l1.5-.7,1.4-.7,2.9-1.5,2.9-1.5c1-.5,1.9-1,2.9-1.5,3.8-2.1,7.6-4.2,11.3-6.5,1.8-1.1,3.7-2.2,5.5-3.4l5.5-3.5c3.7-2.3,7.3-4.8,10.9-7.2l10.8-7.3c3.6-2.5,7.3-4.9,11-7.3s7.4-4.8,11.2-7.1c1.9-1.2,3.8-2.3,5.7-3.4s3.8-2.3,5.8-3.3c4-2.1,7.9-4.3,12-6.2,2.1-.9,4.1-2,6.2-2.8l6.4-2.6c1.1-.4,2.1-.9,3.2-1.2l3.2-1.1c2.2-.7,4.3-1.4,6.6-2.1A65.73,65.73,0,0,1,262.3-13a36.7,36.7,0,0,1,7.4.1,41.77,41.77,0,0,1,7.2,1.5,53.43,53.43,0,0,1,12.5,6,172.9,172.9,0,0,1,20.8,16.2c12.9,11.6,24.2,24.3,36.9,35.7a156.75,156.75,0,0,0,20.3,15.7,127.12,127.12,0,0,0,23.4,11.5,138.45,138.45,0,0,0,25.5,6.6,154.88,154.88,0,0,0,26.4,1.9,163.63,163.63,0,0,0,26.2-2.4A153.52,153.52,0,0,0,494.1,73a146.78,146.78,0,0,0,23.4-10.9,139.25,139.25,0,0,0,21-14.4,174.79,174.79,0,0,0,18.1-17.3,147.83,147.83,0,0,0,14.8-19.8c4.3-7,8.1-14.3,12.3-21.5a111.76,111.76,0,0,1,14.6-20.6Z"/><path class="cls-23" d="M987.1-46.3a95.41,95.41,0,0,0-11.4,10.6c-3.5,3.8-6.8,7.8-9.9,11.8L947,.6l-9.6,12.2-9.7,12.1C921.3,33,914.8,41,908.1,48.8s-13.6,15.6-20.6,23.4c-3.5,3.9-7.1,7.7-10.6,11.5l-5.4,5.7c-1.8,1.9-3.6,3.8-5.5,5.6-7.5,7.4-15.1,14.7-23.9,21a99,99,0,0,1-14,8.6,53.66,53.66,0,0,1-7.8,3.3,46.93,46.93,0,0,1-8.4,2.1c-1.5.2-2.9.4-4.4.5a33.79,33.79,0,0,1-4.5,0c-.7-.1-1.5-.1-2.3-.2l-2.3-.3c-1.5-.3-3-.7-4.4-1.1a37,37,0,0,1-8.1-3.6,44,44,0,0,1-6.9-5.1,65.51,65.51,0,0,1-5.8-6,39.19,39.19,0,0,1-2.5-3.2c-.8-1.1-1.6-2.2-2.3-3.3A88.53,88.53,0,0,1,761,93.8a146.07,146.07,0,0,1-8.8-29.4c-.9-5-1.7-10-2.2-15-.3-2.5-.4-5-.6-7.5s-.3-5-.3-7.5c-.6-20.1,1.5-40,4.5-59.7s7.4-39.1,12.2-58.5l3.3.3c-.4,2.9-.8,5.8-1.3,8.7s-.9,5.8-1.4,8.7l-.9-.1c0-2.9,0-5.8.1-8.7s.1-5.8.2-8.7l3.3.3c-2.5,19.7-5.2,39.3-7.2,58.9a442.86,442.86,0,0,0-2.7,58.7,201.37,201.37,0,0,0,2.4,29A140.37,140.37,0,0,0,769,91.4a82.93,82.93,0,0,0,6.3,13.1,57.67,57.67,0,0,0,8.7,11.6,34.14,34.14,0,0,0,12.1,8.2,26,26,0,0,0,7.3,1.8c1.3.2,2.6.2,3.8.3s2.6-.1,3.9-.2a49.16,49.16,0,0,0,15.2-4.3,85.11,85.11,0,0,0,13.8-7.9,140.57,140.57,0,0,0,23.2-20.9c1.7-1.9,3.4-3.8,5.1-5.8s3.3-4,4.9-6c3.2-4,6.3-8.1,9.5-12.2,6.2-8.2,12.3-16.5,18.7-24.6S914.4,28.4,921,20.4L931,8.5,941.1-3.3c3.4-3.9,6.8-7.8,10.2-11.8s6.9-7.8,10.5-11.6,7.4-7.5,11.4-11a76.79,76.79,0,0,1,6.3-5,60.72,60.72,0,0,1,6.8-4.4Z"/><path class="cls-24" d="M818.8-36.7c-7.1,11-12.4,22.8-18.1,34.5a213.3,213.3,0,0,1-20.1,34.1,175,175,0,0,1-12.9,15.6,135.89,135.89,0,0,1-15.3,14,99.61,99.61,0,0,1-18.2,11.4,68,68,0,0,1-21.4,6.4,55.52,55.52,0,0,1-22.6-2,57.35,57.35,0,0,1-19.1-10.5,65.6,65.6,0,0,1-13.3-15.6,100.14,100.14,0,0,1-8.5-17.8c-4.7-12.1-7.9-24.6-11.6-36.8-.9-3.1-1.9-6.1-2.9-9.2l-1.6-4.5-1.7-4.5a118.56,118.56,0,0,0-8.2-17.3,24.11,24.11,0,0,0-5.8-7,9.21,9.21,0,0,0-3.6-1.7,9.91,9.91,0,0,0-4.2,0,41.53,41.53,0,0,0-9.2,3.1,95.15,95.15,0,0,0-9,4.6c-11.6,6.8-22,15.4-32.2,24.1S539,2.1,527.9,10.5a143.82,143.82,0,0,1-17.8,11.7,78.25,78.25,0,0,1-20.8,8.1,65.81,65.81,0,0,1-23,1.1,69.35,69.35,0,0,1-21.6-6.5,85.08,85.08,0,0,1-18.1-11.7A119.23,119.23,0,0,1,412-1.5a189.22,189.22,0,0,1-22-33.2c-3.1-5.8-6-11.6-8.7-17.5S376-64,373.5-70l.8-.3c3.1,5.7,6.3,11.4,9.5,17.1s6.6,11.3,10.1,16.8,7.1,11,11,16.2A178.84,178.84,0,0,0,417.3-5,122.16,122.16,0,0,0,431.7,8.4a80,80,0,0,0,16.9,10.2,65.5,65.5,0,0,0,19,5.3,56.15,56.15,0,0,0,19.6-1.3,79,79,0,0,0,9.4-3,74.25,74.25,0,0,0,9-4.3A170.19,170.19,0,0,0,522.3,4.5c10.8-7.9,21.1-16.8,31.6-25.5S575.4-38.3,588-45.1c3.2-1.7,6.5-3.2,9.9-4.6a50.43,50.43,0,0,1,11.1-3,17.18,17.18,0,0,1,6.4.4,13.79,13.79,0,0,1,5.6,3,28,28,0,0,1,6.4,8.6c6.1,11.9,9.5,24.4,13,36.7s6.6,24.8,11.4,36.7a89,89,0,0,0,8.9,17,59.67,59.67,0,0,0,13.4,14.1,50.58,50.58,0,0,0,17.8,8.5,48.89,48.89,0,0,0,19.8.9,68.55,68.55,0,0,0,18.9-6.1,104,104,0,0,0,16.9-10.5,143.64,143.64,0,0,0,14.8-13.2,181.1,181.1,0,0,0,13-14.8l3-3.9,2.9-4c1-1.3,1.9-2.6,2.8-4s1.8-2.7,2.7-4c3.5-5.4,6.8-11,10.1-16.7s6.5-11.3,10-17c1.7-2.8,3.5-5.6,5.4-8.3s3.9-5.4,6-8Z"/><g class="cls-25"><path class="cls-26" d="M-120.8-8.5A3738.75,3738.75,0,0,1,163.8,251q38.25,38.85,75.4,78.6c9.6,10.3,30.8,9.5,40.6,0,11.3-11,10.3-25,0-36.1A3701.68,3701.68,0,0,0,4,26.7Q-37.4-9.45-80.1-44.5c-11-9.1-29.9-10.4-40.6,0C-130.9-34.7-132.6-18.1-120.8-8.5Z"/><path class="cls-27" d="M-88.2-17.1q111,46.2,219.3,97.2Q239,131,343.9,186.2q59.4,31.35,117.8,64c12.7,7.1,32.2,2.8,39.3-9.1,7.5-12.6,3.3-27.3-10.3-34.9q-103.65-58-210.4-111.7Q174.1,41.25,65-7.5,3.35-35.1-59.2-61.1c-7.1-3-14.3-4.5-22.1-2.6C-88-62.1-95.2-57.5-98.5-52-105.3-40.7-102.7-23.2-88.2-17.1Z"/><path class="cls-28" d="M-103.2-31.8a30.34,30.34,0,0,1,4.2-.6c-.7,0-6.8.5-1.3.3,2.5-.1,4.9-.3,7.4-.4,5.7-.1,11.3,0,17,.4,2.8.2,5.7.4,8.5.7l3.2.3c5.3.6-.5-.1-1.3-.2,5.6.2,11.4,1.5,16.9,2.3C-26.1-25.8-3.5-22.4,19-19,63.9-12,109-4.9,154,2.3c90,14.3,180,28.6,270.5,40.2,52.9,6.8,105.9,12.8,159,17.3,15,1.3,29.4-12.7,28.7-25.5-.8-14.9-12.7-24.1-28.7-25.5q-34.65-3-69.2-6.7C503,.9,491.7-.4,480.4-1.7l-7.7-.9c-4.2-.5,5.3.6,1.1.1L469.4-3c-5.8-.7-11.7-1.5-17.5-2.2-45.6-5.7-91.1-12.1-136.5-18.9C224.8-37.7,134.5-52.7,44-66.6Q5.9-72.45-32.4-78c-29-4.2-57-7.6-86.2-3-14.8,2.3-24.5,19.1-20,31.3,5.2,14.3,19.5,20.4,35.4,17.9Z"/></g><path class="cls-29" d="M241,380.7a12.94,12.94,0,0,0-4.5,5.1c-1.9-18.2,5.5-36.2,12.9-53.9,4.2-10.2,8.5-20.5,15.9-30.2,5.5-7.2,12.8-14.3,13.2-22.1,2.1,10.6,3.4,22-7.2,31l3-1.4a89.42,89.42,0,0,0-22.4,19.5c11-7,22.8-14.3,38.9-17.3-11.4,5.4-14.2,14.4-23.5,20.9-6.3,4.4-15.2,7.3-22.5,11.2A176.22,176.22,0,0,0,283.5,332c.3,5.8-8.8,10.4-18,13.3s-19.6,5.3-25.5,10.1c11.4-2.9,23.2-5.4,35.2-7.4,2.7-.5,6.9-.3,6.8,1.2-.1.6-1,1.1-1.9,1.5-6.2,2.7-13.5,4.4-20.2,6.7-13.2,4.6-23.4,11.8-28.3,19.9l-19.9-19.9c-2.6-2.6-5.2-5.2-6.2-8.1-1.8-5,1.4-10,4.5-14.8.9,4.3,4.4,8.5,9.9,11.6,3.5,2,7.8,3.6,11.1,5.7s5.8,4.9,4.5,7.6a51.66,51.66,0,0,0-10.2-16.5c-3.7-4-8.2-8-9.3-12.5-1.5-6.1,3.4-12,8.2-17.5-1.4,6,.2,12.2,4.5,17.7,2.6,3.3,6.1,6.4,8.3,9.8s2.7,7.3-.6,10.4c6.6-5.6,5.8-12.9,2.7-19.3s-8.2-12.6-9.9-19.1c-1.8-7.3,1-14.9,7.8-21.3-5.4,13.4,5.8,27,12.2,40.3,1,2.1,1.3,4.9-2.3,5.8,1.3-8.3,2.5-16.8-1.4-24.9-1.5-3.2-3.9-6.3-4.5-9.6-1.5-8.6,9.1-16.4,13.3-24.8,2.3,11.9,4.7,24-.2,35.7a74.25,74.25,0,0,1-4.9,9.2"/><path class="cls-30" d="M349.6,424.8c-.3-3.7-.3-7.5,2.3-11a15.38,15.38,0,0,1,13.5-5.6c5.8.8,8.5,5.1,9.6,9,2.5,8.8,1.4,18,.3,27.2l-3.6,29.4a260.8,260.8,0,0,1,15.5-64.1c4.3-11.4,9.3-23,7.8-34.3-1-7.1-4.5-13.8-5.7-20.9-1.7-9.8,1.2-20.2,8.2-29.4,2.2-2.9,5.4-6,10.1-6.4,7.3-.8,10.9,5.3,11,10.2.4,20.1-18.6,39.2-24.4,59.3,6.3-22.9,18.3-45.5,35.4-66.4,4-4.9,8.2-9.7,10.4-14.9s2.2-10.5,2.2-15.8V261.5c0-3.7,0-7.5,2.4-10.9a15.28,15.28,0,0,1,13-6.1,10.08,10.08,0,0,1,9.1,6.2c1,3.1.1,6.4-.8,9.6a169.29,169.29,0,0,1-29.3,54.2l69-96.1c2.8-3.9,5.6-7.8,10.5-10.7,6.9-4.1,16.3-5.1,25-5.9,2.7-.3,5.8-.4,7.7.8a4.16,4.16,0,0,1,1.8,3c1.4,8.3-7.4,16.7-17.8,22.1s-22.6,9-33.1,14.4c-12.2,6.1-21.9,14.5-27.7,23.8a66.44,66.44,0,0,1,26.3-12.7c6.8-1.6,15.6-1.8,18.5,2.2,3.6,4.9-5.4,10.8-13.7,12.3s-17.5.9-24.9,4.1c-4.4,1.9-7.5,4.8-10.5,7.6l-32.1,30.4c7-7.5,17.8-13.4,30-16.5,2.4-.6,5.2-1,7.1-.1a4.5,4.5,0,0,1,2.3,3.1,10.66,10.66,0,0,1-4.1,11.2c-8.7,6.7-25.6,4.1-35.1,10.3-3.4,2.2-5.2,5.1-7,8l-15.2,24.6c4.5-5.3,6.3-11.5,11.9-16.3s17.6-7.4,22.5-2.8c3.1,2.9,1.6,7.4-1.8,10.6s-8.2,5.5-12.5,8.2c-18.3,11.2-26.4,27.7-33.7,43.2,1.9-7.4,7.2-14.7,15-20.4,3.1-2.3,7.9-4.5,11.6-3.1a5.41,5.41,0,0,1,2.7,2.2c3.3,4.9-.8,11.2-6.5,15.6s-13.2,7.6-18.9,12c-18.3,14-19.7,34.3-29.9,50.5C360,472.3,350.3,432.4,349.6,424.8Z"/><path class="cls-31" d="M363.87,418.05a30.2,30.2,0,0,1,5.38,11.18c2.29-39.72-6.62-79.16-15.47-118-5.14-22.43-10.27-44.86-19.19-66.13-6.62-15.78-15.35-31.35-15.84-48.43-2.54,23.12-4.15,48.22,8.73,67.78L324,261.37a166.33,166.33,0,0,1,26.92,42.74c-13.24-15.37-27.48-31.29-46.85-37.94,13.8,11.73,17.14,31.49,28.34,45.69,7.56,9.53,18.26,16.05,27.05,24.42a152.49,152.49,0,0,1-46.54-25c-.37,12.62,10.58,22.71,21.66,29.16s23.64,11.66,30.76,22.15a320.46,320.46,0,0,0-42.39-16.19c-3.22-1-8.3-.61-8.11,2.68.06,1.37,1.24,2.47,2.35,3.36,7.43,5.9,16.34,9.67,24.32,14.75a83.69,83.69,0,0,1,34.1,43.56l23.77-43.56c3.1-5.69,6.25-11.46,7.49-17.77,2.1-10.84-1.67-21.95-5.39-32.38a44.63,44.63,0,0,1-12,25.52c-4.21,4.39-9.35,8-13.37,12.56s-6.93,10.77-5.51,16.67a145.71,145.71,0,0,1,12.44-36c4.4-8.85,9.84-17.56,11.14-27.37,1.86-13.24-4.08-26.27-9.84-38.42a73.6,73.6,0,0,1-5.45,38.76c-3.09,7.21-7.42,13.93-10,21.34s-3.28,16,.68,22.77c-7.92-12.28-7-28.12-3.28-42.19s9.9-27.51,11.88-41.91a73,73,0,0,0-9.4-46.58c6.5,29.43-7,59-14.73,88.08-1.24,4.6-1.55,10.77,2.78,12.76-1.48-18.18-3-36.84,1.67-54.54,1.86-7,4.64-13.78,5.39-21,1.85-18.93-11-35.88-16-54.19-2.79,26-5.63,52.55.25,78.13,1.54,6.8,3.71,13.45,5.87,20.1"/><path class="cls-32" d="M611.43,414.62a25.8,25.8,0,0,0,2.1,9.06c-18.81-24.63-31.5-53.1-44-81.16-7.18-16.19-14.42-32.45-19.06-49.18-3.47-12.49-5.7-25.59-13-36.71,11.57,13.93,23.58,29.43,25.38,46.52l.49-3.23a133.12,133.12,0,0,0,4.58,37c.31-14.55.81-29.84,8.17-41-2.1,12.42,4.83,26.28,5.14,39.38.18,8.78-2.66,16.81-3.59,25.31A91.79,91.79,0,0,0,591.32,328c5.75,8,4.39,18.31,1.36,26.34s-7.43,15.92-6.56,25.18a175,175,0,0,1,15.41-25.45c1.3-1.79,4.08-3.36,5.51-1.17a4.07,4.07,0,0,1,.24,2.95c-1.36,6.45-4.39,12-6.43,18.11-4,12.21-3.59,26.55,1.11,40.06L570,394.66c-4.2-2.54-8.41-5.08-11.88-8.71-5.94-6.25-8.79-14.62-11.45-22.64a39.61,39.61,0,0,0,17.64,12.07c4.21,1.3,8.48,1.78,12.69,3.29s8.48,4.46,10.27,8.72a131.89,131.89,0,0,0-22.59-18.66c-6.25-4.12-13-7.75-18.07-13.59-6.87-7.88-9.47-18.24-11.76-28.12a70.18,70.18,0,0,0,20,22.91c4.89,3.5,10.09,6.31,14.8,10.15s8.85,9.06,9.71,14.82c-1.24-10.63-8.72-20.51-17-28.19S545,332.64,537.59,324.07A66.73,66.73,0,0,1,522,290.87c9.53,21.19,29.83,35.33,46.85,51.24,2.66,2.54,5.63,6.38,4.15,9.19-7.25-12.21-14.73-24.69-25-34.3-4.08-3.84-8.6-7.2-12.13-11.52-9.34-11.46-10-26.89-15.41-40.41,13,15.64,26.24,31.7,34.47,50.15,2.17,4.87,4,9.95,5.76,14.95"/><path class="cls-33" d="M719.55,451.25a31.5,31.5,0,0,1,12.63,5.56c-22.53-35.74-56.76-62.91-90.49-89.59-19.43-15.37-39.05-30.87-61.7-42.47-16.83-8.64-35.84-15.43-47.16-29.7,11.88,21.68,26,44.45,51.8,51.59H579a179.73,179.73,0,0,1,55.14,16.53c-23.58-3.29-48.52-6.38-73,2.4,21.85-.2,37.76,14.27,58.43,18,13.92,2.54,29.27.14,43.76.83a214.48,214.48,0,0,1-64.62,13.17c7.55,11.11,25.38,11.52,41,8.85s32.12-7.62,46.23-3.91a460.56,460.56,0,0,0-54.65,17.7c-4,1.57-9,5.62-6.81,8.36.93,1.1,2.85,1.24,4.52,1.1,11.51-.48,23.21-3.84,34.78-5.49,23.09-3.15,45.8,1.17,63.13,11.94l-2.29-55.08c-.31-7.21-.62-14.48-3.34-20.86-4.64-10.91-15.54-17.56-26-23.73,4.83,8.91,6.07,19.89,3.47,30.8-1.67,6.93-4.77,13.79-6.13,20.71s-.49,14.41,4.71,18.39a136.28,136.28,0,0,1-9.66-40.13c-.93-10.91-.74-22.37-5.51-31.76-6.43-12.76-20.79-19.49-34.47-25.59a65.52,65.52,0,0,1,18.88,37.38c1.23,8.51,1,17.43,3,25.73s6.62,16.12,15,19c-16-4.59-25-18.93-30-33.75s-6.87-31-13.92-44.79c-7.8-15.3-21.79-27.1-39.18-32.93,25.37,20.37,29.77,55.77,40,86.5,1.61,4.87,5.14,10.43,11,8.85-13.06-14.47-26.31-29.36-32.5-48-2.47-7.41-3.77-15.3-7.55-22-10-17.56-34-22.57-50.87-34.51C575,294.78,588.78,319.61,611,337.1a216.84,216.84,0,0,0,18.75,12.83"/><path class="cls-12" d="M250.92,431c2.29-1.17,4.64-2.88,5.5-5.28,1.43-3.78-1.42-7.83-5-8.92s-7.73.13-11.39,1.78a48,48,0,0,0-14.17,10,162.64,162.64,0,0,0,30.45-26.69c1.92-2.12,3.9-4.94,3-7.48s-4.39-3.08-6.93-1.78-4.27,3.71-5.88,6l-19,27.37,25.19-46.65c6.31-11.73,14.67-24.9,27.36-27a5.23,5.23,0,0,1,3.52.35c3,1.85.5,6.86-2.35,9.46a96.41,96.41,0,0,1-30.08,19.07c7.12-6.58,7.43-17.21,8.79-26.61a89.05,89.05,0,0,1,7.18-24.36c6.13-13.37,17.76-26.61,31.94-27a6.78,6.78,0,0,1,4.64,1.17c3.34,2.81.12,8.78-3.65,11.59-6.38,4.81-14.12,7-21.17,10.64a63.08,63.08,0,0,0-18.13,14.06,120.55,120.55,0,0,0-1.06-18.32c-.24-1.85-.62-3.84-1.85-5.14-2.73-2.81-8.3-.48-9.91,3.43s-.24,8.23,1.92,11.52,5.14,6,7.06,9.47,2.78,8,.62,11.66a21.94,21.94,0,0,0-13-15c-2.54,1.58-2.23,5.55-.37,7.61s4.64,3,6.93,4.6c6.56,4.66,7.49,15.5,1.92,22.16a55.5,55.5,0,0,0-13.43-19.83c-3.47,2.26-1.92,7.75,1.24,9.88s7.36,2.61,10.27,5.08c4.09,3.43,4.52,9.94,2.48,15.29s-6,9.81-9.84,14.07c.74-4.94,1.48-10.09.49-14.82s-4-9.33-8.66-10.5a3.87,3.87,0,0,0-3.84.76,4.41,4.41,0,0,0-.81,2.74,18.39,18.39,0,0,0,5.76,13.79c1.24,1.17,2.78,2.26,3.22,4s-.37,3.7-1.18,5.42c-3.28,7.13-13.74,22.22-11.51,30.25C229.56,437.74,244.67,434.17,250.92,431Z"/><path class="cls-12" d="M518.72,422.78c-2.35-1-4.71-2.4-5.7-4.66-1.48-3.57,1.18-7.82,4.89-9.26s7.86-.69,11.58.62A44.05,44.05,0,0,1,544,417.91a147.89,147.89,0,0,1-31.32-23.32c-2-1.92-4-4.46-3.15-7.07s4.39-3.43,7-2.47,4.4,3.23,6.07,5.35l19.8,25.11L516,372c-6.62-10.91-15.28-23.12-28.22-23.94a5.29,5.29,0,0,0-3.53.68c-3,2.13-.31,6.8,2.6,9.13a88.35,88.35,0,0,0,30.76,15.78c-7.3-5.77-7.86-16.26-9.4-25.39A81.92,81.92,0,0,0,500.46,325c-6.44-12.62-18.51-24.49-32.8-23.39a7.31,7.31,0,0,0-4.64,1.64c-3.35,3.16.06,8.65,4,11.05,6.56,4.11,14.42,5.49,21.6,8.37a56,56,0,0,1,18.56,12.07,120.17,120.17,0,0,1,.68-18.18c.19-1.85.5-3.84,1.74-5.21,2.66-3.09,8.35-1.31,10.09,2.33s.43,8.09-1.68,11.52-5,6.45-7,10-2.66,8.23-.37,11.53a24.15,24.15,0,0,1,12.81-16c2.6,1.3,2.35,5.28.56,7.48s-4.64,3.43-6.87,5.21c-6.5,5.22-7.24,16-1.49,22a62,62,0,0,1,13.12-20.92c3.53,1.85,2.11,7.48-1,9.88s-7.36,3.29-10.27,6c-4,3.77-4.33,10.29-2.17,15.36s6.25,9.06,10.21,12.9c-.86-4.8-1.67-9.74-.8-14.61s3.84-9.61,8.54-11.25c1.3-.48,2.91-.62,3.9.41A3.83,3.83,0,0,1,538,366a19.65,19.65,0,0,1-5.51,14.2c-1.24,1.31-2.79,2.47-3.16,4.26s.43,3.56,1.3,5.21c3.47,6.65,14.36,20.58,12.25,28.67C540.44,427.38,525.09,425.32,518.72,422.78Z"/><path class="cls-34" d="M546.38,377.92a8.66,8.66,0,0,1,2.79,3.5c1.17-12.49-3.41-24.84-8-37-2.6-7-5.26-14.06-9.84-20.71-3.4-4.94-7.92-9.81-8.17-15.17-1.3,7.28-2.1,15.1,4.46,21.27l-1.86-1a57.42,57.42,0,0,1,13.87,13.38c-6.81-4.8-14.11-9.81-24.08-11.87,7.06,3.7,8.79,9.88,14.55,14.34,3.89,3,9.4,5,13.92,7.68a101.19,101.19,0,0,1-23.95-7.89c-.19,4,5.45,7.14,11.14,9.13s12.13,3.63,15.78,6.92c-7-2-14.36-3.7-21.78-5.07-1.68-.35-4.27-.21-4.21.82.06.41.62.76,1.17,1,3.84,1.85,8.36,3,12.51,4.6,8.16,3.15,14.48,8.09,17.51,13.65l12.32-13.65c1.61-1.79,3.21-3.57,3.83-5.56,1.12-3.43-.86-6.86-2.78-10.15-.56,2.95-2.72,5.83-6.13,7.95-2.16,1.38-4.83,2.47-6.87,3.91s-3.59,3.37-2.78,5.22A36,36,0,0,1,556.1,352c2.29-2.75,5.07-5.49,5.76-8.58.92-4.18-2.11-8.23-5.08-12A15.35,15.35,0,0,1,554,343.55c-1.61,2.26-3.78,4.39-5.14,6.72s-1.67,5,.37,7.14c-4.09-3.84-3.59-8.85-1.67-13.24s5.07-8.65,6.13-13.1c1.11-5-.62-10.23-4.83-14.62,3.34,9.2-3.59,18.53-7.55,27.65-.62,1.44-.81,3.36,1.42,4-.8-5.7-1.55-11.53.87-17.08.93-2.2,2.41-4.32,2.78-6.59.93-5.9-5.63-11.25-8.23-17-1.42,8.16-2.91,16.46.12,24.49a52.86,52.86,0,0,0,3,6.31"/><path class="cls-35" d="M479.17,408.17c.19-2.54.19-5.14-1.42-7.54a9.14,9.14,0,0,0-8.36-3.85c-3.59.55-5.26,3.5-5.94,6.18-1.55,6-.87,12.35-.19,18.66l2.23,20.17a194.81,194.81,0,0,0-9.59-44c-2.66-7.82-5.76-15.77-4.83-23.53.62-4.87,2.79-9.46,3.53-14.33,1-6.73-.74-13.86-5.08-20.17-1.36-2-3.34-4.12-6.25-4.39-4.52-.55-6.74,3.63-6.81,7-.24,13.79,11.52,26.9,15.11,40.68a130,130,0,0,0-21.91-45.55c-2.48-3.36-5.08-6.65-6.44-10.22s-1.36-7.2-1.36-10.84v-20.3c0-2.54,0-5.15-1.49-7.48a9.13,9.13,0,0,0-8-4.18,6.27,6.27,0,0,0-5.63,4.25c-.62,2.13-.07,4.39.49,6.59a120.72,120.72,0,0,0,18.13,37.18l-42.7-65.93c-1.73-2.67-3.47-5.35-6.5-7.34-4.27-2.81-10.09-3.5-15.47-4.05-1.67-.2-3.59-.27-4.77.55a2.91,2.91,0,0,0-1.11,2.06c-.87,5.69,4.58,11.46,11,15.16s14,6.18,20.48,9.88c7.55,4.18,13.56,10,17.15,16.33a39.68,39.68,0,0,0-16.28-8.72c-4.21-1.09-9.66-1.23-11.45,1.51-2.23,3.37,3.34,7.41,8.48,8.44s10.83.62,15.41,2.81a23,23,0,0,1,6.5,5.22l19.86,20.85c-4.33-5.14-11-9.19-18.56-11.32-1.49-.41-3.22-.68-4.4-.07a3.08,3.08,0,0,0-1.42,2.13,7.74,7.74,0,0,0,2.54,7.68c5.38,4.6,15.84,2.82,21.72,7.07a15.36,15.36,0,0,1,4.33,5.49l9.41,16.87c-2.79-3.63-3.9-7.89-7.37-11.18s-10.89-5.07-13.92-1.92c-1.92,2-1,5.08,1.11,7.27s5.08,3.78,7.74,5.63c11.33,7.68,16.34,19,20.86,29.63a26.17,26.17,0,0,0-9.29-14c-1.92-1.58-4.89-3.09-7.18-2.13a3.52,3.52,0,0,0-1.67,1.51c-2,3.36.5,7.68,4,10.7s8.17,5.22,11.69,8.23c11.33,9.61,12.2,23.53,18.51,34.65C472.73,440.76,478.74,413.39,479.17,408.17Z"/><path class="cls-12" d="M411.41,349.71v72.91a6.26,6.26,0,0,0,0,.75c0,.18-.05.23-.34.21s-.76,0-1.15,0H-14.26c-.49,0-1.18.12-1.42,0s-.06-.6-.06-.92V349.71a3,3,0,0,1,1.85-.25c5.91.52,11.83,1,17.78,1.25,4.14.18,8.29.33,12.46.3,6.46-.05,12.93.11,19.36-.26,11.34-.66,22.62-1.52,33.72-3.27,8.67-1.37,17.22-3,26-4.11a136,136,0,0,1,18.73-1.28,119.94,119.94,0,0,1,28,3.87c6.33,1.59,12.49,3.44,18.56,5.41a45.24,45.24,0,0,0,16,2.36A74.67,74.67,0,0,0,194,350.81c6-1.72,11.6-3.82,17.25-5.91A66.64,66.64,0,0,1,236,340.58a147,147,0,0,1,16.71,1.57c5.78.78,11.58,1.53,17.46,2,1.58.11,3.16.19,4.74.25,2.67.09,5.36.17,8,.19,3.76,0,7.53-.16,11.3-.3a270.19,270.19,0,0,0,28.47-3c3.15-.45,6.26-1,9.36-1.62a87.09,87.09,0,0,1,16.29-1.79,91.9,91.9,0,0,1,23.77,3.27c6.29,1.65,12.46,3.5,18.82,5a136.83,136.83,0,0,0,15.73,2.57C408.32,348.9,410.14,348.79,411.41,349.71Z"/><path class="cls-12" d="M838.18,349.71v72.91a6.26,6.26,0,0,0,0,.75c0,.18-.05.23-.34.21s-.77,0-1.15,0H412.51c-.5,0-1.18.12-1.43,0s-.05-.6-.05-.92V349.71a3,3,0,0,1,1.85-.25c5.91.52,11.83,1,17.78,1.25,4.14.18,8.29.33,12.46.3,6.45-.05,12.92.11,19.36-.26,11.33-.66,22.62-1.52,33.72-3.27,8.66-1.37,17.22-3,26-4.11a136.26,136.26,0,0,1,18.74-1.28A119.86,119.86,0,0,1,568.87,346c6.34,1.59,12.49,3.44,18.56,5.41a45.28,45.28,0,0,0,16,2.36,74.5,74.5,0,0,0,17.38-2.92c6-1.72,11.6-3.82,17.26-5.91a66.64,66.64,0,0,1,24.74-4.32,147.18,147.18,0,0,1,16.71,1.57c5.78.78,11.58,1.53,17.46,2,1.57.11,3.16.19,4.74.25,2.67.09,5.35.17,8,.19,3.76,0,7.54-.16,11.3-.3a270.66,270.66,0,0,0,28.48-3c3.15-.45,6.26-1,9.35-1.62a87.2,87.2,0,0,1,16.3-1.79,92,92,0,0,1,23.77,3.27c6.29,1.65,12.46,3.5,18.82,5a136.47,136.47,0,0,0,15.73,2.57C835.09,348.9,836.91,348.79,838.18,349.71Z"/><path d="M125.9,401a30.64,30.64,0,0,1-2,12.21c24.75-31.49,40.1-68.94,55.14-105.85,8.67-21.34,17.39-42.74,22.34-65.17,3.66-16.67,5.39-34.44,14.8-48.78-15.41,17.63-31.2,37.46-31.82,60.72l-1.11-4.53a162.83,162.83,0,0,1-2.41,50.21c-2.11-20-4.65-41.16-16.78-57.35,4.58,17.36-4,35.54-2.9,53.44.74,12.08,5.81,23.4,8.23,35.26a149.17,149.17,0,0,1-24-46.58c-7.55,10.22-4.33,24.63,1.06,36.09s12.75,22.77,12.56,35.39a302.92,302.92,0,0,0-25.62-37c-2.11-2.61-6.5-5.15-8.23-2.26-.75,1.16-.44,2.74,0,4,2.72,9,7.86,17.08,11.51,25.73a82,82,0,0,1,3,54.88L184.51,379c5.82-2.95,11.76-5.9,16.4-10.5,8-7.75,11.26-19,14.17-29.63a45.56,45.56,0,0,1-24.57,14.33c-6,1.31-12.25,1.38-18.26,2.88s-11.88,5-14.11,10.64a151.92,151.92,0,0,1,31-22.78c8.73-4.87,18.2-9,24.94-16.32,9.16-9.95,11.76-23.88,14-37.12a75.35,75.35,0,0,1-26.8,28.88c-6.75,4.19-14.11,7.34-20.49,12s-11.88,11.32-12.56,19.14c.56-14.48,10.46-27.1,21.6-36.57s24-17.15,33.92-27.92a73.2,73.2,0,0,0,19.06-43.63c-11.57,27.86-39.73,44.73-62.88,64.42-3.65,3.09-7.49,8-5,12.07,9.23-15.84,18.76-32,32.81-44,5.57-4.73,11.82-8.78,16.52-14.34,12.38-14.54,11.58-35.67,17.95-53.57-17.33,19.89-34.91,40.2-44.81,64.48-2.6,6.45-4.7,13.17-6.74,19.83"/><path d="M575.9,404.6c-.43-2.46-.61-5.07.5-7.4a7.34,7.34,0,0,1,6.93-4.12c3.16.34,4.89,3.16,5.7,5.76,1.91,5.83,1.85,12.08,1.79,18.25l-.19,19.83a204.78,204.78,0,0,1,4.52-43.36c1.61-7.75,3.65-15.64,2.11-23.19-.93-4.73-3.28-9.12-4.34-13.85a29.49,29.49,0,0,1,2.67-20c1-2,2.53-4.11,5-4.59,3.9-.69,6.19,3.22,6.56,6.51,1.42,13.45-7.68,26.76-9.53,40.41a130,130,0,0,1,15-45.41c1.85-3.36,3.83-6.73,4.7-10.29s.56-7.14.25-10.64l-1.8-19.89c-.18-2.47-.43-5,.62-7.41a7.29,7.29,0,0,1,6.63-4.39,5.89,5.89,0,0,1,5.26,3.91,13.38,13.38,0,0,1,.12,6.45A118.26,118.26,0,0,1,616,328.32l31.25-66.2c1.24-2.67,2.6-5.42,5-7.47,3.46-2.89,8.41-3.85,13.12-4.67,1.42-.27,3.09-.48,4.21.27a3.18,3.18,0,0,1,1.11,2c1.3,5.56-3,11.39-8.23,15.3s-11.57,6.66-17,10.5a38.22,38.22,0,0,0-13.43,16.74,31.17,31.17,0,0,1,13.37-9.2c3.47-1.3,8.29-1.64,10.09,1,2.23,3.23-2.23,7.41-6.62,8.58s-9.35,1-13.13,3.43a19.67,19.67,0,0,0-5.19,5.42l-15.41,21.19a30.3,30.3,0,0,1,15.1-11.79,5,5,0,0,1,3.83-.28,3.33,3.33,0,0,1,1.43,2.06,7.92,7.92,0,0,1-1.49,7.61c-4.27,4.74-13.55,3.43-18.26,7.82a14.81,14.81,0,0,0-3.28,5.56l-6.68,16.88c2.1-3.71,2.72-7.89,5.45-11.25s9-5.42,11.88-2.47c1.86,1.92,1.3,4.87-.31,7.13s-4.09,3.91-6.25,5.83c-9.16,8-12.57,19.28-15.54,29.84A24.59,24.59,0,0,1,608,368.11c1.55-1.58,4-3.22,6.07-2.4a3.41,3.41,0,0,1,1.61,1.44c2.1,3.22.31,7.55-2.54,10.63s-6.62,5.49-9.47,8.58c-9,9.88-8.54,23.53-13.06,34.64C584.32,436.23,576.71,409.68,575.9,404.6Z"/></svg>