<svg xmlns="http://www.w3.org/2000/svg" xmlns:xlink="http://www.w3.org/1999/xlink" viewBox="0 0 1369 767"><defs><style>.cls-1{fill:url(#radial-gradient);}.cls-2{fill:#021d18;}</style><radialGradient id="radial-gradient" cx="682.49" cy="397.21" r="633.64" gradientTransform="translate(0 -8.4) scale(1 0.99)" gradientUnits="userSpaceOnUse"><stop offset="0" stop-color="#adc49c"/><stop offset="0.03" stop-color="#a4c19a"/><stop offset="0.08" stop-color="#8aba93"/><stop offset="0.15" stop-color="#61ad89"/><stop offset="0.19" stop-color="#3ea380"/><stop offset="0.42" stop-color="#346a55"/><stop offset="0.48" stop-color="#245b49"/><stop offset="0.57" stop-color="#10473b"/><stop offset="0.66" stop-color="#043b32"/><stop offset="0.76" stop-color="#00372f"/><stop offset="1" stop-color="#021d18"/></radialGradient></defs><g id="Layer_1" data-name="Layer 1"><rect class="cls-1" x="-4" y="-1.05" width="1374" height="769.96"/></g><g id="Layer_4" data-name="Layer 4"><path class="cls-2" d="M318.57,507c-3.62,1.4-6.17,3.3-9.31,5.59a24.24,24.24,0,0,0,8.29,2.49,55.19,55.19,0,0,0,14.29-.33c14.17-1.73,28-4.94,41.74-8.13a107,107,0,0,1-16.5.47c-6.59-.5-13-2.21-19.56-2.61a50.93,50.93,0,0,0-16.12,1.6A29.41,29.41,0,0,0,318.57,507Z"/><path class="cls-2" d="M291.65,447.83c5.24,18.88,17.06,34.47,21.38,53.63.71,3.15,2,12.07-1.74,11.77-3.1-.24-5.17-8.69-6.32-11.88a267.52,267.52,0,0,1-9.49-34.11C294.11,460.91,293.37,454,291.65,447.83Z"/><path class="cls-2" d="M151,593.31c30.16,11.48,61.23,13.12,91,25.82,4.89,2.09,18.18,8.73,14.69,12.39-2.88,3-16.15-2.4-21.47-4.06a550.13,550.13,0,0,1-54.5-20.71C170.93,602.49,160.91,597.08,151,593.31Z"/><path class="cls-2" d="M286.52,481.37c-3.09-13.19-5.08-26.66-9-39.64a479.33,479.33,0,0,1,21.35,62.63c1.09,4.09,2.92,9.09,2.56,13.31-4.19-3-6.83-11.17-8.7-15.8A141.29,141.29,0,0,1,286.52,481.37Z"/><path class="cls-2" d="M340,526.16c9.08.55,17.93-2.6,26.47-5.72-11.53,4.92-23.5,9.92-36,9.75A56.13,56.13,0,0,1,313.14,527c-2.15-.73-11.86-4.4-5.89-7.16,4.21-2,12.43,1.48,16.51,2.7C329.06,524.09,334.39,525.82,340,526.16Z"/><path class="cls-2" d="M323,603.36c13.26.8,26.19-3.77,38.68-8.28-16.86,7.12-34.33,14.36-52.66,14.11a82.45,82.45,0,0,1-25.21-4.66c-3.13-1.06-17.32-6.36-8.6-10.37,6.15-2.83,18.16,2.15,24.12,3.91C307.08,600.37,314.87,602.87,323,603.36Z"/><path class="cls-2" d="M301.52,658.29c13.13,2,26.38-.43,39.19-2.89-17.38,4.18-35.39,8.4-53.59,6.3a96.89,96.89,0,0,1-24.68-6.49c-3-1.2-16.67-7.08-7.66-9.51,6.37-1.72,17.88,3.66,23.66,5.75C286,654.16,293.48,657,301.52,658.29Z"/><path class="cls-2" d="M308.27,641.23c13.67,1.64,27.3-1,40.48-3.61-17.85,4.34-36.34,8.75-55.27,7.16a109.29,109.29,0,0,1-25.8-5.6c-3.18-1.07-17.55-6.34-8.3-8.85,6.53-1.77,18.66,3.08,24.72,4.92C292,637.66,299.89,640.22,308.27,641.23Z"/><path class="cls-2" d="M280.28,451.19q8.84,26.58,20.18,52.22c1.62,3.65,7.36,14.06,4.45,17.92-3.83,5.08-8-7.39-9-9.62a182.57,182.57,0,0,1-12.51-38.52q-1.14-5.52-1.93-11.1C281,458.72,281.34,454.37,280.28,451.19Z"/><path class="cls-2" d="M214.36,539.93q23.76,14.85,48.86,27.33c3.58,1.78,14.64,6.13,14.86,11,.29,6.36-10.85-.61-13.05-1.68a182.52,182.52,0,0,1-34.21-21.68q-4.4-3.52-8.57-7.31C219.73,545.26,217.21,541.71,214.36,539.93Z"/><path class="cls-2" d="M287.43,531c-4.46-5.3-5.49-12.89-6.5-20a430.1,430.1,0,0,0-10.17-50.06c1.43,7.48,5.37,14.09,7.74,21.28,3.3,10,3.55,21,7.52,30.7,1.29,3.17,3,6.17,3.87,9.5.64,2.34.88,4.85,2,7,1.49,2.77,4.18,4.81,3.91,8.33A32.21,32.21,0,0,1,287.43,531Z"/><path class="cls-2" d="M243.75,646.45c-6.92.45-13.64-3.23-19.94-6.62a429.21,429.21,0,0,0-46.33-21.53c6.87,3.28,14.52,4,21.72,6.4,10,3.27,19,9.6,29.17,12.17,3.32.84,6.74,1.27,9.95,2.52,2.26.88,4.42,2.17,6.8,2.51,3.11.45,6.35-.51,9,1.79A32,32,0,0,1,243.75,646.45Z"/><path class="cls-2" d="M341.38,537c6.58-.45,13-1.53,19.42-2.6l12-2c.65.52.39,1.34-.29,1.84a7.69,7.69,0,0,1-2.63,1q-9.71,2.37-19.48,4.6a141.9,141.9,0,0,1-17.88,3.22c-8.78.85-23.75.73-30.74-3.56-2.61-1.6-3.8-3.8.44-4.14,5.73-.45,12.44,1,18.14,1.4A150.06,150.06,0,0,0,341.38,537Z"/><path class="cls-2" d="M274.6,542.68c-8.29-10.94-16.68-22-21.7-34.82-2.55-6.52-4.2-13.38-7-19.8s-6.93-12.57-13.08-15.92l-.08-1.66q14.44,18.38,28.33,37.17a187.52,187.52,0,0,1,11.62,17.09,238.68,238.68,0,0,1,12.18,23.57c1.24,2.84,1.41,5.54-2.19,3.13C279.42,549.24,277,545.79,274.6,542.68Z"/><path class="cls-2" d="M308.7,550.72c21.08,1.59,42.31-4.44,63.3-1.84a161.86,161.86,0,0,1-48,9,66.58,66.58,0,0,1-11.47-.4,51.8,51.8,0,0,1-8.61-2c-1.65-.52-8-1.89-8.83-3.38C293.12,548.45,306.78,550.57,308.7,550.72Z"/><path class="cls-2" d="M262.12,555.44c-6.65-4.1-13.07-8.72-18.32-14.51C234.06,530.15,228.92,516,220,504.51c14.47,18.91,29.55,38.35,50.41,49.84,1.21.66,13.86,7.48,9.2,9.8-1.48.74-7.1-2.9-8.51-3.62C268,559,265.05,557.25,262.12,555.44Z"/><path class="cls-2" d="M241.44,610.3c-10-1.91-19.78-4.46-28.4-8.7-16-7.88-27-21.09-42.15-30,24.67,14.8,50.29,29.95,81.11,34.49,1.78.26,20.44,2.85,15,7-1.73,1.34-10.2-.47-12.27-.71C250.26,611.86,245.83,611.14,241.44,610.3Z"/><path class="cls-2" d="M305.53,565.22c13.2,1.64,26.57-.09,39.87.28,10.16.28,20.3,1.78,30.46,1.26,1.45-.07,3.08-.28,4-1.45-8.64,3.39-18,4.64-27.2,5.45-21.14,1.86-42.69,1.53-63.28-3.65-1.26-.32-3.64-1-3.14-2.69s4.12-1.11,5.3-1C296.21,563.63,300.85,564.64,305.53,565.22Z"/><path class="cls-2" d="M230.16,567.45c-7.8-4.83-15.72-9.75-21.8-16.62-.9-1-1.8-2.33-1.33-3.59,4.94,9.66,10.39,19.25,18.1,26.89,9.88,9.79,22.74,15.74,35.49,20.84,2.86,1.15,6.89,3.47,10,3.1,2.37-.27,4.19-1.84,2.79-3.86-1.73-2.48-7.51-4.64-10.13-6.26l-10.16-6.28Z"/><path class="cls-2" d="M357,578c-19,4.17-38.27,6.94-57.67,6.93-5,0-13.51.57-17.87-2.34-6.26-4.17,7.88-4.35,9.87-4.42q21-.72,42-.59Q345.14,577.63,357,578Z"/><path class="cls-2" d="M355.19,624.27c-22.64,1-45.46.4-67.89-3.24-5.76-.93-15.72-1.91-20.25-5.88-6.5-5.71,9.87-3.26,12.19-3q24.39,3.12,48.65,7.19Q341.57,621.67,355.19,624.27Z"/><path class="cls-2" d="M328.32,484.08a346.88,346.88,0,0,0-33.76,53,539.39,539.39,0,0,0-25.44,57.61c-7.54,19.85-14.25,40-20.77,60.22s-12.94,40.7-19.79,60.93-14.07,40.12-22.47,59.64c-1,2.4-2.07,4.78-3.13,7.16s2.4,4.37,3.45,2c8.67-19.41,16.19-39.3,23.14-59.38s13.32-40.23,19.79-60.4,13.08-40.48,20.4-60.45a577.39,577.39,0,0,1,24.45-57.8,358.84,358.84,0,0,1,32.27-53.51c1.53-2.09,3.1-4.15,4.69-6.2a2.06,2.06,0,0,0,0-2.82,2,2,0,0,0-2.83,0Z"/><path class="cls-2" d="M314.1,503.56c-.67-6.22,1.25-12.51,4.15-17.73s6.75-9.59,10.42-14.07a258.43,258.43,0,0,0,33-52.16c-8.47,27-19,53.3-33.5,76.38-1.83,2.92-3.77,5.83-6.34,7.78-1.57,1.19-3.5,2-5.29,1.37a4.23,4.23,0,0,1-2.38-5.14"/><path class="cls-2" d="M320.53,498.35c.5-3.66,4-6,7.25-7.81,18.54-10.25,38.61-17.38,58.57-24.46l-23.12,16.49c-7.19,5.12-14.43,10.28-22.5,13.84s-17.13,5.45-25.78,3.72"/><path class="cls-2" d="M317.75,495.36c-.12.67-1.15.07-1.38-.58-2.44-6.74-1.9-14.2-.41-21.21s3.9-13.81,5.18-20.86c1.43-7.85,1.42-15.88,1.25-23.85l-.09,29.94c0,7.51-.05,15-.6,22.5-.33,4.58-.9,9.28-3.13,13.3"/><path class="cls-2" d="M1202.85,539c3.71.64,6.51,2,10,3.61a22.83,22.83,0,0,1-7.31,4.09,51.35,51.35,0,0,1-13.55,2.53c-13.73,1.13-27.43.75-41.07.37a100.18,100.18,0,0,0,15.67-2.84c6.11-1.8,11.77-4.74,17.91-6.45a47.41,47.41,0,0,1,15.55-1.64A24,24,0,0,1,1202.85,539Z"/><path class="cls-2" d="M1216,475.74c-1,19.51-9,37.13-9.08,56.74,0,3.22.59,12.2,4.07,11.16,2.88-.86,3.08-9.53,3.51-12.88a273.69,273.69,0,0,0,1.9-35.26C1216.4,489,1215.67,482.15,1216,475.74Z"/><path class="cls-2" d="M1378.83,590c-26.08,17.24-55.07,25.05-80.55,43.42-4.19,3-15.35,12.16-11.3,15,3.35,2.39,14.74-5.57,19.42-8.26a518.55,518.55,0,0,0,47.15-31.14C1361.92,603,1370.26,595.68,1378.83,590Z"/><path class="cls-2" d="M1227.79,507.52c.19-13.52-.72-27.08.26-40.56a492.62,492.62,0,0,0-7.2,65.53c-.18,4.22-.87,9.48.34,13.54,3.34-3.77,4.14-12.29,4.94-17.2A143.15,143.15,0,0,0,1227.79,507.52Z"/><path class="cls-2" d="M1186.63,562c-8.46,2.35-17.46,1-26.17-.31,11.91,2.51,24.23,5,36,2.34a52.42,52.42,0,0,0,15.62-6.59c1.87-1.14,10.28-6.66,4.07-8.18-4.38-1.07-11.42,3.93-15,5.94C1196.48,557.82,1191.81,560.57,1186.63,562Z"/><path class="cls-2" d="M1218.6,634.16c-12.36,3.43-25.5,1.53-38.22-.38,17.38,3.6,35.37,7.2,52.61,3.3a77.32,77.32,0,0,0,22.83-9.59c2.74-1.67,15-9.68,6-11.86-6.39-1.54-16.69,5.72-22,8.64C1233,628.06,1226.17,632.06,1218.6,634.16Z"/><path class="cls-2" d="M1250.22,683.62c-12,4.61-25,4.84-37.57,5,17.26.62,35.13,1.15,51.87-4.53a90.88,90.88,0,0,0,21.94-11.27c2.61-1.78,14.28-10.25,5.27-10.83-6.37-.41-16.12,7.15-21.14,10.34C1264.07,676.47,1257.56,680.79,1250.22,683.62Z"/><path class="cls-2" d="M1240.33,668.27c-12.56,4.33-26,4.47-38.95,4.54,17.74.69,36.1,1.31,53.64-4a102.05,102.05,0,0,0,23.19-10.62c2.78-1.69,15.24-9.71,6-10.32-6.53-.42-17,6.73-22.31,9.75C1255,661.53,1248,665.62,1240.33,668.27Z"/><path class="cls-2" d="M1227.44,476.75q-2.84,27.78-8.25,55.13c-.77,3.89-4,15.21-.48,18.41,4.66,4.2,6-8.82,6.47-11.2a187.79,187.79,0,0,0,3.84-40.18q-.07-5.62-.48-11.25C1228.3,484.27,1227.1,480.08,1227.44,476.75Z"/><path class="cls-2" d="M1308,550.43q-19.35,19.26-40.46,36.49c-3,2.45-12.54,8.91-11.75,13.68,1,6.28,10.11-2.76,12-4.25a175.45,175.45,0,0,0,27.79-28q3.42-4.32,6.58-8.86C1304,556.72,1305.68,552.74,1308,550.43Z"/><path class="cls-2" d="M1237.19,556.24c3.12-6.08,2.52-13.71,2-20.85a445.36,445.36,0,0,1-.75-51c.19,7.6-2.15,14.85-2.91,22.36-1,10.43,1,21.25-.74,31.53-.57,3.36-1.53,6.64-1.69,10.07-.12,2.42.17,4.93-.46,7.22-.84,3-3,5.54-2,8.92A30.73,30.73,0,0,0,1237.19,556.24Z"/><path class="cls-2" d="M1302.29,660.51c6.63-.94,12.21-5.88,17.45-10.46a407.87,407.87,0,0,1,39.27-30.3c-5.8,4.58-12.87,6.85-19.18,10.59-8.75,5.2-15.95,13.19-25,17.73-3,1.48-6.1,2.58-8.87,4.45-2,1.31-3.73,3-5.9,3.81-2.84,1.06-6.1.77-8.14,3.55A29.82,29.82,0,0,0,1302.29,660.51Z"/><path class="cls-2" d="M1187.54,572.93a184.66,184.66,0,0,1-18.87,1.32l-11.77.43c-.5.64-.09,1.39.66,1.74a7.32,7.32,0,0,0,2.68.44q9.65.39,19.34.62a133.74,133.74,0,0,0,17.53-.42c8.46-.93,22.56-4,28.27-9.61,2.14-2.09,2.81-4.49-1.26-4-5.5.71-11.54,3.45-16.84,5A138.8,138.8,0,0,1,1187.54,572.93Z"/><path class="cls-2" d="M1251.72,565.13c5.56-12.35,11.18-24.9,13.27-38.39,1.07-6.89,1.2-13.92,2.5-20.76s3.94-13.69,9-18.19l-.26-1.64q-9.84,20.87-19.06,42a186.18,186.18,0,0,0-7.42,19,242.1,242.1,0,0,0-6.63,25.49c-.58,3-.18,5.7,2.72,2.63C1248.53,572.52,1250.14,568.65,1251.72,565.13Z"/><path class="cls-2" d="M1221.2,579.8c-19.56,5.77-40.84,4.1-60.11,10.83a151.4,151.4,0,0,0,47.13-.74,61.81,61.81,0,0,0,10.74-2.68,48.31,48.31,0,0,0,7.71-3.7c1.45-.85,7.17-3.45,7.63-5.08C1235.43,574.47,1223,579.27,1221.2,579.8Z"/><path class="cls-2" d="M1266.13,575.13c5.44-5.33,10.54-11.13,14.29-17.85,7-12.49,8.89-27.38,14.93-40.38-9.75,21.39-20,43.42-37.27,58.82-1,.89-11.53,10.08-6.66,11.42,1.55.43,6.11-4.26,7.29-5.24C1261.28,579.76,1263.74,577.48,1266.13,575.13Z"/><path class="cls-2" d="M1297,624.68c9-3.86,17.74-8.31,25-14.18,13.48-10.91,21.13-26,33.56-37.78-20.21,19.41-41.26,39.34-69.4,49.93-1.63.61-18.7,6.86-12.72,9.89,1.91,1,9.53-2.5,11.43-3.15C1289,628,1293,626.38,1297,624.68Z"/><path class="cls-2" d="M1227.19,593.36c-12.11,4.23-25.09,5.22-37.56,8.23-9.53,2.3-18.79,5.79-28.48,7.3-1.39.22-3,.34-4-.62,8.85,1.59,17.9,1,26.79-.09,20.34-2.4,40.61-7,59-16.2,1.13-.56,3.25-1.66,2.41-3.26s-4.11-.26-5.21,0C1235.66,589.94,1231.49,591.85,1227.19,593.36Z"/><path class="cls-2" d="M1298.78,580.5c6.36-6.27,12.82-12.67,17.14-20.6.63-1.16,1.21-2.64.51-3.78-2.66,10.44-5.83,20.9-11.52,29.92-7.3,11.55-18.21,19.93-29.18,27.47-2.46,1.69-5.79,4.77-8.84,5-2.29.2-4.33-1-3.42-3.22,1.11-2.78,6.12-6,8.26-8.15L1280,599Z"/><path class="cls-2" d="M1181.28,616.1c18.75.3,37.55-.84,55.86-4.73,4.7-1,12.86-2.14,16.37-5.85,5-5.33-8.33-2.68-10.22-2.35q-20,3.47-39.75,7.79Q1192.38,613.39,1181.28,616.1Z"/><path class="cls-2" d="M1192.54,661c21.57-3.54,43-8.68,63.4-16.71,5.24-2.07,14.44-5,17.89-9.8,5-6.88-10-1.22-12.11-.46q-22.38,7.92-44.43,16.74Q1204.87,655.78,1192.54,661Z"/><path class="cls-2" d="M1186.8,521.24a345.72,345.72,0,0,1,42.67,45.06,545.16,545.16,0,0,1,35.78,51.26c11.15,17.86,21.59,36.15,31.86,54.53,10.37,18.54,20.59,37.16,31.23,55.56s21.57,36.35,33.53,53.77q2.16,3.15,4.37,6.27c1.1,1.56,3.7.07,2.59-1.52-12.23-17.29-23.43-35.29-34.13-53.56s-21-36.93-31.34-55.48-20.68-36.91-31.72-55a589.06,589.06,0,0,0-35.3-51.93,360.71,360.71,0,0,0-41.78-46.08q-2.79-2.56-5.64-5c-1.44-1.27-3.57.85-2.12,2.12Z"/><path class="cls-2" d="M1206.35,534.74c-.65-6.22-3.76-12-7.58-16.52s-8.35-8-12.74-11.69a259.71,259.71,0,0,1-41.94-44.45c13.58,24.74,29,48.36,47.41,68.06,2.33,2.48,4.76,5,7.59,6.34,1.73.85,3.72,1.25,5.28.28a4.26,4.26,0,0,0,1.18-5.5"/><path class="cls-2" d="M1199.21,530.92c-1.23-3.48-5-5.09-8.46-6.19-19.61-6.33-40-9.3-60.33-12.25L1155.66,524c7.83,3.58,15.74,7.18,24.09,9.06s17.29,1.91,25.1-1.5"/><path class="cls-2" d="M1201.22,527.44c.25.64,1.09-.16,1.18-.83.9-7.08-1.14-14.28-4-20.84s-6.54-12.73-9.21-19.37c-3-7.4-4.62-15.26-6.11-23.09l6.29,29.28c1.57,7.33,3.15,14.68,5.21,21.89,1.26,4.41,2.77,8.9,5.7,12.38"/><path class="cls-2" d="M910.3,543.62c4.13.68,7.23,2.1,11.06,3.79a25.86,25.86,0,0,1-8.13,4.28,59.47,59.47,0,0,1-15.05,2.65c-15.26,1.18-30.47.79-45.64.39a116.83,116.83,0,0,0,17.41-3c6.79-1.89,13.09-5,19.91-6.76a55.51,55.51,0,0,1,17.28-1.72A29.15,29.15,0,0,1,910.3,543.62Z"/><path class="cls-2" d="M924.93,477.3c-1.16,20.45-10,38.9-10.09,59.45,0,3.37.65,12.79,4.52,11.7,3.2-.9,3.42-10,3.9-13.5a271.84,271.84,0,0,0,2.11-37C925.36,491.22,924.55,484,924.93,477.3Z"/><path class="cls-2" d="M1105.83,597c-29,18.07-61.18,26.25-89.5,45.49-4.65,3.16-17.06,12.75-12.56,15.77,3.72,2.51,16.39-5.83,21.58-8.65A581.15,581.15,0,0,0,1077.74,617C1087,610.61,1096.3,603,1105.83,597Z"/><path class="cls-2" d="M938,510.61c.21-14.17-.81-28.38.28-42.5a488.5,488.5,0,0,0-8,68.66c-.2,4.42-1,9.93.38,14.17,3.71-3.94,4.6-12.87,5.49-18A142.51,142.51,0,0,0,938,510.61Z"/><path class="cls-2" d="M892.28,567.69c-9.39,2.47-19.4,1.08-29.08-.32,13.23,2.62,26.92,5.25,40,2.45a59.83,59.83,0,0,0,17.36-6.91c2.08-1.19,11.42-7,4.53-8.57-4.87-1.12-12.7,4.12-16.69,6.22C903.23,563.3,898,566.18,892.28,567.69Z"/><path class="cls-2" d="M927.8,643.28c-13.73,3.59-28.33,1.61-42.46-.4,19.31,3.77,39.3,7.54,58.45,3.46a88.59,88.59,0,0,0,25.36-10.05c3.05-1.74,16.7-10.14,6.64-12.43-7.1-1.61-18.55,6-24.39,9C943.8,636.89,936.21,641.08,927.8,643.28Z"/><path class="cls-2" d="M962.94,695.1c-13.29,4.83-27.76,5.07-41.75,5.23,19.18.64,39,1.21,57.63-4.75a103.34,103.34,0,0,0,24.38-11.8c2.9-1.87,15.86-10.75,5.85-11.36-7.07-.43-17.9,7.49-23.48,10.84C978.32,687.61,971.09,692.14,962.94,695.1Z"/><path class="cls-2" d="M952,679c-14,4.53-28.86,4.68-43.28,4.75,19.71.73,40.11,1.38,59.6-4.2A117.38,117.38,0,0,0,994,668.43c3.08-1.76,16.93-10.17,6.66-10.8-7.25-.45-18.85,7-24.78,10.21C968.2,672,960.5,676.24,952,679Z"/><path class="cls-2" d="M937.62,478.37q-3.14,29.1-9.16,57.75c-.85,4.08-4.48,15.94-.54,19.29,5.18,4.41,6.65-9.24,7.19-11.74a185.77,185.77,0,0,0,4.27-42.09q-.07-5.9-.53-11.78C938.58,486.24,937.24,481.86,937.62,478.37Z"/><path class="cls-2" d="M1027.13,555.56q-21.5,20.18-45,38.23c-3.34,2.57-13.94,9.33-13.06,14.34,1.16,6.57,11.23-2.9,13.3-4.46a190,190,0,0,0,30.88-29.37q3.81-4.53,7.31-9.28C1022.72,562.14,1024.56,558,1027.13,555.56Z"/><path class="cls-2" d="M948.46,561.65c3.46-6.37,2.8-14.37,2.22-21.85a439.3,439.3,0,0,1-.83-53.43c.21,8-2.4,15.56-3.23,23.43-1.16,10.92,1.1,22.26-.83,33-.63,3.52-1.7,7-1.88,10.55-.13,2.54.19,5.16-.51,7.56-.93,3.15-3.29,5.81-2.2,9.35A32.87,32.87,0,0,0,948.46,561.65Z"/><path class="cls-2" d="M1020.79,670.89c7.36-1,13.56-6.16,19.39-11a450.94,450.94,0,0,1,43.63-31.75c-6.45,4.8-14.3,7.18-21.31,11.1-9.72,5.44-17.72,13.82-27.78,18.57-3.29,1.56-6.77,2.71-9.85,4.66-2.17,1.38-4.15,3.16-6.56,4-3.16,1.11-6.78.8-9,3.72A35.36,35.36,0,0,0,1020.79,670.89Z"/><path class="cls-2" d="M893.29,579.13c-7,.91-14,1.15-21,1.39l-13.07.45c-.56.66-.1,1.45.73,1.82a8.48,8.48,0,0,0,3,.46q10.72.4,21.48.64a155.18,155.18,0,0,0,19.49-.43c9.4-1,25.07-4.22,31.41-10.07,2.37-2.19,3.11-4.7-1.41-4.16-6.11.74-12.82,3.61-18.7,5.23A161.8,161.8,0,0,1,893.29,579.13Z"/><path class="cls-2" d="M966.81,569.93c5.73-12.76,11.52-25.72,13.59-39.71,1.06-7.13,1.13-14.44,2.43-21.52s4-14.16,9.35-18.78l-.3-1.71q-10.14,21.56-19.64,43.42a187.49,187.49,0,0,0-7.63,19.68,242.7,242.7,0,0,0-6.73,26.38c-.58,3.14-.13,5.92,2.89,2.76C963.52,577.56,965.18,573.56,966.81,569.93Z"/><path class="cls-2" d="M930.7,586.33c-21.74,6-45.39,4.29-66.79,11.35a178.39,178.39,0,0,0,52.36-.78,71.11,71.11,0,0,0,11.93-2.81,55.11,55.11,0,0,0,8.57-3.88c1.61-.88,8-3.61,8.48-5.31C946.5,580.75,932.68,585.78,930.7,586.33Z"/><path class="cls-2" d="M980.62,581.44c6-5.59,11.7-11.67,15.87-18.71,7.74-13.08,9.87-28.68,16.58-42.3-10.83,22.41-22.18,45.49-41.4,61.62-1.12.94-12.82,10.57-7.4,12,1.73.45,6.78-4.46,8.1-5.49C975.22,586.28,978,583.9,980.62,581.44Z"/><path class="cls-2" d="M1014.91,633.35c10-4,19.71-8.71,27.77-14.86,15-11.42,23.48-27.26,37.3-39.58-22.46,20.33-45.85,41.22-77.12,52.31-1.81.64-20.77,7.19-14.13,10.36,2.12,1,10.59-2.61,12.7-3.3C1006,636.79,1010.5,635.13,1014.91,633.35Z"/><path class="cls-2" d="M937.35,600.53c-13.46,4.44-27.88,5.47-41.74,8.62-10.59,2.41-20.88,6.07-31.64,7.66-1.54.23-3.31.35-4.49-.66,9.84,1.67,19.89,1,29.77-.09,22.6-2.52,45.12-7.36,65.51-17,1.25-.59,3.6-1.74,2.67-3.41s-4.57-.28-5.79,0C946.75,597,942.12,599,937.35,600.53Z"/><path class="cls-2" d="M1016.89,587.07c7.07-6.58,14.24-13.28,19-21.59.71-1.22,1.35-2.77.57-4-3,10.93-6.48,21.9-12.8,31.34-8.11,12.11-20.23,20.89-32.42,28.78-2.74,1.78-6.43,5-9.82,5.28-2.55.22-4.81-1-3.81-3.37,1.24-2.91,6.8-6.33,9.18-8.54l9.21-8.56Z"/><path class="cls-2" d="M886.34,624.36c20.82.31,41.72-.88,62.06-5,5.22-1,14.29-2.25,18.19-6.13,5.61-5.59-9.25-2.82-11.36-2.47q-22.17,3.63-44.16,8.16Q898.67,621.52,886.34,624.36Z"/><path class="cls-2" d="M898.85,671.44c24-3.71,47.76-9.09,70.44-17.51,5.82-2.16,16-5.24,19.88-10.26,5.51-7.21-11.1-1.28-13.46-.49q-24.86,8.31-49.36,17.54Q912.54,665.94,898.85,671.44Z"/><path class="cls-2" d="M891.53,526A372.69,372.69,0,0,1,939,573.32a569.45,569.45,0,0,1,39.38,53.19c12.41,18.73,24,38,35.49,57.27s22.87,38.93,34.67,58.17,23.89,38,37.09,56.11c1.66,2.27,3.33,4.54,5,6.79a3.1,3.1,0,0,0,4.1,1.08c1.28-.75,2-2.8,1.08-4.11-13.54-18.06-26-36.9-37.89-56.06s-23.38-38.79-34.91-58.28-23.05-38.79-35.34-57.7a622.88,622.88,0,0,0-39.25-54.44,386.59,386.59,0,0,0-46.23-48.13q-3.21-2.78-6.48-5.46a3.08,3.08,0,0,0-4.24,0,3,3,0,0,0,0,4.24Z"/><path class="cls-2" d="M914.19,539.12c-.72-6.51-4.18-12.56-8.42-17.31s-9.27-8.42-14.16-12.24A279.26,279.26,0,0,1,845,463c15.09,25.92,32.19,50.66,52.67,71.3,2.59,2.6,5.29,5.19,8.44,6.64,1.92.89,4.13,1.31,5.86.3a4.31,4.31,0,0,0,1.31-5.77"/><path class="cls-2" d="M906.25,535.12c-1.35-3.64-5.59-5.33-9.39-6.49-21.79-6.63-44.47-9.74-67-12.83l28,12.07c8.7,3.75,17.49,7.53,26.77,9.49s19.21,2,27.88-1.57"/><path class="cls-2" d="M908.49,531.48c.28.66,1.21-.17,1.31-.88,1-7.42-1.27-15-4.44-21.83s-7.27-13.34-10.23-20.3c-3.3-7.75-5.14-16-6.79-24.19l7,30.68c1.75,7.68,3.5,15.38,5.79,22.93,1.41,4.63,3.08,9.33,6.34,13"/><path class="cls-2" d="M281.39,274.75c-3.42-2.42-6.68-3.54-10.66-5a25.21,25.21,0,0,0,2.54,9c2.13,4.64,5.35,8.74,8.66,12.64,9.9,11.67,20.95,22.13,32,32.56a111.5,111.5,0,0,1-10.08-14.54c-3.39-6.22-5.52-13-9-19.14a52.46,52.46,0,0,0-10.92-13.51A27.67,27.67,0,0,0,281.39,274.75Z"/><path class="cls-2" d="M320.78,214.67c-14.51,16.15-22.12,36.22-37.44,51.72-2.52,2.54-10,9.12-12,5.57-1.59-2.94,5.07-9.91,7.37-12.88a305.53,305.53,0,0,1,26.2-29.2C310,224.81,316,220,320.78,214.67Z"/><path class="cls-2" d="M103.08,176.54c6.94,34,23.58,62.94,29.17,97.4.92,5.66,2.5,21.62-2.95,20.7-4.5-.75-7.21-16-8.77-21.74A576.55,576.55,0,0,1,108,211.39C106.18,200,105.36,187.73,103.08,176.54Z"/><path class="cls-2" d="M286.55,230.39c10.48-10.77,21.85-20.71,31.67-32.06a548.18,548.18,0,0,1-45.83,57.13c-3.17,3.46-6.77,8.14-10.9,10.37.34-5.58,6.4-12.91,9.63-17.39A159.64,159.64,0,0,1,286.55,230.39Z"/><path class="cls-2" d="M276.08,305.54c4.8,8.49,12.91,14.53,20.81,20.32-11.32-7.39-23-15.1-30.15-26.47a58.16,58.16,0,0,1-7.09-17.45c-.57-2.37-2.84-13.31,3.23-9.63,4.28,2.6,5.88,12.06,7.13,16.47C271.64,294.5,273.15,300.34,276.08,305.54Z"/><path class="cls-2" d="M194.28,337.11c7,12.4,18.83,21.24,30.33,29.72-16.48-10.83-33.45-22.13-43.93-38.74a85.49,85.49,0,0,1-10.39-25.47c-.85-3.46-4.21-19.41,4.62-14,6.23,3.81,8.62,17.61,10.46,24C187.76,321,190,329.51,194.28,337.11Z"/><path class="cls-2" d="M130.58,351.12c5.78,13,15.83,23.43,25.6,33.44-14.05-13.08-28.51-26.69-37.19-44.31a100.88,100.88,0,0,1-8.39-26.09c-.65-3.45-3.16-19.28,4.38-12.65,5.32,4.67,7,18.27,8.48,24.73C125.32,334.62,127,343.14,130.58,351.12Z"/><path class="cls-2" d="M150.41,346.83c6.47,13.27,16.89,23.92,27,34.17-14.48-13.39-29.39-27.33-39-45.3a113.13,113.13,0,0,1-9.87-26.57c-.86-3.5-4.35-19.6,3.39-12.81,5.46,4.79,8,18.62,9.86,25.18C144.21,330,146.45,338.7,150.41,346.83Z"/><path class="cls-2" d="M311,206.5q-19.61,24-36.84,49.78c-2.45,3.66-8.78,15.13-14.08,14.85-7-.36,2.23-11.63,3.72-13.89a208.32,208.32,0,0,1,28.55-34.58q4.47-4.36,9.2-8.46C304.42,211.73,308.66,209.38,311,206.5Z"/><path class="cls-2" d="M189.83,201.08c0,20.23,1.1,40.42,3.12,60.46.43,4.29,2.85,16.86-1.52,20-5.75,4.12-5.77-10.11-6.06-12.74a195,195,0,0,1,.18-43.86q.7-6.07,1.8-12.13C188,209.14,189.84,204.72,189.83,201.08Z"/><path class="cls-2" d="M240.9,261.29c2.32-7.23,8.79-12.76,14.8-18a493.91,493.91,0,0,0,40.66-39.48c-6.12,5.82-10,13.36-15.28,19.85-7.37,9-17.48,15.92-24.19,25.36-2.2,3.09-4,6.42-6.58,9.24-1.81,2-4,3.74-5.31,6-1.71,3-2,6.68-5.46,8.57A34.41,34.41,0,0,1,240.9,261.29Z"/><path class="cls-2" d="M107.82,292.05c-4.46-5.94-5-14.21-5.49-21.92a451.28,451.28,0,0,0-7-54.66c1,8.16,4.73,15.49,6.74,23.39,2.8,11,2.17,22.89,5.72,33.57,1.16,3.49,2.76,6.82,3.47,10.46.5,2.57.57,5.3,1.64,7.63,1.4,3.07,4.19,5.4,3.61,9.19A33.2,33.2,0,0,1,107.82,292.05Z"/><path class="cls-2" d="M266.8,313.4a203.51,203.51,0,0,0,13.78,15.87l8.9,9.58c-.1.9-1,1.17-1.88.85a8.1,8.1,0,0,1-2.45-1.76q-7.87-7.28-15.67-14.71A145,145,0,0,1,256,309.13c-5.92-7.38-14.57-20.89-14.66-29.77,0-3.32,1.32-5.72,4.11-2.11,3.76,4.87,6.35,11.76,9.3,17.14A154.05,154.05,0,0,0,266.8,313.4Z"/><path class="cls-2" d="M222.49,256.86c5.34-14.08,10.78-28.35,19.74-40.6,4.57-6.25,10-11.88,14.35-18.27s7.66-13.85,7.18-21.4l1.49-1.08q-8.65,24.11-18,48a208.52,208.52,0,0,1-9.12,20.79,269,269,0,0,1-14.82,25.23c-1.92,2.84-4.34,4.63-4.2-.06C219.2,265.16,221,260.86,222.49,256.86Z"/><path class="cls-2" d="M234.94,292.35c10.85,19.91,28.88,35.31,38.72,55.74a168.22,168.22,0,0,1-36.44-37.61,68.4,68.4,0,0,1-6.33-10.55,52.33,52.33,0,0,1-3.15-9c-.47-1.8-2.93-8.34-2-10C228,277,234,290.54,234.94,292.35Z"/><path class="cls-2" d="M203.31,253.39c-.07-8.47.47-17,2.81-25.26,4.33-15.28,14.52-28.49,20-43.44-9.14,24.46-18.43,49.79-16.93,75.49.09,1.48,1.14,17-3.74,14.2-1.56-.88-1.46-8.14-1.61-9.84C203.5,260.83,203.34,257.11,203.31,253.39Z"/><path class="cls-2" d="M140.14,268.06c-4-10.1-7.41-20.46-8.5-30.78-2-19.16,3.84-37,3.3-56.05.64,31.13,1.52,63.32,15.31,93.76.8,1.76,9.29,20.08,2.22,17.76-2.25-.74-5.52-9.45-6.5-11.46C143.84,276.94,141.92,272.51,140.14,268.06Z"/><path class="cls-2" d="M219.59,298.3c6.19,12.85,15.61,23.81,23,36,5.68,9.29,10.21,19.31,16.63,28.12.92,1.25,2.07,2.59,3.67,2.67-8.21-5.7-14.82-13.31-21-21.12-14.1-17.86-26.39-37.41-33.6-59-.44-1.33-1.24-3.85.67-4.46s3.44,3,4.07,4.12C215.62,289,217.39,293.74,219.59,298.3Z"/><path class="cls-2" d="M173.45,232c-.07-9.93-.12-20,2.72-29.66.41-1.41,1.12-3,2.57-3.37-6.11,10.3-11.85,21-14.46,32.56-3.34,14.81-1.36,30,1.34,44.51.61,3.26.81,8.29,3,10.9,1.64,2,4.16,2.64,5.22.16,1.31-3.06-.07-9.55-.09-12.89l-.09-12.94Z"/><path class="cls-2" d="M237.79,352.23c-15-14.48-28.84-30.16-40.17-47.59-2.9-4.48-8.42-11.79-8.27-17.46.23-8.16,8.66,4.43,9.89,6.18q12.94,18.4,25.1,37.35Q231.2,341.39,237.79,352.23Z"/><path class="cls-2" d="M193.64,378.7c-14.17-19.73-27-40.59-36.68-62.94-2.5-5.74-7.42-15.28-6.36-21.75,1.51-9.31,8.8,6.89,9.88,9.15q11.36,23.79,21.75,48Q188.09,364.89,193.64,378.7Z"/><path class="cls-2" d="M308,271.21A384.54,384.54,0,0,0,239,273.09a608.51,608.51,0,0,0-68.19,12.05C148,290.41,125.32,296.61,102.74,303s-45.39,13-68.2,19.13-45.73,11.68-68.92,16c-2.83.53-5.67,1-8.5,1.52-.64.11-.37,1.07.26,1,23.12-4,46-9.29,68.68-15.21S71.38,312.93,94,306.51s45.26-12.76,68.11-18.27a656.09,656.09,0,0,1,68.5-13.12,400.22,400.22,0,0,1,68.85-3.39c2.85.13,5.69.29,8.54.48.64,0,.64-1,0-1Z"/><path class="cls-2" d="M282,268.62c5.4-4.37,12.38-6.46,18.94-7s12.87.24,19.19.82a288.21,288.21,0,0,0,67.87-2c-30.1,8.77-60.76,15.23-90.71,16.22-3.78.12-7.63.15-10.95-1-2-.69-3.9-1.94-4.37-3.92a4.77,4.77,0,0,1,3.4-5.26"/><path class="cls-2" d="M290.63,271.24c3.69-1.78,8-.05,11.51,1.77,20.38,10.44,38.75,24.14,57,37.78L330.28,300c-9-3.35-18-6.73-26-11.82s-15.09-12.08-18.54-20.9"/><path class="cls-2" d="M294.39,264.37c-.66.29-.69-.93-.25-1.49,4.58-5.93,11.44-9.75,18.42-12.5s14.3-4.59,21.21-7.54c7.69-3.29,14.75-7.89,21.67-12.6L329.05,247.3c-6.61,4.28-13.23,8.56-20.11,12.38-4.21,2.34-8.66,4.54-13.42,5"/><path class="cls-2" d="M379.87,649.51a22.68,22.68,0,0,0-5.14,4,13,13,0,0,0,4.91,1.16,29,29,0,0,0,8.27-.92,215.79,215.79,0,0,0,23.81-7.26,57,57,0,0,1-9.54,1.12c-3.84,0-7.61-.76-11.45-.68a27.15,27.15,0,0,0-9.27,1.82A16.83,16.83,0,0,0,379.87,649.51Z"/><path class="cls-2" d="M361.58,613.14c3.89,11.76,11.45,21.11,14.82,33.09.56,2,1.72,7.59-.47,7.58-1.81,0-3.39-5.27-4.2-7.25a181.62,181.62,0,0,1-7.05-21.24C363.6,621.35,362.86,617,361.58,613.14Z"/><path class="cls-2" d="M286.71,712.82c18,5.81,36.07,5.3,53.9,11.9,2.93,1.09,10.93,4.65,9.08,7.16-1.54,2.07-9.47-.72-12.63-1.52a298.25,298.25,0,0,1-32.52-10.47C298.67,717.67,292.62,714.73,286.71,712.82Z"/><path class="cls-2" d="M360.13,634.76c-2.39-8.25-4.15-16.72-7-24.79a322.41,322.41,0,0,1,15.22,38.81c.81,2.55,2.1,5.65,2.09,8.35-2.57-1.7-4.47-6.77-5.76-9.63A95,95,0,0,1,360.13,634.76Z"/><path class="cls-2" d="M393.13,660.62c5.28-.1,10.27-2.56,15.08-5-6.46,3.71-13.17,7.5-20.44,8a29.77,29.77,0,0,1-10.14-1.19c-1.28-.36-7.07-2.2-3.74-4.27,2.35-1.45,7.27.33,9.69.9A38.37,38.37,0,0,0,393.13,660.62Z"/><path class="cls-2" d="M386.81,710.63c7.72-.15,15-3.71,22-7.2C399.4,708.8,389.61,714.29,379,715a43.53,43.53,0,0,1-14.82-1.71c-1.86-.51-10.32-3.18-5.45-6.17,3.43-2.11,10.61.46,14.15,1.29C377.45,709.52,382.08,710.73,386.81,710.63Z"/><path class="cls-2" d="M376.86,746.69c7.7.64,15.27-1.59,22.58-3.8-9.88,3.53-20.12,7.12-30.77,6.69a51.79,51.79,0,0,1-14.59-2.9c-1.8-.61-10-3.68-4.87-5.68,3.61-1.41,10.53,1.44,14,2.48C367.65,744.83,372.15,746.3,376.86,746.69Z"/><path class="cls-2" d="M380,735.49c8,.36,15.77-2,23.28-4.33-10.14,3.66-20.65,7.39-31.69,7.33a58.29,58.29,0,0,1-15.2-2.28c-1.89-.53-10.45-3.17-5.21-5.22,3.7-1.46,10.95,1,14.54,1.9C370.4,734,375.1,735.26,380,735.49Z"/><path class="cls-2" d="M355.15,615.85q6.32,16.5,14.06,32.25c1.1,2.25,4.9,8.59,3.39,11.19-2,3.43-5-4.31-5.63-5.68a123.18,123.18,0,0,1-9-23.91c-.61-2.3-1.15-4.63-1.62-7C355.92,620.61,355.91,617.83,355.15,615.85Z"/><path class="cls-2" d="M321,675.66a324.88,324.88,0,0,0,29.55,15c2.15,1,8.75,3.17,9.1,6.24.46,4-6.31.15-7.63-.43a103.5,103.5,0,0,1-20.81-12.09c-1.8-1.35-3.57-2.76-5.29-4.23S322.72,676.65,321,675.66Z"/><path class="cls-2" d="M362.92,666.31c-2.83-3.16-3.77-7.94-4.68-12.41a296.53,296.53,0,0,0-8.17-31.37c1.17,4.69,3.75,8.7,5.45,13.17,2.37,6.19,3,13.19,5.75,19.17a54.34,54.34,0,0,1,2.68,5.86,21.67,21.67,0,0,0,1.49,4.33c1,1.69,2.64,2.86,2.64,5.11A18.54,18.54,0,0,1,362.92,666.31Z"/><path class="cls-2" d="M342.86,742c-4,.63-8.05-1.38-11.86-3.23a236.86,236.86,0,0,0-27.82-11.39c4.13,1.74,8.6,1.84,12.88,3,5.94,1.58,11.45,5.16,17.45,6.29a43.81,43.81,0,0,1,5.88,1.11,17.39,17.39,0,0,0,4.05,1.26c1.82.13,3.66-.64,5.31.69A17.86,17.86,0,0,1,342.86,742Z"/><path class="cls-2" d="M394.44,667.47a110,110,0,0,0,11.14-2.63l6.87-1.88c.4.29.29.83-.08,1.18a4.4,4.4,0,0,1-1.48.76q-5.5,2-11.08,3.9a77.27,77.27,0,0,1-10.21,3c-5,1-13.72,1.65-18-.74-1.58-.89-2.37-2.23.07-2.65,3.3-.58,7.25,0,10.57,0A78.73,78.73,0,0,0,394.44,667.47Z"/><path class="cls-2" d="M356,674.4c-5.3-6.55-10.66-13.21-14.15-21.09-1.78-4-3-8.31-4.94-12.26s-4.59-7.66-8.3-9.49l-.13-1q9.21,11,18.11,22.26a119.37,119.37,0,0,1,7.5,10.3,157.51,157.51,0,0,1,8.13,14.4c.85,1.75,1.07,3.47-1.12,2.11C359.1,678.34,357.52,676.26,356,674.4Z"/><path class="cls-2" d="M376.13,677.82c12.29,0,24.32-4.94,36.59-4.33a87.54,87.54,0,0,1-27.38,8.14,36.22,36.22,0,0,1-6.66.32,27.4,27.4,0,0,1-5.08-.87c-1-.25-4.73-.8-5.27-1.71C367,677.15,375,677.82,376.13,677.82Z"/><path class="cls-2" d="M349.36,683.16a48.23,48.23,0,0,1-11.27-8.33c-6.13-6.38-9.76-15.15-15.44-22,9.24,11.32,18.87,22.95,31.47,29.22.73.37,8.37,4.08,5.78,5.79-.83.54-4.25-1.5-5.1-1.89C353,685.1,351.14,684.16,349.36,683.16Z"/><path class="cls-2" d="M339.87,719.13A60.41,60.41,0,0,1,323,715c-9.64-4.22-16.61-12.08-25.79-17,15,8.19,30.5,16.56,48.56,17.91,1.05.08,12,.8,9,3.74-.94.94-5.93.21-7.14.16C345.06,719.68,342.45,719.44,339.87,719.13Z"/><path class="cls-2" d="M375,687.21c7.72.39,15.39-1.38,23.11-1.81,5.9-.33,11.84.12,17.7-.72a2.83,2.83,0,0,0,2.23-1.12c-4.85,2.59-10.19,3.85-15.51,4.83-12.17,2.24-24.66,3.11-36.83.84-.74-.14-2.15-.43-1.94-1.56s2.34-.91,3-.93C369.49,686.66,372.22,687.08,375,687.21Z"/><path class="cls-2" d="M331.39,692.4c-4.74-2.69-9.55-5.43-13.38-9.49a2.57,2.57,0,0,1-.94-2.23c3.3,5.91,6.9,11.74,11.71,16.22,6.17,5.75,13.89,8.89,21.51,11.51,1.71.58,4.15,1.86,6,1.47,1.36-.29,2.34-1.38,1.44-2.6-1.12-1.5-4.56-2.58-6.15-3.48l-6.18-3.49Z"/><path class="cls-2" d="M405.34,692.77a143.45,143.45,0,0,1-33.09,7.29c-2.89.24-7.8,1-10.46-.6-3.82-2.34,4.36-3.16,5.51-3.31q12.13-1.5,24.3-2.47Q398.47,693.14,405.34,692.77Z"/><path class="cls-2" d="M406.41,722.34a175.61,175.61,0,0,1-39.48,1.33c-3.38-.31-9.19-.43-12-2.73-4-3.32,5.57-2.57,6.93-2.5q14.28.76,28.51,2.15Q398.41,721.37,406.41,722.34Z"/><path class="cls-2" d="M385.36,635.23c-34.7,57.68-37.79,131-58.9,196.12"/><path class="cls-2" d="M377.12,647.52a21.32,21.32,0,0,1,1.6-11.51,62.25,62.25,0,0,1,5.4-9.48,171.23,171.23,0,0,0,16.75-34.87c-3.68,17.63-8.6,34.9-15.94,50.33a18.33,18.33,0,0,1-3.32,5.27,3.21,3.21,0,0,1-3,1.13,2.74,2.74,0,0,1-1.61-3.15"/><path class="cls-2" d="M380.61,643.87c.12-2.35,2.05-4,3.84-5.33,10.28-7.45,21.58-13,32.82-18.5l-12.64,11.65c-3.93,3.62-7.89,7.27-12.41,9.94s-9.68,4.33-14.77,3.66"/><path class="cls-2" d="M378.86,642.11c0,.43-.66.1-.82-.3-1.72-4.17-1.75-8.95-1.2-13.49s1.63-9,2.05-13.54a83.71,83.71,0,0,0-.36-15.26l1.3,19.08c.33,4.78.66,9.57.68,14.36a22.08,22.08,0,0,1-1.21,8.62"/><path class="cls-2" d="M328.09,774c.21-.21.33.4,0,.39s-.43-.34-.49-.62a297,297,0,0,1-7.9-72.75c.38-24.94,3.95-50,12.57-73.52-25.06,46.15-28.18,103-8.32,151.34a2.29,2.29,0,0,1-1.39-1.52"/><path class="cls-2" d="M256.79,584.37c1.22-4.84,2.58-9.83,1.73-14.73-.66-.42-1.35.5-1.57,1.24a201.59,201.59,0,0,0-7.8,43c-.48,6.84-.61,13.71-.55,20.57a364.14,364.14,0,0,0,16.18,103.86c2.79,9.06,5.34,19.29,9.88,27.64,1.61-1.9-4.69-12.57-5.77-15.19q-3.47-8.44-6.33-17.1a269.54,269.54,0,0,1-12.63-108.57A262.48,262.48,0,0,1,256.79,584.37Z"/><path class="cls-2" d="M235.45,772.2a190.61,190.61,0,0,1-32.73-121.3c2-26,9.29-51.31,13.18-77.1-3.58,18.13-9.14,35.88-12.05,54.12-2.19,13.69-2.87,27.56-3.2,41.41-.75,31.26.5,63.62,14.21,91.82-23.3-34.22-34.39-75.44-36.81-116.56-.47-8-.63-15.92-.61-23.89a218,218,0,0,1,1.61-29c1.67-12.18,5-24.08,8.29-35.94-17.42,43.5-26.44,91.65-15.6,137,5,21,14.11,40.77,23.25,60.36a153.7,153.7,0,0,1-40.28-97.66A191.3,191.3,0,0,0,186,760.66"/><path class="cls-2" d="M384,796.84c-.21-.15-.43.22-.09.25a.68.68,0,0,0,.65-.34c9.45-14.37,15.57-29.48,18.17-44.92,2.66-15.74,1.63-31.91-5.4-47.66,23.23,31.81,19.78,68-9.18,96.17a2.55,2.55,0,0,0,1.79-.8"/><path class="cls-2" d="M490,685.35c-.8-3.18-1.76-6.47-.16-9.46a1.48,1.48,0,0,1,1.65,1,72.93,72.93,0,0,1,3.68,27.91,91.31,91.31,0,0,1-1.91,13c-4.74,22.1-15.44,43.57-31.6,63.59-4.35,5.39-8.57,11.55-14.86,16.3-1.62-1.37,7-7.39,8.55-8.92q5.06-4.93,9.46-10.07a129.93,129.93,0,0,0,15-21.41,100.26,100.26,0,0,0,13.07-45.52A93.88,93.88,0,0,0,490,685.35Z"/><path class="cls-2" d="M491.32,805.93c32.42-19.57,51.35-45.6,52.91-72.73.95-16.58-4.37-33.33-5.68-50,1.89,11.81,6.12,23.59,7.22,35.39.83,8.86-.11,17.67-1.44,26.42-3,19.76-8.48,40-27.83,56.23,31.19-19,49.13-43.69,57-69.3a142.58,142.58,0,0,0,3.67-15,76.42,76.42,0,0,0,1.74-18.44c-.42-7.85-2.78-15.71-5.13-23.54,14.74,29.31,19.19,60.61,1,88-8.4,12.65-21.36,24.1-34.37,35.42,31.61-14,52.76-34.6,58.7-57-4.42,23.35-21.73,45.42-49.22,62.76"/><path class="cls-2" d="M284.08,777.42c-.19-.13-.38.2-.08.22a.61.61,0,0,0,.59-.3,102.51,102.51,0,0,0,16.34-39.78c2.38-13.95,1.44-28.28-4.92-42.24,21,28.21,17.92,60.24-8.18,85.21a2.36,2.36,0,0,0,1.62-.71"/><path class="cls-2" d="M379.58,678.73c-.73-2.82-1.6-5.73-.16-8.38a1.35,1.35,0,0,1,1.49.85,64,64,0,0,1,3.36,24.73,79.42,79.42,0,0,1-1.72,11.53c-4.25,19.57-13.88,38.59-28.44,56.31-3.92,4.78-7.72,10.23-13.39,14.43-1.46-1.21,6.3-6.54,7.71-7.89q4.56-4.37,8.52-8.92a114.65,114.65,0,0,0,13.51-18.95,87.5,87.5,0,0,0,11.74-40.33A82.28,82.28,0,0,0,379.58,678.73Z"/><path class="cls-2" d="M380.93,785.58c29.22-17.31,46.28-40.36,47.65-64.39.84-14.69-4-29.54-5.17-44.31,1.72,10.47,5.54,20.92,6.55,31.38.76,7.85-.08,15.65-1.27,23.4-2.7,17.51-7.61,35.43-25.05,49.8,28.12-16.78,44.28-38.67,51.38-61.35a125.19,125.19,0,0,0,3.29-13.26,66.21,66.21,0,0,0,1.55-16.34c-.38-7-2.52-13.92-4.65-20.86,13.33,26,17.38,53.72,1,78-7.56,11.2-19.25,21.34-31,31.35,28.5-12.42,47.57-30.61,52.89-50.47-3.95,20.69-19.55,40.23-44.34,55.57"/><path class="cls-2" d="M246.9,798.5c0-13.26-2.92-26.53-1.36-39.71,1.53-13,7.32-25.17,12.89-37.15a1630.83,1630.83,0,0,0,70.26-177.42c-12.08,57.08-32.36,112.35-45.55,169.2-7.44,32.12-12.74,65.09-27.14,95-2.16,4.5-5.52,9.55-10.76,9.66a7.46,7.46,0,0,1-7.15-5,6.89,6.89,0,0,1,3.31-7.78"/><path class="cls-2" d="M291.16,776.81a58.08,58.08,0,0,1-2.11-15.33c0-8.62,1.86-17.15,4.13-25.5,4.72-17.39,11.1-34.33,17.72-51.16,11.14-28.28,23.25-56.68,42.53-80.76-16.61,27.1-31.44,55.4-40.63,85.48s-12.58,62.12-6.27,92.85c.08.4.22.86.63,1s.79-.57.37-.66"/><path class="cls-2" d="M161.33,736.65c20-61.3,51.38-118.68,82.54-175.69,6.21-11.36,12.42-22.72,19.23-33.76-13.82,13.61-21.53,31.56-29.62,48.79-13.21,28.15-28.24,55.56-40.38,84.14s-21.42,58.65-22.44,89.43c5.71-23.16,20.35-43.32,34.7-62.87l73.4-100c-7.67,6.23-13.11,14.48-18.4,22.61-9,13.77-17.87,27.57-26.39,41.59-12.71,20.93-24.69,42.63-30.41,66.14-2.86,11.76-4.11,23.8-5.35,35.8,22.78-30.84,45.6-61.74,65.2-94.47,7.09-11.83,13.85-24.16,16.16-37.58-14.47,41-30.3,82.13-55.13,118.5"/><path class="cls-2" d="M357.91,799.26c-.27-5.58-2.63-11.21-1.79-16.73s4.72-10.45,8.47-15.38a514,514,0,0,0,46.63-73.34c-7.47,23.79-20.85,46.66-29.12,70.33-4.67,13.37-7.78,27.14-17.47,39.47a9.12,9.12,0,0,1-7.51,3.87c-2.27,0-4.53-1-5.21-2.23s.27-2.62,2.21-3.21"/><path class="cls-2" d="M389.14,791a16.05,16.05,0,0,1-1.83-6.49c-.2-3.63,1-7.18,2.43-10.65,3-7.23,7.24-14.24,11.64-21.19,7.39-11.69,15.47-23.42,28.77-33.19-11.33,11.09-21.36,22.73-27.32,35.21s-7.73,25.89-2.58,38.93a.61.61,0,0,0,.47.43c.29.06.55-.23.25-.27"/><path class="cls-2" d="M295.42,771.69c13.08-25.42,34.32-49,55.45-72.39,4.21-4.66,8.42-9.32,13.06-13.84-9.6,5.47-14.75,12.88-20.18,20-8.88,11.6-19.07,22.85-27.17,34.65s-14.12,24.27-14.22,37.2c3.6-9.64,13.67-17.85,23.53-25.81l50.47-40.72c-5.35,2.48-9.08,5.85-12.7,9.18-6.13,5.62-12.22,11.27-18,17-8.66,8.57-16.79,17.48-20.4,27.26-1.81,4.89-2.45,9.93-3.1,15,15.67-12.56,31.37-25.14,44.72-38.55,4.83-4.84,9.41-9.91,10.79-15.5-9.51,17-20,34-37,48.82"/><path class="cls-2" d="M524,824.26c1.73-13.86,5.9-27.39,6.33-41.35.42-13.76-2.82-27.14-5.9-40.31C509.52,679,497.69,614.37,489,549c2.61,61,12.3,121.15,15.86,182.1,2,34.43,2.13,69.49,10.22,102.45,1.21,4.95,3.36,10.62,7.71,11.35,2.65.44,5.51-1.46,6.61-4.38a8.16,8.16,0,0,0-1.74-8.51"/><path class="cls-2" d="M489.9,796.45a76.08,76.08,0,0,0,3.76-15.78c1.15-9,.69-18.14-.11-27.13-1.67-18.72-4.77-37.16-8.1-55.51-5.59-30.85-12-61.94-24.91-89.34,10.32,30.25,19,61.55,22.71,94s2.38,66.37-6.9,97.75c-.12.41-.3.87-.65,1s-.58-.69-.22-.73"/><path class="cls-2" d="M603.4,769.56c-8.7-66.38-27.33-130-45.87-193.18-3.69-12.59-7.38-25.18-11.61-37.52,9.74,15.83,13.82,35.48,18.31,54.43,7.34,31,16.29,61.34,22.68,92.62s10.19,63.78,7,96.06c-1.73-24.86-11.3-47.63-20.71-69.73q-24.08-56.5-48.14-113c5.58,7.39,9,16.65,12.39,25.76,5.68,15.43,11.29,30.89,16.56,46.53,7.87,23.35,15,47.42,16.72,72.65.85,12.61.32,25.34-.21,38-15-34.88-30-69.82-42-106.3-4.36-13.19-8.39-26.86-8.56-41.15,6.7,44.57,14.53,89.35,30.48,130.24"/><path class="cls-2" d="M1013.57,772c.17-.23.37.36.08.39s-.47-.29-.58-.56a299.53,299.53,0,0,1-17.42-71.27c-2.91-24.79-2.66-50.07,2.78-74.42-18.77,48.73-14.38,105.55,11.7,151.15a2.33,2.33,0,0,1-1.58-1.35"/><path class="cls-2" d="M917.83,592.15c.57-4.94,1.26-10-.23-14.81-.71-.35-1.27.66-1.39,1.42a200.23,200.23,0,0,0-2.08,43.55c.42,6.85,1.2,13.68,2.16,20.48A367.91,367.91,0,0,0,946,744c4,8.66,7.84,18.51,13.46,26.26,1.34-2.06-6.32-11.91-7.73-14.39q-4.54-8-8.54-16.23a272,272,0,0,1-26.84-106.24A260.1,260.1,0,0,1,917.83,592.15Z"/><path class="cls-2" d="M921.4,781a193.12,193.12,0,0,1-48.46-116.53c-1.47-26,2.45-52,2.92-78-1.16,18.41-4.34,36.67-4.83,55.11-.37,13.84.79,27.69,2.29,41.46,3.37,31.11,8.88,63.08,26.19,89.45-27.63-31.23-44.06-70.83-51.88-111.34-1.51-7.84-2.72-15.73-3.75-23.64a218.27,218.27,0,0,1-2.23-29c.05-12.27,1.78-24.47,3.5-36.63-11.56,45.21-14.16,94,2.57,137.79,7.74,20.23,19.37,38.81,31,57.17a156.21,156.21,0,0,1-52.84-92.19A194,194,0,0,0,870.8,775.38"/><path class="cls-2" d="M1072.05,788.08c-.23-.13-.4.26-.06.25a.69.69,0,0,0,.61-.41,115.74,115.74,0,0,0,12.1-46.7c.56-15.93-2.58-31.85-11.64-46.66,27.24,28.85,28.58,65.12,3.57,96.51a2.56,2.56,0,0,0,1.67-1"/><path class="cls-2" d="M1162.51,665c-1.22-3.06-2.6-6.21-1.41-9.37a1.5,1.5,0,0,1,1.76.76,73.59,73.59,0,0,1,7.34,27.26,91.4,91.4,0,0,1-.19,13.13c-1.79,22.48-9.58,45-23,66.8-3.61,5.86-7,12.46-12.6,17.91-1.79-1.16,6-8.15,7.31-9.85q4.37-5.49,8-11.1a127.23,127.23,0,0,0,12.07-23,99.43,99.43,0,0,0,7-46.7A95.12,95.12,0,0,0,1162.51,665Z"/><path class="cls-2" d="M1179.74,784.52c29.58-23.22,44.94-51.27,42.91-78.37-1.24-16.56-8.73-32.55-12.22-48.93,3.43,11.49,9.18,22.69,11.83,34.27,2,8.69,2.22,17.54,2,26.38-.39,20-3.14,40.68-20.2,59,28.45-22.47,43-49.1,47.46-75.44a144.33,144.33,0,0,0,1.67-15.29,76.35,76.35,0,0,0-.71-18.5c-1.45-7.74-4.82-15.26-8.18-22.75,18.48,27.35,27,57.89,12.6,87.16-6.67,13.54-18,26.43-29.44,39.18,29.52-17.65,47.8-40.52,50.73-63.46-1.31,23.69-15.57,47.62-40.57,68"/><path class="cls-2" d="M970.35,780.52c-.21-.12-.36.23-.05.22a.61.61,0,0,0,.54-.36,101.16,101.16,0,0,0,11-41.4c.53-14.11-2.29-28.22-10.45-41.33,24.55,25.53,25.72,57.68,3.12,85.51a2.34,2.34,0,0,0,1.51-.89"/><path class="cls-2" d="M1052.09,671.4c-1.09-2.71-2.34-5.5-1.26-8.3a1.38,1.38,0,0,1,1.6.67,64.38,64.38,0,0,1,6.58,24.15,78.07,78.07,0,0,1-.18,11.64c-1.64,19.91-8.69,39.91-20.8,59.2-3.26,5.2-6.31,11-11.38,15.89-1.61-1,5.38-7.23,6.61-8.74q3.95-4.86,7.27-9.84a111.85,111.85,0,0,0,10.91-20.39,86.64,86.64,0,0,0,6.34-41.39A82.7,82.7,0,0,0,1052.09,671.4Z"/><path class="cls-2" d="M1067.52,777.26c26.72-20.6,40.6-45.46,38.8-69.48-1.11-14.67-7.84-28.84-11-43.35,3.09,10.18,8.26,20.1,10.64,30.36,1.79,7.7,2,15.54,1.82,23.38-.37,17.69-2.88,36-18.29,52.34,25.69-19.94,38.84-43.55,42.89-66.89a122.67,122.67,0,0,0,1.53-13.55,66.09,66.09,0,0,0-.62-16.39c-1.3-6.86-4.33-13.52-7.36-20.16,16.65,24.22,24.32,51.27,11.28,77.23-6,12-16.29,23.43-26.6,34.74,26.65-15.66,43.17-36,45.83-56.28-1.2,21-14.09,42.21-36.67,60.33"/><path class="cls-2" d="M936.23,805.79c-1.74-13.16-6.39-26-6.59-39.25-.19-13.08,4-25.83,7.9-38.37A1610.88,1610.88,0,0,0,983.88,543.9C979.42,602,966.57,659.16,961,717.12c-3.16,32.74-4.07,66.07-14.41,97.47-1.55,4.72-4.22,10.12-9.4,10.85a7.58,7.58,0,0,1-7.75-4.11,6.78,6.78,0,0,1,2.26-8.1"/><path class="cls-2" d="M977.29,779.08a58.92,58.92,0,0,1-4.12-15c-1.16-8.55-.41-17.23.74-25.79,2.4-17.8,6.49-35.36,10.85-52.83,7.32-29.37,15.6-59,31.55-85.12-12.91,28.84-23.89,58.66-29,89.58s-4.3,63.11,6,92.87c.14.38.34.82.76.89s.7-.66.28-.7"/><path class="cls-2" d="M843.18,754.44c11.81-63.17,35.33-123.78,58.74-184,4.67-12,9.33-24,14.63-35.75-11.92,15.12-17.2,33.84-22.95,51.88-9.41,29.48-20.71,58.44-29,88.22s-13.52,60.71-10.47,91.36c2.6-23.64,14.48-45.36,26.14-66.44q29.82-53.91,59.65-107.82c-6.79,7.07-11.1,15.9-15.28,24.58-7.08,14.71-14.09,29.46-20.7,44.37C894.1,683.1,885.07,706,882.49,730c-1.29,12-.94,24.09-.59,36.15C900.44,732.9,919,699.57,934.15,664.8c5.47-12.58,10.55-25.6,11.08-39.18-9,42.42-19.24,85-39.09,124"/><path class="cls-2" d="M1046.48,793.54c-1-5.51-4.09-10.82-4-16.39s3.31-10.93,6.37-16.26a503.48,503.48,0,0,0,36.61-78.23c-4.28,24.47-14.54,48.74-19.63,73.19-2.87,13.82-4.14,27.84-12.13,41.21a8.93,8.93,0,0,1-6.94,4.72c-2.26.24-4.63-.46-5.47-1.6s-.07-2.63,1.77-3.44"/><path class="cls-2" d="M1076.37,781.63a16.21,16.21,0,0,1-2.67-6.23c-.67-3.57,0-7.23,1-10.85,2-7.52,5.31-15,8.75-22.39,5.8-12.46,12.27-25,24.18-36.3-9.78,12.33-18.2,25-22.47,38.13s-4.26,26.6,2.57,38.94a.61.61,0,0,0,.52.36c.3,0,.52-.28.22-.29"/><path class="cls-2" d="M980.84,773.5c9.63-26.75,27.6-52.62,45.48-78.32,3.57-5.12,7.13-10.24,11.14-15.27-8.81,6.55-12.94,14.51-17.4,22.18-7.28,12.56-15.91,24.91-22.39,37.57s-10.81,25.74-9.21,38.58c2.31-10,11.21-19.31,19.95-28.36l44.71-46.32c-5,3.09-8.23,6.87-11.39,10.59-5.34,6.3-10.64,12.62-15.64,19-7.47,9.52-14.36,19.31-16.66,29.44-1.14,5.07-1.12,10.15-1.1,15.21,13.89-14.3,27.81-28.62,39.29-43.49,4.16-5.37,8-10.93,8.67-16.65-7.2,18-15.36,36.07-30.3,52.79"/><path class="cls-2" d="M1214.55,798.88c-.12-14,2.24-27.87.83-41.77-1.4-13.7-6.38-26.6-11.17-39.31q-34.71-92-60.64-187.91c10.64,60.27,28.18,118.78,39.75,178.83,6.53,33.93,11.26,68.71,23.63,100.46,1.86,4.77,4.74,10.15,9.15,10.36,2.69.12,5.28-2.09,6-5.12a8.26,8.26,0,0,0-2.85-8.24"/><path class="cls-2" d="M1177.07,775.28a74.57,74.57,0,0,0,1.66-16.1c0-9.07-1.71-18.08-3.69-26.9-4.12-18.38-9.63-36.32-15.35-54.14-9.61-29.95-20-60-36.49-85.73,14.23,28.81,27,58.85,34.93,90.66s11.11,65.58,6,97.81c-.07.41-.19.9-.53,1s-.67-.62-.32-.71"/><path class="cls-2" d="M1286.15,735.3c-17.38-64.85-44.24-125.78-71-186.31-5.32-12.06-10.64-24.12-16.47-35.86,11.75,14.56,18.39,33.58,25.35,51.85,11.36,29.86,24.25,59,34.71,89.25s18.52,62.09,19.63,94.49c-5-24.47-17.5-45.94-29.75-66.76L1186,575.45c6.51,6.69,11.16,15.47,15.69,24.11,7.67,14.64,15.28,29.33,22.57,44.23,10.88,22.25,21.15,45.29,26.16,70.13,2.51,12.42,3.66,25.11,4.8,37.76-19.45-32.85-38.93-65.77-55.71-100.55-6.07-12.58-11.86-25.67-13.92-39.82,12.52,43.44,26.2,87,47.41,125.65"/><path class="cls-2" d="M682.22,780.52c.14-.18.26.3,0,.31s-.34-.25-.41-.47a247.88,247.88,0,0,1-9.63-57c-1-19.67.37-39.59,5.57-58.54-16.28,37.58-15.67,82.56,1.61,119.66a1.78,1.78,0,0,1-1.11-1.13"/><path class="cls-2" d="M619.35,634.53c.65-3.87,1.41-7.87.52-11.69-.51-.31-1,.46-1.1,1a166.87,166.87,0,0,0-3.59,34.25c0,5.41.25,10.83.65,16.23a303.28,303.28,0,0,0,17.4,81.07c2.55,7,5,14.94,8.79,21.29,1.1-1.57-4.14-9.67-5.08-11.68q-3-6.49-5.6-13.18a222.74,222.74,0,0,1-8.66-27.62,225.53,225.53,0,0,1-6.34-57.31A217.13,217.13,0,0,1,619.35,634.53Z"/><path class="cls-2" d="M613.14,783.58a157.23,157.23,0,0,1-30.63-94c.13-20.57,4.27-40.89,5.85-61.4-1.74,14.46-5,28.72-6.19,43.23a259.94,259.94,0,0,0-.25,32.79c1.06,24.67,3.66,50.12,15.32,71.67-19.12-25.84-29.5-57.78-33.42-90.06-.76-6.25-1.29-12.52-1.69-18.8a181.09,181.09,0,0,1-.29-22.94c.61-9.68,2.47-19.22,4.32-28.73-10.73,35.13-15,73.51-4.55,108.74,4.81,16.29,12.6,31.44,20.42,46.43a125.19,125.19,0,0,1-35-75,157.57,157.57,0,0,0,28.71,81.38"/><path class="cls-2" d="M725,795.79c-.17-.11-.31.19,0,.2a.51.51,0,0,0,.47-.3,95.87,95.87,0,0,0,11.21-36.28c1.16-12.53-.43-25.22-6.48-37.29,18.94,23.94,18.23,52.59-1.88,76.23a1.91,1.91,0,0,0,1.3-.72"/><path class="cls-2" d="M798.19,702.79c-.76-2.47-1.64-5-.61-7.45a1.11,1.11,0,0,1,1.28.67,60.94,60.94,0,0,1,4.19,21.82,76.41,76.41,0,0,1-.76,10.34C799.9,745.81,793,763.25,782,779.81c-3,4.46-5.79,9.52-10.23,13.57-1.27-1,4.82-6.16,5.91-7.44q3.51-4.14,6.52-8.4a102.84,102.84,0,0,0,10.07-17.6,82.59,82.59,0,0,0,7.39-36.51A78.4,78.4,0,0,0,798.19,702.79Z"/><path class="cls-2" d="M805.42,797.74c23.13-17,35.88-38.42,35.64-59.88-.14-13.11-5-26.05-6.8-39.12,2,9.22,5.77,18.3,7.2,27.55,1.08,6.94.83,13.92.29,20.88-1.23,15.72-4.26,31.93-17.83,45.66,22.25-16.46,34.33-36.81,38.9-57.37a120.51,120.51,0,0,0,2-12,63.88,63.88,0,0,0,.34-14.62c-.71-6.16-2.87-12.24-5-18.29,12.49,22.38,17.42,46.82,5.3,69.27-5.6,10.37-14.67,20-23.77,29.58,22.82-12.61,37.51-29.83,40.77-47.78-2.09,18.61-13.84,36.84-33.42,51.84"/><path class="cls-2" d="M649.62,785.34c-.14-.1-.27.17,0,.17a.44.44,0,0,0,.42-.26,83.67,83.67,0,0,0,10.12-32.15c1-11.1-.39-22.35-5.85-33,17.09,21.21,16.45,46.6-1.69,67.54a1.71,1.71,0,0,0,1.17-.64"/><path class="cls-2" d="M715.65,702.93c-.69-2.19-1.49-4.44-.55-6.6a1,1,0,0,1,1.15.6A52.91,52.91,0,0,1,720,716.26a65.55,65.55,0,0,1-.68,9.16c-2.15,15.63-8.34,31.09-18.27,45.76-2.68,4-5.22,8.43-9.23,12-1.15-.89,4.35-5.46,5.34-6.6q3.17-3.66,5.88-7.43a91,91,0,0,0,9.08-15.6,72.07,72.07,0,0,0,6.67-32.35A68.64,68.64,0,0,0,715.65,702.93Z"/><path class="cls-2" d="M722.16,787.07C743,772,754.55,753,754.33,734c-.13-11.62-4.49-23.08-6.14-34.66,1.82,8.16,5.21,16.21,6.5,24.4a78,78,0,0,1,.25,18.51c-1.1,13.93-3.83,28.29-16.08,40.45,20.08-14.58,31-32.61,35.1-50.83a105,105,0,0,0,1.77-10.62,55,55,0,0,0,.31-13c-.65-5.46-2.6-10.84-4.54-16.21,11.27,19.83,15.71,41.49,4.78,61.38-5.06,9.19-13.24,17.75-21.45,26.21,20.59-11.17,33.85-26.43,36.79-42.34-1.88,16.49-12.49,32.65-30.15,45.94"/><path class="cls-2" d="M623,803.75c-.68-10.45-3.54-20.77-3.06-31.23s4.16-20.19,7.69-29.9A1335.34,1335.34,0,0,0,670.82,599.4C664.77,645,652.51,689.5,645.63,735c-3.89,25.67-6.14,51.9-15.31,76.19-1.38,3.66-3.63,7.8-7.52,8.14a5.41,5.41,0,0,1-3.52-9.87"/><path class="cls-2" d="M654.86,784.51a48.92,48.92,0,0,1-2.36-12c-.47-6.79.5-13.6,1.76-20.3,2.62-13.93,6.5-27.59,10.56-41.17,6.84-22.82,14.39-45.8,27.51-65.7-11,22.16-20.56,45.18-25.85,69.33s-6.17,49.56.12,73.47c.08.31.21.67.52.74s.55-.49.24-.54"/><path class="cls-2" d="M556.12,759.16c11.76-49.27,32.13-96,52.4-142.45,4-9.25,8.08-18.51,12.57-27.54-9.58,11.4-14.4,25.91-19.53,39.88-8.39,22.83-18.17,45.16-25.73,68.27s-12.93,47.26-12.1,71.56c3-18.53,12.92-35.12,22.59-51.22l49.5-82.37c-5.38,5.28-9,12.05-12.53,18.71-6,11.28-11.88,22.6-17.5,34.06-8.39,17.11-16.19,34.79-19.24,53.59-1.52,9.4-1.83,19-2.14,28.47,15.37-25.41,30.77-50.86,43.68-77.61,4.67-9.67,9.07-19.71,10.1-30.39-8.66,33-18.33,66.19-34.94,96"/><path class="cls-2" d="M705.73,799c-.49-4.38-2.54-8.71-2.2-13.09s3-8.47,5.51-12.54A408.51,408.51,0,0,0,740,713.28c-4.33,19.1-13.12,37.78-18.05,56.83-2.79,10.77-4.4,21.77-11,31.95a6.7,6.7,0,0,1-5.39,3.41c-1.7.09-3.43-.56-4-1.5s.06-2.07,1.48-2.63"/><path class="cls-2" d="M728.55,790.89a13.28,13.28,0,0,1-1.69-5,20.24,20.24,0,0,1,1.26-8.51,117.1,117.1,0,0,1,7.57-17.26c4.9-9.57,10.31-19.2,19.71-27.55-7.86,9.29-14.73,18.94-18.52,29.07s-4.42,20.78.08,30.81a.46.46,0,0,0,.37.31c.23,0,.4-.21.18-.23"/><path class="cls-2" d="M657.77,780.27c8.43-20.67,23-40.26,37.56-59.73,2.9-3.88,5.79-7.76,9-11.55-6.87,4.78-10.32,10.86-14,16.72-6,9.57-13,18.93-18.44,28.63s-9.27,19.81-8.67,30c2.19-7.77,9.26-14.73,16.19-21.48l35.48-34.53a36.13,36.13,0,0,0-9,7.84c-4.28,4.73-8.52,9.48-12.55,14.28-6,7.18-11.6,14.59-13.79,22.48a55.63,55.63,0,0,0-1.53,11.93c11-10.65,22.06-21.33,31.31-32.54,3.35-4.05,6.5-8.27,7.24-12.74-6.21,13.85-13.14,27.75-25.05,40.27"/><path class="cls-2" d="M830.67,810.6c.57-11,3-21.87,2.58-32.89-.39-10.86-3.5-21.25-6.47-31.48-14.36-49.37-26.5-99.75-36.34-150.81,5.09,48,15.41,94.88,21.2,142.73,3.28,27,5.17,54.66,12.89,80.24,1.16,3.84,3.05,8.21,6.33,8.56,2,.22,4-1.41,4.7-3.76a6.74,6.74,0,0,0-1.74-6.63"/><path class="cls-2" d="M803.87,790.34a63.25,63.25,0,0,0,2-12.62,105.52,105.52,0,0,0-1.49-21.37c-2.2-14.67-5.46-29.05-8.89-43.35-5.75-24-12.11-48.23-23.15-69.19,9.24,23.33,17.3,47.58,21.76,73s5.19,52.19-.1,77.37c-.07.32-.18.7-.44.78s-.47-.52-.2-.57"/><path class="cls-2" d="M887,763.65c-9.9-51.89-27-101.11-44.12-150-3.39-9.74-6.8-19.49-10.58-29,8.07,12,12.12,27.29,16.44,42,7.07,24,15.3,47.55,21.67,71.89s10.88,49.76,10.18,75.35c-2.57-19.51-10.87-37-19-53.94L819.9,633.21c4.53,5.56,7.58,12.68,10.55,19.7,5,11.88,10,23.79,14.73,35.86,7.07,18,13.64,36.64,16.2,56.44,1.28,9.9,1.54,20,1.8,30-12.94-26.76-25.91-53.56-36.78-81.73-3.92-10.18-7.63-20.76-8.49-32,7.28,34.79,15.43,69.7,29.41,101.14"/><path class="cls-2" d="M928.43,914.7c.14-.29.37.36.12.43s-.45-.27-.57-.56a419.81,419.81,0,0,1-22-80c-4.89-28.26-7-57.53-4.53-86.44-12,59-2.77,124,24.48,173.13a2.13,2.13,0,0,1-1.52-1.34"/><path class="cls-2" d="M827.23,720.11c0-5.8.17-11.8-1.59-17.1-.65-.3-1.06.94-1.09,1.83a304.5,304.5,0,0,0,2.25,50.65c1,7.86,2.34,15.65,3.83,23.37a502.81,502.81,0,0,0,35.69,112.83c4.3,9.46,8.64,20.31,14.31,28.49,1-2.58-6.68-12.9-8.16-15.56q-4.76-8.6-9-17.58a352,352,0,0,1-15.35-37.71,389.63,389.63,0,0,1-18.26-81.4A398.83,398.83,0,0,1,827.23,720.11Z"/><path class="cls-2" d="M848.1,938c-28.32-33.27-47.51-79.08-53.62-128-3.74-29.88-2.72-60.47-4.75-90.65.7,21.45-.39,43,.91,64.39a462.83,462.83,0,0,0,5.91,47.62c5.89,35.5,13.74,71.7,31.46,99.78-27.27-32.26-45.46-75.76-56.14-121.51-2.07-8.85-3.87-17.81-5.53-26.81a321.8,321.8,0,0,1-4.67-33.2c-1.11-14.2-.74-28.54-.36-42.83-5.94,53.87-3.66,110.69,15.19,159,8.72,22.31,20.7,42.17,32.69,61.78-26.7-23.36-46.59-59.12-55.19-99.23,7.61,41.88,24.84,80.64,49,110.2"/><path class="cls-2" d="M1049.6,770.31c-1.36-3.37-2.87-6.82-2.12-10.63a1.16,1.16,0,0,1,1.63.62,102.17,102.17,0,0,1,9,30.5,136.94,136.94,0,0,1,1.06,15.21c.53,26.24-4.21,53.41-14,80.43-2.63,7.28-5,15.38-9.42,22.47-1.68-1.1,4.49-10.26,5.52-12.41q3.33-7,6-14a182.24,182.24,0,0,0,8.48-28.28,151.39,151.39,0,0,0,1.76-55A132.85,132.85,0,0,0,1049.6,770.31Z"/><path class="cls-2" d="M1076,906.07c23.88-31,34.78-65.53,30.45-96.58-2.65-19-10.74-36.43-15.35-54.88,4.09,12.81,10.21,25,13.63,38,2.57,9.77,3.6,20,4.28,30.22,1.52,23.13,1,47.46-12.26,71.08,23-29.94,33.26-62.76,34.72-93.83.29-6,.25-12,0-17.91a114,114,0,0,0-2.36-21.29c-2-8.74-5.67-17-9.34-25.16,18.85,29,29.24,63.16,19.28,99-4.6,16.58-13.4,33.06-22.26,49.39,24.35-24.51,38.3-53.49,38.73-80.43,1.08,27.57-9.25,57.22-29.35,84.32"/><path class="cls-2" d="M976.45,913.3c21.61-27.54,31.51-58.23,27.67-85.74-2.35-16.81-9.62-32.25-13.74-48.59,3.67,11.34,9.16,22.09,12.22,33.62,2.3,8.66,3.21,17.69,3.8,26.77,1.33,20.5.84,42.08-11.21,63.07,20.77-26.64,30.13-55.76,31.52-83.32.26-5.33.25-10.61.07-15.87a99.32,99.32,0,0,0-2.09-18.87c-1.78-7.74-5.08-15-8.37-22.27,16.94,25.68,26.24,55.89,17.18,87.71-4.18,14.72-12.15,29.36-20.17,43.87,22-21.82,34.65-47.56,35.09-71.44.92,24.43-8.46,50.76-26.64,74.85"/><path class="cls-2" d="M863.48,964.55c-2.77-15-8.07-29.16-9.48-44.46-1.4-15.1,1-30.42,3.36-45.46,11.12-72.66,19-146,23.53-219.51,1.51,67.73-4.44,135.68-3.92,203.47.29,38.29,2.61,76.95-3.55,114.69-.93,5.67-2.77,12.3-7.27,13.85-2.74,1-5.86-.64-7.21-3.66a9.83,9.83,0,0,1,1.23-9.69"/><path class="cls-2" d="M897.14,928a81.23,81.23,0,0,1-5-16.73c-1.82-9.73-2-19.87-1.76-29.92.44-20.92,2.39-41.79,4.59-62.59,3.71-35,8.22-70.36,19.82-102.81C906.08,751,899.21,787,897.57,823.51s2.13,73.57,14,106.54c.15.42.37.91.75.93s.55-.86.18-.85"/><path class="cls-2" d="M776.69,918.13c4.48-74.68,19.52-148,34.5-220.92,3-14.51,6-29,9.52-43.37-9.07,19.15-12,41.52-15.35,63.18-5.52,35.4-12.75,70.45-17.25,106s-6.22,72.07-.66,107.09c.08-27.7,8.5-54.47,16.79-80.46q21.22-66.48,42.44-133c-5.32,9.13-8.29,19.93-11.15,30.55-4.87,18-9.66,36-14.08,54.18-6.59,27.1-12.39,54.88-12.41,83,0,14.06,1.43,28,2.86,41.88,13.22-41,26.45-82.18,36.52-124.49,3.64-15.29,6.9-31.06,6.09-46.84-3.9,50.29-9,101-22.8,148.85"/><path class="cls-2" d="M1108,917.82c-1.41-16.12-.64-32.53-3.19-48.4-2.51-15.65-8.11-29.88-13.52-43.89q-39.21-101.55-71-208.83c15,68.2,36,133.4,51.78,201.23,8.94,38.31,16.37,77.87,30.25,112.86,2.08,5.26,5.12,11.08,9,10.7,2.38-.23,4.45-3.15,4.79-6.74s-1.08-7.55-3.29-9.14"/><path class="cls-2" d="M1072.77,895.75a112.9,112.9,0,0,0,0-18.84c-.89-10.48-3.2-20.66-5.77-30.59-5.35-20.68-11.88-40.66-18.6-60.46-11.28-33.29-23.29-66.64-40.18-94,15.23,31.33,29.25,64.29,39.27,100s15.93,74.28,14.49,112.25c0,.48-.08,1.06-.37,1.24s-.64-.61-.34-.76"/><path class="cls-2" d="M1165.11,834.35c-21.39-72.56-50.77-139.27-80-205.54-5.82-13.2-11.64-26.4-17.87-39.17,11.72,15.21,19.35,36.27,27.19,56.43,12.81,32.94,26.89,64.79,39,98.36s22.13,69.21,26.15,106.51c-6.7-27.59-19.72-50.67-32.46-73l-65.19-114.43c6.36,6.83,11.28,16.33,16.08,25.69,8.13,15.87,16.21,31.79,24,48,11.67,24.21,22.88,49.42,29.62,77.44,3.37,14,5.58,28.53,7.77,43-20.21-35.28-40.46-70.62-58.5-108.5-6.53-13.69-12.86-28-16-44.11,15.11,48.49,31.23,96.89,53.55,138.68"/><path class="cls-2" d="M1442,760.31c-31.52-28.54-55.21-70.87-66.2-118.29-6.71-29-8.76-59.38-13.8-88.92,2.85,21.11,3.92,42.59,7.36,63.54A446.19,446.19,0,0,0,1380,662.83c9.42,34.19,20.86,68.77,41.32,93.81-30.38-27.7-52.85-67.91-68.07-111.5-2.94-8.44-5.63-17-8.18-25.66a311,311,0,0,1-8-32.1c-2.52-13.88-3.59-28.12-4.65-42.31-.51,54.19,7.45,110,31,154.84,10.91,20.72,24.83,38.51,38.73,56.05-28.92-19-52.31-51.27-64.89-89.61,11.78,40.25,32.81,75.91,59.82,101.42"/><path class="cls-2" d="M1368.89,751.68c-3-74.54,4.61-149.4,12.22-223.78,1.52-14.82,3-29.64,5.15-44.37-7.12,20.34-7.77,42.91-9,64.85-2,35.86-5.65,71.64-6.56,107.52s1,72.23,10.06,106c-2.69-27.41,3-55.18,8.67-82.16q14.46-69,28.93-138c-4.37,9.84-6.25,21-8,31.93-3,18.55-6,37.11-8.59,55.75-3.85,27.82-6.85,56.18-4,84,1.4,13.9,4.23,27.46,7,41,9-42.63,18.1-85.35,23.89-128.74,2.09-15.69,3.75-31.79,1.37-47.26,1.15,50.33,1.18,101.27-7.79,150.71"/><path class="cls-2" d="M1235.43,825.15c.09-.23.29.27.11.34s-.35-.19-.45-.42a340.61,340.61,0,0,1-20.23-61.65c-5-21.93-8-44.8-7.43-67.61-6.19,46.88,3.74,97.49,26.42,134.64a1.58,1.58,0,0,1-1.2-1"/><path class="cls-2" d="M1150.64,677.55c-.25-4.55-.43-9.27-2-13.34-.5-.21-.74.79-.73,1.49a251.85,251.85,0,0,0,4.06,39.64c1.13,6.12,2.49,12.16,4,18.15a406.89,406.89,0,0,0,32,86.75c3.67,7.21,7.42,15.51,12,21.64.62-2.07-5.6-9.79-6.83-11.8-2.63-4.33-5.17-8.78-7.58-13.34a282.29,282.29,0,0,1-13.25-28.82,317.58,317.58,0,0,1-17.47-63A328.49,328.49,0,0,1,1150.64,677.55Z"/><path class="cls-2" d="M1176.45,847.51c-22.73-24.68-39.23-59.66-46.09-97.73-4.2-23.27-4.87-47.33-7.8-70.92,1.53,16.8,1.72,33.78,3.7,50.5,1.48,12.55,4,24.87,6.65,37.08,6.07,27.56,13.63,55.58,28.2,76.72-21.9-23.94-37.54-57.16-47.68-92.53-2-6.85-3.73-13.78-5.39-20.76-2-8.49-3.87-17.07-5-25.82-1.49-11.09-1.89-22.37-2.28-33.61-1.91,42.59,2.46,87.07,18.82,124,7.56,17.07,17.45,32,27.34,46.83-21.06-17-37.61-44-45.92-75.09,7.65,32.49,22.35,62,41.8,84"/><path class="cls-2" d="M1275.57,830.68c-.16-.07-.22.3,0,.24a.54.54,0,0,0,.34-.46,144.55,144.55,0,0,0,2.09-44c-1.61-14.46-5.64-28.35-13.39-40.32,21.35,21.84,26.74,54.39,14.32,86.57a2,2,0,0,0,1-1.17"/><path class="cls-2" d="M1319.27,705.68c-1.18-2.58-2.47-5.21-2.09-8.24.48-.38,1,0,1.25.41a82.57,82.57,0,0,1,8.17,23.48,110.66,110.66,0,0,1,1.51,11.89c1.63,20.56-.64,42.13-6.67,63.83-1.63,5.85-3,12.33-6,18.12-1.31-.78,2.87-8.28,3.54-10q2.17-5.62,3.87-11.25a148.11,148.11,0,0,0,5-22.63,124.59,124.59,0,0,0-1.26-43.23A107.78,107.78,0,0,0,1319.27,705.68Z"/><path class="cls-2" d="M1345.36,810.9c16.41-25.52,22.94-53.2,18.24-77.35-2.87-14.76-9.74-28-14-42.3,3.67,9.85,8.81,19.07,12,29.12a132.59,132.59,0,0,1,4.61,23.5c2.23,18.08,3,37.21-5.83,56.42a135.36,135.36,0,0,0,21.56-75.41c-.07-4.73-.37-9.41-.81-14.06a92.84,92.84,0,0,0-2.76-16.59c-1.9-6.76-5-13-8.16-19.28,15.45,21.85,24.82,48.1,19,76.75-2.66,13.25-8.46,26.62-14.32,39.9,17.05-20.48,26.13-43.94,25.19-65.1,2.09,21.58-4.24,45.38-18,67.67"/><path class="cls-2" d="M1208.31,839.51c-.15-.07-.21.27,0,.21a.49.49,0,0,0,.31-.41,126.14,126.14,0,0,0,2-39.06c-1.41-12.82-5-25.12-12-35.7,19.19,19.27,23.95,48.11,12.67,76.71a1.79,1.79,0,0,0,.88-1"/><path class="cls-2" d="M1248.05,728.42c-1-2.28-2.21-4.61-1.85-7.3.42-.34.94,0,1.12.36a71.64,71.64,0,0,1,7.3,20.79A98.66,98.66,0,0,1,1256,752.8a161.47,161.47,0,0,1-6.2,56.66c-1.49,5.19-2.75,10.94-5.45,16.09-1.18-.68,2.61-7.35,3.22-8.91q2-5,3.52-10a130.75,130.75,0,0,0,4.58-20.09,108.68,108.68,0,0,0-1-38.34A94,94,0,0,0,1248.05,728.42Z"/><path class="cls-2" d="M1271.27,821.62c14.87-22.71,20.83-47.3,16.67-68.7-2.55-13.07-8.7-24.83-12.55-37.45,3.28,8.72,7.89,16.88,10.71,25.78a114,114,0,0,1,4.1,20.82c2,16,2.6,33-5.42,50.07a119.51,119.51,0,0,0,19.65-67c0-4.2-.31-8.35-.69-12.47a81.29,81.29,0,0,0-2.44-14.7c-1.7-6-4.51-11.54-7.31-17.06,13.87,19.3,22.24,42.54,17,68-2.44,11.76-7.71,23.66-13,35.46,15.43-18.25,23.68-39.1,22.89-57.86,1.83,19.13-3.94,40.27-16.41,60.1"/><path class="cls-2" d="M1189.2,867.58c-2.77-11.62-7.4-22.48-9.18-34.42-1.75-11.78-.63-23.93.39-35.85,4.91-57.6,7.35-115.55,7.3-173.49,4.31,53.09,3,106.72,6.61,159.9,2,30,5.56,60.27,2.72,90.21-.43,4.5-1.5,9.79-4.79,11.24-2,.88-4.41-.21-5.56-2.51a8.05,8.05,0,0,1,.47-7.67"/><path class="cls-2" d="M1212.66,837.14a65,65,0,0,1-4.55-12.87c-1.82-7.55-2.41-15.5-2.72-23.4-.66-16.44-.17-32.92.5-49.36,1.13-27.64,2.84-55.64,10-81.7-4.84,28-8.3,56.63-7.81,85.34s5,57.63,15.47,82.91c.13.32.32.69.6.69s.38-.7.1-.68"/><path class="cls-2" d="M1122.13,835.54c-.15-58.84,7.65-117.18,15.43-175.15,1.55-11.54,3.1-23.1,5.09-34.53-5.88,15.49-7,33.2-8.51,50.37-2.47,28.07-6.24,55.95-7.94,84.11s-1.26,56.88,4.53,84.09c-1.24-21.75,3.81-43.18,8.79-64q12.75-53.26,25.49-106.53c-3.54,7.44-5.25,16.07-6.9,24.55-2.79,14.37-5.53,28.76-8,43.24-3.66,21.61-6.7,43.7-5.4,65.76.65,11,2.38,21.9,4.11,32.73,8-32.89,15.92-65.85,21.47-99.57,2-12.19,3.7-24.73,2.36-37.07-.56,39.67-2,79.73-10.07,118"/><path class="cls-2" d="M1259.58,839.55c-1.34-4.82-4-9.14-4.64-14.19s.81-10.37,2.14-15.66a598.82,598.82,0,0,0,14.14-76.25c.26,22.75-3.42,46.24-3.69,69.1-.16,12.91.75,25.77-2.79,39.07-.53,2-1.56,4.4-3.94,5.32a3.38,3.38,0,0,1-3.77-.6,2.63,2.63,0,0,1,.73-3.38"/><path class="cls-2" d="M1277.59,824.19a16.58,16.58,0,0,1-2.51-5.2,30.47,30.47,0,0,1-.69-10,174.26,174.26,0,0,1,2.92-21.55c2.23-12.15,4.88-24.5,11.25-36.5-4.84,12.64-8.75,25.42-9.91,37.89s.53,24.67,6.52,34.75a.39.39,0,0,0,.39.25c.19,0,.3-.34.1-.3"/><path class="cls-2" d="M1214.28,831.56c3-25.63,11.46-51.75,19.92-77.71,1.69-5.17,3.38-10.34,5.37-15.5-4.93,7.28-6.64,15.09-8.59,22.71-3.19,12.45-7.28,24.94-9.93,37.36s-3.85,24.91-1.21,36.25c.26-9.37,4.91-19.16,9.48-28.68l23.4-48.69c-2.86,3.55-4.51,7.47-6.11,11.31-2.7,6.51-5.37,13-7.84,19.55-3.69,9.75-7,19.65-7.2,29.14a84.11,84.11,0,0,0,1.17,13.9c7.28-15,14.58-30.11,20.22-45.3,2-5.49,3.88-11.11,3.58-16.37-2.46,17.34-5.53,34.93-13.19,52.32"/><path class="cls-2" d="M1369.85,818.5c-1.81-12.58-2-25.5-4.65-37.83-2.62-12.16-7.47-23-12.17-33.77q-34.08-77.7-62.91-160.31c14.43,52.77,33.14,102.89,48.15,155.33,8.48,29.62,15.89,60.29,27.91,87.05,1.81,4,4.35,8.44,7.25,7.94,1.77-.3,3.18-2.69,3.27-5.54s-1.16-5.87-2.88-7"/><path class="cls-2" d="M1342.48,803a94.05,94.05,0,0,0-.93-14.78,149.55,149.55,0,0,0-5.75-23.72c-5-16-10.79-31.31-16.74-46.51-10-25.56-20.54-51.13-34.45-71.78,12.85,23.82,24.88,49,34.05,76.47s15.4,57.5,16.1,87.37c0,.38,0,.84-.22,1s-.51-.46-.29-.59"/><path class="cls-2" d="M1408.64,750.08c-19.4-55.86-44.49-106.73-69.45-157.27-5-10.06-9.94-20.13-15.2-29.84,9.48,11.34,16.17,27.49,23,42.92,11.12,25.2,23.15,49.49,33.73,75.22s19.8,53.2,24.55,82.28c-6.3-21.31-17.12-38.77-27.7-55.68l-54.1-86.52c5.07,5,9.2,12.25,13.22,19.36,6.83,12,13.62,24.12,20.22,36.45,9.87,18.41,19.43,37.63,25.79,59.28,3.17,10.83,5.5,22.11,7.82,33.36-16.77-26.67-33.56-53.39-48.83-82.2-5.52-10.42-10.93-21.35-14-33.81,13.56,37.28,27.89,74.46,46.54,106.13"/><path class="cls-2" d="M19.67,636.22c.09-3.28.07-6.71,2.12-9.14.72,0,1.13.85,1.15,1.37a83.35,83.35,0,0,1-3.58,27.85,96.38,96.38,0,0,1-4.71,12C5.43,688.22-8.63,705.93-26.9,720.74c-4.93,4-9.92,8.75-16.3,11.59-1-1.76,7.59-5.19,9.27-6.23q5.4-3.36,10.29-7.08A118.07,118.07,0,0,0-6,702.55a103.59,103.59,0,0,0,21.78-40.18A107.12,107.12,0,0,0,19.67,636.22Z"/><path class="cls-2" d="M-8,752.53c31.74-9.91,53.77-29.74,61.54-55.4,4.75-15.68,4.3-33.24,7.19-49.62-1.24,11.87-.52,24.36-2.42,36-1.42,8.75-4.31,17-7.51,25-7.24,18.17-16.62,36.12-36.65,46.41,30.57-9.67,51.44-28.51,64.15-51A148.75,148.75,0,0,0,85,690.59a82.9,82.9,0,0,0,5.85-17.25c1.53-7.66,1.43-15.86,1.34-24,5.31,32.23,1.56,63.55-20.14,84.86C62,744,48.42,751.47,34.86,758.78,64.61,754,87.17,740,97.48,720.08c-9.26,21.24-29,37.7-56.08,46.82"/><path class="cls-2" d="M14.92,779.12c4.74-12.85,11.46-24.71,15.14-38,3.64-13.12,4.13-26.88,4.69-40.39,2.75-65.21,8.3-130.63,16.63-195.84C39,564.3,32.74,624.76,21.18,684.34,14.64,718,6.37,751.74,5.26,785.65c-.16,5.1.27,11.14,3.74,13,2.1,1.15,4.94.12,6.56-2.39a9.21,9.21,0,0,0,.58-8.66"/><path class="cls-2" d="M-6.9,743A79.9,79.9,0,0,0,0,728.88c3.11-8.34,4.9-17.25,6.37-26.11,3.08-18.46,4.89-37,6.49-55.6,2.69-31.2,4.78-62.85.52-92.75,1.39,31.92,1.16,64.4-3.48,96.67s-13.85,64.47-29.09,92.1c-.19.35-.46.75-.77.73s-.32-.82,0-.77"/><path class="cls-2" d="M94.29,748.35c8.58-66.21,8.2-132.49,7.8-198.35-.08-13.12-.16-26.24-.75-39.26,4.35,17.9,3.07,37.91,2.31,57.36-1.26,31.79-1,63.46-3.16,95.29s-6.71,64.12-17.06,94.29c4.49-24.38,1.92-48.9-.66-72.73L69.54,563.05c2.89,8.64,3.57,18.49,4.2,28.17,1.06,16.39,2.06,32.81,2.73,49.29,1,24.61,1.23,49.72-3.38,74.45-2.3,12.36-5.78,24.45-9.25,36.51-4.18-37.65-8.36-75.37-9.73-113.76-.5-13.88-.6-28.13,2.66-41.91-5,44.69-9.18,89.9-5.61,133.59"/><path class="cls-2" d="M436.23,863.37c.2-.17.22.45,0,.4s-.32-.41-.34-.7a344,344,0,0,1,2.45-73.31c3.49-24.63,9.72-48.88,20.08-70.79-27.31,41.69-37.19,97.53-26.3,148.54a2.39,2.39,0,0,1-1-1.73"/><path class="cls-2" d="M399.19,664.16c1.65-4.6,3.45-9.32,3.34-14.31-.51-.52-1.22.29-1.5,1a221.83,221.83,0,0,0-12.12,41.31c-1.29,6.7-2.27,13.48-3.09,20.29a423.31,423.31,0,0,0,.7,105.44c1.24,9.41,2.13,20,5,28.94,1.61-1.62-2.43-13.19-3-16q-1.91-8.91-3.26-18a312.33,312.33,0,0,1,2.94-109.53A288.89,288.89,0,0,1,399.19,664.16Z"/><path class="cls-2" d="M357.11,846.76A219.82,219.82,0,0,1,344.44,721.4c5-25.42,14.46-49.33,21.06-74.25-5.36,17.38-12.37,34.07-17.18,51.67-3.61,13.21-5.95,26.84-8,40.49-4.6,30.84-7.63,63.09.54,93.21C325.24,794.9,321,752.3,324.11,711.2c.61-8,1.48-15.87,2.5-23.75A248.36,248.36,0,0,1,331.67,659c3-11.79,7.32-23.05,11.66-34.26C322.89,665,309.07,711.24,312.6,757.9c1.64,21.58,6.92,42.64,12.27,63.5-17.6-30.28-25.57-67.46-22.13-103.16A220.63,220.63,0,0,0,316.2,827.42"/><path class="cls-2" d="M363.58,874.63c1.69-13.13.86-26.74,3.86-39.55,3-12.63,9.47-23.75,15.76-34.72a1688.73,1688.73,0,0,0,82.66-164.45C448.28,690.5,423.9,742,405.4,796.18c-10.44,30.61-19.16,62.41-35.28,89.75-2.43,4.11-5.95,8.58-10.45,7.85a7.1,7.1,0,0,1-5.49-6.08,7,7,0,0,1,3.82-7.17"/><path class="cls-2" d="M404.24,860.23a67.68,67.68,0,0,1,.13-15.52c1.07-8.55,3.77-16.69,6.77-24.6,6.25-16.46,13.86-32.22,21.67-47.82,13.12-26.22,27.09-52.41,46.66-73.17-17.67,24.18-34,49.83-45.63,78.15s-18.66,59.5-17.14,90.94c0,.41.08.89.41,1.07s.75-.44.4-.59"/><path class="cls-2" d="M298.13,799.69c24.93-57.49,59-109.31,93-160.78,6.75-10.25,13.51-20.51,20.74-30.36-13.56,11.28-22.43,27.82-31.54,43.58C365.4,677.9,349.05,702.63,335,729s-25.77,54.65-30.55,85c7.82-22,22.92-39.65,37.69-56.71L417.71,670c-7.36,4.94-13.06,12.24-18.63,19.44-9.42,12.2-18.8,24.45-27.87,37-13.54,18.69-26.55,38.26-34.43,60.63-3.94,11.18-6.53,22.91-9.12,34.59,23.42-26.89,46.88-53.84,67.82-83.12,7.57-10.58,14.92-21.71,18.61-34.63-17.6,38.33-36.37,76.49-62.24,108.53"/><path class="cls-2" d="M597.64,944.45c3.23-13.45,8.52-26.18,10.65-39.93,2.11-13.56,1-27.33.06-40.86-4.69-65.33-6.63-131.25-5.8-197.35-5.49,60.87-4.81,122-9.48,182.87-2.64,34.42-7,69.16-4.23,103.09.41,5.1,1.53,11.06,5.17,12.47,2.21.86,4.9-.56,6.22-3.27a9.33,9.33,0,0,0-.42-8.71"/><path class="cls-2" d="M572,911.46a81.25,81.25,0,0,0,5.22-15c2.13-8.74,2.89-17.85,3.34-26.88.94-18.8.63-37.57.1-56.27-.88-31.44-2.41-63.25-10-92.45,5,31.6,8.45,64,7.53,96.76s-6.38,66.11-18.3,95.7c-.15.38-.37.82-.68.84s-.41-.78-.1-.77"/><path class="cls-2" d="M672.6,903c1-67.12-6.93-133.09-14.81-198.64-1.56-13.05-3.13-26.11-5.19-39,6.33,17.24,7.34,37.35,8.79,56.83,2.37,31.83,6.18,63.35,7.69,95.35s.65,64.79-6.16,96.24c1.67-24.89-3.65-49-8.91-72.36q-13.46-59.8-26.9-119.62c3.83,8.22,5.62,17.93,7.34,27.49,2.91,16.19,5.76,32.4,8.29,48.73,3.78,24.38,6.86,49.36,5.12,74.61-.87,12.63-2.94,25.15-5,37.63-8.4-36.93-16.82-73.93-22.53-112-2.07-13.76-3.78-28-2.13-42.12.1,45.21,1.13,90.8,9.62,133.84"/><path class="cls-2" d="M157.5,780.54c.16-.13.15.36,0,.31s-.22-.33-.22-.56a283.92,283.92,0,0,1,5.54-57.4c3.86-19.19,9.76-38,18.62-54.76-22.56,31.66-32.79,75.08-27.21,115.5a1.87,1.87,0,0,1-.66-1.39"/><path class="cls-2" d="M139.83,622.9c1.47-3.55,3.06-7.18,3.23-11.1-.35-.43-.93.18-1.17.71a182.41,182.41,0,0,0-11.17,31.94c-1.3,5.21-2.38,10.49-3.34,15.79A348.49,348.49,0,0,0,122.57,743c.46,7.43.59,15.73,2.26,22.89,1.29-1.21-1.15-10.44-1.45-12.63q-1-7.07-1.54-14.21a257.66,257.66,0,0,1,7.74-85.79A238.66,238.66,0,0,1,139.83,622.9Z"/><path class="cls-2" d="M99.08,764.51C88.85,733.4,87.72,698,95.93,665.71c5-19.75,13.33-38.14,19.54-57.43-4.9,13.43-11,26.25-15.49,39.87a288.7,288.7,0,0,0-8,31.46c-5,24-8.9,49.19-4.31,73.12-9.8-30.1-10.84-63.67-6.42-95.78.86-6.22,1.92-12.39,3.08-18.54a203,203,0,0,1,5.23-22.14c2.82-9.14,6.65-17.8,10.46-26.43-17.34,30.83-30,66.56-29.74,103.3.13,17,3,33.69,6,50.26C64.57,719,60.48,689.52,64.87,661.65a180.15,180.15,0,0,0,4.56,86.14"/><path class="cls-2" d="M189.6,807c-.11-.15-.3.1-.09.18A.41.41,0,0,0,190,807a98,98,0,0,0,18-31.8,77.3,77.3,0,0,0,3.49-37.64c10.1,28.22,2.68,55.58-19.76,72.78A1.51,1.51,0,0,0,193,810"/><path class="cls-2" d="M272.89,737.67c-.05-2.58-.18-5.27,1.27-7.33.54,0,.87.6.91,1a69.7,69.7,0,0,1-1.72,22.12,82.29,82.29,0,0,1-3.1,9.74A123.05,123.05,0,0,1,241,807.29c-3.54,3.48-7.1,7.56-11.78,10.24-.82-1.32,5.5-4.6,6.72-5.54q3.91-3,7.44-6.28A96.76,96.76,0,0,0,256,791.56a87.78,87.78,0,0,0,14.88-33.08A89.52,89.52,0,0,0,272.89,737.67Z"/><path class="cls-2" d="M256.26,831c23.37-10,39.14-27.09,44.06-47.78,3-12.64,2.06-26.41,3.65-39.48-.51,9.41.46,19.18-.56,28.46a101.47,101.47,0,0,1-4.74,20.16c-4.78,14.78-11.17,29.53-25.78,39a89,89,0,0,0,46.17-44.49c1.68-3.58,3.15-7.25,4.49-11a70.23,70.23,0,0,0,3.78-14c.87-6.13.52-12.56.16-19,5.09,25,3.37,49.81-12.1,68.06-7.16,8.44-17,15.23-26.91,21.92,22.06-5.86,38.44-18.38,45.44-34.75-6.18,17.33-20.34,31.63-40.27,40.67"/><path class="cls-2" d="M129.13,776.22c-.1-.13-.27.09-.08.16a.37.37,0,0,0,.42-.14,85.76,85.76,0,0,0,16.11-28.13,67.51,67.51,0,0,0,3-33.38c9.2,25.09,2.61,49.33-17.54,64.48a1.33,1.33,0,0,0,1.13-.29"/><path class="cls-2" d="M203.92,715.13c0-2.3-.18-4.68,1.12-6.5.49,0,.79.53.82.89a60.58,60.58,0,0,1-1.46,19.62,72.19,72.19,0,0,1-2.76,8.63,107.76,107.76,0,0,1-26.17,39c-3.18,3.07-6.38,6.68-10.58,9-.75-1.17,4.94-4.06,6-4.88,2.35-1.77,4.57-3.61,6.69-5.53a84.9,84.9,0,0,0,11.3-12.5,76.47,76.47,0,0,0,13.29-29.28A78.18,78.18,0,0,0,203.92,715.13Z"/><path class="cls-2" d="M189.29,797.81c21-8.74,35.17-23.84,39.52-42.18,2.66-11.2,1.76-23.42,3.14-35-.43,8.35.48,17-.39,25.25a88.37,88.37,0,0,1-4.2,17.87c-4.25,13.08-10,26.14-23.09,34.48A78.5,78.5,0,0,0,245.71,759c1.51-3.17,2.81-6.43,4-9.72a61.91,61.91,0,0,0,3.35-12.37c.76-5.42.42-11.14.08-16.83,4.67,22.16,3.22,44.21-10.66,60.33-6.41,7.45-15.28,13.43-24.16,19.31,19.86-5.09,34.57-16.12,40.82-30.61-5.5,15.35-18.21,28-36.14,35.89"/><path class="cls-2" d="M102.52,786.62c1.93-10.24,2-20.94,4.9-30.87s8.28-18.27,13.55-26.64a1373.52,1373.52,0,0,0,70.22-125.84c-15.92,42.14-36.78,81.6-53.38,123.4-9.37,23.62-17.5,48.22-31,69.06-2,3.13-4.89,6.5-8.22,5.76a5.39,5.39,0,0,1-3.81-5A5.63,5.63,0,0,1,98.05,791"/><path class="cls-2" d="M133.7,776.87a55.67,55.67,0,0,1,.89-12.17,88,88,0,0,1,6.31-19c5.51-12.68,12-24.75,18.64-36.69,11.16-20.07,23-40.08,38.65-55.62-14.46,18.29-27.95,37.8-38.13,59.56s-17,46-17.43,70.68c0,.32,0,.7.26.86s.58-.32.33-.46"/><path class="cls-2" d="M57.29,725.36C78.87,681.21,107,641.87,135,602.79c5.58-7.79,11.16-15.57,17.07-23-10.72,8.33-18.21,21-25.83,33-12.45,19.64-25.94,38.42-37.78,58.57S66.44,713.2,61.33,736.8c7-17,19.17-30.22,31.09-43l61-65.59c-5.76,3.6-10.4,9.11-14.93,14.54-7.68,9.21-15.32,18.47-22.75,27.94-11.08,14.15-21.82,29-28.85,46.25-3.51,8.62-6,17.72-8.58,26.79,18.9-20.21,37.84-40.46,55-62.63,6.2-8,12.27-16.46,15.68-26.45-15.11,29.39-31.1,58.61-52.1,82.76"/><path class="cls-2" d="M172.73,804.74c.64-4.35,0-9.07,1.29-13.2s4.5-7.32,7.59-10.54a391.44,391.44,0,0,0,40.17-49.24c-8.18,17.18-20,32.72-28.64,49.69-4.9,9.58-8.86,19.72-16.79,27.7A5.34,5.34,0,0,1,171,811a4.18,4.18,0,0,1-3-2.54c-.26-1.06.55-2,1.86-2.13"/><path class="cls-2" d="M193.71,803.25a15.37,15.37,0,0,1-.22-5.3,22.09,22.09,0,0,1,3.09-7.83A115.43,115.43,0,0,1,207,775.6c6.38-7.86,13.19-15.63,23-21.07-8.79,6.77-16.83,14.16-22.41,22.86S199,796.16,200.37,807a.47.47,0,0,0,.24.4c.17.1.38-.08.19-.17"/><path class="cls-2" d="M137.14,773.58c12-17.55,28.84-32.38,45.62-47.11,3.34-2.93,6.68-5.87,10.28-8.63-6.88,2.71-11.21,7.62-15.68,12.24-7.31,7.55-15.39,14.62-22.24,22.45S142.66,769,140.73,779c3.68-6.87,11.24-11.61,18.64-16.2l37.87-23.46c-3.75,1.07-6.6,3.08-9.37,5.08-4.7,3.37-9.38,6.77-13.89,10.28-6.73,5.25-13.17,10.84-16.87,17.82A60,60,0,0,0,153,783.58c11.74-7.22,23.51-14.45,33.91-22.69,3.76-3,7.4-6.16,9.08-10.27-8.48,11.62-17.59,23.08-30.52,31.85"/><path class="cls-2" d="M274.29,850.26c3.1-10.43,7.7-20.21,10-30.92s2.15-21.4,2.1-32.05c-.21-51.41,1.68-103.19,5.64-155-7.19,47.53-9.77,95.46-16.35,143.06-3.71,26.89-8.73,54-8.38,80.7.05,4,.59,8.73,3.24,10,1.62.76,3.7-.25,4.82-2.33a7.6,7.6,0,0,0,.13-6.85"/><path class="cls-2" d="M256.74,823.41a68.19,68.19,0,0,0,4.67-11.58,120,120,0,0,0,3.86-21c1.66-14.71,2.37-29.44,2.92-44.13.93-24.69,1.39-49.7-2.83-72.89,2.15,25,3.1,50.5.75,76.18s-8.11,51.61-18.54,74.36c-.13.3-.32.63-.55.63s-.27-.62,0-.6"/><path class="cls-2" d="M332.53,820.58c4.11-52.61,1.53-104.64-1-156.35-.51-10.3-1-20.61-1.92-30.79,3.87,13.75,3.61,29.57,3.71,44.9.16,25,1.43,49.92.94,75.07s-2.79,50.84-9.48,75.25c2.51-19.46-.25-38.55-3-57.09q-7.05-47.42-14.11-94.84c2.46,6.59,3.31,14.28,4.12,21.84,1.36,12.81,2.67,25.63,3.74,38.53,1.6,19.27,2.64,39,.06,58.72-1.29,9.87-3.47,19.61-5.65,29.32-4.42-29.28-8.85-58.62-11.21-88.69-.85-10.87-1.42-22.05.54-33.11-2.22,35.46-3.74,71.26.43,105.34"/><path class="cls-2" d="M-145.34,811c-29.12-59.64-37-124.12-22.72-186.25,2-8.76,4.7-17.86,12.73-24.81,10.62-9.19,28.53-12.82,45.54-13.94C-65,583-20.51,593.93,18.75,609c62.48,23.94,115.08,58.29,174.89,85.25S325.83,741,395.73,730.55c30-4.5,60.28-14.49,90.11-9.43,20.75,3.52,37.66,13.91,57.86,18.73,35.58,8.48,75.61-1.37,112.17,4.83,24.47,4.16,46.24,15.34,71.39,16.4,42.17,1.78,75-24.62,115.46-33.06,61.35-12.82,129.9,17.38,190.12,2.23,25.9-6.51,50-21.25,77.08-17.68,15.31,2,27.81,9.7,42.76,12.76,14.73,3,30.7,1.3,45.31-2,37.91-8.52,69.15-26.82,103.32-40.94s76.28-24.29,113.54-14.53c34.47,9,56.28,33.52,63.07,58.42s1.07,50.52-4.65,75.55c-7,30.54-14.67,62.33-40.87,87.47C1414,907,1387.77,920,1361.11,931.68c-237,103.83-532.3,122.24-813.25,114.89-100-2.62-200-8.14-298.24-21.28C172.54,1015,97,1000,21.51,985.08c-39.62-7.84-79.74-15.83-115.14-30.35-33.94-13.91-62.28-33.3-90.24-52.49q-43.57-29.88-87.13-59.78c23.31,2.76,48.51-4.34,62.27-17.55s15.42-31.87,4.09-46.13l16.51,4.17"/><path class="cls-2" d="M1074.46,596.87c9.74,9.83,15,23.14,20,36.06.89,2.29,1.42,5.56-.8,6.61-1.77.84-3.74-.6-5.13-2a92.06,92.06,0,0,1-17.82-25.11,19.31,19.31,0,0,1-2.37-9.41C1068.35,599.51,1069.71,592.08,1074.46,596.87Z"/><path class="cls-2" d="M1205.15,601c1.28,2.28,3.89,7,0,7.21-2.62.16-5.65-3.06-7.54-4.5-2.77-2.11-6.22-4-7.53-7.45-1.47-3.84-1.1-11.25,4.6-8.46C1199.5,590.15,1202.64,596.56,1205.15,601Z"/><path class="cls-2" d="M918.2,585.13c.87.36,1.13,1.44,1.25,2.37a82.82,82.82,0,0,1,.35,11.79l-.38,22.22a9.19,9.19,0,0,1-.68,4,3.17,3.17,0,0,1-3.34,1.86c-3.46-.88-2.92-8.25-3.19-10.82-.43-4-1.24-7.84-1.91-11.8C909.74,601.48,913,582.55,918.2,585.13Z"/><path class="cls-2" d="M702.29,713.75c-.28,2.31-1.71,4.31-3.22,6.09-1,1.19-2.05,2.33-3.14,3.44-1.38,1.42-2.8,2.79-4.22,4.16a2.09,2.09,0,0,1-1,.65,1.4,1.4,0,0,1-1.42-1.26,4,4,0,0,1,.4-2,32.79,32.79,0,0,1,8-11.82C699.69,711.12,702.8,709.44,702.29,713.75Z"/><path class="cls-2" d="M548.23,567.06A25.74,25.74,0,0,1,552,549.78c.47-.74,1.23-1.54,2.06-1.28a2.05,2.05,0,0,1,1,.89,83.27,83.27,0,0,1,14.89,44.39,4.1,4.1,0,0,1-.55,2.72,2.81,2.81,0,0,1-3.13.68,7.42,7.42,0,0,1-2.71-2c-9.9-10.36-14.54-24.62-17.56-38.63"/><path class="cls-2" d="M-213.11-86.92C13.36,21.81,192.71,208.25,344.51,408.42,278,305.5,189.46,212.77,105.7,132.63,54.45,83.61-3,38-62.29-4.49c-42.4-30.42-91.25-58-129.18-93.88.65,10.15-16.8-3.12-8.42-8.88"/><path class="cls-2" d="M-25-15.62c6.89-.21,13,2.51,19.2,4.63A107.41,107.41,0,0,0,23-5.44c-17.1,1-32.76,19-49.71,18.9C-34.44,13.41-44.82,8-45.4-.45-46.08-10.11-32.81-15.38-25-15.62Z"/><path class="cls-2" d="M27.22,25.52c6.89-.21,13,2.52,19.21,4.63A107.33,107.33,0,0,0,75.21,35.7c-17.11,1-32.76,19-49.72,18.9-7.71-.05-18.08-5.5-18.67-13.9C6.15,31,19.42,25.76,27.22,25.52Z"/><path class="cls-2" d="M15.27,62.47c2.46,6,2,13.16,2.18,20A109.46,109.46,0,0,0,22,111.55C15.45,96.9-5.8,94-11.29,78.82c-2.49-6.91-1-19.52,6.28-25.21C3.41,47.06,12.49,55.65,15.27,62.47Z"/><path class="cls-2" d="M81.34,75.16c5.88,0,10.72,2.56,15.7,4.56a85,85,0,0,0,23.7,5.65c-14.64.3-30.21,15.13-44.58,14.5-6.53-.29-14.63-5.26-14.06-12.44C62.77,79.18,74.69,75.11,81.34,75.16Z"/><path class="cls-2" d="M66.49,106.24c1.31,5.21,0,11.27-.71,17.1a91,91,0,0,0,.12,24.91c-3.66-12.68-21.31-15.82-24-28.94-1.24-6,1.6-16.65,8.54-21.26C58.39,92.74,65,100.35,66.49,106.24Z"/><path class="cls-2" d="M116.05,115.34c5.36,1.16,10.09,4.39,14.89,7.18a104.67,104.67,0,0,0,22.32,9.71c-13.3-2.54-25.58,8-38.75,4.69-6-1.52-14-7.62-14.41-14.07C99.64,115.44,110,114,116.05,115.34Z"/><path class="cls-2" d="M106.51,140.89c1.87,5,1.5,10.31,1.56,15.48a89.13,89.13,0,0,0,3.32,22.8c-5-12.3-21.46-18.55-25.62-31.06-1.89-5.69-.68-14.91,5-17.8C97.4,127,104.4,135.22,106.51,140.89Z"/><path class="cls-2" d="M122.14,181.87c-.35,4.94,1.41,9.26,2.74,13.65A74.41,74.41,0,0,1,128,216c1.22-12.27,14.59-23.9,15-36,.2-5.52-3.39-12.82-9.39-13.05C126.73,166.65,122.55,176.28,122.14,181.87Z"/><path class="cls-2" d="M149,172.46c4.23,1.62,9.36,1.15,14.25,1.1a75.63,75.63,0,0,1,20.69,2.57c-10.29-4.33-11.72-19.48-22.43-23.07-4.87-1.62-13.95-.29-18.25,5.08C138.29,164.32,144.17,170.62,149,172.46Z"/><path class="cls-2" d="M156.66,219.31c.23,4.95,2.49,9,4.33,13.23a74.24,74.24,0,0,1,5.51,20c-.24-12.34,11.67-25.46,10.66-37.57-.45-5.5-4.88-12.33-10.87-11.85C159.41,203.65,156.4,213.7,156.66,219.31Z"/><path class="cls-2" d="M182.18,206.79c4.4,1.11,9.43,0,14.28-.59a75.74,75.74,0,0,1,20.85.1c-10.73-3.08-13.94-18-25-20.25-5-1-13.88,1.36-17.52,7.2C170.61,200,177.2,205.54,182.18,206.79Z"/><path class="cls-2" d="M192.63,256.87c.23,4.95,2.49,9,4.33,13.23a74.24,74.24,0,0,1,5.51,20c-.24-12.33,11.66-25.45,10.66-37.56-.45-5.51-4.88-12.33-10.87-11.85C195.38,241.22,192.37,251.27,192.63,256.87Z"/><path class="cls-2" d="M218.15,244.36c4.4,1.11,9.43,0,14.28-.59a75.35,75.35,0,0,1,20.85.1c-10.73-3.09-13.94-18-25-20.25-5-1-13.88,1.35-17.52,7.2C206.58,237.54,213.17,243.1,218.15,244.36Z"/><path class="cls-2" d="M224.09,286.29c.19,4.21,2.12,7.68,3.69,11.26a63.08,63.08,0,0,1,4.68,17c-.19-10.5,9.94-21.67,9.09-32-.39-4.68-4.16-10.5-9.26-10.08C226.43,273,223.87,281.52,224.09,286.29Z"/><path class="cls-2" d="M245.82,275.63c3.74.95,8,0,12.15-.5a64.73,64.73,0,0,1,17.76.08c-9.14-2.62-11.87-15.28-21.29-17.23-4.28-.89-11.82,1.15-14.91,6.12C236,269.83,241.58,274.56,245.82,275.63Z"/><path class="cls-2" d="M251.28,319.21c.14,3.88,1.88,7.07,3.29,10.35a57.58,57.58,0,0,1,4.15,15.63c-.08-9.68,9.38-20.09,8.69-29.58-.31-4.32-3.72-9.64-8.43-9.21C253.57,306.9,251.13,314.82,251.28,319.21Z"/><path class="cls-2" d="M271.42,309.17c3.45.83,7.41-.05,11.22-.59a59.51,59.51,0,0,1,16.37-.1c-8.4-2.33-10.79-14-19.46-15.68-3.94-.77-10.91,1.18-13.81,5.8C262.4,303.91,267.52,308.22,271.42,309.17Z"/><path class="cls-2" d="M274.54,348.26c.14,3.88,1.88,7.07,3.29,10.35A57.24,57.24,0,0,1,282,374.23c-.08-9.67,9.38-20.08,8.69-29.57-.31-4.32-3.72-9.64-8.43-9.21C276.84,336,274.39,343.87,274.54,348.26Z"/><path class="cls-2" d="M294.68,338.22c3.45.83,7.41-.05,11.22-.59a59.51,59.51,0,0,1,16.37-.1c-8.4-2.33-10.79-14-19.46-15.68-3.93-.77-10.9,1.18-13.81,5.8C285.66,333,290.79,337.27,294.68,338.22Z"/><path class="cls-2" d="M298.48,377.59c.11,3.65,1.74,6.64,3,9.71A53.21,53.21,0,0,1,305.35,402c0-9.1,8.92-18.93,8.32-27.85-.27-4.06-3.46-9.05-7.89-8.62C300.7,366,298.36,373.46,298.48,377.59Z"/><path class="cls-2" d="M317.47,368.05c3.23.77,7-.08,10.55-.6a56,56,0,0,1,15.39-.17c-7.89-2.15-10.08-13.09-18.22-14.65-3.7-.71-10.26,1.16-13,5.52C309,363.16,313.81,367.19,317.47,368.05Z"/><path class="cls-2" d="M-3.06,773.7C157.14,575.55,377.15,439,602.67,332,489.73,375.8,380.49,443.05,284.18,508.25c-58.91,39.88-116.26,86.51-171.25,135.53C73.6,678.83,35.16,720.72-8,750.34c9.59,1.42-7.3,15.71-10.45,6.38"/><path class="cls-2" d="M13.57,687.56c1.78-8.53,6.72-15.26,11-22.25a142.24,142.24,0,0,0,14.84-33.76c-3.86,21.32,12.36,45.83,7.27,66.65-2.31,9.46-11.64,20.62-21.53,18.88C13.76,715.08,11.56,697.23,13.57,687.56Z"/><path class="cls-2" d="M52.77,713.06c7.67-1.26,15.8,1.35,23.74,3.16a122.37,122.37,0,0,0,34.93,3c-18.84,3.73-28.39,29-47.56,31.31-8.71,1-22.86-4.42-27.29-15.09C31.48,723.14,44.08,714.49,52.77,713.06Z"/><path class="cls-2" d="M63.93,640.42c1.77-8.53,6.72-15.26,11-22.25a142.87,142.87,0,0,0,14.84-33.76c-3.87,21.32,12.36,45.83,7.27,66.65-2.31,9.46-11.65,20.62-21.53,18.88C64.12,668,61.92,650.09,63.93,640.42Z"/><path class="cls-2" d="M103.12,665.92c7.68-1.26,15.81,1.35,23.74,3.17A122.79,122.79,0,0,0,161.8,672c-18.84,3.73-28.4,29-47.56,31.31-8.71,1-22.86-4.42-27.3-15.09C81.84,676,94.43,667.35,103.12,665.92Z"/><path class="cls-2" d="M112.36,605.26c1.61-6.75,5.74-12.14,9.33-17.74a117.16,117.16,0,0,0,12.68-26.86c-3.55,16.84,9.06,35.71,4.53,52.18-2.07,7.48-9.84,16.47-17.79,15.33C112,626.87,110.54,612.89,112.36,605.26Z"/><path class="cls-2" d="M143.53,624.37c6.23-1.16,12.74.69,19.12,1.94a101,101,0,0,0,28.19,1.5c-15.31,3.37-23.55,23.45-39.09,25.7-7.06,1-18.39-2.94-21.76-11.21C126.12,632.78,136.47,625.7,143.53,624.37Z"/><path class="cls-2" d="M164.22,562.82c1.61-6.74,5.74-12.14,9.33-17.73a117.16,117.16,0,0,0,12.68-26.86c-3.56,16.83,9.06,35.71,4.52,52.18-2.06,7.48-9.83,16.46-17.79,15.33C163.82,584.43,162.4,570.46,164.22,562.82Z"/><path class="cls-2" d="M195.39,581.94c6.23-1.17,12.74.69,19.12,1.93a100.63,100.63,0,0,0,28.19,1.51c-15.31,3.37-23.55,23.44-39.09,25.7-7.06,1-18.39-3-21.76-11.22C178,590.35,188.33,583.26,195.39,581.94Z"/><path class="cls-2" d="M224.46,520.27c1.58-5.7,5.18-9.9,8.35-14.34A92.85,92.85,0,0,0,244.25,484c-3.55,14.29,6.14,32.45,1.79,46.29-2,6.29-8.72,13.16-15.23,11.14C223.33,539.14,222.68,526.72,224.46,520.27Z"/><path class="cls-2" d="M249.42,541c5.18-.22,10.48,2.24,15.68,4.15a81.8,81.8,0,0,0,23.16,4.94c-12.73,1-20.26,17.51-33.15,17.49-5.86,0-15-4.94-17.5-12.62C234.77,546.15,243.56,541.27,249.42,541Z"/><path class="cls-2" d="M270.84,494.67c2.48-5,6.72-8.92,10.56-13a115.1,115.1,0,0,0,14.86-19.73c-5.84,12.41.75,26.5-5.79,38.63-3,5.51-10.74,12.08-16.83,11.16C266.64,510.65,268,500.3,270.84,494.67Z"/><path class="cls-2" d="M292.06,509.13c5.14-.8,10,.64,14.78,1.62a81.8,81.8,0,0,0,22,1.4c-12.71,2.34-22.83,17.1-35.53,18.61-5.77.69-14-2.37-15.2-8.52C276.77,515.17,286.24,510,292.06,509.13Z"/><path class="cls-2" d="M334.19,502.24c4.49,1.35,9,.51,13.38.1a68.47,68.47,0,0,1,19.82,1.14c-11.07-3.68-18.35-19-29.51-21.93-5.07-1.31-12.79.7-14.57,6.49C321.26,494.7,329.1,500.71,334.19,502.24Z"/><path class="cls-2" d="M332.48,474.25c2.61-3.79,3.52-8.87,4.75-13.63A82.36,82.36,0,0,1,345,441c-6.72,9.14-21.15,7.45-27.28,17.14-2.79,4.41-3.93,13.5-.07,18.77C322.12,483,329.52,478.54,332.48,474.25Z"/><path class="cls-2" d="M378,476.27c4.65.79,9-.59,13.41-1.53a70.68,70.68,0,0,1,20-1.3c-11.51-2.27-20.57-16.51-32.07-18-5.23-.67-12.73,2.25-13.84,8.17C364.16,470.42,372.7,475.39,378,476.27Z"/><path class="cls-2" d="M373,448.92c2.18-4.05,2.5-9.17,3.18-14a81,81,0,0,1,5.56-20.25c-5.67,9.81-20.32,9.91-25.34,20.2-2.28,4.68-2.38,13.78,2.09,18.5C363.68,458.78,370.57,453.51,373,448.92Z"/><path class="cls-2" d="M422.26,448.92c4.65.78,9-.59,13.41-1.53a69.86,69.86,0,0,1,20-1.3c-11.5-2.28-20.57-16.51-32.07-18-5.23-.68-12.72,2.24-13.84,8.16C408.45,443.07,417,448,422.26,448.92Z"/><path class="cls-2" d="M417.32,421.56c2.18-4.05,2.51-9.16,3.19-14a81.18,81.18,0,0,1,5.55-20.26c-5.67,9.82-20.32,9.91-25.34,20.21-2.28,4.68-2.38,13.77,2.1,18.49C408,431.43,414.85,426.15,417.32,421.56Z"/><path class="cls-2" d="M457.79,424.29c4,.67,7.69-.5,11.42-1.3a59.82,59.82,0,0,1,17-1.11c-9.8-1.93-17.52-14.05-27.31-15.31-4.45-.58-10.83,1.91-11.78,6.95C446,419.31,453.31,423.54,457.79,424.29Z"/><path class="cls-2" d="M453.59,401c1.86-3.44,2.13-7.8,2.72-11.92A68.72,68.72,0,0,1,461,371.84c-4.83,8.35-17.29,8.44-21.57,17.2-1.94,4-2,11.72,1.78,15.74C445.62,409.4,451.49,404.91,453.59,401Z"/><path class="cls-2" d="M495.47,404.53c3.64.66,7-.39,10.46-1.09a53.94,53.94,0,0,1,15.59-.87c-9-1.89-16.18-13.19-25.17-14.45-4.09-.58-9.92,1.66-10.75,6.33C484.64,399.81,491.35,403.79,495.47,404.53Z"/><path class="cls-2" d="M491.42,382.91c1.67-3.18,1.89-7.21,2.39-11A63.48,63.48,0,0,1,498,356c-4.36,7.7-15.79,7.65-19.64,15.74-1.75,3.67-1.76,10.84,1.77,14.6C484.18,390.62,489.52,386.51,491.42,382.91Z"/><path class="cls-2" d="M528.52,387.81c3.64.65,7.05-.4,10.47-1.1a53.55,53.55,0,0,1,15.59-.86c-9-1.89-16.19-13.2-25.18-14.46-4.09-.57-9.92,1.67-10.75,6.33C517.7,383.08,524.4,387.07,528.52,387.81Z"/><path class="cls-2" d="M524.47,366.18c1.68-3.18,1.89-7.21,2.39-11a63.72,63.72,0,0,1,4.2-15.94c-4.36,7.7-15.8,7.66-19.65,15.74-1.75,3.67-1.76,10.85,1.77,14.61C517.23,373.89,522.58,369.78,524.47,366.18Z"/><path class="cls-2" d="M562,370.48c3.42.63,6.62-.34,9.81-1a50.53,50.53,0,0,1,14.63-.74c-8.45-1.82-15.24-12.51-23.67-13.74-3.84-.56-9.31,1.53-10.07,5.92C551.84,366,558.15,369.76,562,370.48Z"/><path class="cls-2" d="M558.13,350.08c1.56-3,1.75-6.78,2.2-10.38a59.9,59.9,0,0,1,3.87-15c-4.06,7.24-14.79,7.15-18.36,14.75-1.63,3.45-1.61,10.21,1.71,13.77C551.37,357.31,556.37,353.47,558.13,350.08Z"/><path class="cls-2" d="M1395.14-21.39c-194.82,118.37-350.31,293-482.4,475,58.08-92,134.82-178.79,207.35-254.76,44.38-46.48,94-91,145.19-133.34,36.6-30.28,78.67-59.18,111.51-93.21-.68,8.27,14.4-4.8,7.3-8.31"/><path class="cls-2" d="M1320.71-15c-7.4.75-13.92,4.35-20.53,7.34A132.52,132.52,0,0,1,1269.4,2c18.37-1.38,35.5,14.59,53.7,12.13,8.27-1.12,19.3-8,19.78-16.6C1343.42-12.34,1329.09-15.8,1320.71-15Z"/><path class="cls-2" d="M1334.21,20.61c-2.53,6.41-2,13.54-2,20.44A109.29,109.29,0,0,1,1327.91,71c6.73-15.67,29.48-21.53,35.09-37.6,2.55-7.31.77-19.81-7.19-24.53C1346.66,3.43,1337.07,13.35,1334.21,20.61Z"/><path class="cls-2" d="M1272,23.6c-7.4.75-13.92,4.34-20.53,7.34a132.52,132.52,0,0,1-30.78,9.59c18.38-1.38,35.5,14.59,53.7,12.13,8.27-1.12,19.3-8,19.78-16.61C1294.71,26.22,1280.37,22.76,1272,23.6Z"/><path class="cls-2" d="M1285.49,59.17c-2.53,6.4-1.94,13.54-2,20.44a109.34,109.34,0,0,1-4.32,29.94c6.73-15.67,29.48-21.53,35.1-37.6,2.55-7.31.76-19.81-7.2-24.53C1297.94,42,1288.35,51.91,1285.49,59.17Z"/><path class="cls-2" d="M1233.54,61.59c-5.88.77-11.15,3.8-16.46,6.34a109.87,109.87,0,0,1-24.66,8.38c14.6-1.52,27.77,10.88,42.26,8.5,6.59-1.08,15.52-6.88,16.12-13.74C1251.49,63.18,1240.21,60.73,1233.54,61.59Z"/><path class="cls-2" d="M1243.32,89.77c-2.17,5.19-1.9,10.89-2.1,16.42a90.66,90.66,0,0,1-4.21,24.07c5.75-12.7,23.94-17.9,28.81-30.9,2.21-5.91,1.12-15.88-5.06-19.48C1253.64,75.74,1245.78,83.9,1243.32,89.77Z"/><path class="cls-2" d="M1188.43,101.85c-5.89.76-11.15,3.79-16.47,6.34a109.84,109.84,0,0,1-24.66,8.37c14.61-1.52,27.77,10.89,42.26,8.5,6.59-1.08,15.52-6.88,16.12-13.74C1206.37,103.44,1195.09,101,1188.43,101.85Z"/><path class="cls-2" d="M1198.2,130c-2.17,5.18-1.89,10.88-2.1,16.41a90.52,90.52,0,0,1-4.21,24.07c5.75-12.7,23.94-17.9,28.81-30.9,2.22-5.91,1.13-15.88-5.06-19.48C1208.52,116,1200.66,124.15,1198.2,130Z"/><path class="cls-2" d="M1141.59,149.21c-5,.83-9.19,3.52-13.47,5.81a88.28,88.28,0,0,1-20.32,7.77c12.5-1.75,25.64,8.1,37.92,5.64,5.59-1.11,12.57-6.22,12.16-11.93C1157.41,149.93,1147.27,148.27,1141.59,149.21Z"/><path class="cls-2" d="M1153.91,172.27c-1.18,4.37-.17,9.09.4,13.68a69.77,69.77,0,0,1-.39,20.11c3.27-10.72,18.4-15.64,20.87-26.59,1.13-5-1.18-13.21-7-16C1161,160.28,1155.26,167.31,1153.91,172.27Z"/><path class="cls-2" d="M1111.45,186.31c-4.59,1.67-8.68,4.92-12.81,7.82A113.19,113.19,0,0,1,1079.45,205c11.39-3.85,21.77,3,33.06-1.47,5.14-2,12.07-8,12.48-13.3C1125.47,184.17,1116.65,184.43,1111.45,186.31Z"/><path class="cls-2" d="M1119.3,205.63c-1.66,4.29-1.4,8.51-1.52,12.7a73.57,73.57,0,0,1-3.1,18.83c4.39-10.59,18.55-17.87,22.26-28.52,1.68-4.84.75-12.12-4.1-13.67C1127.25,193.19,1121.17,200.77,1119.3,205.63Z"/><path class="cls-2" d="M1105.45,240.8c.25,3.93-1.31,7.65-2.5,11.37a61.91,61.91,0,0,0-2.9,16.94c-.9-9.73-12.19-17.29-12.42-27-.1-4.42,3-10.8,8.19-11.79C1101.72,229.14,1105.17,236.34,1105.45,240.8Z"/><path class="cls-2" d="M1082.64,236.84c-3.64,1.88-8,2.2-12.19,2.82a75.32,75.32,0,0,0-17.72,4.87c8.85-4.88,10.25-17.29,19.45-21.63,4.18-2,11.92-2.13,15.53,1.62C1091.86,228.83,1086.76,234.71,1082.64,236.84Z"/><path class="cls-2" d="M1075.51,275.66c-.25,4-2.24,7.62-3.86,11.26a65.85,65.85,0,0,0-4.94,16.85c.35-10-9.67-18.95-8.67-28.85.46-4.5,4.32-10.61,9.43-11C1073.35,263.41,1075.8,271.11,1075.51,275.66Z"/><path class="cls-2" d="M1053.85,269c-3.77,1.49-8.06,1.31-12.2,1.46a71.14,71.14,0,0,0-17.82,2.9c9.21-3.94,12.13-16.37,21.61-19.71,4.31-1.52,11.85-.79,14.88,3.43C1063.82,262,1058.12,267.34,1053.85,269Z"/><path class="cls-2" d="M1044.33,310.83c-.25,4-2.24,7.62-3.86,11.25a65.69,65.69,0,0,0-4.94,16.85c.34-10-9.67-18.94-8.67-28.84.45-4.5,4.32-10.61,9.43-11C1042.16,298.58,1044.62,306.28,1044.33,310.83Z"/><path class="cls-2" d="M1022.67,304.2c-3.78,1.49-8.07,1.31-12.2,1.45a71.53,71.53,0,0,0-17.82,2.91c9.21-3.94,12.12-16.37,21.61-19.72,4.31-1.52,11.84-.79,14.88,3.43C1032.63,297.13,1026.94,302.51,1022.67,304.2Z"/><path class="cls-2" d="M1017.09,338.81c-.21,3.43-1.9,6.49-3.28,9.58a56.13,56.13,0,0,0-4.21,14.35c.29-8.49-8.23-16.13-7.38-24.56.39-3.83,3.68-9,8-9.39C1015.25,328.38,1017.34,334.94,1017.09,338.81Z"/><path class="cls-2" d="M998.65,333.16c-3.21,1.27-6.86,1.12-10.38,1.25a61,61,0,0,0-15.18,2.47c7.85-3.35,10.33-13.94,18.4-16.78,3.67-1.3,10.09-.68,12.67,2.92C1007.14,327.15,1002.29,331.73,998.65,333.16Z"/><path class="cls-2" d="M993.47,369.05c-.17,3.15-1.69,5.95-2.94,8.79A50.74,50.74,0,0,0,986.8,391c.18-7.81-7.77-14.92-7.08-22.67.32-3.52,3.3-8.28,7.32-8.57C991.65,359.43,993.65,365.48,993.47,369.05Z"/><path class="cls-2" d="M976.37,363.68c-3,1.14-6.33,1-9.58,1a56.37,56.37,0,0,0-14,2.14c7.2-3,9.38-12.73,16.81-15.28,3.37-1.15,9.31-.52,11.73,2.81C984.14,358.22,979.72,362.39,976.37,363.68Z"/><path class="cls-2" d="M973.24,395.63c-.16,3.15-1.69,5.95-2.93,8.78a50.53,50.53,0,0,0-3.73,13.17c.18-7.82-7.78-14.92-7.08-22.67.31-3.53,3.3-8.28,7.31-8.57C971.43,386,973.43,392.06,973.24,395.63Z"/><path class="cls-2" d="M956.15,390.26c-3,1.13-6.33,1-9.58,1a56.37,56.37,0,0,0-14,2.14c7.21-3,9.39-12.73,16.81-15.28,3.38-1.16,9.31-.52,11.74,2.81C963.92,384.8,959.49,389,956.15,390.26Z"/><path class="cls-2" d="M952.44,422.52c-.14,3-1.57,5.59-2.72,8.25a47.12,47.12,0,0,0-3.45,12.35c.14-7.34-7.39-14.05-6.77-21.33.28-3.31,3.06-7.76,6.84-8C950.68,413.48,952.59,419.17,952.44,422.52Z"/><path class="cls-2" d="M936.32,417.41c-2.77,1-6,.87-9,.94a52.07,52.07,0,0,0-13.16,1.95c6.77-2.81,8.77-11.93,15.75-14.29,3.17-1.07,8.75-.45,11.05,2.69C943.61,412.31,939.46,416.21,936.32,417.41Z"/><path class="cls-2" d="M1509.19,741.3c-102-203.89-263.24-373.21-433.75-519.81,86.92,65.44,167.1,149.05,236.85,227.59,42.67,48,83,101.19,121,155.66,27.17,39,52.52,83.26,83.73,118.79-8.19-1.36,3.6,14.74,7.68,8"/><path class="cls-2" d="M1374.47,532.58c-5-2.59-10.69-2.78-16.18-3.44a90.69,90.69,0,0,1-23.65-6.18c12.19,6.77,15.88,25.33,28.43,31.26,5.71,2.69,15.74,2.42,19.83-3.45C1387.62,544,1380.13,535.51,1374.47,532.58Z"/><path class="cls-2" d="M1360,474.58c-.42-5.07-2.75-9.45-4.68-13.9a87.81,87.81,0,0,1-6.07-20.89c.71,12.6-10.19,24.89-8.75,37.33.65,5.66,5.17,13,10.89,13.1C1358,490.29,1360.47,480.32,1360,474.58Z"/><path class="cls-2" d="M1336,485c-4.27-1.54-9-.92-13.68-.73a69.47,69.47,0,0,1-20-2c10.42,4.14,14.09,19.62,24.79,23,4.87,1.53,13.26-.09,16.52-5.72C1347.38,493,1340.85,486.72,1336,485Z"/><path class="cls-2" d="M1325.51,441.5c-1.29-4.72-4.19-9.06-6.74-13.41a113.78,113.78,0,0,1-9.24-20c2.9,11.67-4.78,21.44-1.25,33.07,1.61,5.29,7,12.69,12.23,13.53C1326.49,455.65,1327,446.83,1325.51,441.5Z"/><path class="cls-2" d="M1305.61,447.73c-4.14-2-8.37-2.09-12.53-2.56a73.55,73.55,0,0,1-18.51-4.63c10.19,5.24,16.28,20,26.59,24.52,4.69,2.08,12,1.75,14-3C1317.36,456.68,1310.3,450,1305.61,447.73Z"/><path class="cls-2" d="M1271.7,431c-3.94-.07-7.52-1.94-11.13-3.43a61.86,61.86,0,0,0-16.64-4.28c9.77-.1,18.24-10.72,28-10.15,4.42.26,10.52,3.92,11.09,9.12C1283.62,428.28,1276.17,431.13,1271.7,431Z"/><path class="cls-2" d="M1277.52,408.63c-1.58-3.78-1.53-8.17-1.81-12.38a75.38,75.38,0,0,0-3.4-18.06c4.14,9.23,16.4,11.64,20,21.16,1.62,4.33,1.14,12.06-2.9,15.35C1284.75,418.48,1279.3,412.92,1277.52,408.63Z"/><path class="cls-2" d="M1239.42,398.34c-4-.59-7.41-2.86-10.9-4.78a65.66,65.66,0,0,0-16.39-6.3c9.91,1.16,19.68-8.08,29.46-6.27,4.45.82,10.22,5.17,10.21,10.3C1251.8,397.19,1243.93,399,1239.42,398.34Z"/><path class="cls-2" d="M1247.81,377.29c-1.18-3.88-.64-8.14-.45-12.27a71.24,71.24,0,0,0-1.44-18c3.18,9.5,15.32,13.43,17.88,23.15,1.16,4.42-.19,11.88-4.64,14.56C1254,387.81,1249.14,381.69,1247.81,377.29Z"/><path class="cls-2" d="M1206.93,364.37c-4-.58-7.41-2.86-10.9-4.77a65.68,65.68,0,0,0-16.39-6.31c9.92,1.16,19.68-8.08,29.46-6.27,4.45.82,10.22,5.17,10.22,10.3C1219.32,363.22,1211.44,365,1206.93,364.37Z"/><path class="cls-2" d="M1215.32,343.32c-1.17-3.88-.64-8.14-.45-12.27a71.7,71.7,0,0,0-1.43-18c3.17,9.5,15.32,13.43,17.87,23.15,1.16,4.43-.18,11.88-4.64,14.56C1221.55,353.84,1216.65,347.72,1215.32,343.32Z"/><path class="cls-2" d="M1181.28,334.92c-3.39-.49-6.31-2.43-9.28-4.06a56.6,56.6,0,0,0-14-5.37c8.44,1,16.75-6.88,25.08-5.34,3.79.7,8.7,4.41,8.7,8.78C1191.82,334,1185.12,335.49,1181.28,334.92Z"/><path class="cls-2" d="M1188.42,317c-1-3.31-.54-6.93-.38-10.45a60.91,60.91,0,0,0-1.22-15.33c2.7,8.1,13,11.44,15.22,19.72,1,3.76-.16,10.1-4,12.39C1193.72,326,1189.56,320.75,1188.42,317Z"/><path class="cls-2" d="M1153.09,308.89c-3.13-.42-5.8-2.17-8.52-3.64a50.56,50.56,0,0,0-12.81-4.8c7.77.82,15.51-6.53,23.18-5.2,3.48.61,8,4,7.93,8C1162.82,307.88,1156.63,309.37,1153.09,308.89Z"/><path class="cls-2" d="M1159.85,292.3c-.9-3-.44-6.39-.26-9.63a55.89,55.89,0,0,0-1-14.12c2.41,7.43,11.92,10.4,13.84,18,.88,3.46-.24,9.32-3.76,11.47C1164.65,300.49,1160.85,295.74,1159.85,292.3Z"/><path class="cls-2" d="M1128.26,286.55c-3.12-.42-5.79-2.17-8.52-3.64a50.56,50.56,0,0,0-12.81-4.8c7.77.82,15.51-6.53,23.18-5.2,3.48.61,8,4,7.93,8C1138,285.54,1131.8,287,1128.26,286.55Z"/><path class="cls-2" d="M1135,270c-.89-3-.44-6.39-.26-9.63a55.89,55.89,0,0,0-1-14.12c2.42,7.43,11.92,10.4,13.85,18,.87,3.46-.24,9.32-3.76,11.47C1139.82,278.15,1136,273.4,1135,270Z"/><path class="cls-2" d="M1103.17,263.61c-2.94-.38-5.44-2-8-3.39a47.23,47.23,0,0,0-12-4.45c7.31.74,14.62-6.21,21.82-5,3.27.55,7.49,3.69,7.43,7.48C1112.32,262.6,1106.49,264,1103.17,263.61Z"/><path class="cls-2" d="M1109.59,248c-.82-2.85-.38-6-.2-9.05a52,52,0,0,0-.86-13.27c2.24,7,11.16,9.72,12.94,16.86.81,3.25-.27,8.77-3.58,10.8C1114.07,255.65,1110.53,251.2,1109.59,248Z"/><path class="cls-2" d="M1415.84-78.56C1268.82,65.63,1166.31,253,1085.42,442.5c33.35-94.13,83.84-187.13,132.68-269.58,29.88-50.44,64.69-100.15,101.22-148.15,26.13-34.33,57.26-68.49,79.44-105.49.94,7.6,11.6-7.09,4.8-8.89"/><path class="cls-2" d="M1317.39-14.32c-6.28,2.1-11.26,6.6-16.44,10.57A116.49,116.49,0,0,1,1276,10.81c15.67-4.77,33.47,6.33,48.79.61,7-2.6,15.25-11,14.08-18.77C1337.57-16.32,1324.5-16.69,1317.39-14.32Z"/><path class="cls-2" d="M1335.67,15.16c-1,6.26.81,12.58,2.06,18.81a104.83,104.83,0,0,1,1.79,27.83c2.94-15.42,21.58-25.08,23.47-40.65.87-7.08-3-18-10.77-20.74C1343.29-2.72,1336.81,8.07,1335.67,15.16Z"/><path class="cls-2" d="M1291.08,27.33c-5,1.83-9,5.57-13.1,8.89a96.68,96.68,0,0,1-19.84,12.29c12.39-4.18,26.09,4.47,38.22-.46,5.51-2.25,12.18-9.19,11.43-15.49C1306.93,25.32,1296.7,25.27,1291.08,27.33Z"/><path class="cls-2" d="M1304.76,50.86c-.92,5.1.37,10.18,1.22,15.21a86.89,86.89,0,0,1,.8,22.51c2.63-12.55,17.44-20.74,19.26-33.4.83-5.75-2-14.53-8-16.59C1311.12,36.22,1305.81,45.09,1304.76,50.86Z"/><path class="cls-2" d="M1259.41,72.31c-5,1.82-9,5.56-13.11,8.88a96.35,96.35,0,0,1-19.83,12.29c12.38-4.18,26.09,4.48,38.21-.46,5.51-2.24,12.18-9.19,11.44-15.49C1275.26,70.29,1265,70.24,1259.41,72.31Z"/><path class="cls-2" d="M1273.09,95.84c-.92,5.09.37,10.18,1.21,15.2a86.89,86.89,0,0,1,.8,22.51c2.64-12.55,17.45-20.74,19.27-33.4.83-5.75-2-14.53-8-16.59C1279.44,81.19,1274.14,90.07,1273.09,95.84Z"/><path class="cls-2" d="M1227.55,124c-4.19,1.71-7.31,4.94-10.6,7.83a77.53,77.53,0,0,1-16.18,10.9c10.52-4,23.73,2.39,33.92-2.19,4.64-2.08,9.75-8,8.34-13.1C1241.41,121.63,1232.31,122.08,1227.55,124Z"/><path class="cls-2" d="M1242.5,142.44c-.22,4.17,1.54,8.23,2.88,12.26a66.73,66.73,0,0,1,3.37,18.21c.86-10.3,13.06-17.65,13.18-28,.06-4.7-3.46-11.69-9.06-13.07C1246.42,130.27,1242.75,137.71,1242.5,142.44Z"/><path class="cls-2" d="M1208.29,163.27c-3.68,2.38-6.62,6.1-9.67,9.5A101,101,0,0,1,1184,186.25c9.17-5.66,19.43-1.47,28.4-7.68,4.07-2.82,9-9.57,8.36-14.39C1220.05,158.64,1212.44,160.57,1208.29,163.27Z"/><path class="cls-2" d="M1218.66,179.18c-.64,4.18.36,7.94,1,11.74a70.37,70.37,0,0,1,.79,17.57c1.85-10.39,12.79-19.68,14-30,.56-4.69-1.58-11.07-6.08-11.54C1223.25,166.43,1219.39,174.43,1218.66,179.18Z"/><path class="cls-2" d="M1213.16,213.55c.94,3.5.27,7.16-.07,10.74a59.1,59.1,0,0,0,.62,15.82c-2.58-8.6-13.76-13.24-15.76-22-.91-4,.64-10.32,4.91-12.21C1207.76,203.76,1212.09,209.58,1213.16,213.55Z"/><path class="cls-2" d="M1192.65,214.37c-2.81,2.39-6.54,3.52-10.05,4.88a66.09,66.09,0,0,0-14.46,7.8c6.77-6.11,5.69-17.56,12.86-23.25,3.26-2.58,9.94-4.21,13.77-1.52C1199.16,205.37,1195.83,211.65,1192.65,214.37Z"/><path class="cls-2" d="M1193.65,250.74c.52,3.68-.54,7.3-1.27,10.89a63.26,63.26,0,0,0-1.17,16.15c-1.54-9.07-11.88-15.23-12.85-24.35-.43-4.14,1.79-10.39,6.14-11.75C1189.5,240.11,1193.05,246.58,1193.65,250.74Z"/><path class="cls-2" d="M1173.64,248.92c-3,2.07-6.75,2.73-10.3,3.66a62.37,62.37,0,0,0-14.92,6c7.26-5.32,7.49-17.09,15.09-21.93,3.46-2.2,10.13-3,13.54.23C1181,240.63,1177,246.58,1173.64,248.92Z"/><path class="cls-2" d="M1173.11,288.45c.53,3.67-.53,7.3-1.27,10.89a63.15,63.15,0,0,0-1.16,16.14c-1.55-9.06-11.89-15.22-12.85-24.34-.44-4.15,1.78-10.4,6.13-11.76C1169,277.82,1172.52,284.29,1173.11,288.45Z"/><path class="cls-2" d="M1153.1,286.63c-3,2.07-6.74,2.73-10.3,3.66a61.89,61.89,0,0,0-14.91,6c7.25-5.33,7.48-17.1,15.09-21.93,3.45-2.2,10.12-3,13.53.23C1160.44,278.34,1156.5,284.29,1153.1,286.63Z"/><path class="cls-2" d="M1154.67,318.92c.45,3.13-.45,6.21-1.08,9.27a53.54,53.54,0,0,0-1,13.74c-1.32-7.71-10.12-13-10.94-20.72-.37-3.53,1.52-8.85,5.23-10C1151.15,309.87,1154.17,315.37,1154.67,318.92Z"/><path class="cls-2" d="M1137.64,317.37c-2.55,1.76-5.74,2.32-8.77,3.12a52.78,52.78,0,0,0-12.7,5.14c6.18-4.53,6.38-14.55,12.85-18.67,2.94-1.87,8.62-2.54,11.52.2C1143.88,310.31,1140.53,315.37,1137.64,317.37Z"/><path class="cls-2" d="M1139.78,350.72c.44,2.87-.37,5.69-.92,8.49a48.61,48.61,0,0,0-.8,12.59c-1.29-7.08-9.5-12-10.33-19.08-.38-3.24,1.33-8.1,4.76-9.13C1136.43,342.4,1139.28,347.47,1139.78,350.72Z"/><path class="cls-2" d="M1124,349.17c-2.35,1.59-5.31,2.08-8.11,2.78a48.64,48.64,0,0,0-11.74,4.62c5.69-4.11,5.79-13.29,11.75-17,2.72-1.69,8-2.26,10.7.27C1129.69,342.75,1126.63,347.36,1124,349.17Z"/><path class="cls-2" d="M1127.16,378.58c.44,2.87-.37,5.69-.92,8.48a48.61,48.61,0,0,0-.8,12.59c-1.29-7.08-9.5-12-10.33-19.08-.38-3.24,1.33-8.1,4.76-9.13C1123.81,370.25,1126.66,375.33,1127.16,378.58Z"/><path class="cls-2" d="M1111.34,377c-2.34,1.59-5.3,2.08-8.1,2.78a48.48,48.48,0,0,0-11.74,4.62c5.69-4.1,5.79-13.28,11.75-17,2.72-1.69,8-2.26,10.7.28C1117.07,370.6,1114,375.22,1111.34,377Z"/><path class="cls-2" d="M1114.09,406.83c.43,2.69-.32,5.34-.83,8a44.73,44.73,0,0,0-.7,11.8c-1.25-6.65-9-11.25-9.82-17.94-.37-3,1.22-7.58,4.45-8.54C1110.9,399,1113.61,403.78,1114.09,406.83Z"/><path class="cls-2" d="M1099.18,405.31c-2.21,1.49-5,1.94-7.64,2.58a45.35,45.35,0,0,0-11,4.29c5.35-3.83,5.4-12.44,11-15.91,2.55-1.57,7.51-2.09,10.08.3C1104.55,399.32,1101.68,403.63,1099.18,405.31Z"/><path class="cls-2" d="M1435.13,128.56a20.56,20.56,0,0,1-6.36,8.76,37.08,37.08,0,0,1-9.29,5.58,62.62,62.62,0,0,1-21.09,4.6,63.8,63.8,0,0,1-10.87-.39,75.26,75.26,0,0,1-10.66-2.22,86,86,0,0,1-19.94-8.6,102.44,102.44,0,0,1-9.07-5.94c-2.92-2.12-5.75-4.35-8.49-6.66-5.5-4.64-10.66-9.51-15.92-14.17a164.12,164.12,0,0,0-16.26-13,93.77,93.77,0,0,0-8.78-5.29c-.76-.39-1.51-.8-2.27-1.17L1293.81,89c-1.52-.75-3.13-1.33-4.71-2a112.81,112.81,0,0,0-60.59-4.56L1226,83c-.83.18-1.64.42-2.47.63l-2.46.64-2.46.75c-3.28,1-6.56,2.17-9.88,3.36s-6.68,2.4-10.11,3.55-7,2.15-10.6,3a70.09,70.09,0,0,1-11.21,1.62,50.38,50.38,0,0,1-11.55-.63,48.23,48.23,0,0,1-11.14-3.35,61.94,61.94,0,0,1-10-5.55c-6.21-4.21-11.58-9.1-16.91-13.57s-10.64-8.58-16.46-11.16a34.71,34.71,0,0,0-9-2.69,33.2,33.2,0,0,0-4.68-.4,18.61,18.61,0,0,0-2.36.07l-2.35.13c-6.24.76-12.25,3.21-18.14,6.55s-11.68,7.44-18.12,11.06l-2.43,1.34c-.81.44-1.67.83-2.51,1.25-1.66.86-3.44,1.55-5.19,2.26-.87.38-1.8.64-2.71.94s-1.83.58-2.75.84l-2.83.61a22.81,22.81,0,0,1-2.84.5,53.08,53.08,0,0,1-22.66-1.85l-2.7-.84-2.63-1-1.31-.51L1004.3,80l-2.54-1.16a83.5,83.5,0,0,1-9.59-5.57,112.67,112.67,0,0,1-16.83-14c-10.1-10.09-19.6-20.61-29.35-30.8A299.47,299.47,0,0,0,915.17-.19a158.86,158.86,0,0,0-35.83-21.62c-3.22-1.35-6.52-2.52-9.79-3.76l-10.07-3a171.6,171.6,0,0,0-20.65-3.78,191.45,191.45,0,0,0-21-1.13c-7,.07-14,.48-21,1.16s-14,1.76-20.88,3-13.76,2.93-20.56,4.74-13.52,3.93-20.2,6.16-13.28,4.72-19.86,7.27C702.12-6,689.14-.4,676.12,5.18S650,16.27,636.69,21.27s-26.76,9.63-40.34,13.87-27.32,8-41.13,11.4c-6.92,1.69-13.85,3.31-20.81,4.78s-13.91,2.93-21,4.11a160.19,160.19,0,0,1-21.7,2.31,88.68,88.68,0,0,1-22.24-2,96.65,96.65,0,0,1-20.9-7.62C442,45,435.79,41.52,429.6,38.46c-3.11-1.54-6.13-2.9-9.29-4.1a83.43,83.43,0,0,0-9.55-3.05,57.17,57.17,0,0,0-19.3-1.78,35.65,35.65,0,0,0-9,2A47.17,47.17,0,0,0,373.93,36c-2.83,1.77-5.67,3.78-8.68,5.82a70.84,70.84,0,0,1-9.88,5.76,34.09,34.09,0,0,1-12.06,3.2l-1.61.07-.8,0-.8-.06c-1.07-.08-2.13-.15-3.2-.27A32.83,32.83,0,0,1,330.78,49c-1.92-.67-3.7-1.45-5.36-2.22l-4.84-2.26L311,40,272.51,22q-19.23-9-38.4-18.12L195.74-14.35l5-.38c-12.62,8.38-24.32,18.25-35.71,28.61s-22.49,21.27-34.23,31.69S106.66,65.84,93,74A163,163,0,0,1,49.15,92.31a188.12,188.12,0,0,1-47,5.48,276,276,0,0,1-46.78-4.55c-30.81-5.55-60.56-15-89.91-25.12l.31-1c29.8,8.65,59.78,17,90.35,21.45a273.87,273.87,0,0,0,46,3.08,181.42,181.42,0,0,0,45.17-6.41A159.1,159.1,0,0,0,88.7,66.92c12.9-8,24.69-17.78,36-28.13S147,17.39,158.43,6.69C164.14,1.34,170-3.94,176.06-9s12.4-9.84,19-14.3l2.39-1.61,2.66,1.23,38.51,17.9q19.26,8.93,38.47,18l38.43,18.07,9.61,4.51L329.91,37c1.54.71,3,1.35,4.43,1.86A22.47,22.47,0,0,0,338.48,40l2.1.19.52,0,.52,0,1,0A23.31,23.31,0,0,0,351,38c5.62-2.5,11.13-6.89,17.48-10.8A56.9,56.9,0,0,1,378.86,22,46.62,46.62,0,0,1,390.5,19.4a66.65,66.65,0,0,1,22.76,2.25A103.81,103.81,0,0,1,434,29.74c6.46,3.29,12.58,6.81,18.75,9.85a87.22,87.22,0,0,0,18.82,7.12,79.08,79.08,0,0,0,19.93,1.95A152.66,152.66,0,0,0,512,46.74c6.87-1,13.79-2.4,20.7-3.75s13.79-2.84,20.66-4.37c13.74-3.09,27.38-6.6,40.94-10.42s27-8.06,40.3-12.72S661,5.71,674.17.45,700.46-10.11,713.79-15s26.87-9.32,40.65-12.91q10.35-2.61,20.86-4.54t21.16-3c7.09-.66,14.21-1.05,21.34-1.08s14.27.36,21.37,1.1a174,174,0,0,1,21.11,3.74l10.3,3,5,1.84c1.67.64,3.38,1.17,5,1.88A166.29,166.29,0,0,1,917.71-3.47c11.45,8.58,21.92,18.33,32,28.32S969.63,45,979.85,54.67A105.33,105.33,0,0,0,996,67.32a80.88,80.88,0,0,0,8.9,4.85l2.3,1,1.16.49,1.18.41,2.35.84,2.38.68a45.22,45.22,0,0,0,19.36,1.15c6.38-1,12.39-3.68,18.25-7.07s11.6-7.59,18-11.32a56,56,0,0,1,21.51-7.82l2.94-.18a24.23,24.23,0,0,1,3-.09,43,43,0,0,1,5.88.49,44.31,44.31,0,0,1,11.3,3.33c7.16,3.19,13.16,7.86,18.61,12.52s10.59,9.35,16.09,13.11a44.48,44.48,0,0,0,17.63,7.64,49.31,49.31,0,0,0,19.38-.77,192.44,192.44,0,0,0,19.82-6c3.35-1.15,6.77-2.29,10.26-3.33l2.64-.76,2.68-.66c.89-.21,1.78-.45,2.68-.64l2.71-.53a118,118,0,0,1,21.84-2,113.89,113.89,0,0,1,42.86,8c1.69.72,3.4,1.39,5,2.23l2.48,1.21c.82.42,1.62.88,2.43,1.31a102.08,102.08,0,0,1,9.27,5.87c3,2.12,5.82,4.37,8.57,6.7s5.39,4.77,8,7.21c5.19,4.89,10.19,9.88,15.39,14.53a126.46,126.46,0,0,0,16.51,12.64,81.91,81.91,0,0,0,18.64,8.86,69.92,69.92,0,0,0,10,2.47,63.21,63.21,0,0,0,10.3.8,60.21,60.21,0,0,0,20.38-3.51,35.41,35.41,0,0,0,9.11-4.84,19.29,19.29,0,0,0,6.39-7.9Z"/></g></svg>