<svg id="Layer_1" data-name="Layer 1" xmlns="http://www.w3.org/2000/svg" xmlns:xlink="http://www.w3.org/1999/xlink" viewBox="0 0 720 360"><defs><style>.cls-1{opacity:0.17;}.cls-2{fill:url(#linear-gradient);}.cls-3{fill:url(#linear-gradient-2);}.cls-4{fill:url(#linear-gradient-3);}.cls-5{fill:url(#radial-gradient);}.cls-6{opacity:0.49;}.cls-7{fill:#131a37;}.cls-8{fill:#183049;}.cls-9{fill:#1c3855;}.cls-10{fill:#183851;}.cls-11{fill:#20455c;}.cls-12{opacity:0.25;}.cls-13{fill:#204959;}.cls-14{fill:#20495d;}.cls-15{fill:#1c4155;}.cls-16{fill:#040c28;}.cls-17{fill:none;}.cls-18{fill:url(#radial-gradient-2);}.cls-19{fill:url(#linear-gradient-4);}.cls-20{fill:url(#linear-gradient-5);}.cls-21{fill:url(#linear-gradient-6);}.cls-22{fill:url(#linear-gradient-7);}.cls-23{fill:url(#linear-gradient-8);}.cls-24{fill:url(#linear-gradient-9);}.cls-25{fill:url(#linear-gradient-10);}.cls-26{fill:url(#linear-gradient-11);}.cls-27{fill:url(#linear-gradient-12);}.cls-28{fill:url(#linear-gradient-13);}.cls-29{fill:url(#radial-gradient-3);}.cls-30{fill:url(#radial-gradient-4);}.cls-31{fill:url(#radial-gradient-5);}.cls-32{fill:url(#radial-gradient-6);}.cls-33{opacity:0.31;}.cls-34{fill:url(#linear-gradient-14);}.cls-35{fill:url(#linear-gradient-15);}.cls-36{fill:url(#linear-gradient-16);}.cls-37{fill:url(#linear-gradient-17);}.cls-38{fill:url(#radial-gradient-7);}</style><linearGradient id="linear-gradient" x1="-122.43" y1="285.72" x2="289.84" y2="285.72" gradientUnits="userSpaceOnUse"><stop offset="0" stop-color="#d4cc5d" stop-opacity="0.2"/><stop offset="0.32" stop-color="#a5b36a" stop-opacity="0.16"/><stop offset="0.86" stop-color="#266f8c" stop-opacity="0.04"/><stop offset="0.99" stop-color="#005b97" stop-opacity="0"/></linearGradient><linearGradient id="linear-gradient-2" x1="-81.16" y1="240.03" x2="617.29" y2="240.03" xlink:href="#linear-gradient"/><linearGradient id="linear-gradient-3" x1="-128.06" y1="81.65" x2="821.9" y2="81.65" xlink:href="#linear-gradient"/><radialGradient id="radial-gradient" cx="360" cy="184.17" r="339.45" gradientTransform="translate(-3.01) scale(1.01 1)" gradientUnits="userSpaceOnUse"><stop offset="0" stop-color="#6c8581"/><stop offset="0.06" stop-color="#617d7c"/><stop offset="0.17" stop-color="#456970"/><stop offset="0.28" stop-color="#235261"/><stop offset="0.84" stop-color="#050b2d"/><stop offset="1" stop-color="#04061f"/></radialGradient><radialGradient id="radial-gradient-2" cx="332.88" cy="279.83" fx="262.31978316207244" fy="6.55786883371843" r="282.23" gradientTransform="translate(0 26.26) scale(1 0.87)" gradientUnits="userSpaceOnUse"><stop offset="0" stop-color="#6c8581"/><stop offset="0.06" stop-color="#617d7c"/><stop offset="0.17" stop-color="#456970"/><stop offset="0.28" stop-color="#235261"/><stop offset="0.84" stop-color="#050b2d"/><stop offset="0.99" stop-color="#04061f"/></radialGradient><linearGradient id="linear-gradient-4" x1="415.97" y1="120.17" x2="543.29" y2="369.59" gradientUnits="userSpaceOnUse"><stop offset="0" stop-color="#235261"/><stop offset="0.84" stop-color="#050b2d"/><stop offset="0.99" stop-color="#04061f"/></linearGradient><linearGradient id="linear-gradient-5" x1="655.59" y1="155.38" x2="782.91" y2="404.8" gradientTransform="translate(-41.95 426.49) rotate(-34.5)" gradientUnits="userSpaceOnUse"><stop offset="0" stop-color="#235261"/><stop offset="0.84" stop-color="#050b2d"/><stop offset="1" stop-color="#050718"/></linearGradient><linearGradient id="linear-gradient-6" x1="111.64" y1="203.79" x2="211.09" y2="398.61" gradientTransform="matrix(-0.83, -0.56, -0.56, 0.83, 504.27, 150.49)" gradientUnits="userSpaceOnUse"><stop offset="0" stop-color="#235261"/><stop offset="0.84" stop-color="#050b2d"/></linearGradient><linearGradient id="linear-gradient-7" x1="159.87" y1="-281.27" x2="19.73" y2="-38.82" gradientTransform="matrix(-0.02, 1, -0.82, -0.02, 35.82, -26.9)" xlink:href="#linear-gradient-6"/><linearGradient id="linear-gradient-8" x1="389.67" y1="-280.87" x2="208.44" y2="32.68" gradientTransform="matrix(-0.02, 1, -0.82, -0.02, 35.82, -26.9)" xlink:href="#linear-gradient-6"/><linearGradient id="linear-gradient-9" x1="545.86" y1="-330.18" x2="364.62" y2="-16.63" gradientTransform="matrix(0.81, 0.59, -0.48, 0.66, -268.93, 172.1)" xlink:href="#linear-gradient-6"/><linearGradient id="linear-gradient-10" x1="340.32" y1="-39.91" x2="364.9" y2="64.08" gradientTransform="matrix(-0.75, 0.53, 0.57, 0.82, 860.06, 103.63)" gradientUnits="userSpaceOnUse"><stop offset="0" stop-color="#6c8581"/><stop offset="0.06" stop-color="#617d7c"/><stop offset="0.17" stop-color="#456970"/><stop offset="0.28" stop-color="#235261"/><stop offset="0.84" stop-color="#050b2d"/></linearGradient><linearGradient id="linear-gradient-11" x1="-105.87" y1="118.55" x2="34.58" y2="248.6" gradientTransform="matrix(-0.93, -0.21, -0.18, 0.79, 133.47, 159.49)" xlink:href="#linear-gradient-10"/><linearGradient id="linear-gradient-12" x1="238.85" y1="285.54" x2="280.61" y2="379.02" gradientTransform="translate(278.78 -85.16) rotate(38.43)" gradientUnits="userSpaceOnUse"><stop offset="0.28" stop-color="#235261"/><stop offset="0.43" stop-color="#193b50"/><stop offset="0.7" stop-color="#0b1837"/><stop offset="0.84" stop-color="#050b2d"/></linearGradient><linearGradient id="linear-gradient-13" x1="220.11" y1="244.78" x2="326.97" y2="244.78" gradientTransform="matrix(-0.36, 0.02, 0.02, 0.35, 441.12, 227.18)" xlink:href="#linear-gradient-10"/><radialGradient id="radial-gradient-3" cx="601.96" cy="26.72" r="134.97" gradientTransform="matrix(1, 0, 0, 1, 0, 0)" xlink:href="#linear-gradient-10"/><radialGradient id="radial-gradient-4" cx="209.21" cy="28.42" r="233.92" gradientTransform="matrix(1, 0, 0, 1, 0, 0)" xlink:href="#linear-gradient-10"/><radialGradient id="radial-gradient-5" cx="770.72" cy="13.18" r="107.5" gradientTransform="scale(1 1.84)" xlink:href="#linear-gradient-10"/><radialGradient id="radial-gradient-6" cx="528.06" cy="2.42" r="151.61" gradientTransform="scale(1 1.84)" xlink:href="#linear-gradient-10"/><linearGradient id="linear-gradient-14" x1="-90.54" y1="142.6" x2="229.68" y2="142.6" gradientUnits="userSpaceOnUse"><stop offset="0" stop-color="#d9ffb4" stop-opacity="0.2"/><stop offset="0.28" stop-color="#b1e1af" stop-opacity="0.16"/><stop offset="0.75" stop-color="#458fa0" stop-opacity="0.06"/><stop offset="0.99" stop-color="#005b97" stop-opacity="0"/></linearGradient><linearGradient id="linear-gradient-15" x1="-66.67" y1="94.54" x2="421.92" y2="94.54" xlink:href="#linear-gradient-14"/><linearGradient id="linear-gradient-16" x1="-99.53" y1="-11.64" x2="516.99" y2="-11.64" xlink:href="#linear-gradient-14"/><linearGradient id="linear-gradient-17" x1="197.22" y1="282.34" x2="235.93" y2="358.16" xlink:href="#linear-gradient-4"/><radialGradient id="radial-gradient-7" cx="375.57" cy="273.89" r="137.99" gradientTransform="matrix(0.99, -0.15, 0.12, 0.74, -38.88, 119.53)" gradientUnits="userSpaceOnUse"><stop offset="0" stop-color="#6c8581"/><stop offset="0.06" stop-color="#617d7c"/><stop offset="0.17" stop-color="#456970"/><stop offset="0.28" stop-color="#235261"/><stop offset="0.84" stop-color="#050b2d"/><stop offset="1" stop-color="#05000f"/></radialGradient></defs><g class="cls-1"><path class="cls-2" d="M-157.16-5.66q88.22,116.32,170.32,237.1T170.9,477.09q42.47,70.08,82.86,141.37c5,8.89,14.69,16.13,24.49,18.83s22.86,1.48,31.56-4.13c18.85-12.15,26-36.09,14.7-56q-72-127-150.5-250.15T10.7,85Q-36.88,18.27-86.41-47c-6.72-8.86-13.32-15.76-24.49-18.83-9.8-2.7-22.86-1.48-31.56,4.13s-16.45,14-18.83,24.48c-2.28,10-2.37,23,4.13,31.57Z"/><path class="cls-3" d="M-101.37-4.3Q-.33,66.93,98.24,141.57,126.07,162.65,153.7,184l-8.29-6.41q89.22,69,176.28,140.67,86.67,71.4,171.09,145.49,47.88,42,95,84.87c8,7.28,18,12,29,12,10,0,22-4.46,29-12,7.16-7.81,12.49-18.06,12-29-.48-10.56-3.94-21.64-12-29Q515.84,372.62,380.35,260.93,242.32,147.17,98.86,40.2,20.22-18.5-60-75c-8.26-5.82-22.18-6.72-31.57-4.13s-19.8,10-24.48,18.82c-5,9.51-7.54,21-4.13,31.57s9.69,18,18.83,24.48Z"/><path class="cls-4" d="M-128-35.23A174.8,174.8,0,0,1-104-33.63l-10.89-1.46c31.1,4.47,60.72,15.89,90.23,26.24q45.54,16,90.92,32.38C126.23,45.15,186,67.17,245.82,89.14,365.37,133.06,485,176.78,606,216.58c67.79,22.29,136,43.33,204.76,62.5A42.46,42.46,0,0,0,842.37,275c8.49-5,16.6-14.72,18.82-24.49,4.95-21.7-6.52-44.23-28.61-50.39-63.18-17.61-125.9-36.8-188.27-57.1C582.25,122.77,520.54,101.48,459,79.63,397.19,57.65,335.55,35.1,274,12.47S150.73-32.87,89-55.15q-46.3-16.69-92.74-33C-19-93.5-34.14-99-49.53-103.78a321.79,321.79,0,0,0-55.35-11.9A174.24,174.24,0,0,0-128-117.16a42.3,42.3,0,0,0-29,12c-7.11,7.1-12.46,18.76-12,29,1,22.11,18,41.08,41,41Z"/></g><rect class="cls-5" x="-2" width="722" height="361"/><g class="cls-6"><path class="cls-7" d="M208.34-55.07c-5.64,24.79-7.07,50.61-8.93,75.91-1.83,24.86-3.16,49.76-4.31,74.66-2.31,50.14-3.86,100.32-7.18,150.4-1.86,28.13-4.3,56.22-7.69,84.21-.82,6.72,6.32,12.5,12.5,12.5,7.43,0,11.68-5.76,12.5-12.5,11.93-98.42,11.65-197.7,18.28-296.51,1.83-27.27,2.86-55.31,8.94-82,1.49-6.58-2-13.53-8.73-15.37-6.3-1.73-13.88,2.11-15.38,8.73Z"/></g><g class="cls-6"><path class="cls-8" d="M474.58-72.65,506.2,200.5l8.94,77.2c1,8.8,7.09,17.44,17,17,8.33-.38,18.09-7.54,17-17L517.52,4.55l-8.94-77.2c-1-8.8-7.09-17.44-17-17-8.33.37-18.09,7.54-17,17Z"/></g><g class="cls-6"><path class="cls-9" d="M313.57-71.7q-2.46,78.6-9.19,157-3.3,38.19-7.62,76.29c-3,26.06-6.11,50.82-9.61,75.43q-6.22,43.78-13.82,87.37c-1.52,8.73,2.33,18.74,11.87,20.91,8.26,1.89,19.29-2.5,20.92-11.87A2897.89,2897.89,0,0,0,343.47,16.67q2.73-44.16,4.1-88.37c.27-8.9-8-17.4-17-17-9.45.42-16.71,7.47-17,17Z"/></g><g class="cls-6"><path class="cls-10" d="M270.4-56.15a2692.51,2692.51,0,0,1-13.12,303.46q-4.33,43.2-10.06,86.25c-.5,3.78,3.58,7,7,7,4.2,0,6.51-3.27,7-7A2692.23,2692.23,0,0,0,284.16,30.68q.82-43.41.24-86.83c-.12-9-14.12-9-14,0Z"/></g><g class="cls-6"><path class="cls-10" d="M250-51.55Q248.33,96.7,239.51,244.74,237,286.46,234,328.14c-.66,9,13.34,8.94,14,0Q258.79,180.29,262.49,32q1-41.79,1.5-83.57c.1-9-13.9-9-14,0Z"/></g><g class="cls-6"><path class="cls-11" d="M466.43-58.9q.06,168.23.53,336.44.14,47.77.3,95.56c.05,14.8,23.05,14.82,23,0q-.58-168.23-.76-336.44-.06-47.77-.07-95.56c0-14.8-23-14.82-23,0Z"/></g><g class="cls-12"><path class="cls-13" d="M410-67.46Q399.63,103,381.36,272.79q-5.26,48.36-11.22,96.65c-.76,6.18,5.83,11.5,11.5,11.5,6.85,0,10.74-5.3,11.5-11.5q20.87-169.5,33.4-339.9,3.56-48.48,6.44-97c.38-6.2-5.55-11.5-11.5-11.5-6.54,0-11.12,5.28-11.5,11.5Z"/></g><g class="cls-6"><path class="cls-14" d="M439.52-49.6q10.69,154,8.74,308.53-.57,43.82-2.16,87.61c-.21,5.8,8.79,5.79,9,0q5.58-154.28-1.51-308.65-2-43.77-5.07-87.49c-.4-5.75-9.4-5.79-9,0Z"/></g><g class="cls-12"><path class="cls-13" d="M364.65-50.89q-3.24,184,3.16,368,1.8,51.57,4.37,103.13c.32,6.48,10.45,6.52,10.12,0q-9.12-183.63-8.6-367.56.15-51.76,1.07-103.54c.11-6.52-10-6.52-10.12,0Z"/></g><g class="cls-6"><path class="cls-15" d="M335.35-52.19a2387.19,2387.19,0,0,0-41.78,364q-1.92,51.81-1.59,103.68c0,7.86,12.27,7.88,12.22,0A2371.44,2371.44,0,0,1,329.69,53q7.62-51.16,17.45-102c1.48-7.69-10.29-11-11.79-3.25Z"/></g><g class="cls-6"><path class="cls-16" d="M98.59-72.62Q105.31,124.63,99,322q-1.8,55.78-4.63,111.54c-.57,11.25,10.3,22,21.5,21.5,12.14-.55,20.89-9.45,21.5-21.5q10-197.12,7-394.58-.86-55.81-2.77-111.6c-.39-11.23-9.62-22-21.5-21.5-11.32.51-21.91,9.46-21.5,21.5Z"/></g><g class="cls-6"><path class="cls-16" d="M527.21-67.23c-5.66,60.4-1.1,121,2.15,181.38,1.63,30.25,2.84,60.53,2.41,90.83s-2.23,60.45-4.75,90.6c-2.84,34.1-6.61,68.12-10.37,102.13-1.24,11.22,10.77,22,21.5,21.5,12.71-.57,20.17-9.48,21.5-21.5,6.65-60.14,13.32-120.37,14.88-180.9s-4-121.06-6.24-181.62C567,1,567-33.18,570.21-67.23c1.06-11.23-10.64-22-21.5-21.5-12.55.56-20.37,9.47-21.5,21.5Z"/></g><g class="cls-6"><path class="cls-16" d="M544.45-98.49q1,7.29,2,14.56c.13,1,.26,2,.4,2.92.66,4.81,0-.32-.15-1.09.38,2.59.69,5.19,1,7.78q1.89,14.58,3.58,29.18,3.45,29.7,6.09,59.48,5.17,58.57,7.23,117.38a2202.77,2202.77,0,0,1-4.44,236.06q-2.41,33.24-5.83,66.39-1.67,16.08-3.56,32.15-1,8.26-2,16.54-.5,3.88-1,7.77c-.16,1.3-.33,2.6-.5,3.89-.21,1.58-1,7.72-.11.86-1,7.26-1.25,13.42,2.62,20,3.16,5.39,9.34,10.53,15.54,11.94,6.66,1.52,14.13,1.19,20-2.62,5.25-3.38,11.08-9,12-15.53A2263,2263,0,0,0,617.26,266,2200.19,2200.19,0,0,0,610.53,27c-3.85-46.6-9.28-93-15.94-139.34-.86-6-7-12.64-12-15.54-5.57-3.26-13.79-4.64-20-2.62s-12.36,5.94-15.54,12c-3.49,6.61-3.68,12.71-2.62,20Z"/></g><g class="cls-6"><path class="cls-16" d="M607.51-109.45c-.23,20.88,4.06,41.58,8,62C619.28-28.19,623-8.9,626.41,10.43s6.72,38.68,9.65,58.1q1.1,7.27,2.13,14.56c.32,2.27.63,4.53.95,6.8.21,1.51.57,5.37-.2-1.48.15,1.3.34,2.6.51,3.89q1.9,14.58,3.49,29.21a1073.37,1073.37,0,0,1,6.15,117.55c-.09,39.38-1.79,78.73-2.6,118.1-.91,44.5-.61,89.1,4.36,133.39.84,7.52,2.51,13.9,8.06,19.44,4.76,4.77,12.59,8.36,19.44,8.06,13.52-.61,29.22-12.19,27.5-27.5C697.06,412.2,703,333.38,704,254.8a1108.74,1108.74,0,0,0-4.45-117.69c-3.86-40.85-9.76-81.52-16.69-122-3.75-21.94-7.82-43.82-12-65.67-2-10.44-4.15-20.85-6-31.32-.47-2.7-.58-5.82-1.36-8.45,0,0,.69,5.76.34,2.6-.17-1.57-.37-3.14-.53-4.71a154.06,154.06,0,0,1-.76-17c.16-14.39-12.76-28.16-27.5-27.5-15,.68-27.33,12.08-27.5,27.5Z"/></g><g class="cls-6"><path class="cls-16" d="M14.8-110.9q-1.7,112.56-7.75,225T-9.48,338.61q-5.89,63.19-13.19,126.26c-.79,6.88,3.82,15.82,8.5,20.51,5,5,13.28,8.81,20.5,8.49,7.5-.34,15.28-2.8,20.51-8.49,5.53-6,7.56-12.43,8.49-20.51Q48.25,353,56.81,240.77T69.51,16Q71.85-47.43,72.8-110.9c.23-15.17-13.5-29.69-29-29-15.91.71-28.76,12.74-29,29Z"/></g><path class="cls-17" d="M-11.85,339.92c-12.3-2.94-27.8-2.35-13.34-16.18C-13.76,312.82,3.18,306,16.75,298.06q24.57-14.3,49.07-28.69c6.13-3.59,39.54-28.71,45.06-26.54a911.23,911.23,0,0,0,89.89,30.07l-69.85,2.65a124.54,124.54,0,0,0,34.5,29.2,181.19,181.19,0,0,1-38-4,128,128,0,0,0,21.91,19.75c-34.29,1.62-68.67,1.54-102.95-.24-10.22-.53-20.59-1.2-30.59,1S-4,328.8-9,337.74l8.11.69"/><path class="cls-18" d="M580,258.94l5.68,4.11a182.64,182.64,0,0,0-30.86-20.47c-11.42-6-25.43-11-37.77-6.63-8.62,3.07-14.43,10.1-19.37,17s-9.76,14.23-17.53,18.7-19.56,4.9-25.38-1.44l-18.13,19.44c-4.27-3.59-11.49-.87-15.67,2.81s-8,8.48-13.83,9.24c-9.46,1.22-18.8-9-27.17-4.93-3.91,1.89-5.42,6.19-8.92,8.62-7.52,5.22-18.06-.6-27.32-2.85-10.77-2.62-23.08.44-30.67,7.61-23.94-7-49.12-11.4-74.36-10.65-7.73.22-16,.83-22.67-2.55s-9.86-12.68-3.75-16.81a112.87,112.87,0,0,1-53.73-1.9c-9.39-2.75-18.43-6.84-28.29-7.64-13-1-28.21,3.18-37.69-4.61-2.27-1.88-4-4.35-6.83-5.54-8.19-3.45-19.5,6-26.16.58-2-1.61-2.67-4.05-3.51-6.3-6.15-16.34-26.79-27.48-46.3-25-5.66.73-11.45,2.45-17,1.1-8-2-12.24-9.16-18.11-13.68a55.77,55.77,0,0,0-24.9-10.91c-14.51-2.23-25.52,3.59-33.07,14.21-20.62,29-18.13,71.16-1,100.75,5.41,9.33,12.94,18.43,24,22.47,15.08,5.51,32.37.3,48.62,1.9,25.84,2.56,45.06,21.5,68.52,31.29,21.52,9,46.06,10,69.73,12.62C177.5,395.09,227,408.56,277.9,414.06c69.56,7.52,140.08,0,210.08,3.09,51.57,2.26,103.57,10.24,154.46,2.64,43.8-6.54,84.32-24.31,127.35-34A350,350,0,0,1,817,378.57,353.89,353.89,0,0,1,787.86,246c-.17-8.27-.15-16.91-4.52-24.25s-14.81-12.68-23.48-9.33c-5,1.92-8.22,6.15-12.83,8.64-11.9,6.44-26.94-.48-40.81-2.25-24.26-3.09-46.85,10.34-66.17,23.51-17.2,11.74-35.49,24.32-57.23,26"/><path class="cls-19" d="M472,439.17a44.09,44.09,0,0,0-7.68,16.27c-3.32-57.92,9.48-115.41,22.2-172C493.89,250.78,501.29,218,514,187c9.46-23,22-45.74,22.76-70.63,3.66,33.68,5.92,70.34-12.51,98.77l5.08-4.5a243.83,243.83,0,0,0-38.64,62.27c19-22.35,39.41-45.65,67.16-55.25-19.76,17.13-24.55,45.93-40.64,66.55-10.82,13.87-26.21,23.35-38.79,35.65a218,218,0,0,0,66.78-36.55c.53,18.41-15.22,33.06-31.05,42.45s-33.9,17-44.12,32.34a446.68,446.68,0,0,1,60.8-23.62c4.62-1.41,11.87-.88,11.62,3.94-.11,2-1.76,3.59-3.33,4.86-10.64,8.59-23.4,14.09-34.87,21.53a121.4,121.4,0,0,0-48.88,63.52L421.1,365c-4.47-8.26-9-16.69-10.77-25.91-3-15.84,2.38-31.95,7.72-47.17a65.26,65.26,0,0,0,17.19,37.17c6.05,6.43,13.39,11.59,19.16,18.28s9.94,15.68,7.86,24.26a216.23,216.23,0,0,0-17.81-52.53c-6.33-12.92-14.08-25.6-16-39.86-2.62-19.34,5.84-38.27,14.09-56a109.22,109.22,0,0,0,7.82,56.5c4.48,10.51,10.61,20.31,14.3,31.12s4.69,23.3-1,33.22c11.33-17.87,10-41,4.68-61.51s-14.24-40.09-17-61.06a108,108,0,0,1,13.5-67.93c-9.35,42.88,10.07,86,21.15,128.45,1.75,6.69,2.26,15.73-4,18.57,2.17-26.54,4.3-53.69-2.43-79.46-2.66-10.19-6.7-20.11-7.7-30.6-2.62-27.55,15.74-52.27,23-79,4,37.92,8.06,76.65-.32,113.85-2.23,9.9-5.32,19.59-8.41,29.26"/><path class="cls-20" d="M813.24,414.37a44.28,44.28,0,0,0,2.88,17.76C780.58,386.28,758.57,331.65,737,277.8c-12.44-31.06-24.94-62.3-32-95-5.24-24.34-7.74-50.19-21.24-71.11,22.09,25.69,44.71,54.62,45.63,88.49l1.64-6.59a243.74,243.74,0,0,0,3.42,73.21c3-29.2,6.63-60,24.06-83.57-6.59,25.3,5.78,51.76,4.2,77.86-1.06,17.56-8.38,34.09-11.78,51.35a218,218,0,0,0,34.34-67.94c10.86,14.87,6.18,35.86-1.55,52.57s-18.29,33.23-18,51.64a445.2,445.2,0,0,1,36.73-53.9c3-3.79,9.28-7.46,11.8-3.33,1.06,1.73.59,3.95,0,5.89-3.9,13.1-11.3,24.86-16.54,37.48a121.36,121.36,0,0,0-4.31,80l-64.13-32.79c-8.36-4.28-16.87-8.65-23.55-15.25-11.47-11.34-16.13-27.68-20.36-43.24a65.31,65.31,0,0,0,35.22,20.89c8.63,1.87,17.6,2,26.15,4.22s17.07,7.28,20.22,15.54A216.36,216.36,0,0,0,722.49,331c-12.54-7.06-26.1-13.12-35.77-23.78-13.11-14.45-16.86-34.84-20.08-54.09a109.5,109.5,0,0,0,38.45,42.14c9.64,6.12,20.24,10.73,29.41,17.54s17.06,16.55,18,27.93c-.78-21.14-15-39.48-31-53.34s-34.45-25-48.64-40.67a108.07,108.07,0,0,1-27.34-63.63c16.58,40.63,57,65.16,90.18,93.88,5.24,4.53,10.78,11.68,7.19,17.6-13.25-23.11-26.87-46.68-47-64.11-8-6.89-16.92-12.78-23.68-20.86-17.76-21.22-16.63-52-25.77-78.11,24.82,29,50.06,58.6,64.22,94,3.77,9.43,6.72,19.17,9.65,28.89"/><path class="cls-21" d="M119.61,434.18a37.6,37.6,0,0,1-3,13.21c27-35.92,45.22-77.4,63.09-118.28,10.31-23.58,20.67-47.3,27.37-71.74,5-18.19,8.18-37.3,18.64-53.51-16.62,20.26-33.79,42.95-36.35,67.84l-.75-4.73a198.36,198.36,0,0,1-6.54,53.9c-.4-21.22-1.11-43.53-11.7-59.71,3.06,18.12-6.93,38.32-7.34,57.35-.28,12.81,3.79,24.45,5.13,36.89a135.37,135.37,0,0,1-19.65-47.58c-8.29,11.6-6.29,26.69-1.95,38.44S157.2,369.43,156,383a260.05,260.05,0,0,0-22.1-37.14C132,343.23,128,341,126,344.14a5.82,5.82,0,0,0-.34,4.31c1.92,9.36,6.32,17.5,9.19,26.42,5.72,17.76,5.13,38.74-1.63,58.4L179,405.07c6-3.68,12.06-7.44,17-12.71,8.51-9.06,12.64-21.34,16.43-33a55.53,55.53,0,0,1-25.34,17.6c-6,1.94-12.18,2.59-18.16,4.79s-12.13,6.45-14.76,12.71a192.23,192.23,0,0,1,32.36-27.23c9-6,18.65-11.31,25.89-19.75,9.81-11.45,13.55-26.65,16.86-41a100.54,100.54,0,0,1-28.77,33.39c-7,5.12-14.49,9.18-21.17,14.77s-12.65,13.24-13.94,21.65c1.75-15.55,12.53-29.92,24.29-41.12s25-20.54,35.67-33a98.33,98.33,0,0,0,22.39-48.43c-13.7,30.87-42.81,51.48-67.2,74.68-3.85,3.66-8.06,9.27-5.93,13.37,10.4-17.8,21.09-36,35.89-50.05,5.86-5.57,12.33-10.47,17.43-16.83,13.39-16.71,14.38-39.2,22.14-58.94-18.67,22.84-37.67,46.21-49.41,73.09-3.13,7.15-5.7,14.48-8.27,21.8"/><path class="cls-22" d="M-35.59-1.42a33.55,33.55,0,0,0-13.14-8C-1.31-11.7,45.41,2.09,91.41,15.78c26.53,7.9,53.21,15.86,78.24,29.11,18.62,9.87,36.93,22.83,57.25,24-27.61,3.08-57.62,4.7-80.47-14.21L150,59.82A198,198,0,0,0,99.92,20.11C117.79,39.52,136.4,60.3,143.66,88.2c-13.58-20-37-25.34-53.54-41.77C79,35.37,71.59,19.81,61.8,7A236.14,236.14,0,0,0,90.26,74.42c-15.06.21-26.69-15.78-34-31.78S43,8.46,30.72-2a510.2,510.2,0,0,1,18,61.19c1.06,4.65.47,11.89-3.47,11.55-1.65-.15-2.89-1.82-3.9-3.41-6.8-10.79-11-23.64-16.86-35.24C12.88,9-5.4-9-26.38-17.89l52.5-33.18C33-55.39,40-59.78,47.53-61.39c13-2.76,26.06,2.93,38.39,8.53-11.31,1.3-22.27,7.2-30.74,16.54-5.39,5.94-9.76,13.19-15.35,18.84s-13,9.67-20,7.44A155.79,155.79,0,0,0,63.15-26.93C73.84-33,84.37-40.57,96.07-42.25c15.86-2.28,31.16,6.5,45.44,15.05a74.81,74.81,0,0,0-46.36,6.84C86.47-16.06,78.33-10.1,69.42-6.59S50.27-2.31,42.28-8.15C56.65,3.49,75.61,2.57,92.46-2.41s33.07-13.54,50.28-16C161.85-21.1,181.6-15.85,198-3.72c-34.85-10.09-70.5,8.58-105.44,18.93-5.51,1.63-12.91,2-15.1-4.37,21.66,2.63,43.8,5.22,65-1.06C150.83,7.3,159,3.43,167.62,2.62,190.19.47,210,19.25,231.68,27c-31.08,3.4-62.82,6.73-93.05-2.28a249.49,249.49,0,0,1-23.75-8.91"/><path class="cls-23" d="M-128.16,187.5a43.34,43.34,0,0,0-17-10.29c61.32-3,121.75,14.83,181.24,32.54C70.4,220,104.9,230.26,137.27,247.4c24.09,12.75,47.76,29.52,74,31-35.71,4-74.52,6.08-104.07-18.38l4.62,6.67a256,256,0,0,0-64.78-51.36c23.11,25.11,47.19,52,56.57,88.07-17.56-25.94-47.88-32.77-69.24-54-14.36-14.3-24-34.42-36.62-51a305.28,305.28,0,0,0,36.8,87.16c-19.47.28-34.52-20.41-44-41.09s-17.07-44.21-33-57.77a659.75,659.75,0,0,1,23.3,79.14c1.37,6,.61,15.37-4.48,14.93-2.14-.18-3.75-2.34-5.05-4.41-8.79-13.94-14.25-30.56-21.8-45.56-15-29.88-38.68-53.09-65.81-64.62l67.9-42.91C-39.49,117.7-30.46,112-20.66,110c16.83-3.57,33.71,3.78,49.65,11-14.63,1.69-28.81,9.32-39.76,21.4-7,7.68-12.62,17.06-19.85,24.36s-16.84,12.51-25.86,9.62a201.73,201.73,0,0,0,56-21.84c13.83-7.9,27.44-17.64,42.57-19.82,20.52-2.95,40.3,8.41,58.77,19.47A96.63,96.63,0,0,0,40.93,163c-11.23,5.55-21.76,13.26-33.29,17.8s-24.76,5.54-35.08-2c18.57,15.06,43.09,13.87,64.88,7.44s42.78-17.52,65-20.68c24.71-3.5,50.26,3.28,71.43,19C128.84,171.48,82.73,195.63,37.54,209c-7.13,2.11-16.69,2.57-19.53-5.65,28,3.4,56.65,6.75,84.07-1.37,10.85-3.22,21.45-8.22,32.56-9.27,29.2-2.77,54.83,21.52,82.86,31.51-40.19,4.39-81.25,8.71-120.35-2.95-10.41-3.11-20.56-7.32-30.71-11.53"/><path class="cls-24" d="M-35.47,487.62a43.47,43.47,0,0,0-18.12,8.13C-21.22,443.59,27.79,404,76.16,365.11c27.91-22.43,56-45,88.48-61.87,24.18-12.57,51.43-22.52,67.59-43.31-17,31.64-37.34,64.78-74.26,75.19h8.12A256,256,0,0,0,87,359.23c33.79-4.75,69.59-9.29,104.61,3.5-31.32-.29-54.17,20.77-83.8,26.27-19.93,3.69-41.94.17-62.74,1.18a305.21,305.21,0,0,0,92.63,19.24c-10.84,16.18-36.41,16.81-58.83,12.88s-46.07-11.07-66.27-5.68A657.21,657.21,0,0,1,91,442.41c5.72,2.28,13,8.23,9.74,12.17-1.36,1.65-4.06,1.75-6.49,1.65-16.48-.7-33.25-5.65-49.89-8-33.13-4.6-65.66,1.67-90.57,17.44l3.28-80.25c.42-10.46.89-21.12,4.75-30.36,6.62-15.88,22.27-25.59,37.28-34.6-6.92,13-8.7,29-5,44.88,2.36,10.1,6.86,20.08,8.76,30.18s.72,21-6.77,26.75A202,202,0,0,0,9.94,363.8c1.36-15.87,1.08-32.61,7.89-46.29,9.22-18.56,29.81-28.39,49.41-37.3a96.63,96.63,0,0,0-26.79,54.36C38.64,347,39,360,36.19,372.07s-9.51,23.53-21.6,27.73c23-6.73,35.9-27.58,43-49.17s9.89-45.16,19.94-65.26c11.16-22.33,31.25-39.49,56.2-48C97.38,267.05,91.05,318.7,76.38,363.49c-2.31,7.07-7.37,15.2-15.74,12.86,18.71-21.11,37.74-42.77,46.64-70,3.52-10.75,5.43-22.31,10.87-32.06,14.32-25.59,48.86-32.88,73-50.27-19.22,35.57-39,71.81-70.81,97.35-8.47,6.8-17.71,12.77-26.93,18.72"/><path class="cls-25" d="M633.92,458c-3.3-1.74-6.62-4.17-7.93-7.72-2-5.5,2-11.41,7.19-13s11.11.17,16.34,2.6a68.38,68.38,0,0,1,20.34,14.55,236.67,236.67,0,0,1-43.68-38.94c-2.72-3.11-5.57-7.2-4.26-10.88s6.32-4.45,9.94-2.63,6.12,5.39,8.45,8.8l27.29,39.91-36.15-68c-9.09-17.09-21-36.33-39.26-39.39a7.39,7.39,0,0,0-5.06.5c-4.39,2.69-.67,10,3.37,13.83a136.76,136.76,0,0,0,43.15,27.77c-10.18-9.6-10.65-25.13-12.56-38.78a131.22,131.22,0,0,0-10.26-35.46c-8.76-19.53-25.49-38.77-45.79-39.25-2.39-.06-4.91.21-6.67,1.73-4.79,4.14-.15,12.76,5.27,16.9,9.17,7,20.27,10.22,30.38,15.49A89.65,89.65,0,0,1,620,326.54a184.3,184.3,0,0,1,1.52-26.73c.36-2.71.85-5.56,2.65-7.47,3.9-4.13,11.93-.73,14.24,5s.37,12-2.74,16.79-7.33,8.78-10.16,13.79-4,11.72-.85,17a31.76,31.76,0,0,1,18.64-21.78c3.63,2.31,3.2,8.09.55,11.12s-6.67,4.4-9.92,6.74c-9.39,6.76-10.74,22.61-2.76,32.32a81,81,0,0,1,19.25-28.92c4.94,3.25,2.79,11.3-1.75,14.41s-10.56,3.81-14.73,7.4c-5.84,5-6.44,14.54-3.56,22.34s8.55,14.29,14.09,20.54c-1.06-7.24-2.12-14.66-.72-21.64s5.77-13.56,12.47-15.31c1.85-.48,4.16-.44,5.49,1.12a6.3,6.3,0,0,1,1.12,4,27.17,27.17,0,0,1-8.27,20.12c-1.81,1.71-4,3.3-4.61,5.79s.53,5.35,1.68,7.87c4.71,10.36,19.72,32.42,16.52,44.12C664.59,467.91,642.91,462.7,633.92,458Z"/><path class="cls-26" d="M170.56,419.63c.59-3.57.89-7.36-.75-10.81s-5.79-6.43-9.94-6c-4.55.52-7,4.63-8.21,8.42-2.71,8.49-2.65,17.59-2.58,26.56l.25,28.9a304,304,0,0,0-6.44-63.23c-2.31-11.28-5.21-22.81-3-33.83,1.36-6.9,4.68-13.3,6.24-20.16a43.79,43.79,0,0,0-3.79-29.09c-1.44-2.89-3.67-6-7.19-6.66-5.58-1-8.88,4.74-9.39,9.53-2.07,19.64,11,39,13.7,58.89A190.55,190.55,0,0,0,117.85,316c-2.64-4.9-5.52-9.79-6.76-15s-.77-10.37-.32-15.5l2.54-29c.31-3.58.61-7.29-.89-10.76s-5.33-6.59-9.49-6.44A8.49,8.49,0,0,0,95.39,245c-1,3-.67,6.23-.18,9.39a175.13,175.13,0,0,0,17.87,54.07l-44.9-96.58C66.38,208,64.48,204,61,201c-4.94-4.24-12.1-5.61-18.78-6.77-2.08-.36-4.45-.66-6,.45a4.68,4.68,0,0,0-1.63,2.89c-1.82,8.1,4.26,16.59,11.8,22.33s16.64,9.7,24.32,15.3A55.77,55.77,0,0,1,90,259.57a44.69,44.69,0,0,0-19.18-13.38c-5-1.85-11.86-2.39-14.48,1.46-3.17,4.69,3.21,10.79,9.51,12.53s13.4,1.55,18.84,4.95c3.2,2,5.36,5,7.43,7.87l22.12,30.88a43.9,43.9,0,0,0-21.69-17.22c-1.79-.67-3.92-1.23-5.5-.4a4.47,4.47,0,0,0-2,3,11.72,11.72,0,0,0,2.16,11.07c6.09,6.86,19.4,5,26.17,11.39,2.39,2.26,3.57,5.21,4.68,8.07l9.57,24.61c-3-5.35-3.9-11.45-7.79-16.4s-12.94-7.91-17.07-3.61c-2.64,2.75-1.84,7.15.48,10.4s5.85,5.72,8.94,8.47c13.1,11.67,18,28.06,22.25,43.54a36.41,36.41,0,0,0-9.82-20.51c-2.19-2.34-5.71-4.69-8.67-3.48a5,5,0,0,0-2.3,2.07c-3,4.69-.4,11,3.67,15.46s9.5,8,13.54,12.49c12.93,14.41,12.22,34.26,18.72,50.53C158.47,465.66,169.36,427,170.56,419.63Z"/><path class="cls-27" d="M252.6,446.07c3.37-1.38,6.78-3.45,8.18-6.81,2.17-5.22-1.73-11.44-7-13.51s-11.23-1-16.56.91A62.18,62.18,0,0,0,216.39,439a211.75,211.75,0,0,0,44.93-34c2.81-2.79,5.76-6.53,4.52-10.29s-6.29-5-10-3.6-6.3,4.7-8.72,7.83l-28.39,36.6,37.92-63.37c9.54-15.94,21.94-33.72,40.48-34.89a7.88,7.88,0,0,1,5.09,1c4.38,3.1.47,9.92-3.69,13.3a125.44,125.44,0,0,1-44.15,23c10.48-8.44,11.27-23.7,13.49-37A119,119,0,0,1,279,303.67c9.25-18.37,26.56-35.66,47.06-34.09,2.42.19,5,.71,6.7,2.38,4.76,4.57-.11,12.6-5.68,16.13-9.4,6-20.67,8-31,12.22a80.51,80.51,0,0,0-26.62,17.59,179.13,179.13,0,0,0-1-26.51c-.3-2.71-.73-5.57-2.51-7.63-3.86-4.47-12-1.92-14.49,3.44S250.86,299,253.9,304s7.22,9.39,10,14.61,3.83,12,.5,16.84A35.16,35.16,0,0,0,246,312.12c-3.71,1.92-3.39,7.66-.78,10.92s6.64,5,9.88,7.65c9.33,7.61,10.37,23.37,2.11,32.14a88.91,88.91,0,0,0-18.84-30.46c-5.06,2.71-3.05,10.87,1.47,14.39s10.58,4.82,14.72,8.78c5.79,5.53,6.2,15,3.12,22.39s-8.93,13.22-14.65,18.83c1.22-7,2.44-14.24,1.17-21.27s-5.54-13.95-12.26-16.35c-1.86-.66-4.2-.86-5.57.56a5.69,5.69,0,0,0-1.22,3.87,28.67,28.67,0,0,0,7.93,20.67c1.8,1.86,3.95,3.65,4.53,6.17s-.64,5.22-1.85,7.59c-5,9.74-20.6,30-17.61,41.84C221.42,452.79,243.43,449.84,252.6,446.07Z"/><path class="cls-28" d="M331,350.28a5.06,5.06,0,0,1-1-3.78c.47-2,3-3.06,5.07-2.57a9,9,0,0,1,4.87,3.79,22.46,22.46,0,0,1,3.7,8.11,76.32,76.32,0,0,1-6.35-19.73c-.26-1.44-.35-3.19.85-4.05s3-.17,3.84,1a8,8,0,0,1,1,4.2l.73,17,2.18-27.06c.54-6.81.61-14.77-4.8-19.05a3,3,0,0,0-1.78-.79c-2,0-2.3,2.88-1.76,4.78a45.61,45.61,0,0,0,8.5,16.28c-1.37-4.76,1.7-9.51,3.91-14a43.28,43.28,0,0,0,4-12.54c1.16-7.47-.38-16.33-7-20.21a4.12,4.12,0,0,0-2.57-.71c-2.45.37-2.7,3.81-1.77,6.05,1.58,3.78,4.58,6.8,6.83,10.24a29.35,29.35,0,0,1,4.32,10.92,66.39,66.39,0,0,1,6.06-7.74,5.16,5.16,0,0,1,2.43-1.76c2.15-.52,4.1,2,3.68,4.11s-2.36,3.67-4.4,4.54-4.25,1.28-6.22,2.27-3.78,2.77-3.82,4.94a13.44,13.44,0,0,1,10.7-3.11c.72,1.36-.62,3-2.13,3.44s-3.12.1-4.68.2c-4.52.3-8.26,4.81-7.64,9.2a33.75,33.75,0,0,1,12.39-5.15c.95,1.89-1.43,3.91-3.58,4s-4.28-.8-6.41-.49c-3,.43-5.16,3.18-5.82,6.06s-.14,5.86.38,8.76a22.56,22.56,0,0,1,4.27-6.63c1.91-1.84,4.73-3,7.31-2.31.71.2,1.46.63,1.58,1.35a2.07,2.07,0,0,1-.47,1.42,10.79,10.79,0,0,1-6.92,4.52,5.63,5.63,0,0,0-2.73.89,4.27,4.27,0,0,0-1.08,2.67c-.6,4-.21,13.37-3.71,16.29C339.07,358.91,333,353.36,331,350.28Z"/><path class="cls-29" d="M765.19-63.63c-8.74,6.31-16.07,14.05-22.87,22.27s-13.27,16.89-20,25.33S708.78.79,701.92,9.12,688.13,25.73,681,33.81s-14.44,16-21.89,23.94c-3.72,3.94-7.52,7.84-11.35,11.69S640,77,636,80.73,627.84,88,623.6,91.39A160.43,160.43,0,0,1,610.4,101a133.4,133.4,0,0,1-14.21,8.21,112.13,112.13,0,0,1-15.25,6.35,86.36,86.36,0,0,1-33.08,4.46,87.49,87.49,0,0,1-32.48-9,113.87,113.87,0,0,1-27.59-19.29,132.4,132.4,0,0,1-11.52-12.28,127.17,127.17,0,0,1-9.79-13.7c-1.46-2.4-2.87-4.83-4.19-7.31s-2.48-5-3.67-7.54L457.74,49l-.81-1.93-1.59-3.86c-1-2.57-1.91-5.21-2.87-7.82s-1.69-5.27-2.49-7.92-1.45-5.33-2.11-8c-1.27-5.36-2.44-10.74-3.34-16.15-3.65-21.65-4.53-43.41-4.69-65l3.15-.47,1.3,7.77,1.24,7.79-1,.23-2.37-7.52-2.3-7.54,3.15-.47c2.72,21.43,5.34,42.81,10.09,63.53A226.17,226.17,0,0,0,462.07,32c1.89,4.89,3.9,9.73,6.16,14.44a138.28,138.28,0,0,0,7.39,13.68,134.67,134.67,0,0,0,8.9,12.71,122.14,122.14,0,0,0,10.32,11.6,107.3,107.3,0,0,0,24.7,18.5,92.2,92.2,0,0,0,14.13,6.15,80.3,80.3,0,0,0,45.92,1.89,97.51,97.51,0,0,0,15-5.11,113.76,113.76,0,0,0,14.1-7.46,139.27,139.27,0,0,0,24.87-20.14C648.65,63,660.83,45.1,674.42,28.3c6.74-8.43,13.69-16.68,20.73-24.87S709.25-12.91,716.43-21c3.56-4.05,7.22-8,10.83-12s7.33-8,11.21-11.86c7.71-7.7,16.34-14.87,26.21-19.6Z"/><path class="cls-30" d="M530.86-30.82C522-17.31,517.55-1.79,510.5,13c-.9,1.85-1.86,3.66-2.79,5.5s-2,3.58-3,5.38-2.16,3.5-3.27,5.24c-.56.86-1.1,1.74-1.69,2.58l-1.8,2.52A140.45,140.45,0,0,1,481.83,53a136.33,136.33,0,0,1-19.26,15.67,133.81,133.81,0,0,1-21.92,11.83,114.91,114.91,0,0,1-23.89,7.29,117.36,117.36,0,0,1-24.87,2,117.2,117.2,0,0,1-48-11.46,113.62,113.62,0,0,1-20.92-13A165.49,165.49,0,0,1,305,48.67c-11.2-11.75-21.27-24.43-32.79-35.6L270.05,11l-2.22-2-2.22-2L263.31,5,261,3.14l-2.39-1.79L256.22-.43c-.81-.57-1.62-1.13-2.45-1.66a39.85,39.85,0,0,0-10.32-5.06,24.55,24.55,0,0,0-5.45-1,28,28,0,0,0-5.56.22,51.9,51.9,0,0,0-11.09,3.05c-1.82.74-3.63,1.55-5.45,2.31l-2.72,1.16c-.91.36-1.77.88-2.65,1.31l-5.27,2.7c-1.76.91-3.43,2-5.14,3-3.46,1.92-6.74,4.18-10.06,6.33C176.88,20.78,164.49,31,151.78,41s-25.84,20-40.52,27.85c-3.72,1.87-7.36,3.9-11.28,5.41L97.09,75.5c-1,.4-1.92.84-2.92,1.16l-6,2a135.11,135.11,0,0,1-24.55,5.12,159.11,159.11,0,0,1-49.58-2.6A186,186,0,0,1-9.76,74.68a225.52,225.52,0,0,1-22.75-9.45A243.11,243.11,0,0,1-54,53.53c-7-4.2-13.77-8.7-20.4-13.4a483.31,483.31,0,0,1-38-30.28l.56-.71c13.14,9.4,26.35,18.67,40,27.16A324.66,324.66,0,0,0-29.56,58.78a222.94,222.94,0,0,0,22.3,8.27,179.34,179.34,0,0,0,23,5.62,183,183,0,0,0,23.41,2.59,141.72,141.72,0,0,0,23.41-1,131.72,131.72,0,0,0,22.8-4.74l5.5-1.89c.93-.28,1.81-.7,2.71-1.06l2.69-1.13c3.63-1.39,7.1-3.2,10.62-4.91l1.32-.65,1.28-.72,2.57-1.45,2.57-1.45c.86-.47,1.71-1,2.54-1.5,3.34-2.12,6.72-4.15,10-6.45,1.64-1.13,3.3-2.21,4.92-3.37l4.86-3.5c3.25-2.32,6.44-4.78,9.66-7.17L156.21,27c3.21-2.45,6.44-4.9,9.73-7.3s6.61-4.76,9.93-7.12c1.65-1.19,3.39-2.29,5.09-3.42s3.39-2.28,5.18-3.31c3.53-2.1,7-4.29,10.68-6.15,1.84-.94,3.62-2,5.5-2.82L208-5.69c.95-.4,1.86-.89,2.84-1.22L213.71-8c1.94-.71,3.86-1.45,5.82-2.12a57.26,57.26,0,0,1,12.37-2.73,33.94,33.94,0,0,1,6.53.06,29.79,29.79,0,0,1,6.38,1.5,46.64,46.64,0,0,1,11.11,6A153.85,153.85,0,0,1,274.36,10.9c11.41,11.6,21.47,24.29,32.74,35.74a145.15,145.15,0,0,0,18,15.71A103.59,103.59,0,0,0,345.88,73.8a108.94,108.94,0,0,0,22.65,6.58,123.59,123.59,0,0,0,23.41,1.93,129,129,0,0,0,23.29-2.37,124.25,124.25,0,0,0,22.36-6.79,126,126,0,0,0,20.78-10.86A132.12,132.12,0,0,0,477,47.94,150.81,150.81,0,0,0,493.1,30.59a153.46,153.46,0,0,0,13.14-19.77c3.81-7,7.22-14.3,10.9-21.54a113.72,113.72,0,0,1,13-20.63Z"/><path class="cls-31" d="M875.08-46.28A83.86,83.86,0,0,0,865-35.66c-3.12,3.77-6,7.77-8.79,11.77L839.5.58,831,12.76l-8.57,12.1C816.76,32.93,811,41,805,48.8s-12.09,15.64-18.28,23.39c-3.1,3.88-6.26,7.71-9.42,11.54-1.59,1.91-3.19,3.8-4.82,5.69s-3.22,3.78-4.88,5.64c-6.63,7.39-13.44,14.69-21.2,21A83.36,83.36,0,0,1,734,124.66a57.59,57.59,0,0,1-6.9,3.31,42.47,42.47,0,0,1-7.45,2.14,36.38,36.38,0,0,1-3.91.53,31.41,31.41,0,0,1-4,0c-.66-.06-1.34-.06-2-.18l-2-.33a30.86,30.86,0,0,1-3.89-1.12,32.68,32.68,0,0,1-7.17-3.64,44.71,44.71,0,0,1-6.14-5.07,53.52,53.52,0,0,1-5.12-6c-.8-1-1.5-2.12-2.24-3.19s-1.42-2.17-2-3.3a97.93,97.93,0,0,1-6.58-13.9,156.9,156.9,0,0,1-7.79-29.37q-1.25-7.47-1.94-15c-.26-2.51-.36-5-.52-7.53s-.23-5-.31-7.52c-.49-20.07,1.3-40,4-59.71s6.57-39.15,10.82-58.49l2.93.34c-.35,2.89-.75,5.77-1.13,8.65s-.8,5.76-1.2,8.65l-.83-.07c0-2.9,0-5.81.07-8.72s.07-5.82.14-8.72l2.93.35c-2.19,19.67-4.62,39.27-6.37,58.86a519.28,519.28,0,0,0-2.42,58.65,237,237,0,0,0,2.13,29,152.62,152.62,0,0,0,6.56,28.08,94.54,94.54,0,0,0,5.59,13.12,57.82,57.82,0,0,0,7.75,11.64,31.26,31.26,0,0,0,10.72,8.24,22.06,22.06,0,0,0,6.48,1.84,29.75,29.75,0,0,0,3.41.26,33.5,33.5,0,0,0,3.46-.23,41.26,41.26,0,0,0,13.51-4.28,71.86,71.86,0,0,0,12.21-7.89,131.76,131.76,0,0,0,20.59-20.9q2.31-2.87,4.55-5.81c1.48-2,2.92-4,4.36-6,2.88-4,5.63-8.08,8.39-12.18,5.49-8.19,10.92-16.48,16.6-24.57s11.44-16.13,17.34-24.06l8.84-11.9,9-11.82c3-3.95,6-7.83,9.07-11.75s6.12-7.8,9.31-11.63,6.56-7.54,10.13-11c1.79-1.76,3.68-3.41,5.61-5A62.19,62.19,0,0,1,874.59-47Z"/><path class="cls-32" d="M725.73-36.68c-6.3,11-11,22.8-16.06,34.47a216.79,216.79,0,0,1-17.86,34.1,167.43,167.43,0,0,1-11.49,15.64,138.27,138.27,0,0,1-13.58,14,84.86,84.86,0,0,1-16.16,11.38,55.73,55.73,0,0,1-19,6.42,43.52,43.52,0,0,1-20.1-2A47.22,47.22,0,0,1,594.53,66.8a63.38,63.38,0,0,1-11.77-15.62,109.71,109.71,0,0,1-7.57-17.76c-4.13-12.14-7-24.57-10.3-36.82-.83-3.07-1.69-6.12-2.56-9.16l-1.4-4.54-1.48-4.5a125.26,125.26,0,0,0-7.26-17.3,24.74,24.74,0,0,0-5.13-7,7.38,7.38,0,0,0-3.19-1.68,9.22,9.22,0,0,0-3.74,0,33.84,33.84,0,0,0-8.19,3.06,79.75,79.75,0,0,0-8,4.58c-10.29,6.79-19.51,15.4-28.62,24.15S477.31,2.1,467.44,10.51A126.86,126.86,0,0,1,451.68,22.2a66.19,66.19,0,0,1-18.46,8.15A52.25,52.25,0,0,1,412.8,31.5,57.62,57.62,0,0,1,393.6,25a78.31,78.31,0,0,1-16.09-11.71,112.36,112.36,0,0,1-12.95-14.7A195.36,195.36,0,0,1,345-34.64c-2.77-5.76-5.31-11.63-7.72-17.53S332.57-64,330.39-70l.69-.29c2.79,5.72,5.56,11.44,8.42,17.1s5.86,11.25,8.93,16.78,6.31,11,9.74,16.21A184.89,184.89,0,0,0,369.2-5,108.74,108.74,0,0,0,382,8.36a71,71,0,0,0,15,10.23,53.31,53.31,0,0,0,16.87,5.31,44.39,44.39,0,0,0,17.39-1.27,58.58,58.58,0,0,0,8.33-3,70.18,70.18,0,0,0,8-4.26A138.92,138.92,0,0,0,462.43,4.52c9.63-7.94,18.69-16.82,28.08-25.46s19.05-17.3,30.3-24.1a86.8,86.8,0,0,1,8.77-4.58,38.71,38.71,0,0,1,9.82-3,14.17,14.17,0,0,1,5.72.37,12.2,12.2,0,0,1,5,3,28.87,28.87,0,0,1,5.7,8.57c5.4,11.89,8.43,24.36,11.5,36.7s5.86,24.77,10.13,36.65a96.3,96.3,0,0,0,7.93,17,57.75,57.75,0,0,0,11.88,14.11,42.66,42.66,0,0,0,15.77,8.53,39.3,39.3,0,0,0,17.58.94,54.74,54.74,0,0,0,16.77-6.12,91,91,0,0,0,15-10.53,131.26,131.26,0,0,0,13.1-13.16A168.77,168.77,0,0,0,687,28.64l2.65-3.87,2.55-3.95c.87-1.31,1.68-2.65,2.49-4s1.64-2.68,2.42-4c3.12-5.45,6.07-11,9-16.69s5.78-11.34,8.84-16.95q2.31-4.2,4.83-8.29c1.68-2.72,3.48-5.36,5.36-8Z"/><g class="cls-33"><path class="cls-34" d="M-108.23-8.47A3498.13,3498.13,0,0,1,144.35,251q34,38.81,66.92,78.6c8.53,10.32,27.35,9.49,36.06,0,10.07-11,9.1-25.05,0-36.06A3499,3499,0,0,0,2.54,26.72Q-34.29-9.46-72.16-44.53c-9.79-9.07-26.51-10.41-36.07,0-9,9.86-10.45,26.38,0,36.06Z"/><path class="cls-35" d="M-79.32-17.1Q19.16,29.16,115.34,80.13,211,130.88,304.24,186.2q52.71,31.28,104.55,64c11.3,7.13,28.6,2.75,34.88-9.15,6.64-12.56,2.92-27.28-9.14-34.88q-92-58.06-186.77-111.65Q153.45,41.2,56.65-7.52,1.9-35.09-53.58-61.14c-6.33-3-12.68-4.49-19.65-2.57-5.92,1.63-12.33,6.2-15.24,11.72-6,11.31-3.74,28.83,9.15,34.89Z"/><path class="cls-36" d="M-92.65-31.79a20.53,20.53,0,0,1,3.71-.62c-.64,0-6,.5-1.18.25,2.19-.11,4.37-.31,6.56-.37a142.82,142.82,0,0,1,15.06.4q3.78.29,7.54.71l2.82.33c4.74.56-.42-.13-1.13-.16,5,.19,10.14,1.54,15,2.34q30,4.86,60,10c40,6.86,80,14,119.91,21.19,79.86,14.31,159.76,28.56,240.08,40.15,46.92,6.77,94,12.75,141.15,17.34,13.32,1.3,26.08-12.65,25.5-25.5-.67-14.92-11.23-24.11-25.5-25.5q-30.77-3-61.45-6.71Q440.4.26,425.32-1.73c-2.27-.29-4.54-.6-6.8-.9-3.72-.49,4.66.64.94.13L415.57-3Q407.8-4.1,400-5.19c-40.48-5.72-80.86-12.15-121.18-18.94C198.49-37.68,118.38-52.69,38.07-66.56Q4.21-72.41-29.7-77.94c-25.75-4.17-50.58-7.64-76.51-3C-119.38-78.63-128-61.86-124-49.6c4.58,14.15,17.26,20.31,31.37,17.81Z"/></g><path class="cls-37" d="M212.9,380.68a12.68,12.68,0,0,0-4,5.11c-1.71-18.16,4.87-36.18,11.41-53.93,3.77-10.23,7.57-20.52,14.1-30.23,4.87-7.21,11.33-14.34,11.7-22.14,1.89,10.56,3,22.05-6.43,31l2.62-1.42a82.78,82.78,0,0,0-19.86,19.53c9.78-7,20.25-14.32,34.51-17.32-10.16,5.36-12.62,14.39-20.88,20.86-5.56,4.35-13.48,7.32-19.94,11.17a144.92,144.92,0,0,0,34.32-11.45c.27,5.77-7.82,10.36-16,13.3s-17.42,5.34-22.67,10.14c10.1-2.93,20.55-5.4,31.24-7.4,2.38-.45,6.11-.28,6,1.23-.05.64-.9,1.13-1.71,1.53-5.46,2.69-12,4.41-17.91,6.74-11.75,4.65-20.77,11.8-25.12,19.92l-17.62-19.86c-2.3-2.59-4.63-5.23-5.54-8.12-1.56-5,1.23-10,4-14.79.79,4.33,3.94,8.48,8.83,11.65,3.11,2,6.88,3.64,9.85,5.73s5.11,4.92,4,7.61A52.92,52.92,0,0,0,198.72,343c-3.26-4.05-7.24-8-8.23-12.49-1.35-6.06,3-12,7.24-17.54-1.26,6,.14,12.16,4,17.71,2.3,3.29,5.45,6.37,7.35,9.75s2.41,7.31-.51,10.42c5.83-5.6,5.15-12.86,2.41-19.28s-7.32-12.57-8.76-19.15c-1.6-7.3.88-14.91,6.94-21.29-4.8,13.44,5.18,27,10.87,40.27.9,2.1,1.16,4.93-2.08,5.82,1.12-8.32,2.21-16.83-1.25-24.91-1.37-3.2-3.44-6.31-4-9.59-1.34-8.64,8.09-16.39,11.83-24.76,2.08,11.89,4.14,24-.17,35.69a78.47,78.47,0,0,1-4.32,9.17"/><path class="cls-38" d="M309.3,424.81c-.31-3.67-.27-7.54,2-11s7.29-6.25,12-5.56c5.17.76,7.55,5.07,8.55,9,2.26,8.78,1.26,18.05.26,27.18l-3.22,29.44a284.92,284.92,0,0,1,13.8-64.09c3.8-11.36,8.29-23,6.91-34.3-.86-7.1-4-13.79-5.1-20.85-1.51-9.81,1.07-20.23,7.29-29.44,1.94-2.87,4.82-5.95,8.93-6.42,6.49-.76,9.69,5.28,9.78,10.19.38,20.11-16.52,39.18-21.67,59.29,5.6-22.93,16.28-45.48,31.45-66.38,3.52-4.85,7.32-9.68,9.27-14.93s1.93-10.52,1.94-15.77l0-29.63c0-3.66,0-7.46,2.11-10.91a13.07,13.07,0,0,1,11.53-6.08,9,9,0,0,1,8.06,6.18c.9,3.07.13,6.38-.74,9.57a175.61,175.61,0,0,1-26,54.16l61.26-96.08c2.45-3.85,5-7.82,9.3-10.67,6.1-4.08,14.43-5.11,22.21-5.95,2.42-.26,5.17-.45,6.84.77a4.31,4.31,0,0,1,1.57,3c1.27,8.34-6.56,16.69-15.78,22.15s-20.05,9-29.42,14.35c-10.79,6.11-19.43,14.49-24.56,23.8a55.78,55.78,0,0,1,23.35-12.66c6-1.62,13.83-1.83,16.43,2.23,3.16,4.93-4.76,10.82-12.17,12.27s-15.51.91-22.08,4.1c-3.87,1.87-6.65,4.8-9.32,7.64L385.6,309.77c6.19-7.48,15.82-13.43,26.61-16.45,2.12-.59,4.61-1,6.34-.12a4.29,4.29,0,0,1,2,3.13,11.34,11.34,0,0,1-3.6,11.16c-7.68,6.68-22.74,4.11-31.15,10.27-3,2.18-4.62,5.14-6.18,8l-13.45,24.58c4-5.3,5.62-11.47,10.58-16.31s15.64-7.4,19.93-2.81c2.74,2.93,1.38,7.38-1.61,10.57S387.8,347.31,384,350c-16.2,11.23-23.43,27.67-29.91,43.23,1.68-7.44,6.4-14.66,13.32-20.4,2.75-2.27,7-4.48,10.3-3.11a5.25,5.25,0,0,1,2.43,2.23c2.91,4.93-.67,11.19-5.78,15.56s-11.7,7.65-16.79,12c-16.27,14-17.48,34.28-26.58,50.52C318.48,472.31,309.93,432.42,309.3,424.81Z"/></svg>