<svg xmlns="http://www.w3.org/2000/svg" viewBox="0 0 1385 779"><defs><style>.cls-1{fill:#fff;}</style></defs><g id="Layer_2" data-name="Layer 2"><g id="Layer_1-2" data-name="Layer 1"><path class="cls-1" d="M0,0V779H1385V0ZM65.57,210.82c.36-31.18,2.93-63.27,16.75-91.22s41.18-51.1,72.36-51.74c28.47-.6,53.82,16.78,76.93,33.43,7.51,5.41,15.9,12.71,14.7,21.9-.62,4.7-3.75,8.67-7.13,12-13.34,13.12-31.92,19.78-50.46,22.27s-37.35,1.18-56,.49c-8.65-.32-17.81-.38-25.29,4-13,7.58-15.66,24.8-17.33,39.74-.39,3.48-.87,7.13-2.91,10-4.71,6.56-14.59,5.56-22.49,3.86ZM211.32,741.23c-32.58,2.64-64.07-11.82-92-28.73-14-8.49-27.83-17.85-38.39-30.4S63.25,653.35,64.6,637l1.45.2A350.49,350.49,0,0,1,57,563.58c-.24-14.5,1.18-30.7,12-40.4,13.7-12.32,36.66-7.44,49.95,5.32s19.46,31,25.66,48.37c11.69,32.75,27.7,67.76,59.25,82.36,20,9.26,43,8.6,64.86,11.49,2.2.29,4.53.68,6.16,2.19,2,1.9,2.35,5,2.3,7.8C276.54,713.39,243.9,738.59,211.32,741.23ZM1219.79,551.86c-17,31.49-40.39,61.93-73.71,75.07-44.28,17.47-97.86,1.23-139.68,24-14.68,8-26.55,20.15-39,31.24-39.64,35.18-94.16,61.57-144.89,46.21-27.82-8.43-50.55-28.23-76.17-42C681.23,651.43,602,657.53,529.79,672.88c-14.35,3-28.89,6.44-43.52,5.42-11.76-.83-23.12-4.49-34.33-8.12l-48.36-15.64L416.67,652c-32.81,1.23-66.93,1.65-96.88-11.83-31.8-14.3-54.87-42.42-76.74-69.59C224.12,547.08,205,523.19,193,495.48c-9.88-22.78-14.61-47.43-18.51-72a1217.74,1217.74,0,0,1-14.6-157c-.16-5.74-.25-11.63,1.7-17,2.3-6.34,7.19-11.34,12.11-16,63.13-59.19,150.7-85.32,236.61-95.75s173-7,259-16.8c75.1-8.53,152.09-26.92,225.05-7.15,17.67,4.79,35,11.94,49.09,23.64,53.6,44.55,41.7,135.13,89.82,185.55,27.55,28.88,69,38.47,107.14,50.06s79,29.71,95.23,66.14C1251.64,475.14,1238.49,517.29,1219.79,551.86Zm90.38-266.24c-4,24-27.52,41.31-51.66,44.69s-48.46-4.54-70.46-15a301.94,301.94,0,0,1-83.33-58.85l1.85-2.17c-25.52-18.05-45.51-42.67-65.16-67-10.13-12.54-20.65-25.9-23-41.85-2.31-15.59,3.71-31.5,13.05-44.2s21.77-22.72,34.06-32.59c6.26-5,12.71-10.17,20.37-12.6,10.28-3.26,21.4-1.27,32,.81q47.3,9.3,94.25,20.26c13.94,3.26,28.77,7.15,38.3,17.84,7.65,8.6,10.64,20.25,13.59,31.38a986,986,0,0,0,35.84,109.27C1306.16,251.67,1313,268.62,1310.17,285.62Z"/></g></g></svg>