<svg id="Layer_1" data-name="Layer 1" xmlns="http://www.w3.org/2000/svg" xmlns:xlink="http://www.w3.org/1999/xlink" viewBox="0 0 943.33 1407.38"><defs><style>.cls-1,.cls-12,.cls-14,.cls-17,.cls-20,.cls-25,.cls-26,.cls-27,.cls-28,.cls-29,.cls-4,.cls-40,.cls-5,.cls-7,.cls-9{fill:none;}.cls-2{fill:url(#linear-gradient);}.cls-3{fill:url(#linear-gradient-2);}.cls-10,.cls-12,.cls-13,.cls-14,.cls-25,.cls-26,.cls-33,.cls-4,.cls-5,.cls-6,.cls-9{stroke:#c1e1bf;}.cls-17,.cls-20,.cls-27,.cls-28,.cls-33,.cls-34,.cls-4,.cls-40,.cls-41,.cls-45,.cls-7{stroke-miterlimit:10;}.cls-28,.cls-4,.cls-7{stroke-width:3px;}.cls-5,.cls-6{stroke-miterlimit:10;stroke-width:3px;}.cls-10,.cls-13,.cls-43,.cls-6{fill:#c1e1bf;}.cls-34,.cls-7{stroke:#bddabb;}.cls-8{fill:url(#linear-gradient-3);}.cls-10,.cls-9{stroke-miterlimit:10;stroke-width:3px;}.cls-11{fill:url(#linear-gradient-4);}.cls-12,.cls-13{stroke-miterlimit:10;stroke-width:3px;}.cls-14{stroke-miterlimit:9.96;stroke-width:2.99px;}.cls-15{fill:url(#linear-gradient-5);}.cls-16{fill:url(#linear-gradient-6);}.cls-17,.cls-20,.cls-45{stroke:#2e453a;}.cls-17,.cls-34{stroke-width:4px;}.cls-18{fill:#2e453a;}.cls-19{fill:url(#linear-gradient-7);}.cls-20{stroke-width:6px;}.cls-21{fill:#f8f2c9;}.cls-22{fill:url(#linear-gradient-8);}.cls-23,.cls-34{fill:#2e4539;}.cls-24{fill:#3ea380;}.cls-25,.cls-26{stroke-miterlimit:10;}.cls-25{stroke-width:2.86px;}.cls-26{stroke-width:2.91px;}.cls-27,.cls-28,.cls-29{stroke:#f8f2c9;}.cls-27{stroke-width:2.94px;}.cls-29{stroke-miterlimit:10;stroke-width:3.35px;}.cls-30{fill:#0e1f0c;}.cls-31,.cls-41{fill:#f0bdc5;}.cls-32,.cls-33{fill:#9eba9d;}.cls-33,.cls-41{stroke-width:3.59px;}.cls-35{fill:#bcd9ba;}.cls-36{clip-path:url(#clip-path);}.cls-37{fill:#ddf7bc;}.cls-38{fill:#28b180;}.cls-39{fill:#c06889;}.cls-40,.cls-41{stroke:#c06889;}.cls-40{stroke-width:7.19px;}.cls-42{fill:#f6c6d0;}.cls-44{fill:#bddabb;}.cls-45{fill:url(#linear-gradient-9);}</style><linearGradient id="linear-gradient" x1="1134.54" y1="-117.81" x2="125.49" y2="891.25" gradientTransform="matrix(1, 0, 0, -1, 120.41, 1233.32)" gradientUnits="userSpaceOnUse"><stop offset="0" stop-color="#f0bdc5"/><stop offset="0.94" stop-color="#bf6888"/></linearGradient><linearGradient id="linear-gradient-2" x1="93.36" y1="7.56" x2="572.25" y2="-471.34" gradientTransform="matrix(1, -0.07, -0.07, -1, 159.05, 963.55)" gradientUnits="userSpaceOnUse"><stop offset="0" stop-color="#2e4539"/><stop offset="0.94" stop-color="#3ea380"/></linearGradient><linearGradient id="linear-gradient-3" x1="579.55" y1="663.42" x2="996.55" y2="246.42" gradientTransform="matrix(1, 0.04, 0.04, -1, -149.5, 1583.05)" xlink:href="#linear-gradient-2"/><linearGradient id="linear-gradient-4" x1="-11689.33" y1="-1155.38" x2="-11210.42" y2="-1634.28" gradientTransform="matrix(-0.97, 0.26, -0.26, -0.97, -10505.78, 2713.36)" xlink:href="#linear-gradient-2"/><linearGradient id="linear-gradient-5" x1="-12983.32" y1="936.22" x2="-12516.59" y2="469.49" gradientTransform="translate(-11691.29 965.97) rotate(-176)" xlink:href="#linear-gradient-2"/><linearGradient id="linear-gradient-6" x1="561.3" y1="795.85" x2="1131.05" y2="226.11" gradientTransform="matrix(1, 0.04, 0.04, -1, -149.5, 1583.05)" xlink:href="#linear-gradient-2"/><linearGradient id="linear-gradient-7" x1="297.39" y1="648.98" x2="572.32" y2="648.98" gradientTransform="matrix(1, 0, 0, -1, 118.94, 1234.37)" gradientUnits="userSpaceOnUse"><stop offset="0.32" stop-color="#9fba9e"/><stop offset="0.94" stop-color="#e5ea93"/></linearGradient><linearGradient id="linear-gradient-8" x1="-12700.57" y1="667.83" x2="-12391.86" y2="667.83" gradientTransform="translate(-11591.83 1234.37) rotate(180)" xlink:href="#linear-gradient-7"/><clipPath id="clip-path" transform="translate(-309.4 -77.57)"><rect class="cls-1" x="727.1" y="576.32" width="26.72" height="25.87" transform="translate(-46.71 64.03) rotate(-4.8)"/></clipPath><linearGradient id="linear-gradient-9" x1="399.19" y1="614.91" x2="399.19" y2="614.91" xlink:href="#linear-gradient-7"/></defs><path id="background" class="cls-2" d="M402.38,1483.8c-27.24-32.18-69.62-91.83-82.48-174.53-3.48-22.32-11.81-88.41,40.81-239.35,49.9-143.18,77.11-145.19,93.61-211.27C504.4,658.21,282.68,562.59,312.1,364.05c23.57-159,196.13-302.69,315-285,97.84,14.53,102.27,130,229.34,158.44,112.92,25.32,168.09-52.65,251.87-8.92,68.73,35.89,97.21,124.83,102.31,180.5,4.72,51.62-9,97-22,139.88-19.56,64.63-35.58,74.25-44.47,112.43-16.89,72.59,21.58,121.22,50.18,198.51,58.37,157.74,30.07,308.29,14.91,388.67C1199,1303,1177.58,1384.67,1128,1478.12Z" transform="translate(-309.4 -77.57)"/><path class="cls-3" d="M693.87,1473.18c11.92-22.72,16.41-34.61,21-59.39,15.94-86-14.93-171.24-52.84-247.84-34.26-69.22-75.07-135.83-128.72-191.79S414.94,923.31,335.63,852.37c-10,185.42,45.81,370.35,155.82,516.52,24.49,32.48,57.76,60.24,92.39,82.48s67.72,28.15,110,21.86" transform="translate(-309.4 -77.57)"/><path class="cls-4" d="M443.56,1297.1l21.83-12.32,147.13,42.94c-3.93-7.11-25.26-44.74-25.26-44.74L564,1277.8l-17.76,10-59.94-18.28" transform="translate(-309.4 -77.57)"/><polyline class="cls-4" points="292.4 1114.15 270.5 1192.39 280.8 1210.63 236.66 1132.45 221.7 1105.96 240.34 1038.73"/><polyline class="cls-4" points="316.33 1156.91 294.43 1235.14 304.73 1253.39 260.59 1175.21 245.63 1148.71 264.27 1081.49"/><path class="cls-4" d="M485.07,1192.37l61,17.69" transform="translate(-309.4 -77.57)"/><ellipse class="cls-5" cx="477.45" cy="1187.52" rx="9.73" ry="10" transform="translate(-831.57 310.62) rotate(-29.45)"/><path class="cls-4" d="M546.83,1098.2a10,10,0,1,1-3.43,13.72l-.13-.23a9.86,9.86,0,0,1,3.56-13.49" transform="translate(-309.4 -77.57)"/><ellipse class="cls-5" cx="603.3" cy="1183.11" rx="9.73" ry="10" transform="translate(-813.14 371.93) rotate(-29.45)"/><ellipse class="cls-5" cx="476.78" cy="1265.62" rx="9.73" ry="10" transform="translate(-870.05 320.38) rotate(-29.45)"/><line class="cls-4" x1="351.2" y1="1335.31" x2="323.88" y2="1286.94"/><polyline class="cls-4" points="351.2 1335.31 358.38 1293.75 374.44 1284.41"/><path class="cls-4" d="M605.84,1380.87l11.66,20.64c41.84,13.46,43.1,11.37,43.1,11.37l33.27,60.3" transform="translate(-309.4 -77.57)"/><ellipse class="cls-5" cx="595.28" cy="1375.37" rx="12.38" ry="12.72" transform="translate(-908.7 392.82) rotate(-29.45)"/><ellipse class="cls-6" cx="627.05" cy="1353.41" rx="12.38" ry="12.72" transform="translate(-893.79 405.6) rotate(-29.45)"/><ellipse class="cls-5" cx="694.64" cy="1355.86" rx="12.38" ry="12.72" transform="translate(-886.27 439.16) rotate(-29.45)"/><polyline class="cls-4" points="145.45 1236.33 164.7 1225.46 205.71 1238.92 225.79 1227.58"/><path class="cls-4" d="M465.78,1331.7l20.6-11.62,30.35,9.6,33.66-19s-70.33,40.83-71.21,40.2" transform="translate(-309.4 -77.57)"/><polyline class="cls-4" points="183.54 1293.29 199.5 1284.28 207.33 1252.11"/><path class="cls-4" d="M402.53,944.94a12.72,12.72,0,1,1-4.37,17.45l-.16-.28a12.56,12.56,0,0,1,4.53-17.17" transform="translate(-309.4 -77.57)"/><ellipse class="cls-5" cx="395.24" cy="1058.69" rx="9.73" ry="10" transform="translate(-778.85 253.55) rotate(-29.45)"/><ellipse class="cls-5" cx="415.97" cy="1093.45" rx="9.73" ry="10" transform="translate(-793.26 268.23) rotate(-29.45)"/><polyline class="cls-4" points="231.91 1069.14 189.96 1043.67 105.5 889.99"/><polyline class="cls-4" points="152.08 976.4 157.98 947.03 161.78 928.06 169.24 890.92"/><line class="cls-4" x1="161.78" y1="928.06" x2="222.14" y2="894.76"/><line class="cls-4" x1="157.98" y1="947.03" x2="233.47" y2="905.38"/><line class="cls-4" x1="169.02" y1="1004.68" x2="95.22" y2="981.65"/><line class="cls-4" x1="189.53" y1="1043.47" x2="115.73" y2="1020.44"/><line class="cls-4" x1="168.52" y1="891.32" x2="200.93" y2="873.44"/><line class="cls-7" x1="303.12" y1="1250.15" x2="311.38" y2="1264.79"/><path class="cls-4" d="M572.13,1140a10,10,0,1,1-3.41,13.72,1.76,1.76,0,0,1-.14-.23,9.87,9.87,0,0,1,3.55-13.49" transform="translate(-309.4 -77.57)"/><path class="cls-4" d="M622,1216.64a10,10,0,1,1-3.43,13.72,2.53,2.53,0,0,1-.13-.22,9.88,9.88,0,0,1,3.56-13.5" transform="translate(-309.4 -77.57)"/><path class="cls-8" d="M773,1449c14.29-21.3,20-32.65,27.25-56.79,25-83.8,3.5-171.86-26-252.08-26.65-72.49-32.34-185.25-107.44-204.47-99.56-25.49-25.4-71.94-99.56-100.82C443.55,964.1,489.18,1166.49,582.9,1323.6c20.82,34.91,51,66.09,83,91.86s64.32,35.25,107,33.52" transform="translate(-309.4 -77.57)"/><path class="cls-4" d="M543,1247.11l23-9.92,141.68,58.46c-3.14-7.5-20.32-47.19-20.32-47.19l-22.58-7.65L646,1248.88l-57.63-24.6" transform="translate(-309.4 -77.57)"/><polyline class="cls-4" points="402.21 1081.72 372.05 1157.15 380.34 1176.39 344.83 1093.94 332.8 1065.99 358.52 1001.15"/><polyline class="cls-4" points="421.42 1126.79 391.26 1202.23 399.55 1221.47 364.04 1139.01 352.01 1111.07 377.73 1046.22"/><path class="cls-4" d="M595.48,1147.37l58.75,24.12" transform="translate(-309.4 -77.57)"/><ellipse class="cls-9" cx="588.41" cy="1141.79" rx="9.73" ry="10" transform="translate(-713.04 248.29) rotate(-23.3)"/><path class="cls-4" d="M666.94,1060.37a10,10,0,1,1-4.88,13.27l-.12-.27a9.9,9.9,0,0,1,5-13" transform="translate(-309.4 -77.57)"/><ellipse class="cls-9" cx="714.01" cy="1150.89" rx="9.73" ry="10" transform="translate(-706.4 298.71) rotate(-23.3)"/><ellipse class="cls-9" cx="579.38" cy="1219.39" rx="9.73" ry="10" transform="translate(-744.47 251.05) rotate(-23.3)"/><line class="cls-4" x1="436.97" y1="1307.9" x2="415" y2="1256.88"/><polyline class="cls-4" points="436.97 1307.9 448.57 1267.35 465.53 1259.78"/><path class="cls-4" d="M695.36,1347.77l9.38,21.77c40.17,17.87,41.64,15.93,41.64,15.93L773,1449" transform="translate(-309.4 -77.57)"/><ellipse class="cls-9" cx="685.42" cy="1341.18" rx="12.38" ry="12.72" transform="translate(-784 302.92) rotate(-23.3)"/><ellipse class="cls-10" cx="719.38" cy="1322.75" rx="12.38" ry="12.72" transform="translate(-773.94 314.85) rotate(-23.3)"/><ellipse class="cls-9" cx="786.32" cy="1332.44" rx="12.38" ry="12.72" transform="translate(-772.31 342.12) rotate(-23.3)"/><polyline class="cls-4" points="243.01 1187.45 263.32 1178.7 302.65 1196.48 323.83 1187.36"/><path class="cls-4" d="M561.38,1283.89l21.72-9.36,29.15,12.8,35.49-15.28s-74.29,33.06-75.1,32.34" transform="translate(-309.4 -77.57)"/><polyline class="cls-4" points="274.79 1248.16 291.62 1240.92 302.84 1209.77"/><path class="cls-4" d="M539.94,892.58a12.72,12.72,0,1,1-6.2,16.89c0-.11-.1-.21-.14-.31a12.54,12.54,0,0,1,6.32-16.57h0" transform="translate(-309.4 -77.57)"/><ellipse class="cls-9" cx="520.48" cy="1004.9" rx="9.73" ry="10" transform="translate(-664.44 210.26) rotate(-23.3)"/><ellipse class="cls-9" cx="537.35" cy="1041.69" rx="9.73" ry="10" transform="translate(-677.61 219.93) rotate(-23.3)"/><polyline class="cls-4" points="346.88 1030.49 307.9 1000.67 240.39 838.82"/><polyline class="cls-4" points="277.45 929.73 286.46 901.15 292.27 882.7 303.66 846.58"/><line class="cls-4" x1="292.27" y1="882.7" x2="355.85" y2="856.06"/><line class="cls-4" x1="286.46" y1="901.15" x2="365.98" y2="867.83"/><line class="cls-4" x1="291.26" y1="959.66" x2="220.36" y2="928.86"/><line class="cls-4" x1="307.5" y1="1000.41" x2="236.59" y2="969.61"/><line class="cls-4" x1="302.91" y1="846.9" x2="337.05" y2="832.59"/><line class="cls-7" x1="398.29" y1="1218.08" x2="404.94" y2="1233.51"/><path class="cls-4" d="M687.65,1104.69a10,10,0,1,1-4.88,13.27l-.12-.27a9.87,9.87,0,0,1,5-13" transform="translate(-309.4 -77.57)"/><path class="cls-4" d="M729,1186.23a10,10,0,1,1-4.88,13.27l-.12-.27a9.86,9.86,0,0,1,5-13" transform="translate(-309.4 -77.57)"/><path class="cls-11" d="M862.54,1476.79c-18.67-17.6-26.78-27.38-39.19-49.32-43-76.13-41.61-166.78-30.68-251.54,9.87-76.61,26.78-152.87,59.31-223.24s81.4-134.87,147.28-179.5c69.78,172.08,77.2,365.1,20.74,539.11-12.54,38.66-35,75.77-60.54,108s-54.87,48.66-96.92,56.47" transform="translate(-309.4 -77.57)"/><path class="cls-4" d="M1041.94,1228.85l-24.65-4.55-125.14,88.48c1.39-8,9.32-50.52,9.32-50.52l20.32-12.48,20,3.7,50.73-36.79" transform="translate(-309.4 -77.57)"/><polyline class="cls-4" points="548.6 1103.13 594.76 1169.98 590.96 1190.58 607.26 1102.29 612.78 1072.37 573.29 1014.87"/><polyline class="cls-4" points="539.89 1151.34 586.05 1218.2 582.25 1238.8 598.55 1150.51 604.07 1120.59 564.58 1063.08"/><path class="cls-4" d="M968.58,1143.29l-51.92,36.57" transform="translate(-309.4 -77.57)"/><ellipse class="cls-12" cx="974.25" cy="1136.3" rx="10" ry="9.73" transform="translate(-629.44 1810.5) rotate(-79.54)"/><path class="cls-4" d="M879.55,1074.37a10,10,0,1,0,7.71,11.86c0-.09,0-.17,0-.26a9.86,9.86,0,0,0-7.76-11.6" transform="translate(-309.4 -77.57)"/><ellipse class="cls-12" cx="853.81" cy="1173.08" rx="10" ry="9.73" transform="translate(-764.18 1722.16) rotate(-79.54)"/><ellipse class="cls-12" cx="1000.31" cy="1209.93" rx="10" ry="9.73" transform="translate(-680.53 1896.38) rotate(-79.54)"/><line class="cls-4" x1="564.97" y1="1331.38" x2="575.06" y2="1276.75"/><polyline class="cls-4" points="564.97 1331.38 544.65 1294.42 526.43 1290.81"/><path class="cls-4" d="M915.73,1360.86l-4.3,23.31c-35.19,26.35-37.06,24.78-37.06,24.78l-11.83,67.84" transform="translate(-309.4 -77.57)"/><ellipse class="cls-12" cx="923.97" cy="1352.26" rx="12.72" ry="12.38" transform="translate(-882.97 1937.81) rotate(-79.54)"/><ellipse class="cls-13" cx="886.77" cy="1341.83" rx="12.72" ry="12.38" transform="translate(-903.16 1892.69) rotate(-79.54)"/><ellipse class="cls-12" cx="823.66" cy="1366.16" rx="12.72" ry="12.38" transform="translate(-978.73 1850.54) rotate(-79.54)"/><polyline class="cls-4" points="727.31 1170.84 705.57 1166.82 671.17 1192.9 648.5 1188.71"/><path class="cls-4" d="M1032.17,1268.8l-23.23-4.29-25.57,19-38-7s79.78,15.72,80.42,14.84" transform="translate(-309.4 -77.57)"/><polyline class="cls-4" points="709.83 1237.1 691.81 1233.77 673.94 1205.89"/><path class="cls-4" d="M966.13,882.5a12.73,12.73,0,1,0,9.8,15.1c0-.11.05-.23.07-.34a12.56,12.56,0,0,0-9.87-14.76" transform="translate(-309.4 -77.57)"/><ellipse class="cls-12" cx="1010.07" cy="987.74" rx="10" ry="9.73" transform="translate(-454.03 1724.13) rotate(-79.54)"/><ellipse class="cls-14" cx="996.09" cy="1028.36" rx="9.96" ry="9.69" transform="translate(-504.69 1744.71) rotate(-79.59)"/><polyline class="cls-4" points="591.16 1040.88 622.54 1003.15 652.39 830.34"/><polyline class="cls-4" points="636.46 927.21 621.33 901.36 611.56 884.66 592.43 851.97"/><line class="cls-4" x1="611.56" y1="884.66" x2="543.65" y2="872.81"/><line class="cls-4" x1="621.33" y1="901.36" x2="536.39" y2="886.54"/><line class="cls-4" x1="629.64" y1="959.46" x2="691.93" y2="913.68"/><line class="cls-4" x1="622.87" y1="1002.81" x2="685.16" y2="957.02"/><line class="cls-4" x1="593.23" y1="852.11" x2="556.76" y2="845.75"/><line class="cls-7" x1="582.72" y1="1235.21" x2="579.67" y2="1251.74"/><path class="cls-4" d="M869.23,1122.14a10,10,0,1,0,7.7,11.86c0-.08,0-.17.05-.26a9.87,9.87,0,0,0-7.75-11.6" transform="translate(-309.4 -77.57)"/><path class="cls-4" d="M847,1210.84a10,10,0,1,0,7.7,11.86c0-.08,0-.17,0-.26a9.86,9.86,0,0,0-7.74-11.6h0" transform="translate(-309.4 -77.57)"/><path class="cls-15" d="M899.94,1477c-11.92-22.71-16.41-34.6-21-59.38-15.94-86,14.92-171.25,52.84-247.84C966,1100.51,1006.85,1033.9,1060.5,978s89.75-54.64,161-137.88c81.15,207.11-9.1,386.43-119.11,532.59-24.44,32.48-57.76,60.25-92.39,82.45s-67.72,28.15-110,21.85" transform="translate(-309.4 -77.57)"/><path class="cls-4" d="M1150.29,1300.89l-21.83-12.33-147.13,43c3.92-7.12,25.26-44.74,25.26-44.74l23.27-5.19,17.76,10,59.94-18.26" transform="translate(-309.4 -77.57)"/><polyline class="cls-4" points="682.64 1117.94 704.54 1196.17 694.24 1214.41 738.38 1136.23 753.34 1109.74 734.71 1042.51"/><polyline class="cls-4" points="658.72 1160.7 680.61 1238.93 670.31 1257.17 714.45 1178.99 729.41 1152.5 710.78 1085.27"/><path class="cls-4" d="M1108.78,1196.11l-61,17.69" transform="translate(-309.4 -77.57)"/><ellipse class="cls-5" cx="1116.42" cy="1191.37" rx="10" ry="9.73" transform="translate(-779.31 1500.21) rotate(-60.55)"/><path class="cls-4" d="M1047,1102a10,10,0,1,0,3.43,13.72l.13-.23A9.86,9.86,0,0,0,1047,1102h0" transform="translate(-309.4 -77.57)"/><ellipse class="cls-5" cx="990.56" cy="1186.95" rx="10" ry="9.73" transform="translate(-839.44 1388.37) rotate(-60.55)"/><ellipse class="cls-5" cx="1117.09" cy="1269.47" rx="10" ry="9.73" transform="translate(-846.98 1540.49) rotate(-60.55)"/><line class="cls-4" x1="623.85" y1="1339.1" x2="651.16" y2="1290.72"/><polyline class="cls-4" points="623.85 1339.1 616.66 1297.54 600.6 1288.19"/><path class="cls-4" d="M988,1384.65l-11.66,20.64c-41.85,13.47-43.1,11.38-43.1,11.38L899.94,1477" transform="translate(-309.4 -77.57)"/><ellipse class="cls-5" cx="998.59" cy="1379.22" rx="12.72" ry="12.38" transform="translate(-1002.78 1493.09) rotate(-60.55)"/><ellipse class="cls-6" cx="966.81" cy="1357.25" rx="12.72" ry="12.38" transform="translate(-999.81 1454.25) rotate(-60.55)"/><ellipse class="cls-5" cx="899.22" cy="1359.71" rx="12.72" ry="12.38" transform="translate(-1036.31 1396.65) rotate(-60.55)"/><polyline class="cls-4" points="829.6 1240.12 810.34 1229.25 769.33 1242.71 749.25 1231.37"/><path class="cls-4" d="M1128.06,1335.49l-20.59-11.63-30.35,9.6-33.66-19s70.33,40.83,71.21,40.21" transform="translate(-309.4 -77.57)"/><polyline class="cls-4" points="791.5 1297.08 775.54 1288.07 767.72 1255.9"/><path class="cls-4" d="M1191.32,948.73a12.72,12.72,0,1,0,4.36,17.45c.06-.09.11-.19.17-.29a12.55,12.55,0,0,0-4.53-17.16" transform="translate(-309.4 -77.57)"/><ellipse class="cls-5" cx="1198.62" cy="1062.54" rx="10" ry="9.73" transform="translate(-625.34 1506.3) rotate(-60.55)"/><ellipse class="cls-5" cx="1177.9" cy="1097.29" rx="10" ry="9.73" transform="translate(-666.13 1505.92) rotate(-60.55)"/><polyline class="cls-4" points="743.14 1072.93 785.09 1047.46 869.55 893.77"/><polyline class="cls-4" points="822.96 980.19 817.07 950.81 813.26 931.85 805.81 894.71"/><line class="cls-4" x1="813.26" y1="931.85" x2="752.91" y2="898.55"/><line class="cls-4" x1="817.07" y1="950.81" x2="741.57" y2="909.16"/><line class="cls-4" x1="806.02" y1="1008.47" x2="879.82" y2="985.44"/><line class="cls-4" x1="785.51" y1="1047.25" x2="859.31" y2="1024.22"/><line class="cls-4" x1="806.53" y1="895.11" x2="774.11" y2="877.22"/><line class="cls-7" x1="671.93" y1="1253.94" x2="663.67" y2="1268.57"/><path class="cls-4" d="M1021.71,1143.79a10,10,0,1,0,3.43,13.72l.13-.23a9.86,9.86,0,0,0-3.56-13.49" transform="translate(-309.4 -77.57)"/><path class="cls-4" d="M971.83,1220.43a10,10,0,1,0,3.43,13.72l.13-.23a9.86,9.86,0,0,0-3.55-13.48h0" transform="translate(-309.4 -77.57)"/><path class="cls-16" d="M895.64,1484.37c17-25.35,23.83-38.84,32.42-67.57,29.81-99.69,4.16-204.46-30.92-299.89-31.71-86.25-71.49-170.24-127.82-243.27S639.24,738.68,551,704.37c-35.43,218,7,443.92,118.49,630.83,24.77,41.53,60.65,78.63,98.78,109.29s76.52,41.88,127.36,39.88" transform="translate(-309.4 -77.57)"/><path class="cls-4" d="M622,1244.15l27.38-11.8,168.55,69.55c-3.74-8.92-24.18-56.14-24.18-56.14l-26.87-9.1-22.28,9.59L676,1217" transform="translate(-309.4 -77.57)"/><polyline class="cls-4" points="513.21 1062.1 477.34 1151.84 487.2 1174.74 444.95 1076.63 430.63 1043.39 461.24 966.24"/><polyline class="cls-4" points="536.07 1115.72 500.19 1205.47 510.05 1228.36 467.8 1130.26 453.49 1097.01 484.1 1019.87"/><path class="cls-4" d="M684.46,1125.51l69.89,28.69" transform="translate(-309.4 -77.57)"/><ellipse class="cls-9" cx="676.04" cy="1118.86" rx="11.58" ry="11.9" transform="translate(-696.83 281.08) rotate(-23.3)"/><path class="cls-4" d="M769.51,1022a11.9,11.9,0,1,1-5.8,15.8l-.13-.3a11.73,11.73,0,0,1,5.93-15.5" transform="translate(-309.4 -77.57)"/><ellipse class="cls-9" cx="825.46" cy="1129.68" rx="11.58" ry="11.9" transform="translate(-688.92 341.07) rotate(-23.3)"/><ellipse class="cls-9" cx="665.29" cy="1211.16" rx="11.58" ry="11.9" transform="translate(-734.21 284.36) rotate(-23.3)"/><line class="cls-4" x1="554.57" y1="1331.19" x2="528.43" y2="1270.49"/><polyline class="cls-4" points="554.57 1331.19 568.37 1282.94 588.55 1273.94"/><path class="cls-4" d="M803.29,1363.91l11.15,25.9c47.79,21.26,49.54,19,49.54,19l31.66,75.56" transform="translate(-309.4 -77.57)"/><ellipse class="cls-9" cx="791.46" cy="1356.07" rx="14.73" ry="15.13" transform="translate(-781.24 346.08) rotate(-23.3)"/><ellipse class="cls-10" cx="831.86" cy="1334.15" rx="14.73" ry="15.13" transform="translate(-769.27 360.27) rotate(-23.3)"/><ellipse class="cls-9" cx="911.49" cy="1345.67" rx="14.73" ry="15.13" transform="translate(-767.34 392.71) rotate(-23.3)"/><polyline class="cls-4" points="323.82 1187.89 347.97 1177.48 394.77 1198.63 419.97 1187.78"/><path class="cls-4" d="M643.88,1287.91l25.84-11.13L704.4,1292l42.23-18.19s-88.38,39.34-89.35,38.48" transform="translate(-309.4 -77.57)"/><polyline class="cls-4" points="361.62 1260.12 381.64 1251.5 395 1214.44"/><path class="cls-4" d="M618.35,822.37a15.14,15.14,0,1,1-7.39,20.1l-.16-.37a14.94,14.94,0,0,1,7.55-19.73" transform="translate(-309.4 -77.57)"/><ellipse class="cls-9" cx="595.22" cy="956.01" rx="11.58" ry="11.9" transform="translate(-639 235.83) rotate(-23.3)"/><ellipse class="cls-9" cx="615.3" cy="999.76" rx="11.58" ry="11.9" transform="translate(-654.67 247.34) rotate(-23.3)"/><polyline class="cls-4" points="447.39 1001.15 401.02 965.67 320.7 773.12"/><polyline class="cls-4" points="364.79 881.27 375.5 847.28 382.42 825.33 395.97 782.35"/><line class="cls-4" x1="382.42" y1="825.33" x2="458.06" y2="793.63"/><line class="cls-4" x1="375.5" y1="847.28" x2="470.11" y2="807.63"/><line class="cls-4" x1="381.22" y1="916.88" x2="296.86" y2="880.24"/><line class="cls-4" x1="400.54" y1="965.37" x2="316.18" y2="928.73"/><line class="cls-4" x1="395.07" y1="782.73" x2="435.7" y2="765.7"/><line class="cls-7" x1="508.55" y1="1224.33" x2="516.46" y2="1242.69"/><path class="cls-4" d="M794.11,1074.71a11.9,11.9,0,1,1-5.8,15.8c0-.1-.09-.19-.13-.29a11.74,11.74,0,0,1,5.93-15.51h0" transform="translate(-309.4 -77.57)"/><path class="cls-4" d="M843.35,1171.72a11.9,11.9,0,1,1-5.8,15.8c0-.1-.09-.19-.13-.29a11.74,11.74,0,0,1,5.93-15.51h0" transform="translate(-309.4 -77.57)"/><ellipse class="cls-17" cx="137.69" cy="298.04" rx="9.94" ry="10.76"/><ellipse class="cls-17" cx="150.43" cy="275.42" rx="5.86" ry="6.35"/><ellipse class="cls-17" cx="183.22" cy="298.04" rx="4.97" ry="5.38"/><path class="cls-18" d="M474.94,350.72c-.86,3.27-1.74,6.52-2.61,9.78a2.5,2.5,0,1,0,4.82,1.33c.87-3.26,1.76-6.52,2.61-9.78a2.5,2.5,0,1,0-4.82-1.33Z" transform="translate(-309.4 -77.57)"/><path class="cls-18" d="M475.55,384c-3.07-.68-6.13-1.39-9.19-2.09a2.5,2.5,0,1,0-1.33,4.82c3.06.7,6.12,1.41,9.19,2.09a2.5,2.5,0,1,0,1.33-4.82Z" transform="translate(-309.4 -77.57)"/><ellipse class="cls-17" cx="171.16" cy="427.38" rx="8.05" ry="8.72"/><ellipse class="cls-17" cx="147.63" cy="337.85" rx="5.86" ry="6.35"/><ellipse class="cls-17" cx="153.49" cy="384.68" rx="4.97" ry="5.38"/><path class="cls-18" d="M468.94,415.47c1.47,3,2.91,6,4.37,9a2.53,2.53,0,0,0,3.42.9,2.57,2.57,0,0,0,.9-3.42c-1.46-3-2.9-6-4.37-9a2.52,2.52,0,0,0-3.42-.89,2.56,2.56,0,0,0-.9,3.42Z" transform="translate(-309.4 -77.57)"/><path class="cls-18" d="M470.27,452.83c-.2-3.38-.38-6.76-.57-10.15a2.5,2.5,0,0,0-5,0c.19,3.39.37,6.77.57,10.15a2.5,2.5,0,0,0,5,0Z" transform="translate(-309.4 -77.57)"/><ellipse class="cls-17" cx="177.09" cy="388.81" rx="6.12" ry="6.63"/><ellipse class="cls-17" cx="186.45" cy="454.37" rx="4.72" ry="5.12"/><path class="cls-18" d="M518.33,545.07l-7.2,3.43a2.5,2.5,0,0,0-.9,3.42,2.56,2.56,0,0,0,1.49,1.15,2.87,2.87,0,0,0,1.93-.25c2.4-1.15,4.81-2.28,7.2-3.44a2.5,2.5,0,0,0-.59-4.57h0A2.81,2.81,0,0,0,518.33,545.07Z" transform="translate(-309.4 -77.57)"/><path class="cls-18" d="M456.6,492.52c2.62.13,5.24.29,7.86.44a2.5,2.5,0,0,0,0-5c-2.62-.15-5.24-.31-7.86-.44a2.51,2.51,0,0,0-2.5,2.5A2.55,2.55,0,0,0,456.6,492.52Z" transform="translate(-309.4 -77.57)"/><path class="cls-18" d="M476.67,527.91q-3-3-6.06-6l-2.09-2.07a2.5,2.5,0,0,0-3.53,3.54c1.86,1.84,3.71,3.7,5.58,5.54l2.56,2.51a2.5,2.5,0,1,0,3.6-3.47l-.06-.06Z" transform="translate(-309.4 -77.57)"/><ellipse class="cls-17" cx="174.36" cy="490.07" rx="3.2" ry="3.46"/><ellipse class="cls-17" cx="189.64" cy="505.43" rx="3.85" ry="4.17"/><ellipse class="cls-17" cx="203.86" cy="520.82" rx="4.86" ry="5.27"/><ellipse class="cls-17" cx="220.76" cy="529.26" rx="4.86" ry="5.27"/><path class="cls-18" d="M434.63,398.37a145.28,145.28,0,0,1,25.88.4,180.53,180.53,0,0,1,25.25,4.83c16.55,4.19,33.2,8.5,49.27,14.31,15.74,5.7,30.6,13.5,45,22a401.06,401.06,0,0,1,39.62,26.91q9.48,7.31,18.51,15.18,4.61,4,9.09,8.16c2.47,2.28,5.14,5.47,8.79,5.57a4.59,4.59,0,0,0,4.25-2.4c1.56-2.81-2.76-5.34-4.32-2.52-.27.48.08.07.32-.08s0,0-.15,0a4,4,0,0,1-1.6-.73,32.89,32.89,0,0,1-3.92-3.54q-4.41-4.06-8.93-8-8.93-7.77-18.3-15a404.56,404.56,0,0,0-39.12-26.83c-14.2-8.53-28.87-16.37-44.33-22.26-15.74-6-32.11-10.21-48.38-14.48a226.53,226.53,0,0,0-24.84-5.38A148.23,148.23,0,0,0,440.94,393q-3.15.11-6.29.34a2.55,2.55,0,0,0-2.5,2.5,2.51,2.51,0,0,0,2.5,2.5Z" transform="translate(-309.4 -77.57)"/><path class="cls-18" d="M447.05,432.15c29.26,9.07,59.9,12,89.56,19.39a243.48,243.48,0,0,1,76.24,33.59q9.67,6.45,18.72,13.78c1.46,1.19,2.92,2.4,4.36,3.63,1.64,1.4,3.66,3.41,6,2.17a3,3,0,0,0,1.24-4.06,2.88,2.88,0,0,0-.65-.83,2.77,2.77,0,0,0-4.76,1.95c.06,3.21,5.06,3.22,5,0v-.18l-.34,1.26.06-.1L641,503.9h-1.21l-1.21-1.67.34-1.26-.11.17.9-.9-.3.18,1.27-.34c.15,0,.47.34-.21-.2-.34-.27-.66-.57-1-.85l-1.66-1.41q-2-1.68-4-3.31-3.9-3.13-7.92-6.11-7.91-5.86-16.27-11.11a245.08,245.08,0,0,0-34.27-17.88,249.06,249.06,0,0,0-37.81-12.57c-13.84-3.42-27.88-5.88-41.9-8.46-15.88-2.93-31.75-6-47.2-10.82-3.08-1-4.4,3.87-1.33,4.82Z" transform="translate(-309.4 -77.57)"/><path class="cls-18" d="M444.72,472c22.57,12.54,48.49,15.72,73.85,17.29,24.07,1.48,48.45,1.74,71.83,8.34,12.64,3.56,24.82,9,35.23,17.14a2.56,2.56,0,0,0,3.53,0,2.5,2.5,0,0,0,0-3.53c-19.4-15.12-43.34-21.28-67.39-24-24.67-2.81-49.67-2-74.19-6.18-14-2.38-27.84-6.41-40.33-13.36-2.82-1.56-5.34,2.76-2.53,4.32Z" transform="translate(-309.4 -77.57)"/><path class="cls-18" d="M451.83,533.88c11.49,16.35,29.72,26.08,48.74,31A123.22,123.22,0,0,0,517.94,568c5.83.63,11.7.77,17.56,1,10.49.31,21.18.73,31.09,4.57,8.88,3.44,17.13,9.84,20.89,18.81a2.57,2.57,0,0,0,3.08,1.74A2.51,2.51,0,0,0,592.3,591a39.7,39.7,0,0,0-18.46-19.67c-9.18-4.84-19.39-6.47-29.65-7.07-11.65-.67-23.28-.39-34.8-2.58a104.29,104.29,0,0,1-29.08-9.8c-9.45-5-18-11.76-24.17-20.54a2.57,2.57,0,0,0-3.42-.9,2.52,2.52,0,0,0-.89,3.42Z" transform="translate(-309.4 -77.57)"/><path class="cls-18" d="M526.51,414.43a364.38,364.38,0,0,0,40.64,39.78l12.79,10.86a2.57,2.57,0,0,0,3.54,0,2.54,2.54,0,0,0,0-3.54c-14.69-12.45-29.44-24.75-42.71-38.74Q535.25,417,530,410.9a2.52,2.52,0,0,0-3.54,0,2.54,2.54,0,0,0,0,3.53Z" transform="translate(-309.4 -77.57)"/><path class="cls-18" d="M522.2,488.6c8.27,12.15,16.54,24.3,24.08,36.92C553.45,537.52,560,549.9,567,562c4,6.82,8.1,13.55,12.56,20.06a2.57,2.57,0,0,0,3.42.9,2.53,2.53,0,0,0,.9-3.42c-8-11.64-14.86-24-21.74-36.29s-14.06-24.73-21.86-36.65c-4.5-6.9-9.14-13.71-13.77-20.52-1.8-2.64-6.14-.14-4.32,2.53Z" transform="translate(-309.4 -77.57)"/><path class="cls-18" d="M630.68,617.3c-14.82,10.28-33.33,14.27-51.13,14.54-18.45.28-36.7-3.37-54.38-8.38-5-1.43-10-3-15-4.6a11,11,0,0,0-6-.65,4.61,4.61,0,0,0-3.65,4.43c-.15,3.21,4.85,3.21,5,0,0,.22-.23.3-.29.46s.23,0,.08,0h.19a4,4,0,0,1,1.38,0c2,.45,4,1.27,6,1.9q6.5,2.06,13.06,3.88a243.07,243.07,0,0,0,26.54,5.88c17.81,2.81,36.13,3.16,53.72-1.27a82.71,82.71,0,0,0,27.07-11.84,2.56,2.56,0,0,0,.89-3.42,2.53,2.53,0,0,0-3.42-.9Z" transform="translate(-309.4 -77.57)"/><path class="cls-18" d="M636,624.75c-18,13.83-39.07,23.59-60.93,29.56s-44.93,8.34-67.25,4.7a113.6,113.6,0,0,1-17.54-4.28c-2.82-.93-7.19-3.28-9.35.06-2.25,3.5,3,8,5.53,4.08,1.78-2.7-2.55-5.2-4.32-2.53l-.12.18.9-.89.29-.11h1.33c1.73.26-.29,2.3,0,2.52a7.71,7.71,0,0,0,1.62.54c1.2.44,2.41.85,3.63,1.25,2.34.75,4.71,1.43,7.1,2a126.49,126.49,0,0,0,15.46,2.8,150.14,150.14,0,0,0,31.93.32,191.36,191.36,0,0,0,63.8-17.52,164.84,164.84,0,0,0,30.45-18.38,2.58,2.58,0,0,0,.9-3.42,2.53,2.53,0,0,0-3.42-.9Z" transform="translate(-309.4 -77.57)"/><path class="cls-18" d="M635.52,648.67A481.53,481.53,0,0,1,587,692.47a431.08,431.08,0,0,1-55.21,37.37,281.51,281.51,0,0,1-31.25,15.32,2.57,2.57,0,0,0-1.74,3.08A2.5,2.5,0,0,0,501.9,750c20-8.21,39-18.94,57-30.93a488.51,488.51,0,0,0,53.91-41.68c9.06-8,17.84-16.43,26.25-25.17C641.29,649.88,637.76,646.34,635.52,648.67Z" transform="translate(-309.4 -77.57)"/><path class="cls-18" d="M625.26,693.82A212.29,212.29,0,0,1,590.14,745a200.08,200.08,0,0,1-47.43,37.74c-4.87,2.77-9.86,5.29-14.94,7.64a6,6,0,0,0-3.16,2.73,3.36,3.36,0,0,0,1.31,4.57l.11.06c3,1.36,6.46-2.22,3.87-4.86-2.25-2.3-5.79,1.23-3.53,3.53l-.2-.23-.34-1.27V795l.34-1.27a1.71,1.71,0,0,1,.87-.67c.81.1,1,.08.62-.06l1.1.64c1.59,1.29-.55,2.1.75,1.38.47-.26,1-.47,1.48-.69,1-.48,2.07-1,3.1-1.47q3.17-1.53,6.29-3.18,6.07-3.24,11.92-6.9a204.32,204.32,0,0,0,22.76-16.6,216.12,216.12,0,0,0,54.52-69.83,2.56,2.56,0,0,0-.9-3.42,2.53,2.53,0,0,0-3.42.9Z" transform="translate(-309.4 -77.57)"/><path class="cls-18" d="M628,717.75a244.09,244.09,0,0,1-21.08,39.41,232.34,232.34,0,0,1-27.35,34,225.66,225.66,0,0,1-18.14,16.7,2.52,2.52,0,0,0-.39,3,2.61,2.61,0,0,0,2.82,1.15l4.12-.56a2.54,2.54,0,0,0,1.75-3.08,2.57,2.57,0,0,0-3.08-1.75l-4.12.57,2.43,4.18a228.27,228.27,0,0,0,31-31.09,243.08,243.08,0,0,0,25.17-37,246.23,246.23,0,0,0,11.17-23,2.59,2.59,0,0,0-.9-3.42,2.53,2.53,0,0,0-3.42.9Z" transform="translate(-309.4 -77.57)"/><path class="cls-18" d="M557.61,662.94a227.85,227.85,0,0,0,28.83,9.19c9.61,2.36,19.85,4.6,29.61,1.8,3.09-.88,1.78-5.71-1.32-4.82-9.19,2.63-18.89.22-27.9-2a227.13,227.13,0,0,1-27.89-9,2.52,2.52,0,0,0-3.08,1.74,2.57,2.57,0,0,0,1.75,3.08Z" transform="translate(-309.4 -77.57)"/><path class="cls-19" d="M644.19,812.11c-3,5-12,18.33-29.27,24.59-17.08,6.16-41.35,5.08-52.11-8-5.87-7.13-4.7-14.16-13.47-19.91-5.14-3.37-11.92-5.13-17-6.44-7.28-1.88-9.17-1.45-12.29-2.34-13.24-3.78-14.1-21.57-28.69-45.08-10.39-16.75-12.73-12.18-18.74-24.59-11.59-23.94-6.4-48.15-5.2-53.26,1.56-6.6,4.67-14.43,12.36-29.36l16.56-32.16,4.18,1.32c-16.84-3.89-7.21-1.57-21-13.8-5.41-4.81-8.37-12.14-11.89-18.7q-11-20.43-21.24-41.26c-5.06-10.23-10.07-20.72-12.09-32.12s-.7-24,5.92-33.16c.91-1.27,2-2.55,2.15-4.15.27-2.19-1.14-4.14-2.29-6-12.74-20.28,10.63-44.49-6.15-61-11.8-11.58-19.14-36.72-17.33-51.79,1.06-8.84,7.63-16,15.15-19.6s15.94-4.23,24.16-4.57c21.34-.88,43.22,0,63.16,8.24,24.66,10.25,40.14,25.35,48,33.3,28.76,29,68.5,65,124.19,112.57" transform="translate(-309.4 -77.57)"/><path class="cls-18" d="M639.87,809.58a49.15,49.15,0,0,1-6,8.2,52,52,0,0,1-12.71,10.5c-10.25,6-22.91,8.15-34.65,6.64a36.63,36.63,0,0,1-14.84-5c-4.67-3-7.2-7.34-9.38-12.38-2.73-6.29-6.68-11.22-12.86-14.45a74.13,74.13,0,0,0-19.77-6.46q-1.71-.33-3.42-.57l-2.45-.33c-.6-.08.27,0,.32,0a4,4,0,0,1-.76-.12,22.19,22.19,0,0,1-2.41-.57c-.23-.07-1.31-.51-.59-.19a11,11,0,0,1-1.44-.76,16.46,16.46,0,0,1-3.6-3.32,42.92,42.92,0,0,1-3.28-5.44c-2.68-5.2-4.84-10.66-7.29-16a147.19,147.19,0,0,0-11-20.1,68,68,0,0,0-9.52-11.55c-1.14-1.09-2.23-2.2-3.31-3.36-.64-.7,0,0-.21-.24a11.78,11.78,0,0,1-.76-1.09,33.15,33.15,0,0,1-1.75-2.92c-6.52-12-8.62-26.09-7.68-39.62.09-1.31.2-2.61.35-3.91s.11-1.06.35-2.52.53-3.09.87-4.62A68.21,68.21,0,0,1,475.33,669c5.22-13.34,12.78-26.42,19.42-39.31l6-11.61L495,620.37l4.18,1.33,2.65-9.65c-2.09-.48-4.2-1-6.29-1.49-.66-.16-1.33-.34-2-.54-.26-.08-.52-.18-.78-.25-1.16-.29.85.41.1.06s-.78-.93-.05.12a4,4,0,0,0-.63-.61c-.34,0-1-1.18-.07,0-.52-.67-1-1.36-1.56-2a94.8,94.8,0,0,0-8.35-8.54c-3.78-3.7-6.05-8.67-8.41-13.32-6-11.76-12.3-23.33-18.24-35.1-5.73-11.37-12-22.8-15.23-35.19-2.63-10.06-3.1-21.67,1.92-31.11,1.17-2.2,2.9-4.09,4-6.31a11,11,0,0,0-.53-10.4c-2.09-3.84-4.12-7.19-4.49-11.5-.77-8.69,2.14-17.05,3.38-25.61,1.36-9.41.49-18.65-6.16-26a55.37,55.37,0,0,1-7.53-9.78,70.66,70.66,0,0,1-5.81-13.25c-2.6-8-4.67-17.26-3.56-25.65,1.35-10.3,11-16.25,20.34-18.29,5.8-1.26,11.8-1.4,17.71-1.58,6.12-.19,12.25-.22,18.37.06,12.38.56,24.69,2.48,36.35,6.79A125.14,125.14,0,0,1,544,358.79c12.55,9.08,23,20.69,34.07,31.42,30.58,29.58,62.54,57.72,94.77,85.48q7.46,6.42,14.93,12.8a5.14,5.14,0,0,0,7.07,0c1.79-1.8,2.06-5.31,0-7.07-35-29.89-69.76-60.16-103.08-91.93-11.6-11.12-22.47-23.12-34.86-33.33a144.26,144.26,0,0,0-27.83-18.06,119.46,119.46,0,0,0-37.39-11.17,209.45,209.45,0,0,0-38.38-1c-12,.64-24.54,2.86-33.33,11.82-7.69,7.84-9.4,18-8.24,28.54a88.32,88.32,0,0,0,8.91,30.13,57.41,57.41,0,0,0,8.11,12.12c2.85,3.21,5.21,5.61,6.13,9.7,1.71,7.56-1.45,16.57-2.76,24.63a50.67,50.67,0,0,0-.75,14.23,35,35,0,0,0,5.3,14.55,4.22,4.22,0,0,1,.83,1.78c0-.54-.17-.2-.22,0a20.09,20.09,0,0,1-2.24,3.24,39.61,39.61,0,0,0-4,8.26,49.53,49.53,0,0,0-2.6,17.62c.3,13.19,5.18,25.57,10.77,37.32,5.89,12.35,12.19,24.52,18.55,36.64,3,5.63,5.93,11.26,8.86,16.91a48.15,48.15,0,0,0,10,13.84,65.38,65.38,0,0,1,4.75,4.67c.5.54,1,1.1,1.45,1.66l.66.83c-.89-1.11-.25-.32-.08-.09a13,13,0,0,0,4.86,4.4c3.4,1.59,7.27,2.2,10.9,3,6.27,1.45,8.8-7.7,2.65-9.65l-4.17-1.32a5,5,0,0,0-5.64,2.3c-7.77,15.09-16.06,30-23.08,45.47-3.58,7.86-6.46,15.78-7.68,24.35-1.93,13.6-1.22,27.68,3.23,40.75,2.09,6.13,4.76,12.33,8.9,17.38,2.24,2.73,5,4.93,7.34,7.59,9.2,10.57,14.5,24.17,20.21,36.77,4,8.81,9.29,18.11,19.7,19.91.6.11,1.21.18,1.82.26l1.28.17a9.56,9.56,0,0,0,1.34.21c.74.12,1.48.26,2.22.41,3.44.71,6.88,1.63,10.23,2.68,6.31,2,11.87,4.73,14.87,10.88,2.82,5.78,5,11.38,10.12,15.65A40.34,40.34,0,0,0,579,843.65a65.62,65.62,0,0,0,38.41-2.57,63,63,0,0,0,28.42-22.4c.94-1.31,1.82-2.66,2.66-4,3.33-5.52-5.31-10.55-8.64-5Z" transform="translate(-309.4 -77.57)"/><ellipse class="cls-20" cx="137.69" cy="298.04" rx="9.94" ry="10.76"/><ellipse class="cls-20" cx="150.43" cy="275.42" rx="5.86" ry="6.35"/><ellipse class="cls-20" cx="183.22" cy="298.04" rx="4.97" ry="5.38"/><path class="cls-18" d="M474.94,350.72c-.86,3.27-1.74,6.52-2.61,9.78a2.5,2.5,0,1,0,4.82,1.33c.87-3.26,1.76-6.52,2.61-9.78a2.5,2.5,0,1,0-4.82-1.33Z" transform="translate(-309.4 -77.57)"/><path class="cls-18" d="M475.55,384c-3.07-.68-6.13-1.39-9.19-2.09a2.5,2.5,0,1,0-1.33,4.82c3.06.7,6.12,1.41,9.19,2.09a2.5,2.5,0,1,0,1.33-4.82Z" transform="translate(-309.4 -77.57)"/><ellipse class="cls-20" cx="171.16" cy="427.38" rx="8.05" ry="8.72"/><ellipse class="cls-20" cx="149.76" cy="337.85" rx="5.86" ry="6.35"/><ellipse class="cls-20" cx="153.49" cy="384.68" rx="4.97" ry="5.38"/><path class="cls-18" d="M468.94,415.47c1.47,3,2.91,6,4.37,9a2.53,2.53,0,0,0,3.42.9,2.57,2.57,0,0,0,.9-3.42c-1.46-3-2.9-6-4.37-9a2.52,2.52,0,0,0-3.42-.89,2.56,2.56,0,0,0-.9,3.42Z" transform="translate(-309.4 -77.57)"/><path class="cls-18" d="M478.08,452.83c0-2.62.12-5.24.18-7.86a2.5,2.5,0,0,0-5,0c-.06,2.62-.14,5.24-.18,7.86a2.5,2.5,0,0,0,5,0Z" transform="translate(-309.4 -77.57)"/><ellipse class="cls-20" cx="177.09" cy="388.81" rx="6.12" ry="6.63"/><ellipse class="cls-20" cx="186.45" cy="454.37" rx="4.72" ry="5.12"/><path class="cls-18" d="M518.33,545.07l-7.2,3.43a2.5,2.5,0,0,0-.9,3.42,2.56,2.56,0,0,0,1.49,1.15,2.87,2.87,0,0,0,1.93-.25c2.4-1.15,4.81-2.28,7.2-3.44a2.5,2.5,0,0,0-.59-4.57h0A2.81,2.81,0,0,0,518.33,545.07Z" transform="translate(-309.4 -77.57)"/><path class="cls-18" d="M456.6,492.52c2.62.13,5.24.29,7.86.44a2.5,2.5,0,0,0,0-5c-2.62-.15-5.24-.31-7.86-.44a2.51,2.51,0,0,0-2.5,2.5A2.55,2.55,0,0,0,456.6,492.52Z" transform="translate(-309.4 -77.57)"/><path class="cls-18" d="M476.67,527.91q-3-3-6.06-6l-2.09-2.07a2.5,2.5,0,0,0-3.53,3.54c1.86,1.84,3.71,3.7,5.58,5.54l2.56,2.51a2.5,2.5,0,1,0,3.6-3.47l-.06-.06Z" transform="translate(-309.4 -77.57)"/><ellipse class="cls-17" cx="174.36" cy="490.07" rx="3.2" ry="3.46"/><ellipse class="cls-17" cx="189.64" cy="505.43" rx="3.85" ry="4.17"/><ellipse class="cls-17" cx="203.86" cy="520.82" rx="4.86" ry="5.27"/><ellipse class="cls-17" cx="220.76" cy="529.26" rx="4.86" ry="5.27"/><path class="cls-21" d="M434.63,399.57a145.28,145.28,0,0,1,25.88.4,180.24,180.24,0,0,1,24.92,4.79c16.55,4.19,33.2,8.49,49.26,14.31,15.62,5.65,30.39,13.42,44.68,21.92A401.06,401.06,0,0,1,619,467.9c6,4.66,12.34,9.84,18.25,15q4.6,4,9.1,8.16c2.77,2.56,5.6,5.79,9.67,5.94a5.8,5.8,0,0,0,5.32-3A3.75,3.75,0,0,0,655,490a2.4,2.4,0,0,0-.16.27c-.15.27-.42.53.24-.12a2.1,2.1,0,0,1,.83-.54c.14-.07.88,0,.22,0,.07,0,.66.21.29,0-.12,0-.94-.32-.58-.16s-.54-.33-.72-.43c-.58-.34-.18-.12,0,0l-.36-.32-.94-.88-2.33-2.16q-4.39-4.07-8.92-8-8.94-7.77-18.3-15a409.87,409.87,0,0,0-39.38-27c-14.26-8.58-29-16.45-44.61-22.38S508.19,403,491.92,398.75a226.57,226.57,0,0,0-24.84-5.39,150.45,150.45,0,0,0-26.14-1.63q-3.15.11-6.29.34a3.82,3.82,0,0,0-3.75,3.75c.08,1.91,1.65,3.9,3.75,3.75Z" transform="translate(-309.4 -77.57)"/><path class="cls-21" d="M446.72,433.37c29.26,9.06,59.9,12,89.56,19.39,7,1.74,14,3.75,20.81,6.09,6.38,2.18,12.7,4.66,18.58,7.27a245.87,245.87,0,0,1,36.55,20.1q9.67,6.45,18.46,13.58c1.47,1.19,2.93,2.4,4.36,3.63,2.12,1.8,4.58,4,7.52,2.36a4.22,4.22,0,0,0,.85-6.84c-2.55-2.41-7-.86-6.9,2.83a3.75,3.75,0,0,0,7.5,0v-.18l-.52,1.89.07-.1-2.24,1.72h-1.88l-2.13-2.88.51-1.89-.11.16,1.35-1.34-.3.18,1.9-.51c.41,0,1.48.82.67.17l-1-.85-1.67-1.41c-1.33-1.12-2.67-2.23-4-3.32q-4-3.23-8.17-6.3-7.9-5.87-16.27-11.11a244.86,244.86,0,0,0-34.28-17.91,249.8,249.8,0,0,0-38.13-12.73c-13.87-3.39-27.87-5.84-41.87-8.43-15.88-2.92-31.76-6-47.2-10.82a3.79,3.79,0,0,0-4.62,2.62,3.84,3.84,0,0,0,2.62,4.62Z" transform="translate(-309.4 -77.57)"/><path class="cls-21" d="M444.09,473.06c22.77,12.65,48.89,15.87,74.48,17.46,24.32,1.5,48.16,1.71,71.5,8.29a114,114,0,0,1,18,6.68q4.39,2.11,8.57,4.64,2.1,1.28,4.13,2.67c.68.46,1.36.94,2,1.42l1,.74.89.68c1.6,1.24,3.75,1.55,5.31,0,1.29-1.3,1.6-4.06,0-5.31a107.2,107.2,0,0,0-32.56-17.09c-11.57-3.81-23.63-5.91-35.72-7.29-24.53-2.79-49.89-2.07-73.86-6.13-14.07-2.39-27.71-6.39-40-13.24a3.75,3.75,0,0,0-3.79,6.48Z" transform="translate(-309.4 -77.57)"/><path class="cls-21" d="M446.15,535.7a128.41,128.41,0,0,0,30.93,21.87,114.8,114.8,0,0,0,28.62,9.58,181.1,181.1,0,0,0,33,3.64c3.83,0,7.68-.09,11.5.15a23.81,23.81,0,0,1,2.52.22c.24,0,1.07.07-.08,0a3.65,3.65,0,0,1,.46.07c.55.08,1.1.17,1.65.28a42.26,42.26,0,0,1,5.31,1.38c1,.32,2,.68,2.92,1.07.18.07,1,.44.08,0l1,.44,1.52.73a52.17,52.17,0,0,1,6.83,4.14l.7.51c.1.07,1.18.9.65.48.58.45,1.15.92,1.71,1.39q1.95,1.65,3.76,3.44a77.35,77.35,0,0,1,7.43,8.44c1.23,1.62,3.24,2.46,5.13,1.35,1.59-.93,2.58-3.51,1.35-5.13-7-9.29-15.68-17.72-26.53-22.37a46.71,46.71,0,0,0-11.5-3.42,76.59,76.59,0,0,0-11.33-.67c-4.82,0-9.63,0-14.44-.4-3.21-.23-6.42-.58-9.61-1-.3,0-1.47-.29-.31,0-.52-.11-1.08-.14-1.6-.22-1.32-.19-2.63-.39-3.94-.6a140.56,140.56,0,0,1-18.24-4.1c-1.78-.54-3.55-1.13-5.29-1.77-1-.34-1.88-.7-2.82-1.07l-1.6-.66c.74.31.23.1.08,0L484.9,553a119.7,119.7,0,0,1-33.45-22.62,3.83,3.83,0,0,0-5.3,0,3.78,3.78,0,0,0,0,5.31Z" transform="translate(-309.4 -77.57)"/><path class="cls-21" d="M525.63,415.37a363.42,363.42,0,0,0,40.64,39.77L579.08,466a3.85,3.85,0,0,0,5.3,0c1.34-1.34,1.55-4,0-5.3C569.69,448.25,555,436,541.67,422q-5.5-5.82-10.74-11.9a3.75,3.75,0,0,0-5.3,5.31Z" transform="translate(-309.4 -77.57)"/><path class="cls-21" d="M521.71,490q21.79,26.16,41.84,53.74,19.35,26.67,37,54.52,9.38,14.81,18.24,29.92a3.75,3.75,0,1,0,6.48-3.78h0q-16.1-27.42-33.83-53.81Q572.32,542.11,551.32,515,539.45,499.6,527,484.68c-1.3-1.55-4-1.34-5.3,0a3.84,3.84,0,0,0,0,5.31Z" transform="translate(-309.4 -77.57)"/><path class="cls-21" d="M658.47,594a104,104,0,0,1-8.22,9.33c-1.74,1.75-3.54,3.43-5.42,5q-1.5,1.26-3,2.46c-1,.8.57-.42-.38.3l-.59.44q-1,.78-2.1,1.53a81.48,81.48,0,0,1-30.47,13.32,86.57,86.57,0,0,1-19.4,1.9A104,104,0,0,1,571,626.46c-12-2.18-23.72-5.8-35.61-8.56-6.28-1.46-12.67-2.74-19.06-3.63a29.32,29.32,0,0,0-8.57-.24,19.42,19.42,0,0,0-8.42,3.57,3.86,3.86,0,0,0-1.35,5.13c.95,1.62,3.48,2.54,5.13,1.35a19.33,19.33,0,0,1,2.24-1.43l1-.52c-.14.07-.61.22,0,0a9.64,9.64,0,0,1,3.07-.82h2.1a7.69,7.69,0,0,1,1.45.09l.93.1.66.07h0c5.59.83,11.17,1.89,16.69,3.12,12.06,2.69,23.88,6.4,36,8.73,13,2.49,26.08,3.17,39.16.92a88.87,88.87,0,0,0,33.12-12.87,98.86,98.86,0,0,0,24.06-22.19c1.24-1.59,1.55-3.75,0-5.3-1.3-1.3-4-1.61-5.3,0Z" transform="translate(-309.4 -77.57)"/><path class="cls-21" d="M657.52,613.87a168.7,168.7,0,0,1-23.35,16.66q-5.34,3.15-10.93,5.84c-1.69.81-3.4,1.58-5.11,2.33l-.63.27h0l-1.23.5c-.86.35-1.71.69-2.58,1a129.17,129.17,0,0,1-17.43,5.29c-3,.69-6,1.27-9.07,1.79-1.6.27-3.21.53-4.81.77l-2.48.35-.58.08-1.42.19c-14.39,1.85-28.89,2.79-43.38,3.35-12.07.47-24.16.68-36.24.46-3.38-.06-6.77-.12-10.13-.39-.44,0-.88-.1-1.31-.13-.25,0,1.25.23.49.06-.41-.09-.83-.16-1.25-.22-2.66-.39-5.81,0-6.61,3.14a5.26,5.26,0,0,0,3.95,6.3,4.5,4.5,0,0,0,.64.11,4.21,4.21,0,0,0,2.88-1.25,6.67,6.67,0,0,0,.67-.91c.11-.26-1.87,1.64-1.32,1.31a3.33,3.33,0,0,1-1.79.49h.4c.41,0-1.36-.23-.51-.06s1.87.38,2.8.6c3.41.8,6.81,1.67,10.21,2.52,11.14,2.77,22.32,5.39,33.58,7.63a367.84,367.84,0,0,0,42.3,6.18c12.91,1,26.2,1.24,38.93-1.51,14.23-3.07,27.12-10.41,38.18-19.72a127.77,127.77,0,0,0,10.55-10,3.75,3.75,0,1,0-5.3-5.31h0a107.37,107.37,0,0,1-21.19,17.78,85.62,85.62,0,0,1-9.84,5.32l-1.14.51-.56.24c.7-.31.2-.08,0,0l-2.47,1c-1.39.52-2.8,1-4.22,1.44a76,76,0,0,1-8,2l-2.11.37-1.07.16-.54.08c-.94.14.86-.1-.09,0-1.49.19-3,.35-4.48.48a151,151,0,0,1-20.18.19c-7.16-.36-14.29-1.11-21.4-2-.59-.07.6.09,0,0l-.66-.09-1.3-.19-2.77-.4c-1.78-.27-3.57-.55-5.35-.84q-5.25-.85-10.48-1.85c-12-2.26-23.9-5-35.74-7.89-3.83-1-7.65-1.92-11.48-2.85-1.92-.47-4.16-1.24-6.16-1.19a4,4,0,0,0-3.49,2.06l1.34-1.34-.21.15,2.89-.38c1.51,1.48,2,1.83,1.5,1a2.23,2.23,0,0,1,.21,1.73l-1,1.66c.68-.85-1.56,1.15-1.76.71h.51c.7,0-.73-.16.13,0l.75.15c.65.11,1.31.19,2,.25,1.12.12,2.24.17,3.37.23,3.87.18,7.74.25,11.61.28,12,.11,24-.14,36-.67,13.75-.61,27.51-1.58,41.15-3.4,11.94-1.59,23.7-3.88,35-8.08a159.27,159.27,0,0,0,42.68-24.39c1.92-1.5,3.81-3,5.67-4.62a3.78,3.78,0,0,0,0-5.31,3.83,3.83,0,0,0-5.3,0Z" transform="translate(-309.4 -77.57)"/><path class="cls-21" d="M655.63,641.59q-10.7,11.25-22.1,21.78-6.31,5.77-12.84,11.28-3.5,3-7.06,5.83l-3.34,2.67-1.78,1.4-1,.76-.55.43a418.48,418.48,0,0,1-70.2,43.87A406.66,406.66,0,0,1,497,746.77a3.85,3.85,0,0,0-2.62,4.61c.5,1.83,2.7,3.33,4.61,2.62a424,424,0,0,0,136.49-82.34q13.22-11.82,25.4-24.71a3.75,3.75,0,1,0-5.3-5.31h0Z" transform="translate(-309.4 -77.57)"/><path class="cls-21" d="M653.23,665.64A195.76,195.76,0,0,1,632,701.7l-.66.87-.29.38c-.47.6-.95,1.21-1.43,1.8q-1.35,1.69-2.75,3.33c-1.77,2.08-3.59,4.12-5.48,6.1a136.27,136.27,0,0,1-10.76,10.19c-.86.73-1.73,1.44-2.61,2.15l-1.25,1c-.17.13.53-.41-.06,0l-.72.55c-1.63,1.23-3.3,2.43-5,3.58-5.81,4-11.53,8-17.06,12.3-11.56,9-22.42,18.92-33.74,28.24-5.64,4.64-11,8.84-17,13-2.63,1.82-5.55,3.37-8,5.44a5.46,5.46,0,0,0-2.11,5.35,4.46,4.46,0,0,0,5.52,3.08,3.7,3.7,0,0,0,.78-.3,4.15,4.15,0,0,0,2.32-5.39,4.21,4.21,0,0,0-.92-1.4,3.75,3.75,0,0,0-5.31,5.31h0l.16.17-1-1.66v.15l.38-2.89a2.64,2.64,0,0,1,3.59-1l.06,0L530,793.4l-.14-.35.51,1.89-.35,1.27c-.35.4-.39.45-.11.14.11-.09.46-.54.61-.54-.2,0-.67.45-.13.13l.47-.3c1.48-1,3-1.91,4.4-2.9,2.84-1.93,5.63-3.94,8.37-6,5.7-4.29,11.23-8.8,16.68-13.39,10.36-8.74,20.79-18.08,31.38-26.12,8.11-6.15,16.82-11.39,24.59-18a144.39,144.39,0,0,0,20.43-21.58,197.44,197.44,0,0,0,22.91-38.26,3.88,3.88,0,0,0-1.35-5.14c-1.62-.94-4.28-.5-5.13,1.35Z" transform="translate(-309.4 -77.57)"/><path class="cls-21" d="M651.75,683.17a410.11,410.11,0,0,1-27,48.1,400.41,400.41,0,0,1-40.11,51.61Q573.11,795.44,560.55,807a3.78,3.78,0,0,0-.59,4.54,4,4,0,0,0,4.23,1.73l4.12-.57c2-.28,3.11-2.84,2.62-4.61-.59-2.17-2.6-2.9-4.61-2.62l-4.12.57,3.65,6.26a405.59,405.59,0,0,0,43.59-47,413.82,413.82,0,0,0,35-51.91q7.37-13,13.77-26.42a3.85,3.85,0,0,0-1.35-5.13,3.79,3.79,0,0,0-5.13,1.34Z" transform="translate(-309.4 -77.57)"/><path class="cls-21" d="M557.28,664.14a225.77,225.77,0,0,0,28.82,9.23c9.83,2.42,20.3,4.67,30.29,1.81a3.76,3.76,0,0,0-1.65-7.34l-.35.1c-8.89,2.55-18.3.2-27.22-2a227.83,227.83,0,0,1-27.9-9c-1.83-.72-4.2.79-4.61,2.62a3.85,3.85,0,0,0,2.62,4.61Z" transform="translate(-309.4 -77.57)"/><ellipse class="cls-17" cx="259.87" cy="569.4" rx="3.2" ry="3.46"/><ellipse class="cls-17" cx="239.03" cy="568.55" rx="3.85" ry="4.17"/><ellipse class="cls-17" cx="218.93" cy="568.54" rx="4.86" ry="5.27"/><ellipse class="cls-17" cx="201.47" cy="561.56" rx="4.86" ry="5.27"/><circle class="cls-17" cx="770.36" cy="276.48" r="11.16"/><circle class="cls-17" cx="756.05" cy="253.02" r="6.58"/><circle class="cls-17" cx="1028.64" cy="354.05" r="5.58" transform="translate(-1.5 1091.33) rotate(-67.5)"/><path class="cls-18" d="M1043.37,329.6c1,3.38,2,6.75,2.93,10.13a2.5,2.5,0,0,0,4.82-1.33c-1-3.38-2-6.75-2.92-10.13a2.5,2.5,0,1,0-4.83,1.33Z" transform="translate(-309.4 -77.57)"/><path class="cls-18" d="M1049.22,367.62c3.44-.71,6.88-1.45,10.32-2.17a2.5,2.5,0,0,0-1.33-4.82c-3.44.72-6.88,1.46-10.32,2.16a2.52,2.52,0,0,0-1.75,3.08A2.57,2.57,0,0,0,1049.22,367.62Z" transform="translate(-309.4 -77.57)"/><circle class="cls-17" cx="732.77" cy="410.58" r="9.04"/><circle class="cls-17" cx="759.2" cy="317.75" r="6.58"/><circle class="cls-17" cx="752.62" cy="366.31" r="5.58"/><path class="cls-18" d="M1050.69,392.8c-1.65,3.11-3.27,6.23-4.91,9.34a2.5,2.5,0,0,0,4.32,2.52c1.64-3.11,3.26-6.23,4.91-9.33a2.5,2.5,0,1,0-4.32-2.53Z" transform="translate(-309.4 -77.57)"/><path class="cls-18" d="M1059,434.12c.23-3.51.43-7,.64-10.53a2.51,2.51,0,0,0-2.5-2.5,2.55,2.55,0,0,0-2.5,2.5c-.21,3.51-.41,7-.64,10.53a2.51,2.51,0,0,0,2.5,2.5A2.55,2.55,0,0,0,1059,434.12Z" transform="translate(-309.4 -77.57)"/><circle class="cls-17" cx="726.11" cy="370.59" r="6.87"/><circle class="cls-17" cx="1025.02" cy="516.14" r="5.3" transform="translate(41.96 1367.68) rotate(-80.78)"/><path class="cls-18" d="M997.1,534.15l8.09,3.55a2.73,2.73,0,0,0,1.92.26,2.58,2.58,0,0,0,1.5-1.15,2.5,2.5,0,0,0,.25-1.93,2.43,2.43,0,0,0-1.15-1.49c-2.7-1.19-5.4-2.36-8.09-3.56a2.67,2.67,0,0,0-1.92-.25,2.49,2.49,0,0,0-1.75,3v0A2.48,2.48,0,0,0,997.1,534.15Z" transform="translate(-309.4 -77.57)"/><path class="cls-18" d="M1069.08,470.17c-2.94.14-5.88.3-8.82.46a2.5,2.5,0,0,0,0,5c2.94-.16,5.88-.32,8.82-.46a2.5,2.5,0,0,0,0-5Z" transform="translate(-309.4 -77.57)"/><path class="cls-18" d="M1050.3,515.56c3.06-2.77,6.1-5.57,9.15-8.35a2.5,2.5,0,0,0-3.54-3.54c-3.05,2.79-6.08,5.58-9.14,8.35a2.52,2.52,0,0,0,0,3.54,2.54,2.54,0,0,0,3.53,0Z" transform="translate(-309.4 -77.57)"/><circle class="cls-17" cx="729.18" cy="475.58" r="3.59"/><circle class="cls-17" cx="712.03" cy="491.51" r="4.32"/><circle class="cls-17" cx="696.06" cy="507.47" r="5.46"/><circle class="cls-17" cx="677.1" cy="516.22" r="5.46"/><path class="cls-18" d="M1093.75,372.5c-19.07-1.3-37.89.83-56.48,5.07-18.13,4.14-36.34,8.53-54.06,14.2s-34.38,13.32-50.68,22a453.87,453.87,0,0,0-44.68,27.3q-10.85,7.5-21.24,15.64-5.16,4-10.2,8.21c-1.68,1.39-3.36,2.79-5,4.21a34.34,34.34,0,0,1-4.37,3.61,5.14,5.14,0,0,1-1.83.75H845c.31,0-.12.33-.12-.06,0,0,.16,0,.17.07-1.64-2.76-6-.25-4.32,2.52,2.18,3.66,6.77,2.56,9.68.46,1.72-1.24,3.27-2.75,4.89-4.13s3.45-2.91,5.19-4.35q10.21-8.42,20.9-16.22a452.64,452.64,0,0,1,44.56-28.67c15.9-9,32.31-17.28,49.51-23.45,17.79-6.37,36.22-10.77,54.55-15.23,9.29-2.26,18.61-4.41,28.08-5.74a170.75,170.75,0,0,1,28.58-1.54q3.54.11,7.08.35a2.5,2.5,0,0,0,0-5Z" transform="translate(-309.4 -77.57)"/><path class="cls-18" d="M1078.39,407.76c-30.47,8.72-62.09,12-93,18.46a296.53,296.53,0,0,0-82.93,30.32q-10.66,5.88-20.8,12.68-5.05,3.39-10,7c-1.63,1.21-3.26,2.43-4.87,3.67l-2.56,2-1,.81-.46.36c-.6.29-.39.38.64.27l.89.89.11.29v1.33l-2.2,1.16-1.49-1.15.06.1-.34-1.26v.17c-.14,3.22,4.86,3.22,5,0a2.77,2.77,0,0,0-4.32-2.34,3,3,0,0,0-1.18,4.07,2.91,2.91,0,0,0,.7.86c1.93,1.6,4.15.35,5.8-1,1.42-1.12,2.85-2.24,4.3-3.34q9.18-7,18.92-13.18a278.87,278.87,0,0,1,85-36.2c16.38-4,33-6.73,49.64-9.54s33.22-5.71,49.51-10q3-.79,6-1.65c3.09-.88,1.77-5.71-1.33-4.82Z" transform="translate(-309.4 -77.57)"/><path class="cls-18" d="M1079.74,449.57c-25.22,12.95-54,15.78-81.86,17.32-27.18,1.5-54.71,1.91-81.19,8.94-14.45,3.84-28.45,9.74-40.62,18.5a2.58,2.58,0,0,0-.9,3.42,2.52,2.52,0,0,0,3.42.89c21.67-15.59,48.31-21.41,74.44-24,27.9-2.77,56.07-2.08,83.81-6.57,15.73-2.54,31.2-6.88,45.42-14.18,2.86-1.47.34-5.79-2.52-4.32Z" transform="translate(-309.4 -77.57)"/><path class="cls-18" d="M1069.86,515.58c-13.13,17.25-34.49,26.23-55.13,30.58a139.36,139.36,0,0,1-18.86,2.63c-6.41.45-12.85.52-19.27.73-11.64.38-23.54,1.22-34.46,5.58-10.44,4.16-20.14,11.21-24.88,21.69a2.56,2.56,0,0,0,.89,3.42,2.51,2.51,0,0,0,3.42-.9c4.07-9,12-15.19,20.93-19,10.44-4.46,21.91-5.36,33.14-5.76,6.42-.22,12.85-.28,19.27-.7a148.53,148.53,0,0,0,19.26-2.48,125.5,125.5,0,0,0,32.26-10.77,79.4,79.4,0,0,0,27.75-22.48,2.5,2.5,0,1,0-4.32-2.53h0Z" transform="translate(-309.4 -77.57)"/><path class="cls-18" d="M986.84,390.7A395.11,395.11,0,0,1,941,432.09q-7.08,5.57-14.19,11.11a2.54,2.54,0,0,0,0,3.54,2.57,2.57,0,0,0,3.54,0c16.4-12.84,32.88-25.52,47.83-40.06q6.24-6.07,12.18-12.45c2.19-2.35-1.34-5.89-3.54-3.53Z" transform="translate(-309.4 -77.57)"/><path class="cls-18" d="M990.85,468.63c-9.16,12.44-18.34,24.88-26.75,37.85C956,519,948.54,532,940.57,544.67c-4.47,7.11-9.12,14.11-14.13,20.86a2.51,2.51,0,0,0,.9,3.42,2.56,2.56,0,0,0,3.42-.9c8.91-12,16.65-24.81,24.38-37.59,7.85-13,15.91-25.82,24.68-38.21,5-7.1,10.19-14.1,15.35-21.1a2.53,2.53,0,0,0-.9-3.42,2.56,2.56,0,0,0-3.42.9Z" transform="translate(-309.4 -77.57)"/><path class="cls-18" d="M870.94,609c16.62,10.65,36.94,15,56.45,15.68,20.2.76,40.4-2.46,60-7.23q8.37-2,16.63-4.44c2.67-.77,5.32-1.64,8-2.37a5.52,5.52,0,0,1,2.1-.22c-.12,0,1,.16.62.13.19,0,.24.31.06,0s-.24-.25-.24-.45c.14,3.2,5.14,3.22,5,0-.21-4.65-5.43-5.28-9-4.28-5,1.4-9.91,2.94-14.9,4.29-10,2.72-20.14,5.08-30.38,6.8-20,3.38-40.84,4.24-60.83-.09-10.9-2.36-21.53-6.13-31-12.17-2.72-1.75-5.23,2.58-2.53,4.31Z" transform="translate(-309.4 -77.57)"/><path class="cls-18" d="M864.94,616.77c19.44,13.79,41.79,23.53,64.71,29.85,23.43,6.46,48.17,9.52,72.44,7.46a155.09,155.09,0,0,0,19.42-2.84c3.13-.67,6.24-1.44,9.31-2.33,1.46-.43,2.91-.88,4.36-1.36a20.64,20.64,0,0,0,2.31-.73c.1-.05.38-.11.32-.05a1.48,1.48,0,0,1-.63-1.95c.44-.62,1.15-.74,2.14-.37l.89.9-.12-.18a2.58,2.58,0,0,0-3.42-.9,2.51,2.51,0,0,0-.9,3.42c2.39,3.41,7.21.32,6.06-3.34-.58-1.85-2.7-2.72-4.49-2.53a21.82,21.82,0,0,0-4.49,1.24,132.41,132.41,0,0,1-17.43,4.31,167.37,167.37,0,0,1-37,2.14,211.76,211.76,0,0,1-38.17-5.35,226.11,226.11,0,0,1-36.87-11.9A191.5,191.5,0,0,1,871.1,615q-1.82-1.22-3.61-2.49a2.53,2.53,0,0,0-3.42.9,2.56,2.56,0,0,0,.9,3.42Z" transform="translate(-309.4 -77.57)"/><path class="cls-18" d="M864.45,640.77a531.91,531.91,0,0,0,55.13,45.93A490.9,490.9,0,0,0,982.5,726a339.92,339.92,0,0,0,35.8,16.12,2.52,2.52,0,0,0,3.08-1.75,2.55,2.55,0,0,0-1.75-3.07c-22-8.32-42.89-19.37-62.88-31.66a536,536,0,0,1-59.81-42.71q-15-12.32-29-25.71c-2.32-2.23-5.86,1.3-3.54,3.54Z" transform="translate(-309.4 -77.57)"/><path class="cls-18" d="M875.14,686.55a225.22,225.22,0,0,0,36.24,50,229.18,229.18,0,0,0,48,38.22q7.46,4.44,15.25,8.29c2.57,1.27,5.16,2.48,7.78,3.65,1.34.6,2.7,1.19,4.06,1.76a10.39,10.39,0,0,0,1.6.8c.11,0-.24-.29-.16-.32.29-1.47.93-2.13,1.91-2,.62.48.8.57.54.28l.65,1.1v.42l-.34,1.26-.18.24c2.36-2.19-1.18-5.72-3.54-3.53-2.66,2.46.67,5.94,3.59,5.07a3.23,3.23,0,0,0,2.29-3.25,4.75,4.75,0,0,0-2.57-3.79,28.1,28.1,0,0,0-3.41-1.52c-1.32-.57-2.62-1.15-3.93-1.75-2.48-1.13-4.94-2.32-7.38-3.55a222.83,222.83,0,0,1-76-62.67A218.64,218.64,0,0,1,879.39,684c-1.51-2.84-5.83-.32-4.32,2.52Z" transform="translate(-309.4 -77.57)"/><path class="cls-18" d="M872.05,711.37a250.52,250.52,0,0,0,76.07,94.88l1.26-4.66-4.62-.58a2.51,2.51,0,0,0-2.5,2.5,2.55,2.55,0,0,0,2.5,2.5l4.62.58a2.51,2.51,0,0,0,2.41-1.83,2.61,2.61,0,0,0-1.15-2.82,245.68,245.68,0,0,1-74.27-93.09A2.53,2.53,0,0,0,873,708a2.57,2.57,0,0,0-.9,3.42Z" transform="translate(-309.4 -77.57)"/><path class="cls-18" d="M954.27,647.05q-12,4.35-24.32,7.57c-8,2.08-16.23,4.17-24.49,4.83a41.25,41.25,0,0,1-14-1c-3.11-.83-4.44,4-1.33,4.82,8.58,2.28,17.48,1.3,26.07-.37a257.94,257.94,0,0,0,25.38-6.36q7.06-2.14,14-4.67a2.57,2.57,0,0,0,1.75-3.07,2.54,2.54,0,0,0-3.08-1.75Z" transform="translate(-309.4 -77.57)"/><path class="cls-22" d="M876.53,815.5c17.43,15.5,46.24,16.08,64.28,1.29,9.57-7.85,16.48-19.44,28-24,9.4-3.69,20.77-2.12,29-8,9.12-6.6,10.37-19.45,15.56-29.44,5.73-11,16.38-18.55,24.36-28.09a70.21,70.21,0,0,0,13.67-62.37c-2.94-10.79-8.44-20.68-13.88-30.45l-18.59-33.34-4.69,1.37c18.91-4,8.09-1.63,23.55-14.31,6.08-5,9.4-12.59,13.35-19.39Q1063.42,547.59,1075,526c5.68-10.61,11.3-21.49,13.57-33.31s.79-24.91-6.64-34.38c-1-1.31-2.21-2.64-2.42-4.3-.3-2.27,1.28-4.3,2.57-6.19,14.3-21-11.93-46.13,6.9-63.21,13.25-12,21.5-38.07,19.46-53.7-1.19-9.16-8.56-16.59-17-20.32s-17.9-4.39-27.13-4.74c-24-.91-48.52,0-70.9,8.55-20,7.68-37.21,21.11-53.93,34.52-47.27,38-93.36,77.34-139.44,116.73" transform="translate(-309.4 -77.57)"/><path class="cls-18" d="M873,819c16.68,14.58,41.41,17.42,61.28,7.83,10.23-5,17-13.68,25-21.42,3.69-3.58,7.78-6.88,12.76-8.46,5.52-1.75,11.35-2,17-3.25s11.38-3.78,15.42-8.23c3.64-4,5.88-8.85,7.8-13.86,1.87-4.85,3.28-9.91,5.79-14.49a58.94,58.94,0,0,1,10.17-12.88c8.55-8.7,17.13-16.91,22.58-28a76.64,76.64,0,0,0,7.89-34.59c-.19-14.6-5.21-28-11.94-40.74-7.53-14.27-15.67-28.25-23.53-42.34a5.07,5.07,0,0,0-5.64-2.3l-4.69,1.37c-6.21,1.82-3.61,11,2.66,9.64,5.48-1.17,12.3-1.68,16.2-6.21,5.52-6.41,12.52-11.2,17.16-18.37,3.27-5.07,6-10.51,9-15.74q5-8.67,9.85-17.4c6.58-11.81,13.47-23.63,19-36,5-11.09,8.65-23.11,7.53-35.39a46.93,46.93,0,0,0-4.52-16.7,45.34,45.34,0,0,0-4.49-6.9c-.52-.7-.78-.89-.7-1.56.11-1,1.58-2.41,2.15-3.3,5.36-8.36,5.35-18.16,3.68-27.61-1.43-8.16-4.6-16.22-3.4-24.4a27.31,27.31,0,0,1,1.21-4.05,16.59,16.59,0,0,1,3.48-4.82,64.89,64.89,0,0,0,9.15-10.9,82.18,82.18,0,0,0,11.32-28.34c1.92-9.48,2.84-20.14-2-28.9-5.7-10.25-16.8-16-28-18.14-12.68-2.42-26.15-2.27-39-1.93a172.69,172.69,0,0,0-38.74,5c-24.74,6.42-45.32,21.24-65,36.94-43.34,34.54-85.55,70.5-127.7,106.5l-15.29,13c-2.06,1.76-1.81,5.27,0,7.07a5.1,5.1,0,0,0,7.07,0c40.73-34.8,81.43-69.63,123-103.46,19-15.48,38-32.24,60.22-43s47.43-12.62,71.87-12c11.4.29,24.17.17,34.22,6.34a23.51,23.51,0,0,1,9.32,10.08c1.63,3.63,1.65,7.58,1.45,11.54a71.16,71.16,0,0,1-6.88,26.14,60.49,60.49,0,0,1-6.94,11.56c-2.84,3.59-6.54,6.33-9,10.2-10,15.47,2.33,33,.59,49.12a24,24,0,0,1-4.3,10.58,12.7,12.7,0,0,0-2.6,7.75c.18,3.45,2.44,5.75,4.28,8.44,5.83,8.48,6.84,19.45,4.87,29.37-2.42,12.13-8.36,23.07-14.16,33.86q-9.46,17.61-19.42,35c-2.85,5-5.55,10-8.48,15a38.45,38.45,0,0,1-4.42,6.26,78.47,78.47,0,0,1-6,5.39,59.49,59.49,0,0,0-6.19,6.41,15.61,15.61,0,0,0-1.46,1.58c.58-1,.88-.48,0-.11-1,.45,1.07-.26-.18.08-3.47.94-7,1.72-10.48,2.47l2.66,9.64,4.69-1.37-5.65-2.3,20,35.79c5.94,10.69,11.67,21.68,13.53,33.92a65.88,65.88,0,0,1-3.42,32c-3.74,10.38-10.25,18.73-18,26.42-8.09,8-15.7,15.85-20.08,26.57-3.34,8.17-5.13,19.08-13.64,23.61-4.61,2.46-10.21,2.84-15.29,3.64-5.54.87-10.91,2.24-15.77,5.15-9.35,5.6-15.52,14.8-23.68,21.8-16,13.71-42.31,13.26-58.09-.54-4.83-4.22-11.93,2.82-7.07,7.07Z" transform="translate(-309.4 -77.57)"/><circle class="cls-20" cx="770.36" cy="276.48" r="11.16"/><circle class="cls-20" cx="756.05" cy="253.02" r="6.58"/><circle class="cls-20" cx="1028.64" cy="354.05" r="5.58" transform="translate(-1.5 1091.33) rotate(-67.5)"/><path class="cls-18" d="M1043.37,329.6c1,3.38,2,6.75,2.93,10.13a2.5,2.5,0,0,0,4.82-1.33c-1-3.38-2-6.75-2.92-10.13a2.5,2.5,0,1,0-4.83,1.33Z" transform="translate(-309.4 -77.57)"/><path class="cls-18" d="M1049.22,367.62c3.44-.71,6.88-1.45,10.32-2.17a2.5,2.5,0,0,0-1.33-4.82c-3.44.72-6.88,1.46-10.32,2.16a2.52,2.52,0,0,0-1.75,3.08A2.57,2.57,0,0,0,1049.22,367.62Z" transform="translate(-309.4 -77.57)"/><circle class="cls-20" cx="732.77" cy="410.58" r="9.04"/><circle class="cls-20" cx="756.81" cy="317.75" r="6.58"/><circle class="cls-20" cx="752.62" cy="366.31" r="5.58"/><path class="cls-18" d="M1050.69,392.8c-1.65,3.11-3.27,6.23-4.91,9.34a2.5,2.5,0,0,0,4.32,2.52c1.64-3.11,3.26-6.23,4.91-9.33a2.5,2.5,0,1,0-4.32-2.53Z" transform="translate(-309.4 -77.57)"/><path class="cls-18" d="M1050.27,434.12c0-2.72-.13-5.44-.2-8.16a2.5,2.5,0,0,0-5,0c.07,2.72.15,5.44.2,8.16a2.5,2.5,0,0,0,5,0Z" transform="translate(-309.4 -77.57)"/><circle class="cls-20" cx="726.11" cy="370.59" r="6.87"/><circle class="cls-20" cx="1025.02" cy="516.14" r="5.3" transform="translate(41.96 1367.68) rotate(-80.78)"/><path class="cls-18" d="M997.1,534.15l8.09,3.55a2.73,2.73,0,0,0,1.92.26,2.58,2.58,0,0,0,1.5-1.15,2.5,2.5,0,0,0,.25-1.93,2.43,2.43,0,0,0-1.15-1.49c-2.7-1.19-5.4-2.36-8.09-3.56a2.67,2.67,0,0,0-1.92-.25,2.49,2.49,0,0,0-1.75,3v0A2.48,2.48,0,0,0,997.1,534.15Z" transform="translate(-309.4 -77.57)"/><path class="cls-18" d="M1069.08,470.17c-2.94.14-5.88.3-8.82.46a2.5,2.5,0,0,0,0,5c2.94-.16,5.88-.32,8.82-.46a2.5,2.5,0,0,0,0-5Z" transform="translate(-309.4 -77.57)"/><path class="cls-18" d="M1050.3,515.56c3.06-2.77,6.1-5.57,9.15-8.35a2.5,2.5,0,0,0-3.54-3.54c-3.05,2.79-6.08,5.58-9.14,8.35a2.52,2.52,0,0,0,0,3.54,2.54,2.54,0,0,0,3.53,0Z" transform="translate(-309.4 -77.57)"/><circle class="cls-17" cx="729.18" cy="475.58" r="3.59"/><circle class="cls-17" cx="712.03" cy="491.51" r="4.32"/><circle class="cls-17" cx="696.06" cy="507.47" r="5.46"/><circle class="cls-17" cx="677.1" cy="516.22" r="5.46"/><path class="cls-21" d="M1093.75,371.25c-19.17-1.3-38.12.85-56.81,5.11-18.13,4.14-36.34,8.54-54.06,14.21s-34.59,13.39-51,22.14A453.87,453.87,0,0,0,887.2,440q-11,7.61-21.49,15.84-5.16,4-10.21,8.2c-1.68,1.4-3.35,2.8-5,4.22l-2.4,2.06-1.16,1,.12-.1c-.23.16-.46.32-.7.46s-1.1.56-.46.3c-.34.14-.75.17-1.07.32s.16,0,.26,0c-.69,0,0,0,.18.06s.7.44.18.08a1.7,1.7,0,0,1,.62.51,3.75,3.75,0,0,0-6.48,3.78c2.54,4.26,7.9,3.44,11.39.91s6.89-5.83,10.34-8.67c6.81-5.63,13.52-10.84,20.64-16a455.2,455.2,0,0,1,44.59-28.7c15.82-8.92,32.14-17.19,49.22-23.32,17.78-6.38,36.21-10.78,54.55-15.24,9.28-2.26,18.61-4.41,28.08-5.74a171.36,171.36,0,0,1,28.27-1.65q3.54.11,7.08.35a3.76,3.76,0,0,0,3.75-3.75,3.84,3.84,0,0,0-3.75-3.75Z" transform="translate(-309.4 -77.57)"/><path class="cls-21" d="M1078.06,406.56c-30.47,8.72-62.09,12-93,18.46a297.83,297.83,0,0,0-83.23,30.44q-10.67,5.88-20.8,12.68-5.06,3.39-10,7c-1.63,1.21-3.26,2.43-4.87,3.67q-1.41,1.08-2.82,2.19l-1,.8c-.39.31-.46.36-.21.17q-1.44.78,1.9.27l1.34,1.34.24.59v2l-3.74,2-2.24-1.72.06.1-.51-1.89v.17a3.76,3.76,0,0,0,3.75,3.75,3.82,3.82,0,0,0,3.75-3.75,4,4,0,0,0-3.92-4.08,3.94,3.94,0,0,0-2.28.66,4.25,4.25,0,0,0-1.61,5.8,4,4,0,0,0,1,1.2c2.49,2,5.29.66,7.44-1l4-3.15q9.18-7,18.92-13.19A277.12,277.12,0,0,1,974.94,435c16.38-4,33-6.73,49.63-9.55s33.22-5.7,49.52-10c2-.53,4-1.07,6-1.64a3.75,3.75,0,1,0-2-7.23Z" transform="translate(-309.4 -77.57)"/><path class="cls-21" d="M1079.11,448.49c-25,12.81-53.48,15.62-81.23,17.15-27.29,1.51-54.94,1.93-81.52,9-14.55,3.86-28.67,9.8-40.92,18.62a3.86,3.86,0,0,0-1.35,5.13c1,1.62,3.48,2.53,5.14,1.34,21.5-15.48,48.09-21.29,73.8-23.83,28-2.78,56.29-2.11,84.14-6.61,15.84-2.56,31.4-7,45.72-14.31a3.75,3.75,0,0,0-3.78-6.48Z" transform="translate(-309.4 -77.57)"/><path class="cls-21" d="M1078.05,512.37a144.27,144.27,0,0,1-34.74,23.24c-1.27.6-2.55,1.16-3.83,1.72l-.25.11-.84.35-1.94.77c-2.16.84-4.34,1.61-6.55,2.33a139.76,139.76,0,0,1-17,4.22q-4.93.93-9.9,1.65l-1.84.26c-.42,0-.78.1-.11,0l-.88.12-2.64.32a188.42,188.42,0,0,1-20,1.29c-9,.09-17.77-.21-26.45,2.43-11.68,3.55-21.86,10.81-30.2,19.61-1.42,1.5-2.79,3.06-4.13,4.65a3.85,3.85,0,0,0,0,5.3c1.34,1.34,4,1.56,5.31,0a96.07,96.07,0,0,1,8.2-8.68q1.86-1.74,3.84-3.34L935,568c.5-.4-.36.27.14-.11l.45-.35c.64-.47,1.28-.94,1.93-1.39a62.27,62.27,0,0,1,7.4-4.45c1.1-.56,2.22-1.06,3.34-1.57-.58.27-.2.08.14,0l.89-.36,1.62-.59a54.64,54.64,0,0,1,6.27-1.79c1-.22,2-.41,3.06-.56.31,0,1.09-.32.07,0,.23,0,.47-.07.71-.09l1.52-.15c4.29-.36,8.61-.24,12.91-.25A215.24,215.24,0,0,0,1011.2,553a141.52,141.52,0,0,0,32.63-9.45,145.79,145.79,0,0,0,34.73-21.76c1.62-1.34,3.21-2.72,4.78-4.12a3.75,3.75,0,1,0-5.3-5.31h0Z" transform="translate(-309.4 -77.57)"/><path class="cls-21" d="M985.94,389.81a396.1,396.1,0,0,1-45.82,41.4l-14.18,11.16c-1.6,1.25-1.31,4,0,5.3,1.57,1.58,3.7,1.25,5.3,0,16.4-12.84,32.88-25.52,47.84-40.06q6.24-6.08,12.17-12.44a3.75,3.75,0,1,0-5.3-5.31Z" transform="translate(-309.4 -77.57)"/><path class="cls-21" d="M989.77,468c-9.16,12.43-18.34,24.88-26.75,37.85-8.14,12.52-15.56,25.52-23.53,38.19-4.47,7.11-9.12,14.11-14.13,20.86-1.21,1.62-.27,4.18,1.35,5.13,1.91,1.11,3.91.28,5.13-1.35,8.91-12,16.65-24.81,24.38-37.59,7.85-13,15.91-25.81,24.68-38.21,5-7.1,10.19-14.1,15.35-21.1,1.2-1.63.27-4.18-1.35-5.13a3.84,3.84,0,0,0-5.13,1.35Z" transform="translate(-309.4 -77.57)"/><path class="cls-21" d="M870.33,610.12c16.8,10.77,37.36,15.11,57.08,15.85,20.3.76,40.63-2.48,60.3-7.27,5.58-1.36,11.12-2.86,16.63-4.45,2.67-.76,5.32-1.64,8-2.36l.55-.14c.28-.06.81,0,0,0h1c-.61,0,0,0,.2,0,.55.12.29.18-.05-.06.27.19.29.33-.19-.16a2,2,0,0,1-.6-1.33,3.75,3.75,0,0,0,7.5,0c-.25-5.53-6.17-6.72-10.58-5.49-5,1.4-9.91,3-14.9,4.3-10,2.71-20.14,5.07-30.38,6.8-19.68,3.31-40.57,4.15-60.16-.09-11-2.37-21.25-6-30.66-12a3.75,3.75,0,0,0-3.93,6.39l.14.08Z" transform="translate(-309.4 -77.57)"/><path class="cls-21" d="M864.33,617.85c19.52,13.85,42,23.63,65,30,23.53,6.48,48.4,9.57,72.77,7.5a158.49,158.49,0,0,0,19.75-2.88c3.13-.67,6.24-1.44,9.31-2.34,1.46-.42,2.92-.87,4.36-1.35.77-.25,1.53-.54,2.31-.74h-.31c.45,0,.44,0,0-.07-1.63-1.07-2.09-2.34-1.38-3.79.77-1.18,2.06-1.45,3.85-.82l1.34,1.35-.12-.18a3.85,3.85,0,0,0-5.13-1.35,3.79,3.79,0,0,0-1.35,5.14,4.39,4.39,0,0,0,6,1.51,5.26,5.26,0,0,0,2.33-5.82c-.7-2.37-3.36-3.68-5.7-3.45a23,23,0,0,0-4.82,1.28,132.27,132.27,0,0,1-17.45,4.3c-1.49.26-3,.5-4.48.72l-1.09.16-.45.06-2.37.28c-3.06.35-6.14.61-9.22.79a183.8,183.8,0,0,1-19.07.08c-3.19-.14-6.38-.37-9.56-.67-1.6-.15-3.2-.31-4.8-.5l-2.3-.28-.85-.11h-.26l-.77-.1q-9.72-1.38-19.3-3.6a226.15,226.15,0,0,1-36.87-11.91l-.5-.21-1-.45-2.28-1c-1.42-.64-2.85-1.3-4.26-2q-4.18-2-8.29-4.19a179,179,0,0,1-15.64-9.36q-1.82-1.22-3.61-2.49c-1.65-1.17-4.17-.29-5.13,1.34a3.84,3.84,0,0,0,1.35,5.14Z" transform="translate(-309.4 -77.57)"/><path class="cls-21" d="M863.57,641.65a531.91,531.91,0,0,0,55.37,46.13,490.9,490.9,0,0,0,62.92,39.31,342.51,342.51,0,0,0,36.08,16.28,3.79,3.79,0,0,0,4.62-2.62,3.87,3.87,0,0,0-2.62-4.62c-21.5-8.13-42.64-19.26-62.59-31.53a535.77,535.77,0,0,1-59.52-42.52q-15-12.3-29-25.7a3.75,3.75,0,0,0-5.3,5.3Z" transform="translate(-309.4 -77.57)"/><path class="cls-21" d="M874.06,687.18a226.59,226.59,0,0,0,36.43,50.19,230.14,230.14,0,0,0,48.26,38.42q7.46,4.44,15.25,8.29c2.57,1.27,5.17,2.48,7.78,3.65,1.39.62,2.8,1.23,4.21,1.82,0,0,1.31.63.57.25a5.81,5.81,0,0,0,.88.49c-.31,0-.65-.86-.73-1.07q.75-4.07,3.44-3.5c1.12.86,1.49,1,1.1.59l1,1.66.1.75-.51,1.89-.38.5a3.75,3.75,0,1,0-5.3-5.31c-3.62,3.35.72,8.36,4.8,7.17a4.49,4.49,0,0,0,3.21-4.46,6,6,0,0,0-3.19-4.87,16.79,16.79,0,0,0-2.15-1c.51.22-.25-.1-.37-.15l-.89-.39c-1.32-.57-2.62-1.15-3.92-1.75-2.49-1.13-4.95-2.32-7.39-3.55a222.79,222.79,0,0,1-28.41-17.08A219.89,219.89,0,0,1,922.74,739a225.21,225.21,0,0,1-22.24-24.58l-.37-.48-.71-.93c-.47-.63-.94-1.25-1.4-1.88-.93-1.25-1.85-2.52-2.75-3.79q-2.7-3.82-5.25-7.76c-3.39-5.24-6.55-10.64-9.48-16.15a3.75,3.75,0,0,0-6.48,3.78Z" transform="translate(-309.4 -77.57)"/><path class="cls-21" d="M870.94,712a253.77,253.77,0,0,0,76.55,95.37l1.89-7-4.62-.58c-2-.25-3.83,1.9-3.75,3.75.1,2.24,1.66,3.48,3.75,3.75l4.62.58a3.74,3.74,0,0,0,3.62-2.75,4,4,0,0,0-1.72-4.23c-5.73-4.37-12-9.66-17.59-14.84q-8.64-8-16.49-16.83a241.19,241.19,0,0,1-27.48-37.54,247.28,247.28,0,0,1-12.27-23.43c-.85-1.84-3.51-2.3-5.13-1.35A3.84,3.84,0,0,0,871,712Z" transform="translate(-309.4 -77.57)"/><path class="cls-21" d="M953.94,645.85q-12,4.35-24.33,7.57c-7.9,2.05-16.15,4.14-24.15,4.78a40,40,0,0,1-13.65-1,3.75,3.75,0,1,0-2,7.23c8.8,2.34,17.92,1.34,26.73-.38a257.34,257.34,0,0,0,25.4-6.3q7.08-2.14,14-4.67a3.85,3.85,0,0,0,2.62-4.61,3.77,3.77,0,0,0-4.61-2.62Z" transform="translate(-309.4 -77.57)"/><path class="cls-23" d="M873.09,819c17.32,15.15,43.73,17.75,63.81,6.5,10.37-5.8,16.94-15.68,25.86-23.2A31.2,31.2,0,0,1,978,795.6c5.76-1,11.66-1.46,17.13-3.69,12-4.89,15.76-16.32,19.86-27.52a46.87,46.87,0,0,1,7.86-14.14c4-4.8,8.62-9,13-13.46a78.46,78.46,0,0,0,19.46-31.49,75.47,75.47,0,0,0,2.09-37c-3-15.57-11.61-29.52-19.28-43.16l-11.44-20.3c-1.05-1.86-2-4.37-3.69-5.7a6.91,6.91,0,0,0-3.82-1.15c-1.61-.18-3.23-.33-4.84-.5l2.52,9.32c1.78-.92,3.56-1.81,5.38-2.63,1.3-.59-.9.33.27-.12l.61-.24,1.46-.51a21.57,21.57,0,0,0,4.44-1.78,61.35,61.35,0,0,0,7.22-5.53c4.68-3.83,8.93-7.54,12.32-12.6s6-10.38,9-15.55q5.12-8.86,10.1-17.82c6.52-11.69,13.32-23.39,18.87-35.58,5-11.1,8.87-23.08,8-35.43a46.93,46.93,0,0,0-4.42-17.15,41.85,41.85,0,0,0-4.54-7.09c-.41-.54-.89-1-.88-1.62,0-.84,1.55-2.4,2-3.1,5.47-8.32,5.57-18.11,3.94-27.59-1.41-8.15-4.4-16-3.52-24.15a16,16,0,0,1,4.5-9.2A70.47,70.47,0,0,0,1101,378a82.3,82.3,0,0,0,11.25-28c1.94-9.37,2.89-19.82-1.62-28.6-5.48-10.65-17-16.64-28.32-18.79-12.54-2.38-25.82-2.26-38.54-2a174.34,174.34,0,0,0-38.79,4.91c-24.93,6.36-45.65,21.26-65.46,37C896.14,377,853.92,413,811.78,449l-15.27,13.05c-2.06,1.76-1.81,5.27,0,7.07a5.1,5.1,0,0,0,7.07,0c41-35,82-70.07,123.8-104.09,19-15.46,38-32.19,60.26-42.8s47.56-12.26,72-11.59c11.39.31,24,.33,33.92,6.71a23,23,0,0,1,8.76,9.83c1.63,3.76,1.59,7.95,1.33,12a71.62,71.62,0,0,1-7.16,26.16,55,55,0,0,1-7.26,11.7c-2.93,3.47-6.55,6.22-8.88,10.21-9.21,15.78,3.35,33,1,48.87-.69,4.68-3.1,7.68-5.29,11.7a10.78,10.78,0,0,0-1.19,8.23c.89,3,3.39,5.31,5,8,5.35,8.91,5.64,20.06,3.29,30-2.86,12.07-9,23-14.85,33.81q-9.49,17.6-19.48,34.92c-2.85,4.94-5.44,10.07-8.54,14.86-3,4.59-7,7.83-11.21,11.26-.77.63-1.54,1.26-2.32,1.88l-.76.6c-1.15.91.75-.54-.28.21-.71.52-1.45,1-2.19,1.48s-.79-.07.27-.06a3.7,3.7,0,0,0-.73.25c-.64.18-1.28.38-1.9.6a69.66,69.66,0,0,0-9.44,4.28,5.07,5.07,0,0,0-2.3,5.65,5.22,5.22,0,0,0,4.82,3.67l5.63.58-4.32-2.47c6.3,11.29,12.73,22.52,19,33.83,5.93,10.69,11.66,21.68,13.53,33.92a65.88,65.88,0,0,1-3.42,32c-3.74,10.38-10.25,18.73-18,26.42-8.09,8-15.71,15.85-20.08,26.57-3.34,8.17-5.13,19.08-13.64,23.61-4.61,2.46-10.21,2.84-15.29,3.64-5.55.87-10.91,2.24-15.77,5.15-9.35,5.6-15.52,14.8-23.68,21.8-16,13.71-42.31,13.26-58.09-.54-4.83-4.22-11.93,2.82-7.07,7.07Z" transform="translate(-309.4 -77.57)"/><circle class="cls-17" cx="633.19" cy="557.83" r="3.59"/><circle class="cls-17" cx="656.58" cy="556.96" r="4.32"/><circle class="cls-17" cx="679.15" cy="556.95" r="5.46"/><circle class="cls-17" cx="698.75" cy="549.71" r="5.46"/><path class="cls-21" d="M429.25,343.37c1-.46,2-.92,3-1.35l.46-.2.23-.09c.58-.24,1.15-.47,1.73-.69q2.73-1.05,5.51-1.92a89,89,0,0,1,9.65-2.43c1.14-.22,2.28-.41,3.43-.58.42-.07,1.41-.27.43-.07.6-.12,1.23-.15,1.84-.22,2-.21,3.93-.36,5.9-.43,3.56-.14,7.13-.07,10.69.07,2.28.08,4.56.2,6.84.39,1.78.14,3.56.31,5.33.52l1.58.19c.42,0,1.39.19.41,0,1.23.18,2.46.36,3.68.56a122.84,122.84,0,0,1,23.51,6.49c.84.32,1.68.65,2.52,1l1.33.55c.6.24-.37-.16-.37-.16l.75.32c1.71.74,3.4,1.5,5.08,2.3q4.65,2.2,9.14,4.7,7.35,4.1,14.28,8.89c1.63,1.12,3.23,2.28,4.82,3.47l.94.72c1,.79-1.11-.87-.17-.13l1.26,1a77.8,77.8,0,0,1,6.26,5.51c1.74,1.73,3.34,3.6,5,5.44q4.38,4.88,9,9.5c9.46,9.51,19.36,18.57,29.35,27.51,10.94,9.78,21.88,19.55,33,29.09,3.36,2.88,6.86,5.61,10.18,8.54,1.78,1.57,3.24,3.51,4.89,5.21,3.65,3.78,7.53,7.35,11.52,10.76,3.21,2.76,6.52,5.4,9.87,8,1.81,1.39,3.64,2.76,5.47,4.09a28.7,28.7,0,0,0,5,3.24c3.87,1.72,8.72,1.66,10.94-2.65,1.32-2.56.75-6.09-2-7.53-2.52-1.33-6.12-.76-7.52,2-.44.85,1.65-1.36,1.14-1-.25.15,1.61-.64.91-.42-.13,0,1.74-.07.81-.16,0,0,1.35.32,1,.13a2.64,2.64,0,0,0-.55-.15c-.8-.18,1.08.57.23.09-.39-.22-.79-.43-1.17-.66-1-.62-1.92-1.33-2.86-2q-2.68-1.94-5.33-4c-.83-.64-.16-.12,0,0l-.55-.42-1.24-1L674,463.48c-4.73-3.86-9.31-7.9-13.64-12.2-2.19-2.17-4.11-4.63-6.35-6.74-2.61-2.46-5.55-4.62-8.28-6.94-10.47-8.88-20.7-18-31-27.15-10.1-9-20.13-18.06-29.81-27.52-3.82-3.73-7.58-7.52-11.19-11.46-1.84-2-3.6-4.08-5.46-6.06A93.43,93.43,0,0,0,555,354.15a164.43,164.43,0,0,0-30.19-17.54,142.29,142.29,0,0,0-22.85-8.09,140.12,140.12,0,0,0-24.77-3.76c-13.81-1-27.69-.19-40.94,4.11a103,103,0,0,0-12.56,5c-2.6,1.23-3.48,5.17-2,7.52a5.65,5.65,0,0,0,7.53,2Z" transform="translate(-309.4 -77.57)"/><path class="cls-21" d="M1102.81,311.31a77.21,77.21,0,0,0-26.16-10.68c-8.41-1.61-17-1.61-25.53-1.06-12.95.84-25.95,2.61-38.75,4.67a127.8,127.8,0,0,0-30,8.5c-11.21,4.75-21.24,11.44-30.78,18.94-10.73,8.45-21,17.56-31.4,26.35-23,19.34-46.25,38.52-69.25,57.87-18.35,15.41-36.74,30.76-55.5,45.67l-8.5,6.69c-2.28,1.78-2,5.93,0,7.77,2.41,2.22,5.35,1.91,7.77,0q27.72-21.76,54.65-44.49c22.67-19.15,45.57-38,68.32-57.1,11-9.24,21.94-18.59,32.94-27.85,2.33-2,4.67-3.89,7-5.79l1.5-1.19.94-.74c.21-.16,1.06-.81.2-.15q1.68-1.29,3.39-2.55a131.25,131.25,0,0,1,14.57-9.31c2.55-1.38,5.16-2.66,7.81-3.84l.91-.39c1.46-.65-.6.23.3-.13.71-.28,1.41-.58,2.12-.85q2.31-.9,4.66-1.7a113.31,113.31,0,0,1,13.2-3.58c5-1.06,10-1.82,15.06-2.52.38-.05,2.06-.28.92-.13l2.24-.29,5.07-.65c3.58-.46,7.16-.92,10.75-1.3,9.62-1,19.46-1.79,29.11-.73l1.06.13c.86.1-.7-.1-.69-.09l.62.09c.76.11,1.51.24,2.26.38,1.28.24,2.56.53,3.82.86,2,.52,3.93,1.14,5.86,1.82l2.31.87,1,.4c-.9-.37.13.05.35.15,1.39.61,2.77,1.27,4.13,2q3.17,1.62,6.18,3.53a5.5,5.5,0,1,0,5.56-9.5h0Z" transform="translate(-309.4 -77.57)"/><path class="cls-24" d="M725.54,436.64c-1.72,3.88-7.25,1.55-11.11,0-6.81-2.66-14.36-.63-21.56.42-10.24,1.49-21.06.82-30.32-4S645.87,419,645,408.37c-.69-8.63,2.78-17,4.23-25.48,3.22-19-3.67-38.78.14-57.66a50.63,50.63,0,0,1,24.88-34.08c18.84-10.2,42.68-6.89,61-18.14h0c19.79-10.15,44.7-5.49,63.2,7,6.07,4.1,11.74,9.32,14.69,16.18s2.93,14.66,4.75,21.93c3.39,13.51,12.85,24.34,19.44,36.51s9.92,28.54,1.35,39.31c-5.37,6.76-14,9.49-21.1,14.27-7.73,5.16-13.62,12.85-21.31,18.16s-18.59,7.71-25.74,1.69" transform="translate(-309.4 -77.57)"/><ellipse class="cls-25" cx="642.73" cy="934.84" rx="7.65" ry="7.14" transform="translate(-638.09 1443.26) rotate(-86.59)"/><ellipse class="cls-26" cx="688.66" cy="1072.31" rx="7.65" ry="7.14" transform="translate(-732.12 1618.4) rotate(-86.59)"/><ellipse class="cls-25" cx="667.5" cy="1004.16" rx="7.65" ry="7.14" transform="translate(-683.98 1533.18) rotate(-86.59)"/><ellipse class="cls-25" cx="704.12" cy="1143.76" rx="7.65" ry="7.14" transform="translate(-788.89 1701.03) rotate(-86.59)"/><ellipse class="cls-25" cx="729.02" cy="1202.51" rx="7.65" ry="7.14" transform="translate(-824.12 1781.14) rotate(-86.59)"/><ellipse class="cls-25" cx="747.66" cy="1260.84" rx="7.65" ry="7.14" transform="translate(-864.81 1854.61) rotate(-86.59)"/><circle class="cls-27" cx="593.23" cy="937.64" r="7.61"/><circle class="cls-27" cx="582.45" cy="1078.3" r="7.61"/><circle class="cls-27" cx="581.21" cy="1006.22" r="7.61"/><circle class="cls-28" cx="601.02" cy="868.41" r="7.61"/><ellipse class="cls-29" cx="695.54" cy="1225.15" rx="8.74" ry="8.6" transform="translate(-972 1522.04) rotate(-75.83)"/><ellipse class="cls-29" cx="906.68" cy="1216.5" rx="8.74" ry="8.6" transform="translate(-804.16 1720.22) rotate(-75.83)"/><path class="cls-24" d="M979.83,1040.94c.35-3.38-18.25-12.81-97.29-38.58L775.78,988.58l-114,6.56-46.5,43-4.36,6.39C612.46,1075.84,977,1068.09,979.83,1040.94Z" transform="translate(-309.4 -77.57)"/><path class="cls-30" d="M678.87,1369c-3.26,2.26-3.36,8.11-2.74,11.53a34.53,34.53,0,0,0,3.29,8.79h6c9.3,0,22.74,8,26.37,4.39,1.51-1.52-.33-3.4-.55-12.08s1.55-10,0-12.08c-3.2-4.32-10.56,1.32-25.82-1.1C683.36,1368.09,680.94,1367.57,678.87,1369Z" transform="translate(-309.4 -77.57)"/><path class="cls-30" d="M602.54,1453.54c-.23.38-.22.43-3.3,15.93-.86,4.34-1.31,6.62,0,8.24,2.2,2.69,2.32,2,4.54,1.93,6.45-.22,34.83-.17,39.51-.37,6.86-.3,24.86,0,39.19-.37,10-.24,12.33-.37,19.23-.28a128.27,128.27,0,0,0,14-.37c6.08-.44-2.79-15.19-4.94-38.44-1.3-14,.58-19.88-2.2-38.44-.43-2.85.8-7.89-2.2-12.08-3.49-4.89-10.75-7.14-17-6a18.45,18.45,0,0,0-7.91,3.49,39.45,39.45,0,0,1-.88,9.69c-1.47,6.76-4.38,11.31-7.77,16.41-9.25,14-13.87,20.93-16.39,23.13a53.15,53.15,0,0,1-23.07,11.53C619.42,1444.67,606.68,1446.61,602.54,1453.54Z" transform="translate(-309.4 -77.57)"/><path class="cls-31" d="M724.66,439.23a40.85,40.85,0,0,1,1.18,7.45s.22,3.74,0,10.36h0v.13c0,1.66.06,3.31.1,5a6.65,6.65,0,0,0,1.07,1.56c1.88,2.06,4.58,2.52,6.72,2.71A53.07,53.07,0,0,0,755.26,464a47.2,47.2,0,0,0,11.43-6.35A37.31,37.31,0,0,0,770,454.9l-3.46-6.23a38.73,38.73,0,0,1-2.32-4.42,20.4,20.4,0,0,1-2-6.08,28.11,28.11,0,0,1,0-5.8c.08-1.08.18-2,.26-2.62l-39.24,5.19C723.74,436.37,724.2,437.79,724.66,439.23Z" transform="translate(-309.4 -77.57)"/><path class="cls-23" d="M687.94,1255.74c1,20.71,1.14,37.38,1.07,48.73-.08,12-.38,18.86-.32,32.78.07,15.71.55,28.46.93,36.63a6.08,6.08,0,0,0,1.41,1.62c5.21,4.17,15.71-2.07,16.18-2.36q.63-18.24,2.37-37.82a681.46,681.46,0,0,1,13.13-85Z" transform="translate(-309.4 -77.57)"/><path class="cls-30" d="M955,1403.37c-1.27,11.9-1.9,17.86-2.11,19.23a212.54,212.54,0,0,1-5.21,24.06c-.65,2.45-1.72,6.38-3.27,12.59-1.39,5.52-2,8.25-2.24,9.3-1,4.61-1.75,8.47-2.24,11.23l101.44-1.41c1.32-5.54,2.17-13.18-2-18.16-3.63-4.3-8.78-3.94-15.58-6.29-9.29-3.21-14.63-9.07-22.47-17.67-5.87-6.45-17.61-19.34-21.4-38.22-1.42-7.07-1.16-12.15-4.66-13.91-4.92-2.49-13.07,3.68-19.18,9.28C955.85,1395.7,955.49,1399.15,955,1403.37Z" transform="translate(-309.4 -77.57)"/><path class="cls-30" d="M946.56,1379.68c-.43.56-.57,1.14-.56,4.1,0,6.07.63,9.56,1,14.51.46,5.9,0,6.13.7,6.89,2.63,2.87,8.16-1.41,22-3.77,7.48-1.27,12-1,13.34-4,.31-.68.24-1.06-.58-7.25-.41-3-1-6.06-1.25-9.11-.45-4.89-.12-6.64-1.36-7.41s-3.06.13-4.69.86a58.34,58.34,0,0,1-16.37,4.18C952.05,1379.27,948.35,1377.27,946.56,1379.68Z" transform="translate(-309.4 -77.57)"/><path class="cls-23" d="M911.94,1249.63c9.08,34.79,16.7,57.8,22.1,72.61,1.75,4.8,6.92,18.68,12.63,37.88,2.93,9.9,5.1,18.11,6.48,23.56a53.17,53.17,0,0,0,10.85.06,13.52,13.52,0,0,0,5.15-1.24A12.23,12.23,0,0,0,974,1378c-2-5.53-4.62-13.14-7.35-22.36-.55-1.85-1.44-4.82-2.49-8.78-2.18-8.18-3.57-15.15-8-33.56-6.26-26.07-8-30.84-12.06-50.16-1.72-8.15-3-14.86-3.86-19.29Z" transform="translate(-309.4 -77.57)"/><path class="cls-32" d="M660.38,1020.37c.35,7,.81,17.6,1.12,30.61.34,14,.2,18.35.38,36.2,0,3.45.06,6.69.09,9.74.23,21.67.45,33.7,1.4,44,1.54,16.78,2.5,14.18,4.48,34.71,1.51,15.71,1.54,23.42,4.1,39.19,1.12,6.89,1.61,8.45,2.24,13.81a144.78,144.78,0,0,1,.38,30.23,169.35,169.35,0,0,0,63.82-.74c3.2-.67,6.31-1.41,9.33-2.24.36-11.85.65-28.07.37-47.4-.08-5.25-.28-16.42-1.12-36.21-1.47-34.5-2.33-35.1-3.36-59.71-1-23.22-1-42.48-1.12-78v-20.9Z" transform="translate(-309.4 -77.57)"/><path class="cls-32" d="M810.55,1009.06c-3.09,8.91,6,12.59,23.25,55.82,6.4,16.06,11.23,30.79,11.66,32.09,5.33,16.34,5.62,20,11.31,37.21,2.35,7.1,5.37,15.26,11.41,31.58,10.45,28.21,8.91,23.35,14.41,38,11.72,31.24,10.76,35.94,16.87,38.75,6.61,3,11-1,42.4-7.38,6.18-1.26,11.26-2.19,14.59-2.77a329.19,329.19,0,0,0-2.88-36.3c-3.31-24.57-6.72-29-11.92-58-4.28-23.9-2.83-25.69-8-53.56-3.16-16.85-6-28.45-7.24-33.43-6.9-27.5-10.35-41.26-15.5-47.52C888.3,976.11,818.7,985.53,810.55,1009.06Z" transform="translate(-309.4 -77.57)"/><path class="cls-33" d="M731.55,1019.54v28.83c0,10.09.06,20.18,0,30.27-.15,29.86-.76,31,0,41s1.31,8.28,3.74,29.25c1.76,15.16,2.77,24,3.13,35.38a267.81,267.81,0,0,1-.92,32.17v33.93" transform="translate(-309.4 -77.57)"/><path class="cls-33" d="M902.94,999.45l4.47,28.52c1.56,10,3.18,19.93,4.69,29.91,4.47,29.52,4,30.69,6.36,40.56s2.57,8,8.22,28.31c4.08,14.71,6.45,23.24,8.57,34.47a269.78,269.78,0,0,1,4.07,31.93l5.23,33.39" transform="translate(-309.4 -77.57)"/><path class="cls-33" d="M877.36,1233.87c-.61,3.7,2.68,4.28,10.42,18.64,5.86,10.89,6.09,14.5,10,16,4.53,1.74,7.65-1.84,19.65-7.6,11-5.25,20.45-9.81,32.32-10.77,9.56-.78,13.36,1.36,16.47-1.91s.94-7.6,1.87-20.64c.86-12.11,3.22-13.89,1.43-16.49-3.64-5.3-15.87-1.48-45.53,5.78C890.62,1225,878.5,1227,877.36,1233.87Z" transform="translate(-309.4 -77.57)"/><path class="cls-33" d="M667.94,1227.64c-2.56,2.72,1.38,7.36,1.39,20.6,0,5.52-.68,11.88-.72,12.23-1,9.31-2.45,12.6-.83,13.83,2.17,1.64,6.22-3.11,14-5.45,4.94-1.48,10.23-.85,20.62.45,10.94,1.38,17.76,2.23,27,5,14,4.2,16.72,7.75,21,5.66,4-2,2.17-5.41,8.66-23.65,1.65-4.62,4.88-13.16,2.75-19.38a7.4,7.4,0,0,0-2.74-3.93c-2.62-1.8-6-1-7-.79-9,1.94-18.39.54-27.55,1.28a130.56,130.56,0,0,1-38.46-3.18C676,1227.82,670.47,1224.91,667.94,1227.64Z" transform="translate(-309.4 -77.57)"/><path class="cls-24" d="M868,470.52c16.53,5.28,19,6.07,23.43,8.66C897,482.45,1051.83,625,1053.54,631.37c1.93,7.18.88,11.43.53,12.67-1.42,5.09-4.61,8.09-10.64,13.62-9.65,8.85-116.75,89.66-123.66,92.91-2.21,1-14.53,6.65-28.26,4-4.89-1-7.38-2.46-8.82-3.54-5.29-3.92-6.9-9.7-8.33-15.13-1.27-4.79-3.17-9.89-2.56-16.77a34.38,34.38,0,0,1,1.61-7.83c3.33-9.46,13.74-12.84,22.52-19,6.44-4.51,74-58.21,79.42-62.17-15.49-8-107-63.59-111.21-65.42,1.09,8.69,8.14,87.27,8.31,102.39.29,26.11-190.9-86.85-202.26-139.69-5.86-27.28,16.46-60.89,29-60.87,4.1,0,10.14,3.62,19.16,1.24,4.19-1.11,5.59-6.37,7.57-5.61,12.27,4.71,31.26,6,44.09-7.27a194.65,194.65,0,0,0,25.93,4.47c.87.1,4.66.51,9.91.86,17,1.13,20.84-.32,29.64.38C837.75,460.81,838.14,461,868,470.52Z" transform="translate(-309.4 -77.57)"/><path class="cls-24" d="M691.15,466.62c-1.9.18,8-6.19-17,3.37-13.84,5.29-24.09,18.39-27.78,21-4.67,3.27-122.21,145.82-123.64,152.16-1.62,7.18-.74,11.43-.45,12.67,1.19,5.09,3.86,8.09,8.91,13.62,8.09,8.85,85.68,89.66,91.47,92.91,1.85,1,12.17,6.65,23.66,4a15.89,15.89,0,0,0,7.4-3.54c4.42-3.91,5.78-9.7,7-15.13,1.06-4.79,2.65-9.89,2.14-16.77a40,40,0,0,0-1.35-7.83c-2.79-9.46-11.51-12.84-18.86-19-.56-.46-9.63-9.84-27.65-28.7-8-8.38-18.07-19-29.77-31.26,15.07-11.72,30.42-23.56,45.58-36.1,19-15.69,36.72-30.61,38.46-31.53q-3.48,51.19-7,102.39" transform="translate(-309.4 -77.57)"/><path class="cls-34" d="M825.18,518.37c1.2,26.82,3.1,33.26,6.18,63.37.76,7.48,1.79,15.25,1.79,15.25,1.13,7.37,1.9,13.13,2.69,17.93,4.85,29.42,7.29,38.45,12.66,45.18a19.17,19.17,0,0,0,7.74,6.27c1.18.48,5.51,2.25,10,.81,6.57-2.13,8-9.46,10.32-8.92,2.08.47,2.27,6.43,2.94,14.62.54,6.7,1.81,13.33,2.22,20,1,16.13,8.9,60.78,17.7,99.58,11,48.56,22.76,84.93,26.82,97.24C933,910.11,939.6,928,949.33,954.21c6.92,18.66,14.25,37.85,23.76,66.2,2.94,8.75,10.65,23.89,6.79,20.71-15.45-12.73-353.17-8.62-367.13,3.29,2.65-13.43,4.23-33,8-58.5,3.61-24.76,4.48-35.94,9.74-78.88,4.49-36.68,4.32-32.33,8-62.67,4.06-33.53,6.6-58,10.32-94,4-38.58,6-57.87,7.74-80.25,2.27-28.91,3.41-43.37,4.14-59.77.32-7.16.73-18,1.93-33,2.38-29.82,3-21.38,3.76-33.79.67-10.52.13-12.83,2.5-15,.84-.77,7.28-7.08,14.23-2.75,29.83,18.57,98.83,7.8,126.83-8.65C818,512.37,825.13,517.43,825.18,518.37Z" transform="translate(-309.4 -77.57)"/><path class="cls-35" d="M811.41,538.11a16,16,0,0,0-1.33,8.59c.24,1.85.64,4.83,2.65,5.65s4.26-.93,4.68-1.25c3.77-2.84,3.51-8.41,3.37-10-.11-1.14-.66-7-3.68-7.48C815.2,533.31,812.85,535.17,811.41,538.11Z" transform="translate(-309.4 -77.57)"/><path class="cls-35" d="M665.65,533a16,16,0,0,0,.61,8.67c.66,1.75,1.71,4.57,3.85,4.92s3.94-1.86,4.28-2.26c3-3.61,1.55-9,1.06-10.48-.36-1.09-2.2-6.64-5.26-6.48C668.26,527.48,666.4,529.82,665.65,533Z" transform="translate(-309.4 -77.57)"/><g id="Vector_Smart_Object" data-name="Vector Smart Object"><g class="cls-36"><g class="cls-36"><path class="cls-37" d="M753.64,587.09a3.59,3.59,0,0,1-2.18,1h-.06c-2,.14-4.27-1.43-6.7-4.67a10,10,0,0,0-6.63-4.23,12.79,12.79,0,0,0-8.11,2.09,13.13,13.13,0,0,0-2.4,4.65,10.39,10.39,0,0,1,6.74-2.19c2.68.21,5.09,1.78,7.17,4.67,1.75,2.79,3.75,4.34,6,4.62,3,.38,5.55-1.71,6.26-2.36h0a11.89,11.89,0,0,0,0-2.53,5.78,5.78,0,0,0-.13-1" transform="translate(-309.4 -77.57)"/><path class="cls-37" d="M738.2,578.37a10.85,10.85,0,0,1,7.23,4.57c2.79,3.71,4.76,4.4,5.91,4.32h0a2.8,2.8,0,0,0,2-1.27,13.25,13.25,0,0,0-14-9.62,13.67,13.67,0,0,0-7.31,2.87,12.25,12.25,0,0,1,6.13-.87" transform="translate(-309.4 -77.57)"/><path class="cls-38" d="M732.81,591c2,0,4,1.45,5.73,4.37,1.63,2.6,3.58,4.09,5.79,4.41a8.47,8.47,0,0,0,5.78-1.6,13,13,0,0,0,3.41-6.27,9.41,9.41,0,0,1-4.79,2,6.74,6.74,0,0,1-1.42,0c-2.45-.31-4.65-2-6.52-5-1.92-2.67-4.13-4.12-6.56-4.32-3.38-.26-6.23,2-7,2.66a12.78,12.78,0,0,0-.13,3.15A12.26,12.26,0,0,0,728,594c.7-1,2.44-3,4.8-3" transform="translate(-309.4 -77.57)"/><path class="cls-38" d="M745.88,600.58a7.87,7.87,0,0,1-1.68-.05c-2.45-.35-4.59-2-6.37-4.78-1.61-2.66-3.3-4-5-4-2.47,0-4.28,2.87-4.42,3.1a13.33,13.33,0,0,0,13.14,7.28,13.55,13.55,0,0,0,5.77-1.81,7.79,7.79,0,0,1-1.43.25" transform="translate(-309.4 -77.57)"/></g></g></g><path class="cls-31" d="M871.56,846.78c-.36,4.31-.32,8.65-.75,13-.67,6.76-1.44,10,.23,11.22.66.47,2.47,1.13,7.46-2.09.46-5.54.75-11.45.79-17.7a229.71,229.71,0,0,0-1.42-27l-5.93-.79A181.1,181.1,0,0,1,871.56,846.78Z" transform="translate(-309.4 -77.57)"/><path class="cls-39" d="M723.13,436.94a33.47,33.47,0,0,0,11.19,2.14,41.2,41.2,0,0,0,11-2,63.69,63.69,0,0,0,10.45-4.36,116,116,0,0,0,10-6.1,35.16,35.16,0,0,1-8.47,8.48,37.88,37.88,0,0,1-10.87,5.41,29.68,29.68,0,0,1-12.2,1.31A21,21,0,0,1,723.13,436.94Z" transform="translate(-309.4 -77.57)"/><path class="cls-39" d="M765.07,909.8a14.23,14.23,0,0,0,1.54,2.88c.31.41.65.81,1,1.19a11.32,11.32,0,0,0,1.09,1.1,2.57,2.57,0,0,0,.91.58,1,1,0,0,0,.64,0,4.19,4.19,0,0,0,1.52-1,7.76,7.76,0,0,0,1.39-1.83,4.94,4.94,0,0,0,.52-2V904.5c0-2.17,0-4.29-.18-6.2A14.34,14.34,0,0,0,772,893a25.4,25.4,0,0,0-8.54-9.06l.11-.34a20.16,20.16,0,0,1,10.8,7.81,15.42,15.42,0,0,1,2.47,6.33,44.71,44.71,0,0,1,.43,6.74l0,3.36a24.15,24.15,0,0,1-.2,3.4,8,8,0,0,1-1.22,3.24,9.1,9.1,0,0,1-2.42,2.45,5.37,5.37,0,0,1-3.32,1.06,3.34,3.34,0,0,1-1.7-.59,5.08,5.08,0,0,1-1.24-1.25,14.41,14.41,0,0,1-1.66-3,11.84,11.84,0,0,1-.74-3.32Z" transform="translate(-309.4 -77.57)"/><path class="cls-39" d="M869.67,846.11c-.36,4.31-.32,8.65-.75,13-.67,6.76-1.45,10,.22,11.22.67.47,2.48,1.13,7.47-2.09.46-5.54.75-11.45.78-17.7a229.71,229.71,0,0,0-1.42-27l-5.93-.78A183.8,183.8,0,0,1,869.67,846.11Z" transform="translate(-309.4 -77.57)"/><path class="cls-39" d="M711.18,866.15c5.62-2.34,9.61-8.13,10.49-9.4a24.12,24.12,0,0,0,2.36-4.09c.86-1.9,4-9.61.86-17.66a19.65,19.65,0,0,0-2.24-4.13l-31.58,31.6C691.87,863,701.94,870,711.18,866.15Z" transform="translate(-309.4 -77.57)"/><path class="cls-31" d="M692.76,838.37c-2.87,3.86-7,9.43-6.36,16.74.15,1.71.58,6.55,4.43,9.91a13.82,13.82,0,0,0,8.27,3.11c10.63,1,18.87-11.09,19.67-12.28,5-7.5,9.14-21,2.88-26.92-4.24-4-11.3-2.73-13.08-2.41C700.49,827.94,695.94,834.09,692.76,838.37Z" transform="translate(-309.4 -77.57)"/><path class="cls-31" d="M800.07,790.15a60.93,60.93,0,0,0-22.38,32.69,68.71,68.71,0,0,0-1.61,8.54,59.85,59.85,0,0,0,.46,16.85l-5.8,6.29c.31-8.41.93-15.47,1.52-20.82A124.34,124.34,0,0,1,774.53,819a73.62,73.62,0,0,1,4.11-13.22,71.37,71.37,0,0,1,7.8-13.46c12.11-15.72,59-26.48,75.65-7.6,5.12,5.79,9.62,16.89,11,20.29a61.65,61.65,0,0,1,4.11,14c.69,4.37,1.45,9.51-.09,15.78a33.47,33.47,0,0,1-5.37,11.52q8-1.72,8-1.8h0a184.92,184.92,0,0,0-10.91-32.22c-6.13-13.78-9.19-20.66-14.31-24.09C838.42,777.37,809.25,783.48,800.07,790.15Z" transform="translate(-309.4 -77.57)"/><path class="cls-40" d="M771.76,837.64c-.61-5.46-1.4-19.56,7.11-33,6.31-10,14.91-15.09,19.65-17.92,4.21-2.51,10.3-6.14,19-7.63a27.72,27.72,0,0,1,7.16-.38c5.79.51,15.45.11,25.15,5.7a43.07,43.07,0,0,1,12,10.54c5.2,6.63,7.29,13.36,8.71,18.09a68.83,68.83,0,0,1,1.89,8c2.48,14,3.51,32.75,3.88,40.68" transform="translate(-309.4 -77.57)"/><path class="cls-31" d="M766.44,928.27a106.63,106.63,0,0,0,29,10.2c28.29,5.46,52-2.25,67.16-7.4A169.88,169.88,0,0,0,888.26,920c-.15-4.22-.38-10.55-.7-18.24-.79-19.09-1.35-26-1.68-37.18-.28-9.06-.52-20.29-.57-33.23a196.71,196.71,0,0,1-29.67,11.85c-10.65,3.29-19.19,5.92-31.13,6.57a97.23,97.23,0,0,1-32.76-3.7,92.75,92.75,0,0,1-28.29-14.15c-.43,12.28-.5,23.09-.42,32,.14,16.31.8,30.45,1.54,41.74C765.21,914.75,765.88,922.46,766.44,928.27Z" transform="translate(-309.4 -77.57)"/><path class="cls-41" d="M795.5,821.09c9.2-.72,16.15-.87,17-.88,10.87-.19,18.62.29,33.66,1.25,10.4.66,14.86,1.12,20.39,2.18,8.4,1.61,17.29,3.32,17.72,6.78.49,3.89-10,8.17-15.57,10.45-7.59,3.1-20.19,7.25-38.73,8.4-8.51.53-23.24,1.32-38.23-3.23-3.59-1.08-7.13-2.64-14.22-5.76-10.57-4.64-12.57-6.34-12.53-8,0-1.26,1.08-2.59,5.15-4.75C779.35,822.59,788.39,821.65,795.5,821.09Z" transform="translate(-309.4 -77.57)"/><path class="cls-31" d="M781.06,900c4.29,9.18.49,22.28-4.18,23-1.1.19-4.65.08-10.65-11.81,0,0-53.39-57.21-57.2-57.58a57.4,57.4,0,0,0-7.87-.24,7.58,7.58,0,0,1-1.62-5.61c.55-3.38,4-6.2,8.44-6.36a174,174,0,0,1,18.63,13.4c8.51,7,9.44,9.23,18.14,15.92,9,6.93,16.54,11.62,16.54,11.62,5.2,3.23,9.66,5.62,14.6,10.86C778.41,895.93,779.88,897.49,781.06,900Z" transform="translate(-309.4 -77.57)"/><path class="cls-31" d="M876.55,715.75c-3.57,0-5.37,5.19-18.64,19.08-3.5,3.67-5.28,5.52-6.65,6.41-6.56,4.26-11.24,2.94-21.16,7.19a71.86,71.86,0,0,0-6.93,3.56,195.14,195.14,0,0,0-20.67,13.87c-1.3,1-2,1.6-2.34,1.88-1.42,1.25-2,2-4.7,4.12-9.62,7.52-16.21,8.53-15.92,10.33.33,2.08,9.4,3.07,17.67.94a35.87,35.87,0,0,0,11.44-5.31,65,65,0,0,0-5.4,7.07c-2.3,3.49-2.53,4.58-2.44,5.6.26,2.63,2.71,4.47,4.43,5.21a8.66,8.66,0,0,0,6.52-.19,12.12,12.12,0,0,0,5-3.44,8.18,8.18,0,0,0,4.58,4.42,6,6,0,0,0,1.25.25,9.85,9.85,0,0,0,6.69-2.22,10.62,10.62,0,0,0,6.25,5.26c5.1,1.45,9.07-2.11,9.4-2.41.15.54,1.31,4.34,4.58,5.48,3.7,1.29,7.11-1.87,8.14-2.82a14.73,14.73,0,0,0,3.55-5.63,46.37,46.37,0,0,0,3.1-17c.11-10.45-1.82-9.45-.88-13.6,2.33-10.38,14.47-16.84,22.18-21,1.69-.9,3.13-1.57,4.15-2C884.43,720.47,879.94,715.8,876.55,715.75Z" transform="translate(-309.4 -77.57)"/><path class="cls-24" d="M879,703.31c6.82-3.6,12.58,5,30.35,8.73,10.12,2.14,14.29.63,16.86,4.35.85,1.24,1.65,3.22-1.63,19-2.55,12.3-3.61,13.88-4.81,15.11-3.81,3.94-9.06,4.15-17.16,4.55-6.28.3-12.86.63-17.28-3.72-1.4-1.38-2.1-2.94-3.5-6.08-3.2-7.14-2.5-9.87-4.91-18-2.63-8.82-4.68-9.67-4.08-14C872.94,712.78,873.94,706,879,703.31Z" transform="translate(-309.4 -77.57)"/><path class="cls-42" d="M768.23,324.78l-46-14.68-35.15,32.27c0,105.59,50.87,99.48,60.11,94.79,3.59-1.79,40.75-10.2,43.32-94.79" transform="translate(-309.4 -77.57)"/><path class="cls-24" d="M735.26,289.62c-60.88,12.53-57,79.53-54,77.41,2.64-1.85,3.76-5.38,4.38-8.59.54-2.8.39-5.69.87-8.5s1.77-5.71,4.26-7a29.58,29.58,0,0,0,.94,9.55l14-.91a3.31,3.31,0,0,0,1.42-.32c.91-.54,1.09-1.78,1.18-2.84a88.52,88.52,0,0,1,13.39-39.53h0c-3.65,10.2-4.66,21.93-4.45,32.79a4.06,4.06,0,0,0,.67,2.62,4,4,0,0,0,2.76,1,265.36,265.36,0,0,0,31.9.86,4.51,4.51,0,0,0,3.13-.91c1-1,.93-2.58,1.12-4s2-9.59,3.35-9.32c-1.34,2.84.36,12.78,3.29,13.78s1.69.43,8,.74c.79,0,1.74-10,2.68-3.06.25,1.8,1.5,5.74,1.63,6.73.92,7,12.23,24.6,13.6,17.27,13.2-70.57-55-78.1-54.08-77.79" transform="translate(-309.4 -77.57)"/><path class="cls-23" d="M808.87,459.06c-12.41,32.09-12.62,67.42-12.66,101.83a162,162,0,0,0,30.59.52c-.87-26.09-1.71-52.54,4.18-78,1.79-7.69,4.79-16,11.79-19.68-9.73-7.44-23.06-10.39-33.9-4.69" transform="translate(-309.4 -77.57)"/><path class="cls-43" d="M806.46,458.37c-9.73,25.28-12,52.62-12.57,79.47-.16,7.68-.17,15.36-.18,23a2.55,2.55,0,0,0,2.5,2.5,163.69,163.69,0,0,0,30.59.52,2.54,2.54,0,0,0,2.5-2.5c-.47-14.11-.94-28.24-.33-42.36.3-7,.83-13.92,1.81-20.82a119.64,119.64,0,0,1,3.89-18.81c1.65-5.32,4.27-10.69,9.36-13.43,1.82-1,1.4-3.26,0-4.32-10.32-7.81-24.57-10.8-36.42-4.69-2.86,1.47-.33,5.79,2.52,4.32,10.31-5.32,22.56-2,31.38,4.69v-4.32c-10.9,5.86-13.17,20.51-15,31.53a253.92,253.92,0,0,0-2.85,43.73c.07,8.19.33,16.38.61,24.56l2.5-2.5a163.69,163.69,0,0,1-30.59-.52l2.5,2.5c0-26.65.06-53.67,6.07-79.78a159.76,159.76,0,0,1,6.5-21.39,2.51,2.51,0,0,0-1.74-3.07,2.56,2.56,0,0,0-3.08,1.74Z" transform="translate(-309.4 -77.57)"/><path class="cls-43" d="M783.94,559.56c-23.26.56-46.45,2.8-69.73,3.1-6.41.08-12.82,0-19.23-.31a2.51,2.51,0,0,0-2.5,2.5c.48,10.59,4.36,21.11,9.69,30.2,5.1,8.7,12.64,15.89,22.3,19.23A43.56,43.56,0,0,0,741,616.19a51,51,0,0,0,17.28-4.12,47.1,47.1,0,0,0,13.5-8.39,39.24,39.24,0,0,0,8.07-10.77c4.87-9.45,6.56-20.3,6.61-30.85,0-3.22-5-3.22-5,0,0,8.6-1.2,17.37-4.53,25.35a37.27,37.27,0,0,1-6.23,10.21,36.59,36.59,0,0,1-10.7,8.11c-9.28,4.91-20.53,7-30.88,4.68-8.67-2-16.14-7.85-21-15.21-5.81-8.88-10.18-19.67-10.66-30.35l-2.5,2.5c23.25,1.17,46.52-.79,69.72-2,6.41-.33,12.82-.62,19.24-.78,3.21-.07,3.23-5.08,0-5Z" transform="translate(-309.4 -77.57)"/><path class="cls-23" d="M711.52,463.88c-7.54-2.94-19.87,2.47-28.4,2.74-18.45,30.68-17.6,58.53-16.57,92a114.44,114.44,0,0,1,25-3.11c-1-6.94-.88-17.67-.55-28,.54-16.35,4.64-32.46,9.76-48.33,1.79-5.56,5-11.92,11.9-13.58" transform="translate(-309.4 -77.57)"/><path class="cls-43" d="M712.19,461.47c-3.47-1.29-7.29-1.06-10.88-.57-3.91.54-7.74,1.51-11.6,2.3a49.37,49.37,0,0,1-5.13.83c-1.12.1-2.37,0-3.23.82a15.87,15.87,0,0,0-2,3.3,121.26,121.26,0,0,0-6,12.22c-6.58,15.56-9.15,32.2-9.61,49-.27,9.75,0,19.49.35,29.23a2.53,2.53,0,0,0,2.57,2.49,2.33,2.33,0,0,0,.59-.08,112.39,112.39,0,0,1,24.37-3,2.55,2.55,0,0,0,2.49-2.61,2.61,2.61,0,0,0-.08-.56,111.47,111.47,0,0,1-.69-17.33,189.16,189.16,0,0,1,1-20.19,158.37,158.37,0,0,1,3.77-19.79,196.21,196.21,0,0,1,5.59-19.16c1.7-4.68,4.57-9.07,9.66-10.36,3.11-.79,1.79-5.61-1.33-4.82-5.39,1.36-9.31,5.37-11.66,10.27a62.74,62.74,0,0,0-3,8.3c-1.06,3.39-2.07,6.79-3,10.22a176.84,176.84,0,0,0-4.48,21.11,173,173,0,0,0-1.53,21.57c-.13,7.16-.2,14.39.83,21.49L691.6,553a118.93,118.93,0,0,0-25.69,3.2l3.16,2.41c-.74-24-1.47-48.34,6.85-71.24a112.73,112.73,0,0,1,9.38-19.49l-2.16,1.24c5-.2,9.82-1.56,14.67-2.55,4.24-.87,9-1.82,13.07-.28a2.5,2.5,0,0,0,1.33-4.82Z" transform="translate(-309.4 -77.57)"/><ellipse class="cls-44" cx="502.25" cy="467.22" rx="6.37" ry="7.78"/><ellipse class="cls-44" cx="368.55" cy="464.66" rx="6.37" ry="7.78"/><path class="cls-31" d="M648.68,727.1c-13.64,4.7-22.61,19-23.42,33.4a21.08,21.08,0,0,0,1.21,9.31,26.74,26.74,0,0,0,4.66,6.78c3,3.53,6.17,7.06,10.14,9.48s9,3.59,13.34,2.07,4.31-3,4.69-8.35a41,41,0,0,1,1.37-7.85c.4-1.11,1.39-1.89,2-2.92,1.39-2.53-.08-5.71.47-8.55.74-3.74,4.83-6.17,5.43-9.94.77-4.83-4.35-8.35-6.5-12.74-1.45-3-1.53-6.38-1.54-9.67s0-6.7-1.35-9.71-4.37-5.54-7.64-5.15c-4.13.48-6.43,5-7.44,9s-1.73,8.59-5,11.12" transform="translate(-309.4 -77.57)"/><path class="cls-31" d="M648,724.69c-13.16,4.63-22.3,17.13-24.65,30.66a34.22,34.22,0,0,0-.23,11.9c.77,4.22,3.22,7.58,6,10.78,5.28,6.2,11.36,12.41,19.92,13.22a14.52,14.52,0,0,0,9.66-2.34c2.28-1.69,2.75-4.21,3-6.9a46.89,46.89,0,0,1,1.19-8.58c.41-1.53,1.87-2.67,2.46-4.27a13.26,13.26,0,0,0,.26-5.71,6.53,6.53,0,0,1,.7-4.18c.81-1.37,1.89-2.57,2.8-3.87a9.75,9.75,0,0,0,1.1-9.92c-1.33-3-3.83-5.24-5.47-8.05-1.93-3.29-1.65-7.22-1.7-10.89-.06-4.24-.58-8.54-3.31-11.95-2.33-2.92-6.27-4.66-10-3.5-3.3,1-5.51,3.89-6.84,7s-1.69,6.77-3,10a8.55,8.55,0,0,1-2.59,3.55,2.52,2.52,0,0,0,0,3.54,2.56,2.56,0,0,0,3.53,0c2.6-2.09,3.89-5.28,4.73-8.41.75-2.79,1.17-5.69,2.68-8.2,1.17-2,3.15-3.54,5.49-2.49,3,1.34,3.94,4.82,4.17,7.77.29,3.74-.07,7.48.64,11.18.67,3.49,2.59,6.17,4.71,8.92,1.37,1.77,3.23,4,2.84,6.26-.46,2.67-3.15,4.67-4.37,7a10.27,10.27,0,0,0-1.22,4.86c0,1.59.49,3.27.26,4.86s-1.76,2.63-2.35,4.06a18.73,18.73,0,0,0-.94,3.84c-.45,2.63-.56,5.73-.89,8.12a3.54,3.54,0,0,0-.09.52c0,.12-.11.42-.16.63-.11.46,0,.06,0,.15s-.39.59-.07.21c-.13.14-.27.28-.41.41.31-.29,0,0-.18.12a6.22,6.22,0,0,1-1.35.65c-6.78,2.46-13.2-2-17.71-6.73a47.79,47.79,0,0,1-6.93-8.41c-1.86-3.16-2.06-6.76-1.83-10.34.77-11.64,7.32-23.34,17.74-28.95a26.51,26.51,0,0,1,3.82-1.68,2.57,2.57,0,0,0,1.75-3.08,2.53,2.53,0,0,0-3.08-1.74Z" transform="translate(-309.4 -77.57)"/><path class="cls-39" d="M720,407.15a3.24,3.24,0,0,0,3.56.57,13.51,13.51,0,0,0,3.17-2.12c1.57-1.21,3.51-2.24,5.47-1.88,1.56.29,3,1.44,4.58,1.07s2.4-1.25,3.89-1.53a4.48,4.48,0,0,1,3.83,1,14,14,0,0,0,4.42,2.68,6.39,6.39,0,0,0,5-.25c-1.71,2.76-5.54,3-8.78,3l-13.57-.08a25.71,25.71,0,0,1-9.39-1.65" transform="translate(-309.4 -77.57)"/><path class="cls-39" d="M719.16,408c2.55,2.47,5.7.62,8-1.16,1.46-1.14,3.21-2.31,5.14-1.86,1.54.35,2.83,1.28,4.47,1s2.76-1.35,4.28-1.59c1.79-.28,2.91,1,4.24,1.94,2.76,2,6.18,2.93,9.35,1.37l-1.7-1.67c-1.18,1.78-3.47,2.21-5.46,2.35-2.75.18-5.54,0-8.3,0-3,0-5.91,0-8.86-.07a26.47,26.47,0,0,1-7.71-1.58c-1.52-.53-2.18,1.88-.67,2.41,6.08,2.11,12.35,1.72,18.69,1.75,4.74,0,11.41,1,14.47-3.62.75-1.11-.67-2.22-1.71-1.71-3.22,1.59-6-1-8.51-2.67a5.75,5.75,0,0,0-3.77-1,13.38,13.38,0,0,0-3.87,1.44c-1.55.62-2.8-.37-4.28-.75a6.69,6.69,0,0,0-4.23.39,16.92,16.92,0,0,0-3.73,2.42c-1.06.81-2.84,2.06-4.07.86a1.25,1.25,0,0,0-1.77,1.77Z" transform="translate(-309.4 -77.57)"/><path class="cls-39" d="M751.54,408.37a47.7,47.7,0,0,1-6.78,5.76,15.85,15.85,0,0,1-8.32,2.83c-5.65.07-10.58-3.85-14.18-8.2" transform="translate(-309.4 -77.57)"/><path class="cls-39" d="M750.66,407.49c-4,3.85-8.66,8.34-14.62,8.23-5.31-.1-9.68-4-12.9-7.84-1-1.23-2.79.54-1.77,1.77,3.67,4.39,8.68,8.45,14.67,8.57,6.67.13,11.9-4.64,16.39-9,1.16-1.12-.61-2.88-1.77-1.77Z" transform="translate(-309.4 -77.57)"/><path class="cls-45" d="M518.13,619.46" transform="translate(-309.4 -77.57)"/></svg>