<svg xmlns="http://www.w3.org/2000/svg" xmlns:xlink="http://www.w3.org/1999/xlink" viewBox="0 0 579.79 203.52"><defs><style>.cls-1{fill:url(#linear-gradient);}.cls-2{fill:url(#linear-gradient-2);}</style><linearGradient id="linear-gradient" x1="289.89" y1="54.68" x2="289.89" y2="194.09" gradientUnits="userSpaceOnUse"><stop offset="0" stop-color="#35a05d"/><stop offset="1" stop-color="#297444"/></linearGradient><linearGradient id="linear-gradient-2" x1="289.86" y1="70.77" x2="289.86" gradientUnits="userSpaceOnUse"><stop offset="0" stop-color="#c9e4c0"/><stop offset="1" stop-color="#fff"/></linearGradient></defs><g id="Layer_2" data-name="Layer 2"><g id="Layer_1-2" data-name="Layer 1"><path class="cls-1" d="M579.77,105.24q0,48.95,0,97.9c-192,.83-385.23,0-577.64.28-1.15.1-2.62.32-2-1.27V105.24c38.23,2.05,77.49,3.17,115.57-3,20.07-3.11,40.21-7.31,60.69-7.17a166.92,166.92,0,0,1,37.93,5.14c16,3.33,30.11,11,46.86,10.33,16.58-.58,31.86-6.24,47-11.73,30.78-12.63,65.15.41,97.25-.46,30.14,1,59-6.92,88.78-9,20.36-.28,38.49,6.41,57.79,11C560.84,103.1,571,102.58,579.77,105.24Z"/><path class="cls-2" d="M.68,62.23v-45c37,3.25,74.28,16.43,112,13.2,20.2-2.61,38.56-11.79,59.3-11.14,11.62.27,23.1,2.08,34.52,3.89C254,32.06,294.09-.18,341.08.34c29.24-2.46,55.23,9.18,83.27,14.54,27.54,3.84,52.76-7.86,80-9.42,25.41-.47,50.4,5.88,74.67,11.79V62c-29-3.67-57.11-15.19-87.21-13.61-32.66,1.24-65.93,13.31-98.34,4.16C354.12,41.21,328,22.28,287.2,45c-20.9,11.74-38.65,26.55-64.59,25.71-24.51.73-44.77-9.44-68.69-11.7C102.75,51.45,51.55,75.44.68,62.23Z"/></g></g></svg>