<?xml version="1.0" encoding="utf-8"?>
<!-- Generator: Adobe Illustrator 24.1.1, SVG Export Plug-In . SVG Version: 6.00 Build 0)  -->
<svg version="1.1" id="Layer_1" xmlns="http://www.w3.org/2000/svg" xmlns:xlink="http://www.w3.org/1999/xlink" x="0px" y="0px"
	 viewBox="0 0 288 108" style="enable-background:new 0 0 288 108;" xml:space="preserve">
<style type="text/css">
	.st0{fill:none;}
	.st1{fill:#E9E9E9;}
	.st2{fill:#9D9D9D;}
	.st3{fill:#B7B7B7;}
	.st4{clip-path:url(#SVGID_2_);}
	.st5{clip-path:url(#SVGID_4_);}
	.st6{fill:#C8E1BC;}
	.st7{fill:#13AC4A;}
	.st8{clip-path:url(#SVGID_6_);}
	.st9{clip-path:url(#SVGID_8_);}
	.st10{clip-path:url(#SVGID_10_);}
	.st11{clip-path:url(#SVGID_12_);}
</style>
<g id="gray_-_bottom_extra">
	<rect x="20" y="18" class="st0" width="72" height="72"/>
	<rect x="20" y="18" class="st0" width="72" height="72"/>
	<path class="st1" d="M91.9,51.1c-1.7,1.5-3.8,2.3-6.1,2.3h-0.2c-5.4-0.1-11.1-5-16.9-14.5c-4.4-7.3-10.1-11.7-16.9-13.3
		c-10-2.3-19.6,2.4-22.2,3.9c-3.3,3.6-5.9,7.8-7.5,12.3c3.8-2.4,10.8-5.8,18.6-4.5C47.8,38.6,54,43.5,58.9,52
		C63,60.1,68,64.9,73.8,66.2c8,1.8,15.3-3.4,17.4-5.1l0.1-0.1c0.5-2.3,0.7-4.7,0.7-7C92,53,92,52,91.9,51.1"/>
	<path class="st1" d="M52.4,23.3C59.8,25,66,29.8,70.8,37.6C77.4,48.6,82.6,50.9,85.7,51h0.1c2.3-0.1,4.4-1.2,5.7-3
		C88.2,28.4,69.6,15.2,50,18.5c-5.1,0.9-10,2.8-14.3,5.7C41.1,22.4,46.8,22.1,52.4,23.3"/>
	<path class="st2" d="M35.1,57c5.4,0.4,10.3,5,14.4,13.5C53.3,78,58.2,82.6,64,84c6.9,1.6,13.3-1.5,15.9-3.1
		c5-4.4,8.7-10.2,10.6-16.6c-2.9,1.9-7.8,4.4-13.3,4.4c-1.3,0-2.6-0.1-3.8-0.4C66.8,66.9,61.3,61.7,57,53
		c-4.6-7.8-10.2-12.4-16.7-13.5c-9-1.5-17.2,4.2-19.3,5.8c-1.6,6.3-1.4,12.8,0.4,19C23.6,61.8,28.7,56.5,35.1,57"/>
	<path class="st2" d="M68,86.7c-1.5,0-3-0.2-4.5-0.5c-6.5-1.6-11.9-6.5-16-14.7c-3.7-7.8-8-11.9-12.6-12.2
		c-6.6-0.5-12.1,6.9-12.6,7.6c7,18.6,27.8,28,46.4,20.9c1.1-0.4,2.1-0.9,3.1-1.4C70.6,86.5,69.3,86.7,68,86.7"/>
	<rect x="108" y="18" class="st0" width="72" height="72"/>
	<rect x="108" y="18" class="st0" width="72" height="72"/>
	<path class="st1" d="M179.9,51.1c-1.7,1.5-3.8,2.3-6.1,2.3h-0.2c-5.4-0.1-11.1-5-16.9-14.5c-4.4-7.3-10.1-11.7-16.9-13.3
		c-10-2.3-19.6,2.4-22.2,3.9c-3.3,3.6-5.9,7.8-7.5,12.3c3.8-2.4,10.8-5.8,18.6-4.5c7.2,1.2,13.3,6.1,18.2,14.6
		c4.1,8.1,9.1,12.9,14.9,14.2c8,1.8,15.3-3.4,17.4-5.1l0.1-0.1c0.5-2.3,0.7-4.6,0.7-7C180,53,179.9,52,179.9,51.1"/>
	<path class="st1" d="M140.4,23.3c7.4,1.8,13.6,6.5,18.4,14.4c6.6,10.9,11.8,13.3,14.9,13.4h0.1c2.3-0.1,4.4-1.2,5.7-3
		c-3.3-19.6-21.9-32.8-41.5-29.4c-5.1,0.9-9.9,2.8-14.2,5.7C129.1,22.5,134.8,22.1,140.4,23.3"/>
	<path class="st3" d="M123.1,57c5.4,0.4,10.3,5,14.4,13.5c3.8,7.5,8.7,12.2,14.5,13.5c6.9,1.6,13.3-1.5,15.9-3.1
		c5-4.4,8.7-10.2,10.6-16.6c-2.9,1.9-7.8,4.4-13.3,4.4c-1.3,0-2.6-0.1-3.8-0.4c-6.5-1.4-12.1-6.6-16.4-15.3
		c-4.6-7.8-10.2-12.4-16.6-13.5c-9-1.5-17.2,4.2-19.3,5.8c-1.6,6.3-1.4,12.8,0.4,19C111.6,61.7,116.8,56.5,123.1,57"/>
	<path class="st3" d="M156,86.7c-1.5,0-3-0.2-4.5-0.5c-6.5-1.6-11.9-6.5-16-14.7c-3.7-7.8-8-11.9-12.6-12.2
		c-6.6-0.5-12.1,6.9-12.6,7.6c7,18.6,27.8,28,46.4,20.9c1.1-0.4,2.1-0.9,3.1-1.4C158.6,86.5,157.3,86.7,156,86.7"/>
	<rect x="197" y="18" class="st0" width="72" height="72"/>
	<rect x="197" y="18" class="st0" width="72" height="72"/>
	<path class="st1" d="M268.9,51.1c-1.7,1.5-3.8,2.3-6.1,2.3h-0.2c-5.4-0.1-11.1-5-16.9-14.5c-4.4-7.3-10.1-11.7-16.9-13.3
		c-10-2.3-19.6,2.4-22.2,3.9c-3.3,3.6-5.9,7.8-7.5,12.3c3.8-2.4,10.8-5.8,18.6-4.5c7.1,1.2,13.3,6.1,18.2,14.6
		c4.1,8.1,9.1,12.9,14.9,14.2c8,1.8,15.3-3.4,17.4-5.1l0.1-0.1c0.5-2.3,0.7-4.6,0.7-7C269,53,269,52,268.9,51.1"/>
	<path class="st1" d="M229.4,23.3c7.4,1.8,13.6,6.5,18.4,14.4c6.6,10.9,11.8,13.3,14.9,13.4h0.1c2.3-0.1,4.4-1.2,5.7-3
		c-3.3-19.6-21.9-32.8-41.5-29.4c-5.1,0.9-9.9,2.8-14.2,5.7C218.1,22.5,223.8,22.1,229.4,23.3"/>
	<path class="st3" d="M212.1,57c5.4,0.4,10.3,5,14.4,13.5c3.8,7.5,8.7,12.2,14.5,13.5c6.9,1.6,13.3-1.5,15.9-3.1
		c5-4.4,8.7-10.2,10.6-16.6c-2.9,1.9-7.8,4.4-13.3,4.4c-1.3,0-2.6-0.1-3.8-0.4c-6.5-1.4-12.1-6.6-16.4-15.3
		c-4.6-7.8-10.2-12.4-16.6-13.5c-9-1.5-17.2,4.2-19.3,5.8c-1.6,6.3-1.4,12.8,0.4,19C200.6,61.7,205.8,56.5,212.1,57"/>
	<path class="st3" d="M245,86.7c-1.5,0-3-0.2-4.5-0.5c-6.5-1.6-11.9-6.5-16-14.7c-3.7-7.8-8-11.9-12.6-12.2
		c-6.6-0.5-12.1,6.9-12.6,7.6c7,18.6,27.8,28,46.4,20.9c1.1-0.4,2.1-0.9,3.1-1.4C247.6,86.5,246.3,86.7,245,86.7"/>
</g>
<g id="_3">
	<g id="color">
		<g>
			<defs>
				<rect id="SVGID_1_" x="20" y="18" width="72" height="72"/>
			</defs>
			<clipPath id="SVGID_2_">
				<use xlink:href="#SVGID_1_"  style="overflow:visible;"/>
			</clipPath>
			<g class="st4">
				<g id="Artwork_2">
					<g>
						<defs>
							<rect id="SVGID_3_" x="20" y="18" width="72" height="72"/>
						</defs>
						<clipPath id="SVGID_4_">
							<use xlink:href="#SVGID_3_"  style="overflow:visible;"/>
						</clipPath>
						<g class="st5">
							<path class="st6" d="M91.9,51.1c-1.7,1.5-3.8,2.3-6.1,2.3h-0.2c-5.4-0.1-11.1-5-16.9-14.5c-4.4-7.3-10.1-11.7-16.9-13.3
								c-10-2.3-19.6,2.4-22.2,3.9c-3.3,3.6-5.9,7.8-7.5,12.3c3.8-2.4,10.8-5.8,18.6-4.5C47.8,38.6,54,43.5,58.9,52
								C63,60.1,68,64.9,73.8,66.2c8,1.8,15.3-3.4,17.4-5.1l0.1-0.1c0.5-2.3,0.7-4.7,0.7-7C92,53,92,52,91.9,51.1"/>
							<path class="st6" d="M52.4,23.3C59.8,25,66,29.8,70.8,37.6C77.4,48.6,82.6,50.9,85.7,51h0.1c2.3-0.1,4.4-1.2,5.7-3
								C88.2,28.4,69.6,15.2,50,18.5c-5.1,0.9-10,2.8-14.3,5.7C41.1,22.4,46.8,22.1,52.4,23.3"/>
							<path class="st7" d="M35.1,57c5.4,0.4,10.3,5,14.4,13.5C53.3,78,58.2,82.6,64,84c6.9,1.6,13.3-1.5,15.9-3.1
								c5-4.4,8.7-10.2,10.6-16.6c-2.9,1.9-7.8,4.4-13.3,4.4c-1.3,0-2.6-0.1-3.8-0.4C66.8,66.9,61.3,61.7,57,53
								c-4.6-7.8-10.2-12.4-16.7-13.5c-9-1.5-17.2,4.2-19.3,5.8c-1.6,6.3-1.4,12.8,0.4,19C23.6,61.8,28.7,56.5,35.1,57"/>
							<path class="st7" d="M68,86.7c-1.5,0-3-0.2-4.5-0.5c-6.5-1.6-11.9-6.5-16-14.7c-3.7-7.8-8-11.9-12.6-12.2
								c-6.6-0.5-12.1,6.9-12.6,7.6c7,18.6,27.8,28,46.4,20.9c1.1-0.4,2.1-0.9,3.1-1.4C70.6,86.5,69.3,86.7,68,86.7"/>
						</g>
					</g>
				</g>
			</g>
		</g>
	</g>
	<g id="color-2">
		<g>
			<defs>
				<rect id="SVGID_5_" x="108" y="18" width="72" height="72"/>
			</defs>
			<clipPath id="SVGID_6_">
				<use xlink:href="#SVGID_5_"  style="overflow:visible;"/>
			</clipPath>
			<g class="st8">
				<g id="Artwork_2-2">
					<g>
						<defs>
							<rect id="SVGID_7_" x="108" y="18" width="72" height="72"/>
						</defs>
						<clipPath id="SVGID_8_">
							<use xlink:href="#SVGID_7_"  style="overflow:visible;"/>
						</clipPath>
						<g class="st9">
							<path class="st6" d="M179.9,51.1c-1.7,1.5-3.8,2.3-6.1,2.3h-0.2c-5.4-0.1-11.1-5-16.9-14.5c-4.4-7.3-10.1-11.7-16.9-13.3
								c-10-2.3-19.6,2.4-22.2,3.9c-3.3,3.6-5.9,7.8-7.5,12.3c3.8-2.4,10.8-5.8,18.6-4.5c7.2,1.2,13.3,6.1,18.2,14.6
								c4.1,8.1,9.1,12.9,14.9,14.2c8,1.8,15.3-3.4,17.4-5.1l0.1-0.1c0.5-2.3,0.7-4.6,0.7-7C180,53,179.9,52,179.9,51.1"/>
							<path class="st6" d="M140.4,23.3c7.4,1.8,13.6,6.5,18.4,14.4c6.6,10.9,11.8,13.3,14.9,13.4h0.1c2.3-0.1,4.4-1.2,5.7-3
								c-3.3-19.6-21.9-32.8-41.5-29.4c-5.1,0.9-9.9,2.8-14.2,5.7C129.1,22.5,134.8,22.1,140.4,23.3"/>
							<path class="st7" d="M123.1,57c5.4,0.4,10.3,5,14.4,13.5c3.8,7.5,8.7,12.2,14.5,13.5c6.9,1.6,13.3-1.5,15.9-3.1
								c5-4.4,8.7-10.2,10.6-16.6c-2.9,1.9-7.8,4.4-13.3,4.4c-1.3,0-2.6-0.1-3.8-0.4c-6.5-1.4-12.1-6.6-16.4-15.3
								c-4.6-7.8-10.2-12.4-16.6-13.5c-9-1.5-17.2,4.2-19.3,5.8c-1.6,6.3-1.4,12.8,0.4,19C111.6,61.7,116.8,56.5,123.1,57"/>
							<path class="st7" d="M156,86.7c-1.5,0-3-0.2-4.5-0.5c-6.5-1.6-11.9-6.5-16-14.7c-3.7-7.8-8-11.9-12.6-12.2
								c-6.6-0.5-12.1,6.9-12.6,7.6c7,18.6,27.8,28,46.4,20.9c1.1-0.4,2.1-0.9,3.1-1.4C158.6,86.5,157.3,86.7,156,86.7"/>
						</g>
					</g>
				</g>
			</g>
		</g>
	</g>
	<g id="color-3">
		<g>
			<defs>
				<rect id="SVGID_9_" x="197" y="18" width="72" height="72"/>
			</defs>
			<clipPath id="SVGID_10_">
				<use xlink:href="#SVGID_9_"  style="overflow:visible;"/>
			</clipPath>
			<g class="st10">
				<g id="Artwork_2-3">
					<g>
						<defs>
							<rect id="SVGID_11_" x="197" y="18" width="72" height="72"/>
						</defs>
						<clipPath id="SVGID_12_">
							<use xlink:href="#SVGID_11_"  style="overflow:visible;"/>
						</clipPath>
						<g class="st11">
							<path class="st6" d="M268.9,51.1c-1.7,1.5-3.8,2.3-6.1,2.3h-0.2c-5.4-0.1-11.1-5-16.9-14.5c-4.4-7.3-10.1-11.7-16.9-13.3
								c-10-2.3-19.6,2.4-22.2,3.9c-3.3,3.6-5.9,7.8-7.5,12.3c3.8-2.4,10.8-5.8,18.6-4.5c7.1,1.2,13.3,6.1,18.2,14.6
								c4.1,8.1,9.1,12.9,14.9,14.2c8,1.8,15.3-3.4,17.4-5.1l0.1-0.1c0.5-2.3,0.7-4.6,0.7-7C269,53,269,52,268.9,51.1"/>
							<path class="st6" d="M229.4,23.3c7.4,1.8,13.6,6.5,18.4,14.4c6.6,10.9,11.8,13.3,14.9,13.4h0.1c2.3-0.1,4.4-1.2,5.7-3
								c-3.3-19.6-21.9-32.8-41.5-29.4c-5.1,0.9-9.9,2.8-14.2,5.7C218.1,22.5,223.8,22.1,229.4,23.3"/>
							<path class="st7" d="M212.1,57c5.4,0.4,10.3,5,14.4,13.5c3.8,7.5,8.7,12.2,14.5,13.5c6.9,1.6,13.3-1.5,15.9-3.1
								c5-4.4,8.7-10.2,10.6-16.6c-2.9,1.9-7.8,4.4-13.3,4.4c-1.3,0-2.6-0.1-3.8-0.4c-6.5-1.4-12.1-6.6-16.4-15.3
								c-4.6-7.8-10.2-12.4-16.6-13.5c-9-1.5-17.2,4.2-19.3,5.8c-1.6,6.3-1.4,12.8,0.4,19C200.6,61.7,205.8,56.5,212.1,57"/>
							<path class="st7" d="M245,86.7c-1.5,0-3-0.2-4.5-0.5c-6.5-1.6-11.9-6.5-16-14.7c-3.7-7.8-8-11.9-12.6-12.2
								c-6.6-0.5-12.1,6.9-12.6,7.6c7,18.6,27.8,28,46.4,20.9c1.1-0.4,2.1-0.9,3.1-1.4C247.6,86.5,246.3,86.7,245,86.7"/>
						</g>
					</g>
				</g>
			</g>
		</g>
	</g>
</g>
</svg>
